<?xml version="1.0" encoding="UTF-8"?>
<svg xmlns="http://www.w3.org/2000/svg" version="1.1" viewBox="0 0 21.6 21.6">
  <defs>
    <style>
      .cls-1 {
        fill: #17b08a;
      }
    </style>
  </defs>
  <!-- Generator: Adobe Illustrator 28.7.5, SVG Export Plug-In . SVG Version: 1.2.0 Build 176)  -->
  <g>
    <g id="Layer_1">
      <g>
        <path class="cls-1" d="M10.8.49C5.12.49.49,5.12.49,10.8s4.62,10.31,10.3,10.31,10.3-4.62,10.3-10.31S16.48.49,10.8.49M10.8,21.6C4.85,21.6,0,16.75,0,10.8S4.85,0,10.8,0s10.8,4.85,10.8,10.8-4.85,10.8-10.8,10.8"/>
        <path class="cls-1" d="M8.22,15.46s-.08-.01-.11-.04c-1.08-.74-1.8-1.86-2.04-3.14-.02-.11.05-.21.16-.23.11-.02.21.05.23.16.22,1.18.88,2.2,1.88,2.89.09.06.11.19.05.28-.04.06-.1.09-.16.09"/>
        <path class="cls-1" d="M13.58,15.46c-.06,0-.12-.03-.16-.09-.06-.09-.04-.22.05-.28.98-.68,1.67-1.74,1.88-2.91.02-.11.12-.18.23-.16.11.02.18.12.16.23-.23,1.27-.98,2.42-2.04,3.16-.03.02-.07.04-.11.04"/>
        <path class="cls-1" d="M13.96,7.98s-.09-.02-.13-.05c-.82-.69-1.86-1.08-2.93-1.08-.98,0-1.92.31-2.7.89-.09.07-.21.05-.28-.04-.07-.09-.05-.21.04-.28.85-.64,1.87-.97,2.94-.97,1.17,0,2.3.42,3.19,1.17.08.07.09.2.02.28-.04.05-.1.07-.15.07"/>
        <path class="cls-1" d="M10.9,11.65c-.6,0-1.08.49-1.08,1.08s.48,1.08,1.08,1.08,1.08-.49,1.08-1.08-.48-1.08-1.08-1.08M10.9,14.21c-.82,0-1.48-.66-1.48-1.48s.66-1.48,1.48-1.48,1.48.66,1.48,1.48-.66,1.48-1.48,1.48"/>
        <path class="cls-1" d="M10.98,17.63s-.05,0-.08,0c-.03,0-.05,0-.08,0-1.36,0-2.06-.62-2.09-.64-.05-.05-.08-.12-.06-.18,0-.06.24-1.39.41-1.97.2-.68,1.01-.85,1.05-.86.11-.02.21.05.24.15.02.11-.05.21-.15.24-.01,0-.62.14-.75.58-.13.46-.32,1.46-.38,1.8.21.14.79.48,1.74.48.02,0,.03,0,.04,0,.02,0,.04,0,.05,0,.03,0,.04,0,.06,0,.94,0,1.53-.33,1.74-.48-.06-.35-.24-1.35-.38-1.8-.13-.44-.74-.58-.75-.58-.11-.02-.18-.13-.15-.24.02-.11.13-.18.24-.15.04,0,.85.18,1.05.86.17.57.4,1.91.41,1.97.01.07-.01.14-.06.18-.03.03-.73.64-2.09.64"/>
        <path class="cls-1" d="M10.9,11.65c-.6,0-1.08.49-1.08,1.08s.48,1.08,1.08,1.08,1.08-.49,1.08-1.08-.48-1.08-1.08-1.08M10.9,14.21c-.82,0-1.48-.66-1.48-1.48s.66-1.48,1.48-1.48,1.48.66,1.48,1.48-.66,1.48-1.48,1.48"/>
        <path class="cls-1" d="M10.98,17.63s-.05,0-.08,0c-.03,0-.05,0-.08,0-1.36,0-2.06-.62-2.09-.64-.05-.05-.08-.12-.06-.18,0-.06.24-1.39.41-1.97.2-.68,1.01-.85,1.05-.86.11-.02.21.05.24.15.02.11-.05.21-.15.24-.01,0-.62.14-.75.58-.13.46-.32,1.46-.38,1.8.21.14.79.48,1.74.48.02,0,.03,0,.04,0,.02,0,.04,0,.05,0,.03,0,.04,0,.06,0,.94,0,1.53-.33,1.74-.48-.06-.35-.24-1.35-.38-1.8-.13-.44-.74-.58-.75-.58-.11-.02-.18-.13-.15-.24.02-.11.13-.18.24-.15.04,0,.85.18,1.05.86.17.57.4,1.91.41,1.97.01.07-.01.14-.06.18-.03.03-.73.64-2.09.64"/>
        <path class="cls-1" d="M9.8,17.46s-.03,0-.05,0c-.11-.03-.17-.13-.15-.24,0,0,.21-.9.07-1.47-.03-.11.04-.22.14-.24.11-.03.21.04.24.15.16.66-.05,1.61-.07,1.65-.02.09-.1.15-.19.15"/>
        <path class="cls-1" d="M12.01,17.46c-.09,0-.17-.06-.19-.15-.01-.04-.23-1-.07-1.65.03-.11.14-.17.24-.15.11.03.17.14.14.24-.14.56.07,1.46.07,1.47.02.11-.04.22-.15.24-.02,0-.03,0-.05,0"/>
        <path class="cls-1" d="M5.8,5.53c-.6,0-1.08.49-1.08,1.08s.48,1.08,1.08,1.08,1.08-.49,1.08-1.08-.48-1.08-1.08-1.08M5.8,8.09c-.82,0-1.48-.66-1.48-1.48s.66-1.48,1.48-1.48,1.48.66,1.48,1.48-.66,1.48-1.48,1.48"/>
        <path class="cls-1" d="M5.88,11.51s-.05,0-.08,0c-.03,0-.05,0-.08,0-1.36,0-2.06-.62-2.09-.64-.05-.05-.08-.12-.06-.18.01-.06.24-1.39.41-1.97.2-.68,1.01-.85,1.05-.86.11-.02.21.05.24.15.02.11-.05.21-.15.24-.01,0-.62.14-.75.58-.13.46-.32,1.46-.38,1.8.21.14.79.48,1.74.48.02,0,.03,0,.04,0,.01,0,.04,0,.06,0,.03,0,.04,0,.06,0,.94,0,1.53-.33,1.74-.48-.06-.35-.24-1.35-.38-1.8-.13-.44-.74-.58-.75-.58-.11-.02-.18-.13-.15-.24.02-.11.13-.18.24-.15.04,0,.85.18,1.05.86.17.57.4,1.91.41,1.97.01.07-.01.14-.06.18-.03.03-.73.64-2.09.64"/>
        <path class="cls-1" d="M5.8,5.53c-.6,0-1.08.49-1.08,1.08s.48,1.08,1.08,1.08,1.08-.49,1.08-1.08-.48-1.08-1.08-1.08M5.8,8.09c-.82,0-1.48-.66-1.48-1.48s.66-1.48,1.48-1.48,1.48.66,1.48,1.48-.66,1.48-1.48,1.48"/>
        <path class="cls-1" d="M5.88,11.51s-.05,0-.08,0c-.03,0-.05,0-.08,0-1.36,0-2.06-.62-2.09-.64-.05-.05-.08-.12-.06-.18.01-.06.24-1.39.41-1.97.2-.68,1.01-.85,1.05-.86.11-.02.21.05.24.15.02.11-.05.21-.15.24-.01,0-.62.14-.75.58-.13.46-.32,1.46-.38,1.8.21.14.79.48,1.74.48.02,0,.03,0,.04,0,.01,0,.04,0,.06,0,.03,0,.04,0,.06,0,.94,0,1.53-.33,1.74-.48-.06-.35-.24-1.35-.38-1.8-.13-.44-.74-.58-.75-.58-.11-.02-.18-.13-.15-.24.02-.11.13-.18.24-.15.04,0,.85.18,1.05.86.17.57.4,1.91.41,1.97.01.07-.01.14-.06.18-.03.03-.73.64-2.09.64"/>
        <path class="cls-1" d="M4.69,11.34s-.03,0-.05,0c-.11-.03-.17-.13-.15-.24,0,0,.21-.9.07-1.47-.03-.11.04-.22.14-.24.11-.03.21.04.24.15.16.65-.05,1.61-.07,1.65-.02.09-.1.15-.19.15"/>
        <path class="cls-1" d="M6.9,11.34c-.09,0-.17-.06-.19-.15-.01-.04-.23-1-.07-1.65.03-.11.14-.17.24-.15.11.03.17.14.14.24-.14.56.06,1.46.07,1.47.02.11-.04.22-.15.24-.02,0-.03,0-.05,0"/>
        <path class="cls-1" d="M15.8,5.53c-.6,0-1.08.49-1.08,1.08s.48,1.08,1.08,1.08,1.08-.49,1.08-1.08-.48-1.08-1.08-1.08M15.8,8.09c-.82,0-1.48-.66-1.48-1.48s.66-1.48,1.48-1.48,1.48.66,1.48,1.48-.66,1.48-1.48,1.48"/>
        <path class="cls-1" d="M15.88,11.51s-.05,0-.08,0c-.03,0-.05,0-.08,0-1.36,0-2.06-.62-2.09-.64-.05-.05-.08-.12-.06-.18.01-.06.24-1.39.41-1.97.2-.68,1.01-.85,1.05-.86.11-.02.21.05.24.15.02.11-.05.21-.15.24-.01,0-.62.14-.75.58-.13.46-.32,1.46-.38,1.8.21.14.79.48,1.74.48.02,0,.03,0,.04,0,.01,0,.04,0,.06,0,.03,0,.04,0,.06,0,.94,0,1.53-.33,1.74-.48-.06-.35-.24-1.35-.38-1.8-.13-.44-.74-.58-.75-.58-.11-.02-.18-.13-.15-.24.02-.11.13-.18.24-.15.04,0,.85.18,1.05.86.17.57.4,1.91.41,1.97.01.07-.01.14-.06.18-.03.03-.73.64-2.09.64"/>
        <path class="cls-1" d="M15.8,5.53c-.6,0-1.08.49-1.08,1.08s.48,1.08,1.08,1.08,1.08-.49,1.08-1.08-.48-1.08-1.08-1.08M15.8,8.09c-.82,0-1.48-.66-1.48-1.48s.66-1.48,1.48-1.48,1.48.66,1.48,1.48-.66,1.48-1.48,1.48"/>
        <path class="cls-1" d="M15.88,11.51s-.05,0-.08,0c-.03,0-.05,0-.08,0-1.36,0-2.06-.62-2.09-.64-.05-.05-.08-.12-.06-.18.01-.06.24-1.39.41-1.97.2-.68,1.01-.85,1.05-.86.11-.02.21.05.24.15.02.11-.05.21-.15.24-.01,0-.62.14-.75.58-.13.46-.32,1.46-.38,1.8.21.14.79.48,1.74.48.02,0,.03,0,.04,0,.01,0,.04,0,.06,0,.03,0,.04,0,.06,0,.94,0,1.53-.33,1.74-.48-.06-.35-.24-1.35-.38-1.8-.13-.44-.74-.58-.75-.58-.11-.02-.18-.13-.15-.24.02-.11.13-.18.24-.15.04,0,.85.18,1.05.86.17.57.4,1.91.41,1.97.01.07-.01.14-.06.18-.03.03-.73.64-2.09.64"/>
        <path class="cls-1" d="M14.7,11.34s-.03,0-.05,0c-.11-.03-.17-.13-.15-.24,0,0,.21-.9.07-1.47-.03-.11.04-.22.14-.24s.21.04.24.15c.16.65-.05,1.61-.07,1.65-.02.09-.1.15-.19.15"/>
        <path class="cls-1" d="M16.91,11.34c-.09,0-.17-.06-.19-.15-.01-.04-.23-1-.07-1.65.03-.11.14-.17.24-.15.11.03.17.14.14.24-.14.56.06,1.46.07,1.47.02.11-.04.22-.15.24-.02,0-.03,0-.05,0"/>
      </g>
    </g>
  </g>
</svg>