<?xml version="1.0" encoding="UTF-8"?>
<svg xmlns="http://www.w3.org/2000/svg" version="1.1" viewBox="0 0 26.23 28.8">
  <defs>
    <style>
      .cls-1 {
        fill: #075070;
      }
    </style>
  </defs>
  <!-- Generator: Adobe Illustrator 28.7.5, SVG Export Plug-In . SVG Version: 1.2.0 Build 176)  -->
  <g>
    <g id="Layer_1">
      <g>
        <path class="cls-1" d="M2.36,16.02c-.06,0-.12-.02-.18-.05-.15-.1-.19-.3-.09-.45l1.59-2.41c.1-.15.3-.19.45-.09.15.1.19.3.09.45l-1.59,2.41c-.06.1-.17.15-.27.15M19.49,10.23c-.11,0-.21-.05-.27-.15l-2.61-3.97c-.1-.15-.06-.35.09-.45.15-.1.35-.06.45.09l2.61,3.97c.1.15.06.35-.09.45-.06.04-.12.05-.18.05M10.06,8.84c-.11,0-.21-.05-.27-.15l-1.22-1.85-.77,1.17c-.1.15-.3.19-.45.09-.15-.1-.19-.3-.09-.45l1.04-1.58c.06-.09.16-.15.27-.15s.21.06.27.15l1.22,1.85,3.98-6.06c.06-.09.16-.15.27-.15s.21.05.27.15l.89,1.35c.1.15.06.35-.09.45-.15.1-.35.06-.45-.09l-.62-.94-3.98,6.06c-.06.09-.16.15-.27.15"/>
        <path class="cls-1" d="M14.32,4.74c-.53,0-1.04-.15-1.48-.44-.15-.1-.19-.3-.09-.45.1-.15.3-.19.45-.09.33.22.72.34,1.12.34.11,0,.22,0,.33-.03.18-.03.35.09.38.27.03.18-.09.35-.27.37-.14.03-.29.04-.44.04"/>
        <path class="cls-1" d="M8.57,8.94c-.1,0-.21,0-.31-.02-.18-.02-.31-.18-.29-.36.02-.18.18-.31.36-.29.08,0,.16.01.24.01.4,0,.79-.12,1.12-.34.15-.1.35-.06.45.09.1.15.06.35-.09.45-.44.29-.95.44-1.48.44"/>
        <path class="cls-1" d="M9.29,11.71s-.06,0-.08-.01c-.17-.05-.28-.23-.23-.4l.77-2.87c.05-.17.23-.28.4-.23.17.05.28.22.23.4l-.77,2.87c-.04.15-.17.24-.31.24"/>
        <path class="cls-1" d="M7.44,7.01H2.25c-.13,0-.25-.08-.3-.2-.05-.12-.02-.26.07-.36l2.6-2.6c.06-.06.14-.09.23-.09s.17.03.23.09l2.6,2.6c.09.09.12.23.07.36-.05.12-.17.2-.3.2M3.04,6.36h3.62l-1.81-1.81-1.81,1.81Z"/>
        <path class="cls-1" d="M8.4,9.03H1.3c-.13,0-.25-.08-.3-.2-.05-.12-.02-.26.07-.36l2.02-2.02c.13-.13.33-.13.46,0,.13.13.13.33,0,.46l-1.46,1.46h5.52l-1.46-1.46c-.13-.13-.13-.33,0-.46.13-.13.33-.13.46,0l2.02,2.02c.09.09.12.23.07.36-.05.12-.17.2-.3.2"/>
        <path class="cls-1" d="M8.4,10.57H1.3c-.13,0-.25-.08-.3-.2-.05-.12-.02-.26.07-.36l1.54-1.54c.13-.13.33-.13.46,0,.13.13.13.33,0,.46l-.99.99h5.52l-.99-.99c-.13-.13-.13-.33,0-.46.13-.13.33-.13.46,0l1.54,1.54c.09.09.12.23.07.36-.05.12-.17.2-.3.2"/>
        <path class="cls-1" d="M8.4,12.11H1.3c-.13,0-.25-.08-.3-.2-.05-.12-.02-.26.07-.36l1.54-1.54c.13-.13.33-.13.46,0,.13.13.13.33,0,.46l-.99.99h5.52l-.99-.99c-.13-.13-.13-.33,0-.46.13-.13.33-.13.46,0l1.54,1.54c.09.09.12.23.07.36-.05.12-.17.2-.3.2"/>
        <path class="cls-1" d="M3.94,16.02c-.18,0-.33-.15-.33-.33v-3.9c0-.18.15-.33.33-.33s.33.15.33.33v3.9c0,.18-.15.33-.33.33M5.75,14.5c-.18,0-.33-.15-.33-.33v-2.39c0-.18.15-.33.33-.33s.33.15.33.33v2.39c0,.18-.15.33-.33.33"/>
        <path class="cls-1" d="M24.17,8.83h-4.14c-.13,0-.25-.08-.3-.2-.05-.12-.02-.26.07-.36l2.07-2.07c.06-.06.14-.1.23-.1s.17.04.23.1l2.07,2.07c.09.09.12.23.07.36-.05.12-.17.2-.3.2M20.82,8.18h2.57l-1.28-1.28-1.28,1.28Z"/>
        <path class="cls-1" d="M24.93,10.44h-5.66c-.13,0-.25-.08-.3-.2-.05-.12-.02-.26.07-.36l1.61-1.61c.13-.13.33-.13.46,0,.13.13.13.33,0,.46l-1.05,1.05h4.08l-1.05-1.05c-.13-.13-.13-.33,0-.46.13-.13.33-.13.46,0l1.61,1.61c.09.09.12.23.07.36-.05.12-.17.2-.3.2"/>
        <path class="cls-1" d="M24.93,11.67h-5.66c-.13,0-.25-.08-.3-.2-.05-.12-.02-.26.07-.36l1.23-1.23c.13-.13.33-.13.46,0,.13.13.13.33,0,.46l-.68.67h4.08l-.67-.67c-.13-.13-.13-.33,0-.46.13-.13.33-.13.46,0l1.23,1.23c.09.09.12.23.07.36-.05.12-.17.2-.3.2"/>
        <path class="cls-1" d="M24.93,12.9h-5.66c-.13,0-.25-.08-.3-.2-.05-.12-.02-.26.07-.36l1.23-1.23c.13-.13.33-.13.46,0,.13.13.13.33,0,.46l-.68.67h4.08l-.67-.67c-.13-.13-.13-.33,0-.46.13-.13.33-.13.46,0l1.23,1.23c.09.09.12.23.07.36-.05.12-.17.2-.3.2"/>
        <path class="cls-1" d="M21.38,14.89c-.18,0-.33-.15-.33-.33v-1.99c0-.18.15-.33.33-.33s.33.15.33.33v1.99c0,.18-.15.33-.33.33M22.82,14.25c-.18,0-.33-.15-.33-.33v-1.35c0-.18.15-.33.33-.33s.33.15.33.33v1.35c0,.18-.15.33-.33.33"/>
        <path class="cls-1" d="M16.86,9.22h-3.92c-.13,0-.25-.08-.3-.2-.05-.12-.02-.26.07-.36l1.96-1.96c.06-.06.14-.1.23-.1s.17.04.23.1l1.96,1.96c.09.09.12.23.07.36-.05.12-.17.2-.3.2M13.73,8.57h2.35l-1.17-1.17-1.17,1.17Z"/>
        <path class="cls-1" d="M17.58,10.74h-5.35c-.13,0-.25-.08-.3-.2-.05-.12-.02-.26.07-.36l1.52-1.52c.13-.13.33-.13.46,0,.13.13.13.33,0,.46l-.97.97h3.78l-.97-.97c-.13-.13-.13-.33,0-.46.13-.13.33-.13.46,0l1.52,1.52c.09.09.12.23.07.36-.05.12-.17.2-.3.2"/>
        <path class="cls-1" d="M17.58,11.91h-5.35c-.13,0-.25-.08-.3-.2-.05-.12-.02-.26.07-.36l1.17-1.16c.13-.13.33-.13.46,0,.13.13.13.33,0,.46l-.61.61h3.78l-.61-.61c-.13-.13-.13-.33,0-.46.13-.13.33-.13.46,0l1.17,1.16c.09.09.12.23.07.36-.05.12-.17.2-.3.2"/>
        <path class="cls-1" d="M17.58,13.07h-5.35c-.13,0-.25-.08-.3-.2-.05-.12-.02-.26.07-.36l1.17-1.16c.13-.13.33-.13.46,0,.13.13.13.33,0,.46l-.61.61h3.78l-.61-.61c-.13-.13-.13-.33,0-.46.13-.13.33-.13.46,0l1.17,1.16c.09.09.12.23.07.36-.05.12-.17.2-.3.2"/>
        <path class="cls-1" d="M15.58,14.96c-.18,0-.33-.15-.33-.33v-1.89c0-.18.15-.33.33-.33s.33.15.33.33v1.89c0,.18-.15.33-.33.33M14.22,14.26c-.18,0-.33-.15-.33-.33v-1.19c0-.18.15-.33.33-.33s.33.14.33.33v1.19c0,.18-.15.33-.33.33"/>
        <path class="cls-1" d="M4.77,16.02s-.02,0-.03,0c-.18-.02-.31-.17-.3-.35.11-1.17,1.08-2.06,2.26-2.06s2.15.89,2.26,2.06c.02.18-.12.34-.29.35-.18.02-.34-.11-.35-.29-.08-.84-.77-1.47-1.61-1.47s-1.53.63-1.61,1.47c-.02.17-.16.3-.32.3"/>
        <path class="cls-1" d="M12.09,16.02s-.02,0-.03,0c-.18-.02-.31-.17-.3-.35.11-1.17,1.08-2.06,2.26-2.06s2.15.89,2.26,2.06c.02.18-.12.34-.29.35-.18.02-.34-.11-.35-.29-.08-.84-.77-1.47-1.61-1.47s-1.53.63-1.61,1.47c-.01.17-.16.3-.32.3"/>
        <path class="cls-1" d="M17.71,16.02c-.17,0-.31-.13-.32-.3-.05-.55-.51-.97-1.07-.97-.21,0-.42.06-.6.18-.15.1-.35.06-.45-.09-.1-.15-.06-.35.09-.45.28-.19.61-.29.96-.29.9,0,1.64.67,1.72,1.57.02.18-.11.34-.29.35-.01,0-.02,0-.03,0"/>
        <path class="cls-1" d="M20.89,16.02s-.02,0-.03,0c-.18-.02-.31-.17-.29-.35.11-1.17,1.08-2.06,2.26-2.06s2.15.89,2.26,2.06c.02.18-.12.34-.3.35-.18.02-.34-.11-.35-.29-.08-.84-.77-1.47-1.61-1.47s-1.53.63-1.61,1.47c-.01.17-.16.3-.32.3"/>
        <path class="cls-1" d="M10.18,3.72h-1.9c-.76,0-1.38-.62-1.38-1.38,0-.65.46-1.2,1.07-1.34.13-.58.65-1,1.26-1s1.13.43,1.26,1c.61.14,1.07.69,1.07,1.34,0,.76-.62,1.38-1.38,1.38M9.23.65c-.35,0-.64.29-.64.64,0,.18-.14.32-.32.33-.39,0-.71.33-.71.73s.32.73.72.73h1.9c.4,0,.72-.33.72-.73s-.32-.72-.71-.73c-.18,0-.32-.15-.32-.33,0-.35-.29-.64-.64-.64"/>
        <path class="cls-1" d="M18.75,6.26h-2.61c-.97,0-1.77-.79-1.77-1.77,0-.86.62-1.58,1.44-1.74.14-.77.82-1.36,1.63-1.36s1.49.59,1.63,1.36c.82.15,1.44.88,1.44,1.74,0,.97-.79,1.77-1.77,1.77M17.44,2.05c-.55,0-1,.45-1,1,0,.18-.14.32-.32.33-.61,0-1.1.51-1.1,1.11s.5,1.12,1.12,1.12h2.61c.61,0,1.12-.5,1.12-1.12s-.49-1.11-1.1-1.11c-.18,0-.32-.15-.32-.33,0-.55-.45-1-1-1"/>
        <path class="cls-1" d="M13.11,28.8C5.88,28.8,0,22.92,0,15.69c0-.18.15-.33.33-.33h25.58c.18,0,.33.15.33.33,0,7.23-5.89,13.11-13.12,13.11M.66,16.02c.17,6.72,5.7,12.13,12.46,12.13s12.29-5.41,12.46-12.13H.66Z"/>
        <path class="cls-1" d="M15.82,20.22c-.06,0-.11,0-.17-.02-.35-.07-.5-.35-.64-.6-.23-.43-.54-1.01-2.18-1.15-1.52-.12-2.67-1.01-3.42-2.63-.07-.16,0-.36.16-.43.16-.08.36,0,.43.16.65,1.41,1.6,2.15,2.88,2.25,1.99.16,2.43.99,2.7,1.49.09.16.14.26.19.27.07.01.28,0,.86-.32,1.08-.58,1.31-1.08,1.52-1.53.23-.49.45-.96,1.51-1.15.68-.12,1.24-.48,1.64-1.07.1-.15.31-.18.45-.08.15.1.18.31.08.45-.35.5-.99,1.14-2.06,1.33-.74.13-.84.35-1.04.78-.23.49-.54,1.15-1.8,1.83-.51.27-.86.4-1.13.4"/>
        <path class="cls-1" d="M18.21,27.74c-.15,0-.29-.11-.32-.27-.32-1.68-.38-4.02,1.2-5.64,1.27-1.31,1.17-2.08,1.1-2.63-.06-.47-.13-1,.81-1.3.93-.29,1.53.62,2.18,1.58.42.64.9,1.36,1.5,1.77.15.1.18.31.08.45-.1.15-.31.18-.45.08-.7-.49-1.21-1.26-1.67-1.95-.61-.92-1.01-1.46-1.44-1.33-.21.07-.34.14-.38.21-.03.07-.01.22.01.39.08.61.21,1.63-1.28,3.17-1.38,1.43-1.32,3.54-1.03,5.07.03.18-.08.35-.26.38-.02,0-.04,0-.06,0"/>
        <path class="cls-1" d="M14.42,28.73c-.13,0-.25-.08-.3-.21-.46-1.2-.88-2.65-1.24-4.33-.47-2.18-1.22-2.05-2.25-1.86-1.12.2-2.52.45-3.37-2.37-.56-1.84-1.49-3.18-2.76-4-.15-.1-.19-.3-.1-.45.1-.15.3-.2.45-.1,1.41.9,2.43,2.37,3.03,4.36.69,2.26,1.59,2.1,2.64,1.92,1.07-.19,2.4-.43,3,2.37.35,1.64.76,3.06,1.21,4.23.07.17-.02.36-.19.42-.04.01-.08.02-.12.02"/>
      </g>
    </g>
  </g>
</svg>