<?xml version="1.0" encoding="UTF-8"?>
<svg xmlns="http://www.w3.org/2000/svg" version="1.1" viewBox="0 0 21.6 21.6">
  <defs>
    <style>
      .cls-1 {
        fill: #17b08a;
      }
    </style>
  </defs>
  <!-- Generator: Adobe Illustrator 28.7.5, SVG Export Plug-In . SVG Version: 1.2.0 Build 176)  -->
  <g>
    <g id="Layer_1">
      <g>
        <path class="cls-1" d="M10.8.49C5.12.49.49,5.12.49,10.8s4.62,10.31,10.3,10.31,10.3-4.62,10.3-10.31S16.48.49,10.8.49M10.8,21.6C4.85,21.6,0,16.75,0,10.8S4.85,0,10.8,0s10.8,4.85,10.8,10.8-4.85,10.8-10.8,10.8"/>
        <path class="cls-1" d="M17.56,8.93,17.56,8.93s0,0,0,0t0,0M17.56,8.93h0M17.56,8.93h0s0,0,0,0M17.56,8.93h0M17.56,8.93h0M7.7,15.13c1.92,1.06,3.67,1.26,5.2.59,2.75-1.2,4.1-4.89,4.51-6.26-.66.24-2.02.62-4.9,1.22-4.45.93-4.8,3.79-4.82,4.45M11.04,16.61c-1.16,0-2.4-.37-3.71-1.11-.07-.04-.12-.12-.13-.2,0-.04-.16-3.97,5.21-5.1,4.39-.92,5.1-1.29,5.2-1.36.06-.07.16-.1.25-.07.13.04.21.17.18.3-.05.23-1.33,5.54-4.94,7.12-.66.29-1.35.43-2.07.43"/>
        <path class="cls-1" d="M5.92,16.63c-.07,0-.14-.03-.19-.09-.09-.11-.07-.26.04-.35,2.6-2.12,6.19-3.36,6.34-3.41.13-.04.27.03.32.15.05.13-.02.27-.15.32-.04.01-3.66,1.26-6.19,3.32-.05.04-.1.06-.16.06"/>
        <path class="cls-1" d="M8.78,10.2s-.03,0-.05,0c-.14-.03-.22-.16-.2-.29.25-1.22.71-2.58,1.37-4.04.06-.12.21-.18.33-.12.13.06.18.21.12.33-.64,1.42-1.09,2.74-1.33,3.93-.02.12-.13.2-.24.2"/>
        <path class="cls-1" d="M11.77,3.66h0M11.77,3.66h0,0M11.77,3.66h0s0,0,0,0M11.77,3.66h0,0M11.77,3.66s0,0,0,0c0,0,0,0,0,0M11.77,3.66h0M6.54,13.27c-.09,0-.18-.05-.22-.14-.71-1.39-.83-2.8-.37-4.19,1.14-3.45,5.41-5.62,5.59-5.71.12-.06.27-.01.33.1.05.08.04.19-.01.26-.04.11-.24.89-.11,5.37,0,.14-.1.25-.24.26-.13,0-.25-.11-.26-.24-.08-2.93-.03-4.35.05-5.04-1.14.67-4.01,2.56-4.87,5.16-.42,1.26-.3,2.55.34,3.81.06.12.01.27-.11.34-.04.02-.08.03-.11.03"/>
      </g>
    </g>
  </g>
</svg>