<?xml version="1.0" encoding="UTF-8"?>
<svg xmlns="http://www.w3.org/2000/svg" version="1.1" viewBox="0 0 25.92 21.32">
  <defs>
    <style>
      .cls-1 {
        fill: #075070;
      }
    </style>
  </defs>
  <!-- Generator: Adobe Illustrator 28.7.5, SVG Export Plug-In . SVG Version: 1.2.0 Build 176)  -->
  <g>
    <g id="Layer_1">
      <path class="cls-1" d="M10.26,20.19c-.33.35-.89.37-1.26.02-.32-.3-.36-.77-.13-1.12l1.72-1.84c.05-.05.09-.1.13-.16l.14-.15c.17-.18.4-.27.63-.27.22,0,.44.08.62.25.35.33.37.88.04,1.24l-1.9,2.03ZM8.34,18.4c-.05.05-.09.1-.13.16l-.14.14c-.16.17-.38.27-.61.28-.24,0-.46-.08-.65-.25-.32-.3-.36-.77-.13-1.12l1.72-1.84c.05-.05.09-.1.13-.16l.14-.14c.16-.17.38-.27.61-.28,0,0,.02,0,.03,0,.22,0,.43.08.62.25.17.16.27.38.28.61,0,.18-.05.36-.15.51l-1.72,1.84ZM6.16,16.92c-.05.05-.09.1-.13.16l-.14.15c-.16.17-.38.27-.61.28-.24,0-.46-.08-.65-.25-.32-.29-.37-.77-.13-1.12l1.72-1.84h0c.05-.05.09-.11.13-.16l.14-.15c.17-.18.4-.27.63-.27.22,0,.44.08.62.25.32.3.36.77.13,1.12l-1.72,1.84ZM3.97,15.44c-.05.05-.09.1-.13.16l-.14.15c-.33.35-.89.37-1.26.02-.17-.16-.27-.38-.28-.61,0-.23.08-.46.24-.63l1.9-2.03c.16-.17.38-.27.61-.28h.03c.22,0,.43.08.62.25.32.3.36.77.13,1.12l-1.72,1.84ZM25.5,11.02h-1.67c-.13,0-.26.06-.33.16l-1.2,1.55-4.12-4.45c-.06-.07-.14-.11-.22-.13-3.63-.76-4-4.01-4.02-4.15-.02-.17-.13-.31-.28-.36-.16-.05-.33-.01-.45.11l-1.58,1.67c-.71.76-1.76,1.14-2.8,1.02h-.04c-.24-.03-.43-.18-.52-.4-.09-.22-.05-.46.11-.64l3.05-3.55c.83-.96,2.16-1.27,3.33-.78l3.81,1.61c.05.02.11.03.17.03h6.76c.23,0,.42-.19.42-.42s-.19-.42-.42-.42h-6.67l-3.73-1.58c-1.51-.64-3.24-.24-4.31,1.01l-1.33,1.55H.42c-.23,0-.42.19-.42.42s.19.42.42.42h8.31l-1,1.16c-.35.42-.45.99-.25,1.5.2.51.66.86,1.2.93h.04c1.3.16,2.61-.32,3.51-1.27l1.03-1.09c.37,1.2,1.43,3.37,4.37,4.04l4.07,4.39c.44.47.42,1.21-.04,1.66l-.02.02c-.23.23-.53.34-.86.34-.32,0-.62-.14-.84-.38l-.99-1.07c-.16-.17-.43-.18-.6-.02-.17.16-.18.43-.02.6l1.35,1.45c.39.42.38,1.09-.04,1.49l-.02.02c-.21.2-.48.31-.77.3-.29,0-.56-.12-.75-.33l-1.69-1.78c-.16-.17-.43-.18-.6-.02-.17.16-.18.42-.02.59l1.14,1.24c.18.2.28.46.26.74-.01.27-.13.52-.34.7l-.02.02c-.2.18-.47.27-.74.26-.27-.02-.52-.14-.7-.34l-.37-.42s-.07-.08-.1-.12l-.6-.66c-.16-.17-.42-.19-.6-.03-.17.15-.19.42-.04.6l.67.76c.13.18.19.4.17.62-.02.26-.14.5-.36.69-.39.33-.98.3-1.33-.07l-.71-.75.64-.68c.31-.34.48-.77.46-1.23-.02-.46-.21-.88-.56-1.22-.45-.42-1.07-.55-1.63-.4-.05-.41-.23-.78-.56-1.08-.45-.42-1.08-.55-1.63-.4-.05-.4-.23-.78-.55-1.08-.34-.31-.78-.48-1.24-.46-.14,0-.27.03-.4.06-.05-.41-.24-.78-.55-1.08-.34-.31-.78-.48-1.24-.46-.44.01-.85.19-1.16.5H.42c-.23,0-.42.19-.42.42s.19.42.42.42h2.51l-1.15,1.23c-.31.33-.48.77-.46,1.23.02.46.21.88.57,1.21.33.31.75.46,1.17.46.16,0,.31-.02.46-.06.05.4.23.78.55,1.08.32.3.74.46,1.18.46.02,0,.04,0,.06,0,.14,0,.27-.03.4-.06.04.4.23.78.55,1.08.32.3.74.46,1.17.46.02,0,.04,0,.06,0,.14,0,.27-.03.4-.06.05.4.23.78.55,1.08.32.3.74.46,1.17.46.02,0,.04,0,.06,0,.46-.02.89-.21,1.2-.55l.68-.73.67.71c.35.37.83.57,1.31.57.42,0,.85-.15,1.2-.45.32-.27.53-.63.61-1.04.21.1.45.16.69.18.5.03.98-.14,1.35-.47l.02-.02c.33-.29.54-.69.6-1.12.25.12.53.19.81.2.51.01,1.01-.18,1.38-.54l.02-.02c.5-.49.68-1.19.53-1.83h.02c.56.01,1.07-.19,1.47-.58l.02-.02c.57-.56.74-1.39.5-2.11l1.27-1.64h1.46c.23,0,.42-.19.42-.42s-.19-.42-.42-.42"/>
    </g>
  </g>
</svg>