<?xml version="1.0" encoding="UTF-8"?>
<svg xmlns="http://www.w3.org/2000/svg" version="1.1" viewBox="0 0 370.84 448.23">
  <defs>
    <style>
      .cls-1 {
        font-size: 14px;
      }

      .cls-1, .cls-2 {
        fill: #fff;
      }

      .cls-1, .cls-2, .cls-3 {
        font-family: MyriadPro-Bold, 'Myriad Pro';
        font-weight: 700;
      }

      .cls-2 {
        font-size: 11.83px;
      }

      .cls-4 {
        fill: none;
        stroke: #00a0ca;
        stroke-miterlimit: 10;
        stroke-width: .5px;
      }

      .cls-5 {
        letter-spacing: -.1em;
      }

      .cls-6 {
        letter-spacing: -.17em;
      }

      .cls-7 {
        letter-spacing: -.14em;
      }

      .cls-8, .cls-3 {
        fill: #075072;
      }

      .cls-3 {
        font-size: 30px;
      }
    </style>
  </defs>
  <!-- Generator: Adobe Illustrator 28.7.5, SVG Export Plug-In . SVG Version: 1.2.0 Build 176)  -->
  <g>
    <g id="Layer_1">
      <g>
        <path class="cls-4" d="M181.81,409.6l.61.47,1.43.14-2.32,1.17-.59-.25,1.3-.85-.66-.31.23-.38ZM177.58,392.02l.94.56,1.68.85-.3.45-.13.96-.84-.65-.43-1.41-1.15-.43.23-.32ZM178.42,411.69l.41.65-.99.54-.48-.67.43-.33.15-.12.49-.07ZM177.22,248.99l.87.67.2.83-1.15.4-.48-.33-.1-1.28.66-.29ZM177.33,410l-.05.31-.02.36-1.33.49.79-1.16h.61ZM171.67,41.51l3.01.74,1.4-.61-.1,1.89.76,1.37-1.2.41.05.43-4.15-1.12-.51-1.32-1.68-.78,1.3-.22.41-.72.71-.09ZM172.63,251.53l2.98.16.69.45-.61.52-2.98-.45-.84.22.76-.9ZM173.4,408.99l.26.36-.61.34-.15-.57.51-.12ZM333.55,281.15l.25.7-.48.18-.84-.38.05-.45,1.02-.05ZM327.18,424.65l.79.74-.28,1.26-.82.87-.76-1.24.87-.56-.69-.31,1.02-.02-.54-.34.41-.4ZM324.09,426.28l1.17.41-.3,1.46-.51-.3-2.19.25-.1-.5-.71-.09,1.58-1.06,1.07-.16ZM111.19,442.79l1.56.74-1.99-.06-.28-.52.71-.16ZM97.04,440.34l1.48,2.11.46,2.02-.97,2.47-.87.72.26-4-.79-3.01.43-.3ZM149.18,424.08l.66.94-1.05.65-.25-.63.64-.96ZM148.67,423.99l-.25,1.19-1-.2,1.25-.99ZM150.32,422.19l2.09,1.26-.87,1.08-.97.3-1.56-1.01-.1-.5.33-.79,1.07-.34ZM148.21,422.67l.61.36-.41.92-1.53.65-.48-.84.71-.9,1.1-.18ZM144.97,399.21l.02,1.12-1.58-.2-.05-.34,1.61-.58ZM142.85,402.39l.48.41-.18.74-1.17.76-.46-.45.64-.63.69-.83ZM140,426.2l1.02.63-.46.36-.94-.31.38-.68ZM138.34,407.11l.74.5-.51.41-.51-.38.28-.54ZM140.61,400.39l-.71,3.89-1.71.33-2.09-.41.08-.49,1.5.18,1.38-2.92,1.56-.58ZM95.71,443.71l-.02.65-.77,2.61-.28-.94.54-.7-.74-.43,1.27-1.19ZM110.24,440.03l1.91.69.02.95-1.91.2-.51-1.59.49-.25ZM135.28,406.37l.33.27-.51.81-1.45-.54,1.63-.54ZM130.82,439.62l.2.41-.31.72-.59-.14.08-.81.61-.18ZM131.64,431.05l-.82,2.02-.36-1.1,1.17-.92ZM129.65,440.69l.33.54-.61.33-1.35-.06,1.63-.81ZM125.8,436.79l.74.29-.18.25-.38.25-1.1-.21.92-.58ZM124.57,253.88l.66.2.1.67-1.17-.87h.41ZM123.27,260.37l1.3.04.1.46-1.53-.16.13-.34ZM121.59,437.13l.87.07.59.25-.1.43-1.35-.76ZM121.61,411.31l.71.27.2.65-.51.07-.79-.58.38-.42ZM118.61,420.15l-.46.47-1.38.2-.08-.22,1.91-.45ZM118.53,437.74l-.48,1.28-.74.11.13-1.3,1.1-.09ZM111.26,284.83l1.27.81.25-.36,1.38.99,2.98-.05.82.95-.71.4-.28-.52-.31.65.49.42-1.35.32-.13-.45-.54.85-.77-.34-.23-.79-.74-.11,1.48,1.8-.41.25-2.17-.27.69.63-2.63.54-1.63-.61.08-1.73-.61.25.05-.94.51-.34,1.12.51.41-1.07,1.17-.77-.2-1.01ZM117.71,412.68l-.05.49-.03.33-.71-.27.23-.5.56-.04ZM115.44,420.13l.89.65-1.58-.25.69-.4ZM215.14,233.99l4.16.61,1.66,2.25-.64,1.98-1.84,1.24.03.45-.97-.79-1.81-.43-.81-1.35-3.49-.99-.97-.99.15-.63,1.25-.85,3.29-.5ZM205.12,230.71l.48.18.38,1.62.76.51.03.97-.99.78-1.17-.32-.84-1.12.48-.36-.69-.81.89-.11.66-1.33ZM279.72,245.64l.02.67-.87-.25-1.48.99-1.17-.41.87-.85,2.14-.14h.48ZM276.13,234.71l1.89,1.84-.38.86-1.66-1.39.15-1.31ZM274.47,245.93l.54.41-.56.51-.56-.69.59-.23ZM245.05,258.89l1.05.11-.84.6-.51-.31.3-.4ZM246.17,263.86l-.43.85-.25-.72.69-.12ZM241.94,262.52l.41.16.69.39-.97.63-.33-.87.2-.32ZM5.93,354.92l.23,1.53v.4l-.13.36.43,2.29-.69.23.41.45-.66,1.03-1.3.83-.08.13-.54.11-.71-.3.25-.98-.66-.07-1.02-1.62-.79-.02-.26-.61.61.16.87-.58-.64-1.3.64-1.5.05,1.03,1.35-.72-.26-.52,2.88-.32ZM4.3,353.44l.82.32.46.89-1.78.38-.28-.56-.74-.18,1.53-.85ZM6.57,350.23l.97.18.46.69-1.63-.02.21-.85ZM161.65,415.12l1.66.41.59.9-1.68.58-.87-.22-.33-.72.64-.96ZM158.74,277.8l.36.38-.71.48.76.56-.87.45.26.85-1.66.25-.92-.84.23-.72,1.58-.45.2-.85.77-.11ZM158.66,419.28l.15.33-1.25.68-1.07-.67,2.17-.34ZM156.16,418.15l.51.16-.26.43-.59-.23.33-.36ZM155.3,270.52l.25.54-.84.58-.79-.06-.25-.5,1.63-.56ZM150.94,419.08l.84.27-1.07.7h-2.42l.46-.95,2.19-.02ZM152.9,417.6l.56,1.08-1.66.6-.1-1.3,1.2-.38ZM345.46,281.41l.38.81-1.2-.72.81-.09ZM60.73,382.7l.79.56-.66.98.99.77-4-.67-.03-.51-.84-.36,1.73-.43.89.21,1.12-.56ZM8.53,352.08l1.84.02.66.68-2.19.06-.64-.6.33-.16ZM15.49,348.17l1.12.9-.2,2.2-2.01.85-1.17-.83.18-2.58.41-.51,1.68-.04ZM169.55,244.68l1.25.13.89,1.96.67.29-1.45,1.3-1.28-1.95.99-.41-1.45-.5.38-.81ZM160.27,408.57l1.66.38,1.99,2.2,2.8-.63,1.43.47,1.76-.09.25-.02.89-.11.97.42.26.97-1.45.51-.1.97-1.2-.34-2.58,1.64-.59-.34.41-.2-1.71-.45.36-.74-.33-.45-1.58-.45-.51.5-.41-.23-.36.51-.92.05v.32l-2.02.51-.38.38-1.94-1.39-3.24,1.07-2.32-.83-.23-.94,1.78-1.93,2.98-.76.76-.89,3.54-.11ZM171.46,409.51l.54.09.61.5-.25.52-1.53-.04-.26-.52.89-.56ZM150.76,407.78l.51.61-1.27.31.15-.76.61-.16ZM154.71,411.48l1.02.35-.23.43-.87.14.08-.92ZM164.37,47.82l1.15,1.87.02,2.62-2.01-1.53-.05-1.16.89-1.8ZM107.9,437.09l1.4.09-.2.51-1.35-.07.15-.52ZM110.55,434.8l.28,1.62-.61.18-.41-.34-.2.61-1.66.18,1.02-1.7,1.58-.56ZM125.85,428.6l.18,1.28,1.48.69-.89,1.15.33,1.39-.76.94.18.61-2.19-.54,1.02-1.05-.89-.29-.46.81-1.35-.61-.97.95-.41-.25-.46-.22-.59.16-.08-.47-.66-.04-1.66.72.15.63-.36.23-1.15,1.23-1.15-.29-1.58.65-.3.13-.79.32-1.55-.24.18-1.48-.53-.38.74-.65,1.04.07,3.21-1.15,1.43-1.3,1.94.15,1.53-1.05.28-.27,3.62-1.7,1.48-.16ZM128.12,431.11l1.51.9.02.74-1.35.56-.23-.38-.82.15.87-1.96ZM129.93,427.59l.66.13-.89.47-.92-.2,1.15-.4ZM12,347.78l-.03.74,1.07-.09-.08.7-1.4.72-1.68.18-.51-.83,1.15-.11,1.48-1.32ZM97.88,263.67l1.02.26.2,2.27,1.02.29.61-.51.59,1.34-1.17,3.21-1.43,1.13,1.4,1.73.89-.42-.38.63.71,1.5-.28.31-.94-.49-1.33.16-.71,3.62.97.38.08.87.89.45,1.53-.69.94.43-.02.36-.74-.09.61.4-.69.4.69.36-.33.7.54.54-1.15,1.66,1.56-.02.92-.74.84.49-.31.23.71.25-1.71-.07.64.67-.53.36,1.1.38.61,1.71,1.25.06-.41.41.59-.13.33.67-1.53.4-1.66,1.37-1.81.56-.61,1.35-2.27.32-2.06-.4-1.12.65-2.09.16-.79.85-1.1.07-3.03,3.01-.97,3.37-.81.83-8.54,1.73-2.81.25.03-.4-1.84.48-1.17.9-1.86-.02-.82.29-.38,2.4,1.25,1.17-.15,2.04-1.48-.26.26-.61-.54-.94-.36.49-.66-.16-.25.36.15,1.39,1.3.12.23.74,1.02-.18-.05.58-.94.45-.18.36-1.96,1.89-1.02.4-.56,1.28-.61.02-2.14,2.26-1.07.88.08.81-1.99,1.4.03.4-.87-.21-.89.7-.46-.09-.38.94-.94.05-1.99,1.77-1.89-.14-2.8.69-.46-.31-2.32.94-.92-.29-.74,1.15-.1,1.37-1.28.14.64.43-.18.43-.84.16.28.4-.41-.02-1.5,2.45-.59-.02.08.69-4.46,1.41-1.79,1.58-1.22.11-1.07,1.39-1.45.76-1.89.05-2.65.76-2.19-.45-1.15.87.43,1.24-1.79,2.59-.51.18-1.17-.74-.64.56-.31.18h-2.24l-.18.51-4.03,1.84-.97,1.06-1.12.2.41.29-.41.43-1.05.04-.13-.97,1.43-1.68.1-2.49.87-.49-.08-.76,1.02-.3-.41-.81.69.2.87-1.48,1.48-.47.38-.69-.82.08,1.4-1.3,2.5-.38-.23-.74,1.4-.7.46-1.21.64-.12,1.76-2,.51-.02.2-.63,1.35-.11,1.43-1.05.31-1.3,1.33-.74.87.05.15-.45.38.7,1.73-.11.51-1.53.77-.54-.18-.56,1.38-.92.59.25.87-.68.46.12,1.71-1.4,1.78.25,1.1-.78.1.96,1.38.04.15-.58.94-.36.13-.59.66.05.69-.51.03-.47,1.48-.24-.41-.86.43-.61,2.22-.36.46-1.66,1.53-.58,2.32-1.95,1.17-.47.43-1.86.61-.22.71.32,1.2-.48.51-1.14,3.49-1.5,2.19-2.31,1.4-.7.36-.6-.36-.61,1.53-.54-.05-.69.76-.43-.74-.77.61.14,1.68-1.08.71.05.13-.94.74-.36.61-1.33.46,1.71.08.29v.97l.71.02.54-.2.05-1.07,1.1-.99-1.22-.29-.02-2.07,1.25.14,1.02-.63,1.15.38,1.68-.34.51-1.19-.59-.32.94-.16-1.12-.52.41-.29.87.41.23-.68.69.23.56-.29-.38-.27.46-.58.76.09-.41-.97-1.56.81-.36-.68,1.02-.56-.23-.43.97.09.51-.34,1.45.77.48-.57-.46-.36,1.04.12.51-.43-.69-.25-.48-.22.13-.35.2-.47.36.27.2-.4h.66l.28.34-.61.36.71.38-.41.96.97.79.1-.49,1.3-.33,1.53-1.91,1.53-.07.51-.79-1.5-.93,1.4.25,1.99-1.44.94-3.95-1.4-1.06-1.22.27-.46-1.82-2.04-.49.08-.33,1.3.04-.15-.33.13-.38.56.02-.71-.63-1.02.07.69-.78-.66-.14.23-.41.82.09.08,1.1.54-.16-.28-.43.59-.41.71.31-.36.32.71.36-.61.49.79.05-1.27.58,1.63-.02-.94.65,1.1.49.2-.47.56.97.48-.45.46.16-.43.58,1.56.18.66.56-.25.47.71-.28.59,1.28,1.2-.15-1.1-2.06-.05-.85.69.07.1-.42-1.43-.36-.1-.42-1.56.38-.31-.42-.59.05v-.63l-.59.02,1.04-1.19-.43-.29-.84.38-.69-.27.13-.26-.38-1.49.66-.74.79,1.12,1.28-.31-1.76-.9.61-.49h-.79l.1-1.39.56.58.51-.09-.26.42.94.81,1.68.18-.1-1.98.51-.8-.64-.18-.38.36-.18-.97.82-1.15-.26-2.8.61-.14.2-.79.74.4.87-.87.2-1.68ZM85.82,286.57l-.08.4-.28.13-.46.49-.87.04.64-.6-.56-.43,1.61-.02ZM86.27,292.74l-.54.25v-.02l.54-.24ZM90.74,274.67l.54.2-.61.88.43.69-.31.29-1.15-.94.26-1.01.61.18.23-.29ZM101.93,272.54l.18.34,1.35.07-.25.68.97.97-.38.83-.18-.78-.74.49-.46-.79-1.4-.27.92-1.55ZM105.88,273.3l.36.21-.87.97-.13-.7.64-.49ZM105.86,271.89l.43.87-.82.46.26-.54-.64-.72.76-.07ZM102.72,270.01l.87.17-.1.66-.74.31-.38-.27-.08.56-1.2.09-.25-.97,1.25-.05.13-.49h.51ZM106.65,279.7l.61.77-.92.04.31-.81ZM106.14,266.48l-.66,1.61-.82-.99,1.48-.61ZM110.73,261.06l1.84.29.36.47-.08,1.1-1.45,2.02-.46.05-.71-.65.89-.36-.08-.4-.69.34-.71-.27-.48.85-.61-.75-1.15-.31.28-.56-.87-.29.64-.41-.03.36,1.61.77-.13-.56h.74l-.87-.5.54-.06-.02-.4.94,1.12.48-.07-.2-.47.99.39-.41-.68.89-.09-1.25-.94ZM288.7,347.97l2.35,1.05-2.35-1.06-5.71-.23,5.71.25ZM368.74,376.24l1.48-.04-1.53,1.5-.15.85-1.02-.13.13.6-.53.42.31.61-.61.11.02.52-1.07.18-.84.83.28.6-.84.21-.23,1.03.48.65-1.71-.25-.59.36-1.25-.04-.99-.4-.89.78-.26,1.06-1.07.29.33.63,2.09,1.26.18,1.52-1.43-.02-.92-.52-.13-.63.59-.47-.89-.58-.51-.74-.82-.65-1.73-.43-.74,1.39.66.43-.48.21,3.01,3.3-1.58,3.23.48,2.26-.74,1.01.02.97.54,1.32-.56.12-.56.95.38,1.84-.59,1.41-.23-1.82-.76-.92-1.17-.45.54-.85-1.5-1.26-1.05-1.78.36-1.8-.92-1.57.92-.74-.36-.41.51-1.04-.82-.65.18-2.22-2.17-.85-1.79-1.44.51-2.27-1.51-.94.31-.4-.61-.34.38-.56,13.11-4.74-13.11,4.72-.38.58-2.24-1.39.33-1.08-2.09-2.38.69-2.56-.2-.38h-.71l-.76-.09-3.7,1.77-1.35.81-.03.47-1.17.4.61,3.03-.59.83-1.68,1.32-.97.16-.13.45-.69-.61-1.33.54-1.4,1.26.1,1.62-1.25.63-.18.7-1.25.61-1.05,1.21-.03,1.32-.71.77.46,2.45-.97.92,1.07.04,2.14.58.15-.45-1.02-.72.36-.32,1.27,1.06.79-.1-.08.74,1.43.44-.02.97,1.25-.43,1.17.54-.69.23,1.15.14-.51,1.99,1,.23,2.47,4.29,1.2,1.23.38,1.19-.36,1.32.43.52-.48,2.09-1.53,2.81-5.69,4.6-.59,1.28-3.24,3.54-3.08.46-.41-.39-.51-.52.51.54-1.07-.36.56-1.3-.82-1.68-1.86-.69-.79-1.33-1.33-.16.23-.36-.59-.42.26-.97,1.02.34.54-.97-.25-.69,2.19-.81-.26-.49.97-1.13-.71-2.87-1.23-.38-2.91-.21-.84,2.29-1.53,1.77-.13,1.12-.87.54.46.54-.54.4h-5.74l-3.85-.81-6.96-2.58-1.43-.03-.99-.79-2.27-.21-3.52-1.73-2.83-.85-1.02.12-5.35-2.59-.66-1.68-2.29-1.28-1.07-1.82-.46-.25-.46.5-.76-1.26.23-.52-.66-1.73.02-.8.66.22.82-.4-1.07-.25.64-2-1.4-2.47.97-.86-1.17-1.17-1.53.69.2-.67-.59.14.05-.67-.69-.14.71-.27-.15-.74.66-.33-.71-1.17,1.71-3.55,2.47-2.79,1.91-.17,2.04-1.19,1.63.02.66.58-.61-.6-2.01-.21.41-.58.61.09.1-.79,1.1.14-.43-.34.43-1.13-.2-1.21,1.63-.09.15-.72-.66-1.04-1.4.14-.31-.36-.71.18-1.96-.86.66-.4-1.1-1.41-3.95-3.62-1.1.11-.46-.6-2.19-.75-3.82-.2-1.58-.09-.38-.77h-1.07l.1-.88-.69-.71-1.1-.2v-.4l-2.68-.43-2.14-.63-3.98,1.1-1.43-.11.28.9-.41.34.97.14-.1.45,1.48.5-.15,1.62-.56,1.07-3.01.61.15,1.37-1.25-.63-.74.7,1.71.5-.05,1.17.59.89.64-.23,1.48.88-.54.67.61.97-1.15.04-.28.38-1.33-.47-.23-.61-1.68-.47-.36-.68-1.4-.7.64-1.7-2.93-.23-1.61.92.59.54-.82.52-.56-.43.31-.36-2.07-.5-.48-1.24.97-.16.08-.4-1.27-.6.92-.07.59.76,1.48.05.79-.43-.74-1.33-1.4-.09-.48-.52.66-.69-.26-.66-.87-.58-.69.79-.51.77-.87-.09-.05.52-.08.92-1.2.02.33,1.28-1.51,2.14.28.54-.43.6-.74-.79-.87.2-1.15-1.57-.64-.2-.54.13-.18.85-1.1.36.71.25v.59l-1.25.77-.36-.29-.69.33.13-1.21-.69-.29-.74.52-.05-.45.33-1.42.92.47.41-.48-.43-1.08-.87-.34-.1-.61.38-.63-.54-.99.59-.79.1-.58.77.35-.28-.85-1.71-.49-.87.34-1.02-.92-.99-.12-.77.61-.54-.63-.69.49-.61-.14-.18.47-2.91.65-.69,1.12-.61.07-1.02,1.05.28.56-2.24,1.19.1.43.66.13,2.09-.32-.74.47-.08.65-.69-.02-.71.11-.99.83-.71.38-1.81.69-.43,1.82,1.86.2-2.01,2.06-.56.2.13-.61-1.48.21-.41,2.44-.66.74-.58.39.48.81-.71.76.59.05.02.49-1.99,1.15.31.54-1.07,2.6-1.1.81-.23.43-1.63.52-6.5-2.07-1.53-3.07.13-1.86,6.53-.09,2.8-1.89.79-1.49-.79,1.48-2.8,1.9-6.53.11,2.75-2.78,1.3-.36.18-.47,1.96-.41.05-.51-1.05-.36-.28-.87,1.05-1.13-.1-1.26,1.35-1.34-.64-.74,1.1-.04,1.58-1.33-.31-.42-.48.22-.66-.4,1.1-1.19.05-.76-.71-1.48-1.2-.38.69-.71.33.36.46-.21-.15-.54.05-.65.77-.15.71-1.42,2.55-1.35-.03-1.41,4.56-2.11,4.46-.92,1.84.2,2.8-.5,1.71-.81,1.28-1.31.92,1.12,1.3.23,3.57-.23,1.76-.72,2.04.02,3.19-1.84-.02-.97-1.1-.29-1.15-1.26,1.79-.54-.13-2.35,1.1-.4.84-1.68,1.27-.69,4.54-.49,3.32.58,1.15-.2,1.17-1.19.76-1.95.77-.23.84.5.84-.22.23-.81-.87-.34-.74-.79v-.58l2.22.29.59.88,1.91-.47.23.51-.84.69.1.38.92.58.84-.29.76.29.89-.3.97-.52-.89-.2,1.2-.27,1.04.76h1.84l2.17,1.68,1.53,1.21-.1.79,1.4.79-.05.6.84.76.33,2.14.64.63-.59.33-.03.81.69,3.37-2.96,1.55-1.07,1.37-1.84-.11-2.88,1.1.33,1.03.97.61.94-.74,2.04-.5,1.45-1.57,1.81-.78.54-.72.79.23,1.15-.29,1.27-1.04,3.26-1.21,5.25.34,2.52-.7,1.63-1.84-.69-1.32.64-1.39.77-.49.05-1.8,1.2-2.16,5.12-2.22,1.1.09-.28.81,1.55.45,1.22.88.99.07.33.52,2.91.25-.46.58.74-.51.2.65,1.33.29,1.5-.54.46-.54-.41-1.23,1.12-.99-.36-1.28-.77-.25-.08-1.15.69-.67h.74l-.51-1.33.94-1.56-.41-4.13,1.48-.78,1.94-.11,5.97,2.43,2.07,2.45,3.24-.47.94-2.22-.61-2.25.51-.49.1-1.37.71-.36.54.14.66,1.53,1.61,1.05,1.99.05.03.58.33-.56,3.32.4,3.52-1.1-.3-.34.89-1.19-.59-1.89.41-1.42-.97-1.37.02-1.39-1.68-2.41-.33-1.5-2.35-5.9.36-3.03,1.51-.7-.13-.85.84.36-.33.54.82-.07.97-.02.36.77,1.56-.11.46.49.66-.18-.36.47.89.58-.15.47.77.7-.36.43.36.58,1.86,1.1,1.25-.09.97.51,1.05-.2.02.7,4,.67,1.12.6v.56l1.63.11-6.5,4.63-.26-1.8-2.06-1.21,2.04,1.21.28,1.8,6.5-4.61.03.54,1.17.57-.13.42-.89-.16-1.02.43-.05.41.87.63.56-.16.61.85,1.07-.36-.18-.45.61-.27-.02.65-.69.32.64.83,1.3,1.89,1.12.92,2.65-.6,1.91-1.42,1.48.05-.61.51.25.49-.92,1.84.23,1.16-.82,1.55,1.2.77.28-.42,1.55,1.88,1.48,1.08.51.12.69.56.13.58-.74.25,1.33.22-.71,1.03,1.07,1.08-.77.11.46.3-1.02.54.1.6-1.89.27-.59.29-.05.61-.94.23-.03.54,1.25.43-2.19-.05-3.16,1.28-.84,1.05,1.63.79-.43.47,1.12.97.76-.03,2.12.22-1.25-.74.87-.22,2.02.2,1.04.58.97-.25.89.23.64-.5.36.31-.43.5,1.51.07.2.65-.51.27.54.4-1.33-.12-.56,1.17.97-.05.28.58-.92,1.1-1.43.34.69.61-.28.54,1.76.13.51.49-2.85,1.73,1.12,1.19,1.76-.52,1.91-1.19.64.07-1.1,3.57.92.4-1.4,1.17.28,1.12-.61.11.33.69,1.3-.11-1.63.94h-.74l-1.02,1.19-.03.7.92.43-.41.41.38.62,1.58.04-.05.47,1.07.16.26.45,1.63,1.37,1.22-.09,1.4.61-.71.58.38.65-.33,1.01.94.81h-.59l-.15.76.92.27.64,2.31-.15.92-1.43.04-.26.34.08.89.99.18-.87.6.53,1.28-.74.38.61.67ZM185.38,408.52l1.86,1.42,1.76.56,3.29-.89-1.45.94-2.12.54-3.06-1.5-.77-.67.48-.42ZM195.33,401.58l.46.61-.92-.05.46-.56ZM193.29,401.27l.38.61-1.05.11-.33-.42.99-.31ZM196.63,390.74l1.33,1.05,1.51-.11.28,1.28,3.47.11,1.2.63,1.55-.07.82.58-.92.9-2.5-.11-1,.38-.82,1.62.18,1.46-.56.38-5.46,1.1-3.16.14.08-.63-1.48-.45-.64-.97-1.23-.58-.2-1.06.54-.41-1.07-.79-1.02.12-1.15-.63.36-1.21,1.15-.79,1.96.65,1.51-.42,2.57-1.75,1.07-.27.61.11,1.02-.26ZM192.8,408.61l1.02.13.03.61-.38.05-.87-.25.2-.54ZM193.47,390.65l.46.24-1.1.83-.87.13.38-.87,1.12-.32ZM335.92,378.7l.97.76,1.1.16,1.35,1.24-.82,2.31.66,2.52-1.07,1.25-1.61-1.95-.43-2.83-.61-.2-.64.36-.59-.83,1.68-2.8ZM335.05,385.06l.76.07.56.61-.23,1.07-1.02-.26-.71-1.08.64-.41ZM204.58,384.05l.33.27-.26.85-1.66-.18.28.38-1.43.85.56-1.03-.3-.25.64-.56.71.22,1.12-.54ZM228.6,372.08l1.17.4.64.5-.36.2,1.45,1.05-1.94-.24.97.89-1.2-.27-.71.77-2.01.33-.64.83-.97-.52.18-1.12-.84-.22.56-2.07,1.33-.35,1.58,1.79.48-.27-.15-1.32.46-.38ZM273.6,373.85l-1.33,1.19.13.51-.92.47-.1-.95,2.22-1.21ZM239.95,275.19l1.91.16.82.32,1.94,1.01,3.49-.11,2.29.92.89-.47.84.5-.77.29.99.18.49,1.77,1.25-.2-.38.69.46.65-1.02,1.21-.59-.29.18.58-.84.93-.77,2.98-.64,1.41-.51.16.23.43-1.61,1.28-2.47.93-.87,1.62-.18,2.85-1.76,2.54-.13,1.51-2.07,3.41-1.71,1.35-.2.85-1.02.5v1.37l-.77.4,1.15,3.61-.23,2-1.2-.6-.66.72.61.81,1.3.09.28.54-.51.41.05-.47-.53-.18-.69.99,1.3.02,1.17,1.86,1.68.4,1.22,2.29,1.48.76.51.92-1.07,2.99-3.14,3.14-1.96.52-.92.79-.59-.22-1.43-.34-2.24.76-2.83-1.01-2.45-4.06-.51-2.83-2.68-.94-4.59-.45-2.3-1.08-2.91-1.95-.69-1.41-1.48-.58-.59-1.62-.84.09.56-1.06-1.05-.31-.87.32-.38-.36.89-.74-.94.21-.61-.43.69-.99-.41-1.23.48-.72-.94-.58,2.14-1.7.71-2.09,2.12-.29,6.02.23,4.39-2.43,1.76.09,1.66-.88-1.04-3.55.02-1.95.89-2-2.62-4.13,1.2-.81,1.02.11.99-.45.08-.45,1.38-.77.94-1.95.1-1.19.66-.16.18-1.69-.66-.42-.28-1.28.56-.39-.18-.72,3.31-.77.84.49,2.6-1.76,1.04-.08,1.51-.85ZM297.8,322.82l2.63,1.46.74,1.55-.26.42.59.27-1.2,1.12-1.25-.63-2.52-.43-1.58-1.39.28-1.72,2.57-.65ZM255.55,321.63l1.1.16,1.07,1.59.94.38-1.15.9,1.76,1.21-.79.65-1.56-.13-.66.65-1.32.2-1.12-.18-4.08-2.5.66-.85,1.17.29,2.27-.34,1.22-.69.49-1.33ZM273.04,267.65l-.23.52.54.13-1.25,1.34-.08,1.58-2.01,2.06.54.07.05.52,1.68-.07.1,2.13-.56,1.32.94,1.28-.87,1.17-.13,1.55-.92.72,1.1,4.76-.56-.13.25.92.33-.25.1.29-.18,1.48-1.3,2.29.87.81-1.78,1.04-.33.47-3.11,1.06-.82,1.12-3.72.63-.36.79-2.7,1.88-.18,1.14-1.5.05-.99,2.4.38,1.26-.69,1.06.05.97-1.33.47-.54,1.12-.92.36.08,1.23-1.07.72.02.95-1.66,3.41-4.39,4.02-1.94.2-.15-2.27,1.76-7.77,1.05-.88-.02-1.4.79.05.38-.99-.31-.85-1.04-.32.13-1.14.51-.25.26.83.51-.24.46-2.05,1.25-.34.08-.49,2.6-1.95.38-1.14,2.09-1.91-.03-1.77,3.29-2.32.31-1.12,1.48-1.15-.38-1.26,1.5-1.71-.08-.72,2.27-2.42,1.17-.38,1.35-2.61.56-1.24,1.99-3.19-.03-.47-.43.21-.79-.86,1.22-.87.08-1.15,1.2.65-.87-2.81,1.78-1.16.33-1.17,2.42-.2ZM264.43,312.29l1.35.49-.1.6-2.7,1.42-1.76.14-.23-.79-1.1-.33,4.54-1.53ZM344.9,309.16l-.13.67h.82l.05-.31.36.47-.43.18.08.93.89.11.2.58-.89,1.08-.18,1.51-.92.22-.02-.4-1.33-.65-.59-.38.69-.33.18-.07-.13-.76.74-.02-.41-1.1.36-.2-.74-.49.56-.2-.26-.74,1.1-.13ZM281.79,297.87l1.89.92.02.69,1.07-1.08.87.65.08.67.84.09,2.47,1.26.92-.54,1.63.97.56,1.24-.64.15.36,1.64-.66.18,1.48.29-.64,1.08-1.76.63,3.19,1.21-.26,1.4-.74.58-1.94.29-.89-1.1-.46.04-1.43,1.07-1.5.32-.36,1.55-5.38,1.5-2.73-.32-4.9.58-7.83-1.3-.36-.85.97-1.37-.28-.18-.92-.47-1.96.06-.1-1.46.81-1.1-.71-.38.08-.43,1.02.23-.2.38.97-.56.18-.61,1.22-.32-.23-.43.56-.47.41.45,2.63-1.21,2.52-.31.64-.58.71-2.16,1.4.04,2.07-2.38h.97s3.82-.04,3.82-.04l.51-.49ZM346.35,309.77l.99.79.89-.69,1.55.11v.52l-1.38-.09-.99.83.03-.57-1.35.38-.28-.67.59-.18-.05-.43ZM349.46,300.85l2.27,5.09-.36.36-.51.18.05.09.89.47.71-.22.25,1.05.77-.02-.18.58-1.89,1.05-2.42-.16-.99-.47-2.04-1.12-.89-.63.41-.54,1.3-.04-1.28-.65.61-.63.31-.63,1.45-1.37.56-.79-.28-.63,1.25-.95ZM336.12,308.15l.2.11.87.31-.56.76-.97-.31-.2-.76.66-.11ZM333.4,308.25l.97,1.03-1.33-.42h-.33l.69-.61ZM333.42,289.72l1.48,2.18-1.3,2.36.23,1.5-1.2-.49.13.61.87.13.56,1.19-.51.32.2.58.84-.08-.69.51.1.76,1.4,1.69-.97,1.8.26.83-.87.4,1.94,1.53-.23.7-.92-.04-.38.42-.89-.77.02.5.56.34,1.15-.05-3.72,1.28.18-.74-.61.31-.05-.52,1.61-1.89.79-.18-.02-.62-1.91-.45.97-.16-.97-.43-.54.02-.69-.39.79-.24-.26-.81.08-.41.59-.22-.05-.7-.69-.27.18.63-1.07-.52-1.45.58-1.4-1.97.54-.25.43-1.1,1.02.02.03-.22.64-.32-1.15-1.08.33-.92-.13-.26-.15-.97,1.71.04-.33-1.69,1.17.63.61-.18.61-2.08,1.15-.83ZM262.08,305.59l.66.12-1.05.69-.23-.79.61-.02ZM332.89,316.01l1.35.16-.48.3.28,1.28-.56-.14-.28-1.14-.74.18.43-.65ZM294.26,298.43l-1.07,1.15.51-.07.05.7-1.68-.11-.31.99h-.64l-.31-.72.46-.58-.54.14-.02-.58,1.05.13.13-.52.77.57.18-.76.46-.18.97-.18ZM328.58,311.04l1.45,1.33-1.66-.67.2-.67ZM345.97,309.65l.43.49-.36.7-.92.74-.71.2-.36.29-.46-.16-.1-.33.31.2,1.73-1.25-.28-.16.84-.13-.13-.6ZM263.94,311.02l1.45.13-1,.6-1.04-.6.58-.13ZM277.71,297.74l.3.16-.53.48h-.03l-.72-.26.97-.38ZM270.21,293.47l.74.58,1.48-.54-2.4,2.04-.59-.02-.94.45-.38-.38.92-.49-.15-.23-.36-.04-.51.22.23-.81,1.96-.77ZM193.75,252.62l6.68,1.91-6.68-1.93-2.04.2,2.04-.18ZM238.78,262.42l-1.43,1.48.89.63-.38.74-.59.12.25.49-1.27.38.33.88-.61,1.89,1.22.83-.15.92-.64.25-1.61-.85.2.49-1.4.02-.79,2.04-1.28.94-.1-.29-.84.11.46.43-.43.45-.64.02.28-.67-.74-.25-.69,1.24-1.3-.31-.79.38v.74l-.79-.31-1.86.42-.84,1.1,1.17,1.42-.46.09.2.97-.92.27.13.63-1.35,1.12-2.17-.38-.28.49-2.04.12-.82.76.46.51-.74,1.1-4.74-.02-7.01.83-1.1.61-1.45-.09-2.45,1.46-1.83.29-.66,1.33-1.81,1.59-2.65,1.68-1.89-1.12.1-1.58,1.68-1.27.77-3.17-.48-1.33-1.61-1.3,1.02-1.26,1.3-3.3,2.68-2.78-.82-4.34.76-.94-.05-1.03-.94-1.05,1.2-1.16-.23-3.42.87-.29.41-.65-.28-1.12.92-2.85-.08-1.62-1.4-.99-.71.27-4.85-.96-1.27.31-1.56-.16,1.73-.49-1.73.47,1.4-1.44.15-2.31,2.32-.47.51-.58,4.64,2.74,3.19.33,1.33.5.92-.18.64.74.76-.22,1.94,1.64,1.2-.06.89-.04-.33.74,1.07-.42,1.33,1.61,2.93,1.69-.51.29-2.55-1.82-1.05.29,1.23.74.08.86.84.13.23-.58.46.79-.66.04.31.63,1.12.03.56-1.12,1.61.43,1.05.34-1.07.25,1.45.16.53.51v.42l1.4.02,1.1-.52-.84-.27.59-.76.38.87.43-.02.51-.09-.18-.52,1.68-.4-.36-.49-.31-.29.41-.09,2.93.11.05.36,1.28-.42.13.38,1.02.79.31.31-.36.59.41-.14.43-.14,2.01.79-.56.36-.26.11-1.02.29.31.56-1.12.38,1.3.85.33-.33.41-.47.13-.87.66.2.28-.09,1.78-.09,4.13-1.68,1.96-1.5.54,1.01-.94,1.5-.64-.54-.28.31-.69-.13.66.67,1.05.12-.51.42.94-.31.51.49ZM219.47,282.02l2.04,1.03.31.65.2,2.07-1.63,2.32-.1.83-.69.8-.71.02.08.56-.74.43-1.78.16-1.45.6-1.07.02-.26-1.21-1.3-.81.33-.72,1.51-.25v-.67l-.49-1.12,2.01-1.66-.08-.61.77.14,1.1-.45.2-1.17,1.76-.96ZM326.89,289.98l1.17.47-.15.63-.79-.13-.54-.81.31-.16ZM221.21,289.65l.87.58-1.73.27.15-.67.71-.18ZM273.45,300.74l-.69,1.37-.49-.12-.3-.32,1.48-.92ZM238.04,271.06l.26.34-1.43,1.15-.31-1.01,1.48-.49ZM260.35,267.06l.77.45.69,2.06,1.53,1.19-.03.4-3.32.38.43-.74-.59-.02-1.12-1.71,1.63-2ZM238.88,269.26l.84.04-.69.72-.56-.48.41-.27ZM238.78,266.77l1.1.52-1.68,1.24.1-1.53.48-.23ZM240.76,261.32l.33.38.33.87-1.1.11-.61-.45.31-.72.74-.18ZM239.95,260.49l-.2.76-1.38.57.36-.89,1.22-.45ZM114.22,248.54l.79.58,1.84.27-1.15.14.41.72-.41.11.69.16-.02-.63.64.27.59-.43,1.15.09.18.43-1.55.47,1.38.11.69.83.26-.34.99.36-2.04.52,1.15.09-.82.4v.54l.48-.23,1.17.72-1.48.83.89.04-.33,1.04-2.63,1.41-.43.04-.48.18-.54-.09.38-.29-.48-.14-.05-1.46.59-.31,1.89-1.23-.69.05-.43-.14-.38-.27-.02.97-1.3.1-.87-.88-.51-1.03.79-.38-1.71-1.42.08-.88-.97-.54.28-.22,1.43.87.13-.56-.77-.25-.05-.47,1.28-.14ZM241.5,231.38l5.43,1.62-1.5.07.82,1.51-1.43.45.38.54.56.25.54-.88.89.12-.69-.74.28-.42,1.15-.41,1.53.18,3.52,1.88.71-.34.56,1.37,1.51.77-1.35.78,1.78-.18.43.05.72.49.71-.2.97.45,3.37,3.77.41-.16-.48-.69.71-.49.87.2,1.22,1.17.69-.78.84.36.92,1.57,5.07,5.05-.13.58-1.38-1.68-.56-.09-.2.65.79,1.01.43-.02,1.73,2.71-.56,1.6.59,2-.79-.14-1.38-1.62-3.6-2.18-.56.09-1.71-1.01-5.3-.89.23-.41-.61-.27.74-.67.74-.06-3.85-1.77-.33-.52-1.53-.23.54-.58-2.96-3.16-1.43-.36-2.7.63-2.32,2.54-1.25.41-.43.63-.36-.14-.69,1.44-5.25,3.21-.69-.7,2.06-2.4-.23-.52.61-.56.43-2.02.87-.14,1.61-.68-.48-.98.59-.45-.84-.86-1.28.79-.48-.58.69-.05-.46-.78,1.68-1.82-.28-1.19.58-.25.51-.94-.43-.18.48-.34-1.48-.47-.51-3.96ZM237.58,251.68l.31.27-.79.47-.13-.5.61-.24ZM127.3,248.33l.92.41.18.92-1.07.77,1.5.02.2.61-.08.38-1.33.38-.38.24-2.14-2.42,2.19-1.31ZM113.86,238.88l1.12.27-.1.58.61.41-.36.33,3.24.43,1.27.74.56,1.03,1.43-.29-.05.67,2.47,1.51.86.09.08-.54.94.14-.28-.77.51-.99-.56-.63.51-.18.23.76.74-.04.13,1.87.51.18.59-.52.43.81.59-.11.23.56.97.2.3.97-.61.51.59.69-.15.56-.66-.23-.74.52-1.79-.69-1.07.67-1.81-.71-.31-.58-.48.22-.94-.29-.31.34.51.45-.41.32-.28.33-.77.5-.74-.71.31-.32-1.3-.54-.26.63-1.02.18-.23-.49-1.38-.07-.23-.42-.15-1.1-.61.21-.56-.49-.18-.39-.08-1.34-1.17-.72-.18-1.06-.59-.04-1.07,1.51-.15-.79,1.02-1.28-.64-.29.02-.49.31-.47.46-.56-.59-.58,1.25-.51ZM191.81,245.22l.97.87-.28.94-1.68-.85.18-.59.82-.36ZM198.67,229.36l1.45.4.33.78-1.25-.09-.31.45.69,1.03v1.19l-1.05,1.1-.92,5.09-1.78,2.35.08.99.46-.16.51.47-.33.27-.54-.25-.82.65-.38,1.59-1.17-1.19.26-.51-.94.11-.28-.9.33-1.37.31,1.14.51.22,1.12-1.21-1.45-.83-.49.16v-.52l-.69-.04-.18-.54-.66.29-.23-.86.64-.43-.41-.29.56-1.3,1.73-.43.69-.97.41-1.37-.92-2.11.36-.76,1.5-.65,1.35-.05,1.63-.94-.13-.47ZM158.71,239.71l1.3,1.75-.28,1.17.69-.23.79.94-.61.36-1.3-.58-.43-1.06-1.43-.34.2-1.77,1.07-.23ZM191.3,253.92l.23.93.72.29-.28.42-1.35-1.33.69-.3ZM156.55,241.44l.84,1.01-1.12-.11-.2-.51.48-.4ZM134.06,205.87l1.99.61,3.14-.11,2.19.54,2.09-.11,3.11.79,5.3-.97.87-.38,1.12.25.41.02.82.97,3.16,1.73,1.25-.29.54-.07,1.25.22,1.73-.2.66-.56,2.45,2.27.08-.29,1.4.56,2.88,2.92,1.35-.07,1.05.4.08,2.31.99.25,1.5-.45,1.84.88v.83l-1.99.96-.71,1.01.48,2.2-.61.97.43,1.5-.69,2.05,2.78,2.87-.1.38.08.67-.79.99-.05.14-.76,1.17-1.66.83-.97.04.28,1.08-1.35.9.13,1.3,1.51,1.03-2.63-.05.54,2.05-.56-.23-.59-.11-.08-.76-.79.04-.48.85-2.14.29-1.3,2.04-1.27-.81-1.94-.13h-1.79l.02-.6-.74-.63.59-.29.79.34-.2-.68-.59-1.21-.74-.2-.61.45-1.2-.36-4.41-4.02-.23-.97.71-1.03-.36-.92-2.45-2.09-.31-.76-2.52-.47-.26-2.43-.87-.49,1.22-1.84-.69-.7-.31-1.01-.03-.29-1.17-2.18-3.19-3.64-1.68-.29-1.45-.81-1.84.14.05-1.15-.74.02-.87-.75.18-.73-.76-1.53.28-.65-.46-.47-.99-.32-1.71.45.15.65-.51.33-1.4-.2-1.35-1.06-.41-.69,1.05-1.25,1.43-.66,2.35-.33ZM256.32,228.83l1.17,1.19,2.09.72-.46.22.23.12.87-.02.36.8.03.38.46.89.1.2.71,1.01.18,2.16.66.18-.26.97.59.05-.46.88-2.35-1.75-1.63-1.68.05-.52-1.99-1.68-.89-1.75-.43.16-.79-.83.13-.61.38.58.38-.34.51.27-.69-1.1,1.05-.5ZM245.53,189.87l.66.78-.15.63.71.36-.82.07-.38.68.82.13.89-.72-.18.76.59-.09.28.36-.46.31.87.07-.31,1.1.84.52.51.22.48-.41-.43-.2.13-.83,2.04.81-.46.77,1.02-.48.15.43.84.17.1-.67,1.1.45.33.05.76.6,1.58.3.76-.3.61.43,1.3-.16-.46-.22.59-.85-.36-.58.87.63.46.74.66.81.84.09-.23.29,1.02.09,1.71,1.01.77-.41,1.22.81,1.61.02.28,1.15.82-.03-.02,1.28-.2-.49-1.02-.25-.18.45-2.27-.51-1.4,1.1-1.3.27-1.99-.63-2.91-.29-.64.4-3.72-.81.38.52.54-.18-1.27,1.33-.61,1.51.41.47.26.05-.79.97.64.4.74-.29.64.25.64.83.15.22.74.65,2.01.38,2.65,4.31,2.58.9.69.61,1.33.72-.2.47-2.29-.38-1.02.27-.79,1.64.1.67,1.12.83-.38.69h-.94l.54.41-.48.25,1.91.49,1.27-.99.1-.74.66.03.26-.72.61-.21,2.32.68.36.32.89-.07,1.91,1.57,1.66.52.74.85.87-1.6.94-.42,2.09.22.33.36-.02.52-.26.14.38.33-.97.41-.25-.65-.33.23-.58,2.32-.97.65.33.48.82-.1.33,2.4-.94,2.13.18,1.7-1.58.95.61,1.14-.97.34.56.45-.71.83-3.49-.23-2.01-1.52-.05-.74-.66.23-.31-.59-1.32-.45-1.73-4.74.2-.24,1.07-.65-.18-.41,2.88.85.51-.85,1.45-.12.38.45.82-.36.94-1.44-.74-1.21-2.09.5-1.04-.09-.74-.6-1.38.05-.08.77-.02.33-.87.45-.15.63-.69-.16-.31.79-.46-.41-.82.77-1.27-.68-.03.65-1.07.52-.23-.72.64-.3-.41-.41-.99.38-.08.14-.54.36-.77-1.21.41.14.15-.34-.18-.18-1.3.72.54.2-.36.52-2.42-.94-1.2-1.1-.77-.13-.33.32-1.86-1.42-1.1-.99-1.71-.58-3.26,1.1-.89-1.33-.61-.02.54-.79-.28-1.75.84-.54-.23-.56.87-.29-1.96-1.78-1.43-.76-1.1-1.55-.13-1.39-.69-1.04-5.38-2.04-.46.18-1.3-.58-1.02.04-1.02-.79-2.35-.74-2.09-1.73-1.3-.31.97.02,1.43-1.12-.97-1.23-2.45-1.15-.87-.4-.87-.81-.99.14-.79-.36v.56l-1.02-.36-.61-.51.54-.36-.43-.86-2.4-.63.31-.56-1.17.12.54-.34-.77-.43,9.33-1.79,2.4.98,3.32,1.35,1.99,1.15,2.47,1.42-.48,1.68,2.93,1.37,4.23-.11,1.66-.56,1.73-1.41.15-.7-1.61-1.93,1.84-1.17.33-.9-.61.5-.48.65-.69.09-1.3-.6.18-.38-1.25-.16-.18-.85,1.4-.36-1.23-.41,2.09-.15-1.2-1.13.82.02,1.56,1.05-.36-.92,1.45-.04-.69-.61.54-.4ZM232.3,216.02l.61.58,1.25.05,5.3,6.1,2.12.11,1.4.54.46,2,3.72,3.44-.97-.07-.97-.7-2.75-3.05-2.4-.25-1.1-1.19-1.22-.2.33-.38-1.5-.52-.69-1.07-.48.16-.54-1.12-2.98-.23-.79-.88-.74.34.03-1.1.54-.5-1.23-.79,1.56-.43,1.05-.83ZM197.52,224.87l-.94,1.48-1.15-.08.02-.46,2.07-.94ZM197.37,221.45l.69.12-.38,1.08-1.2.32-.23-.86-.74-.38,1.86-.29ZM136.4,111.93l1.17-.5v.03l-1.17.49-.48-.42.48.4ZM156.52,183.06v-.85l-1.68-1.82,1.66,1.82.02.85ZM166.44,196.17l3.69.2-.02-.02-3.67-.2-1.32-1.3v.02l1.32,1.3ZM201.52,93.76l-.03,1.17,2.29,2.65-.54.23.69.45-.31.63.74.31.74-.22.05.61.92.22.46-.29,1.2.22.64-.52.84.38.59.2,1.38,1.95-.13.65-.38.78-.69.83.23,1.26.71.45,1.79.2.99-.74.74,1.24-.69,1.69-1.68,1.71.38.72-.76,1.33.38.43-1.43,1.72.28.77-.66.31-4.62,6.63-1.02.79-5.36-.18M199.25,122.35l5.38.18-1.1.45-.56,1.37-1.12.65.92,1.28.61-1.12-.56,2.04-1.25.61-.46.89.59.38,1.63-.63-1.2,1.23-.05.78-5.17,3.37.1.83-1.55,1.14-1.63.58,1.45-2.09,2.5-1.78.08-1.01,1.3-.59.08-1.01-1.43-.07-.84.63-.28.7.54.74-2.27.29-3.16,1.51-2.5.11-3.47,1.68-.76-.43-.69.23-2.93,1.79-.56.97-.89.12-.03.4-2.73,1.48-.08,3.1.71.99,1.07-.31,1.45.38.08,1.26-1.12-.09.08.65.18.99-1.25.43-2.04,2.45-1.43.59-.69,2.98-.82.18-.84,1.3-1.05-.59-.76.56-.41,1.46,1.73,2.7,1.07.51.54-.18.79.63.94,3.5,2.32,2.4.54,2.16,1.22,1.05-.43.72,5.05,3.66-1.25-.18-.56.02-1.96.96-.61-.54-.59.94,2.17,7.09,2.55,1.93.05,1.48,1.15.79-.18,1.12-.97.72.2.42,1.45,1.21,6.63,3.66,5.86,1.8,3.47.2,1.58.54.48-1.3-1.71-.47-.64-.97,4.46,1.03.28-.41-.51-.52.89-.24.25-.52-1.3.05-.08-.61-3.64-1.5-1.05-1.31.05-.52.87.58-.23-.67,1.27-.76.69-.11.46.47.13-1.82.89-.07-.51,2,.56.33-.23,1.03.69.12.94-.48-.33,1.48.33-.54,1.12-.36.28-.65-.41-.4-.18-1.21.51-.32.1-.43,1.27.27-.89-.9.79-.27.2-.79.94.06.26-.83.53.4,1.51-1.1.54.34.53-.29,4.34.67-.51.3.89.4,1.07.33-.41-.36.43-.68.61.4,1.07.49-.97-1.51.74-.2,1.04.18.33.76,1.07-.47,1.53.47-.21.7.82.07.74-.07,1.43.42,1.91,1.42v.72l.92.07,1.91,1.85.99.33,1.12.36.18.85-.61.11-.08.85,1.02,1.14,1.02.3.46,2.47-.51.58-.59-.08-.31,1.03-2.47-1.41-1.99-1.15-3.32-1.35-2.42-1-9.31,1.77-.77-.29-.15,1.03-2.83-.09-1.22-.72,2.6,2.89,1.48.88-.54.16-.05,1.08.59,1.06h-1.25l-.43.54.87,1.33-.23.49,1.86,1.28v.47l1.4.63h-.71l3.31,3.17.99,1.86v2.89l.54.18.46,1.21-1.73.41-2.24,1.3-1.32-.47-2.27-1.77.71-1.03-.54-.4.51-.45-.26-1.05-1.07-1.66-2.88-2.09-.43-1.08-2.68-1.01.25-.43-.64-.38-1.2-.04-.36.45-.74-.2.64-.31-.46-.36-2.22.13-.2-.99-1.99-2.27-.48-.7-1.51-1.1-.97-.16-.71.43-1.15-.58-1.66-.27-.33-.95-3.11-.61-.74-.92-.61.27-.76-.45-.38.31-.61-.65.28-.72-1.25.02-1.33-.79-2.07.2.43,1.07-3.16.42-.33.5-.51-.38-4.13,1.4-1.45.88-2.75-.81-.48-.46.48.49,2.78.81-.94,1.62.66,1.14-.23.67.61-.11.38.45-1.78.81-1.48-.38-3.75,1.96h-.97l-1.05-.85h-1.17l-.71-.47-4,.71-1.61-.39.64-.9.31-1.52-.38-.45-.59-.78-1.35-.47-1.4.29-2.73,2.47-.74-1.03,2.07-1.17-.97-1.66.48-.23-.1-1.28-1.2-.67-3.47-.74-1.84-.24-1.33.42-.36.79.94.96-.18.45-2.47-.52-.08.83.97,1.13-.71.58-1.38-1.19.36-.32-.51-.32.05-3.27-.64-.58,1.07-.07-.64-1.57.38-.61-.15-1.68-2.01-.59.76-.2.87-.04-1.4-.7,1.53-.2-1.15-.43.46-.99.99.24.05-1.24,1.25-.54,1.45.14.77-.42.66-.52,1.45-.49,3.85-2.74.89-1.68.74-.25-.33.43-.56.92.64-.2,2.45-.45.76-.74-.59-.18.43-1.44-1.61-.97.18-.51.46.34.1-1.03-1.76-1.49.41-.28-.43.28-.69-.58-2.24-.78.03-.7-.56-.14-.94.47-1.71-.04-.66-.2-2.12-.2-.77-.11-1.61-.65-1.3-.45.26-.36-.61-.13.15.45h-.97l.08.72-.43,1.77,1.35,2.07-.15,1.01.84,2.07.31,1.68-1.73,1.54-2.83-.31.41.79-1.17-.22-.89-.9-.82.16-1.35-.5-.59-1.82.61-.34-.36-.33.48-1.08-.99-1.08-.74.2-.61-.47-.74.29-2.45-1.84.2-1.18.97-.04-1.45-.7,1.5-.52-.92-.23.36-.36,1.09.04.13-.47-1.02-.13-.15-.7-.89-.03-.77-.85-.87.35.48,1.39-1.35,2.09-2.42-.6.76-.11-.56-.47-1.43-.11,1.02-.97-1.15.22.18-1.1-.46-.69-.76-.48.54-3.35-.46-2.38-1.63-3.68.18-.9-1.05-.92-.92-.72.08-.6-1.43-1.06-.89-.43.08-.47-.69-.38,1.05-.49-.61-.65.15-.61.51.47.94-.04.13-.52.82-.31-1.2-1.31.46-.47-.79.02.05.45-.18-1.12-.79-.74.82-.61.33-1.37-.64-.38-.64.16-1.2-.95,1.55-.56-.84-1.44.99-.9-1.96-3.23-.61-.43-1.3.41-.31.94-.74-.27-.51.49-.87-1.4.38-1.3.56-.34-.71-.68.26-1.64.74-.76-.38-.85-.69-.2,1.15-1.91-.18-1.95,1.38-1.39,1.53.02,1.05-.99,1.58.69-.18,1.95.94-.29-.23-.36.48-.29-.13.58.61.22.1-1.1.92-.14.38.74.87.25-.92,1.03.76,1.01-.97.52-1.1-1.3-.61.04.13-.4-.61-.4-.51.29-.31,1.21.54-.23,1.02.4.92.33-.15.5,1.1.36.61.71.38-.65.51.22,1.12.14v.43l.56-.2.92.7-.84,1.04.94.79-.56-.04,1.73,1.15,3.03.13,3.88-.92,3.75-2.65-.31-1.28-.59-1.21-1.35-.59-.64-.25-.13-1.82-.84-1.21.26-2.22-1-.91.26-.52.38-1.49-1.61-1.28,1.17.18-.02-.9,1.15-1.12.13-1.37-.66-1.9.41-.97,2.45-1.22.46-1.16,1.63.38-1.66-.4,1.4-1.66-.36-2.79-.43-2.72-.87-.97,1.22-2.13-.33-1.37.69-.09.43-1.41.33-.54-.61-1.07-.64-.15.15-.77-.48-.52-.74-.5-.66-.15-1.35-.83-.28-.76,1.05-2.67,2.47-1.76-.23-.6-.89-.09.74-.49-.89-.58,1.05-.28.2-.53.87-.04-.69-1.14.15-1.03-.54-.38,1.4-.75.31-.94.92-.59-.94-.92.15-1.46,1.3-1.48.23-1.42,2.24-2.67.92-1.89-.2-1.88-1.25-2.29,2.37-1.51,3.44.51,2.19-.42.61-.79-.23-1.45,2.5-.83,2.45,2.49,1.61.13.71-.65,2.37-1.1.94.38,1.2-.21,1.3-.38,2.8.56,4.05,2.31,3.39,1.15.69.22.3.54,1.4.14,5.84,2.36,10.89,2.85,4.51-.5,3.03-1.93.38-.76,1.12.04-.2-1.21.87-2.35.71-.41,2.65.14.54,1.91,2.45,1.6.97,2.4-1.4,2.54-1.51,1.39-1.76.47-1.91,1.96.08.51.64.13-.43.77.61.45-.46,1.86.41,1.39-.99.69.23.92-.74.27.28.52-.74.67.26,1.53.92,1.13-.46.47.41.36-.15,1.62,1.05,1.79M275.59,213.89l2.86.67.51.99-4.28-.33-1.79-.54,2.7-.79ZM189.28,204.64l.15.49.59-.15.23.6.79.29.51-.5,1.43.34,1.17.25.43-.72.92.56-.38.43.94.02.38.72-.54.05,1.2.23.43-.36,1.56.94-.38.81-.59-.24-.05.34,1.89,1.41-3.95,2.59.26.99-.97,1.15-1.76-.23-1.2-1.12-3.24-1.01-1.76-1.66.18-1.6-.54-1.21,1.96-2.32-.31-.25.41-.27-.36-.38.58-.2ZM270.8,212.46l.97.78.61-.56,2.07.58-1.25.18.18.4-1.83.59-1.15-.27-.03-.34-1.58.13-1.38-.83.26-.4-.51-.23,2.35.18.28-.02.31.58.71-.76ZM265.09,210.62l2.91.72-1.71,1.3.97,1.15-1.02.4-.46.04-.1-.85-.38-.02-.79-.52.89-1.15-.84-.58.53-.49ZM261.72,209.15l1.58.36.77.7.94-.02-.64.7-1.35-.56-1.3-1.19ZM218.53,206.17l-.66.04-1.35-1.32,1.96.89.05.4ZM278.58,190.04l2.47,2.27.51,2.02,1.12.27-.2,1.1.56-.14.2-.92.94-.18.13.94,1.04.34.15.59.28-.76.08.63.2-.31.46.58-.59.18.84.36-.87.31.61.02-.2.58.61.49-.28.4-.94.07.64.76-.61.07-.36.94,1.17,1.43-1.45.56v-.51l-.46.09-.92.52.36,1.23-.94,1.07.71.22-1.07-.07-.1-.92-1.05-.22.31-.32-3.08,1.1-.26,1.34-1.38-.4-2.42-1.68-2.32-.27.61-.42-1.55-1.28,2.75-1.15,1.55-2.51-.31-2.47.77-1.17-.77-1.39-.08-.71.54-.34-.51-1.26,1.71.25,1.38-1.32ZM159.27,204.57l.56,1.08-.71.23-1.48-1.24.71.23.92-.31ZM149.53,201.4l1.07.65,2.65.2.74.52-1.58.4-1.22-.27-1.25-.45-.41-1.05ZM129.54,201.57l2.88.79,1.12-.04.41.76-1.33-.15-3.09-1.37ZM121.33,196.53l1.74.24,2.5,1.25.76-.29,2.5,2.4-.99-.04-.43.43.76.45.66-.18.28.69-.66-.02-.41.45-.54-.88-1.22-.2-.71-.67-1.1-.07-2.83-1.32-.23-1.42-.69-.36.61-.45ZM128.96,197.32l1.71.81-.08.49-.87.4-1.94-.9.84-.2.33-.6ZM119.17,195.57l.89.58-.41.32-1.15-.52.66-.38ZM184.93,194.35l1.27.11-.13.76.61.38-.41.52h-.43l-.99-.11-.54-.27-.08-.72.69-.67ZM263.84,193.46l.71.16-.33,2.2-.94-1.49.56-.86ZM257.11,193.39l.66.49.33-.16.28.63-2.01.99-.94-.18.13-1.3.59.58.59-.68.87.54-.48-.9ZM283.11,193.14l.33.45.77.69-1.12.11-.66-1.08.61.18.08-.34ZM191.53,186.25l1.38.9,6.22,3.21,2.4,2.18-1.22.2-3.88-1.72-.74-.73-2.01-.6-2.78-2.29.64-1.15ZM243.93,189.22l1.07.49-.38.59-1.07-.9.38-.18ZM187.65,184.36l.94.11-1.25,1.41-.64-1.21.94-.3ZM230.34,180.7l1.35.83-.97-.07-1.15-.69.76-.07ZM230.62,179.11l.38.03-.51.38.38.27-.71.11.18.4-1.63.12,1.91-1.31ZM192.32,163.43l.94.22-.15.34.87-.22,1.02.41-.38.63,1.53.06.25,1.21-.1.3-.87-1.14-.79.13-.74.83,1.04-.29.08,1.33-1.56.54-.46-.18.51,1.84,1.07.22.54.65.53,2.65-1.3,1.35-2.47,1.12-.92-.4-.43-.99.05-1.33.51.49.74-.14-1.1-2.52-1.17-.92-1.68-3.33-.41-.02.28.8-.38-.24-.41.36-.36-.36.69-1.8.66-.18.02-.88.77-.02.36.51,2.52-.97.54.38.15-.41ZM209.91,172.55l1.07.77-.54.38-4.49.31,1.1-.98,2.86-.49ZM201.24,169.34l.56.4-.28.63,1.66.61.89-.13.03,1.79-.56.18-.51-.85-4.69-1.5-.48-1.03.92.29.56.06,1.91-.45ZM195.15,174.41l.13.31,1.35.02.84.72-.87-.34-.71.38-.71-.16-.46-.76.44-.16ZM115.27,125.24l1.07.92.03.68-1.94-.43.08-1.03.76-.15ZM199.36,64.53l.89.07-.13,1.62-1.48.61.41-1.28-.59-.07.05-.4.84-.56ZM187.3,406.26l.51.76-.99.52-.41-.63.89-.65ZM188.11,413.05l.43.76-1.25.02-.13-.38.94-.39ZM335.44,280.11l1.25.7-.64.94.28.47,3.57.43.33.38-.43.58-2.17.18-1.07-.8-1-.16.13-.33-1.22-.25-.43-1.1,1.4-1.05ZM338.19,274.4l2.73,2.54-.54.04-2.29-2.04.1-.54ZM280.59,296.95l-.94.79h-1.1l-.33-.25,2.37-.54ZM277.17,296.81l.56.41-1.3.18.74-.6ZM191.07,52.56l1.1.02,1.79,1.24-.13.52-1.12.2-.25.9-2.3.9-.61,1.28-.84.4-.69-.25-.38-1.55,1.56-.34-.69-.97.79-.74-.18-.74,1.96-.87ZM171.97,55.34l2.45.65v.27l-1.15.54-4.03.4-2.07-.06-.64-.42.26-.74,1.1.18,4.08-.83ZM282.71,259.87l4.67,3.3,1.25,1.44.41-.47-.69-1.07.61-.25,2.22.83.56,2.35,1.28.93.87-.2,1.61.51,2.32-.38,3.49-1.86.51-1.55,1.81.16.61.45.94-.36.41.4,1.07-.54.54.94.89-.14-.41.54.38.27-.61.47v1.98l.56.74,1.17.05-.1.87.53.3-.46,1.46,1.22,2.45-.18,3.6-1.22,2.47.89,2.91.61.54,2.83.58-.41.62,1.68,1.4-3.7,2.69-4.31-.02-1.79,3.28.25,3.8-2.01.29-2.76,1.87-.59-.18,1.17-3.45-.94-1.08-1.28-.5-.46-2.96,1.76-1.42.18-2.31,1.25-1.05-.82-3.17-2.88-2.85-.89-1.59-1.15-.36-2.22-1.7-.94.11-1.25.88.49,1.3-1.3,1.69-1.51.05-1.07-.86-.64.23.2-.81-.69-.81-.18.97-1.53-.29,1.3-1.62-.18-1.39-1.35-.85,1.22-1.26-.66-2.54.08-.63.08-.47-.46-.85-.33-.4.18-.45-1.15-.27v-1.3l.74-.09-1.12-.34-.23-.49.89-.27-1.22-.24-1.05-2.16-.03-1.23.99-.68ZM314.58,285.61l1.63,1.23-1.05,1.19,1.05,1.64-.49,1.21,1.35,1.21.97-.25.71.63.36,1.98-.51,1.08-1.3.32-3.37-.79.28,2.81-.41.31,1.33.77,1.86.16,1.23,2.35,1.38,1.3-.33.65.97.97-.23.52-1.35.04-.28-.94-.97-.38-1.45-2.06-1.91-.66-.71-1.39.23-1.75-1.5-1.1-2.22-4.11-.64-.32-1.5.2.69,3.23-.36,1.13,1.76,3.43.18,2.26-3.52-2.1-1.2-.22-.59-.86-4.28-.32-.79-.69.1-.92.61.18,2.75-1.86,1.99-.3-.26-3.81,1.79-3.28,4.33.02,3.67-2.71ZM287.42,282.99l2.7,1.05.18.65-2.73.78-1.58-.02-.64-.43-.13.56-2.65,1.03-1.4-.13,1.1-1.48.46-1.77,2.24.52.38,1.12,1.07-1.55,1-.33ZM292.24,280.36l-.69,1.52-1.71.81-.13-.79,1.28-1.12,1.25-.41ZM286.97,255.93l1.53.04,2.68.83,1.76,2.92,1.32.69-.46,1.52-1.07.43-2.5.09-.31-.27-.92.45-1.43-.68-.76-1.44-.61.11-.59-.63.18-.97-1.51-1.33.15-.4-.59-.34,1.1-.65,2.02-.34ZM298.64,255.39l.28.69.66.18-.05.47,1.02-.36-.56.59,1.53.65-.74.72.28.5.41-.23,1.68.23-.71.61.28.88-.59.47-1.22-.52.54-.49-1.53-.22-.15-.94.79.34.26-.3-1.53-1.17-.48.25-.23-.94-.38.2.15-.76-.28-.29.51-.23-.54-.33.61-.02ZM302.09,255.86l.38.43,1.05.04.38.49.77-.16.2.42-.87.43.33.7-1.74-.21.13-1.03-.71-.42.08-.68ZM299.38,255.03l1.05.38-.54.76-.69-.36.18-.78ZM282.99,253l1.05.31-.08.81-.89.38-1.25-.79,1.17-.7ZM287.81,249.86l.66,1.1-.64.25-1.25-.32.23-.81.99-.22ZM295.2,250.09l.08.31.76-.02-.25.54-.92-.54.33-.29ZM308.51,230.22l.79.49.23.79,2.01.61-.54.53-.31.34.99.18-.03-1.17.89-.11.59.52,1.3-.59,4.64,2.54-.26.54,1.17.11.15,1.12,1.63.63-1.48.22.66.31-.69.05.25.57-.74.22.15.7,1.17.07-1.3.59.28.43,1.73-.69-.36.45.43.41-.71.11-.15.2.77.07.69-.97.97.09-.94.63.38.23.64.14.56-.43.25.33.26-.45,1.02.33.97.81-.33.45.87-.09.08.53.56.25-.03-.4.82.7-.18.58-.46-.33-.08.34-1.58.14.71.36-.28.38-.87.04.03.9,1.4-.05.33.3-.79.13,1.1.79.69.02-2.29,1.86-1.12,1.01-.23,1.7.89.66-.28,1.25,1.02.2.41.69-.46.56-.82-.25-1.05.63.74-.02-.23.27.54.25.82-.52.82,1.77-.46.25.82.32-.43.33-1.1-.2-.23.38.64.32-.94.81.38.65.97-.05-.18,1.26,1.76,1.42.13.56-.94.72,1.1-.18.84.43.31.87.41.32.77-.14.76.92,1.15.25-.74,1.5-2.58,1.17-.51,1.66,2.45.54-.36-.25,1.02-.02.18-.31-1.22-.7.48-.2,2.5.95,3.75,4.53-.41.5-1.3-.42-.61-1.03-1.17-.47,1.15-.83-1.4-.07-.18-.69-2.98.79-.28-.13-.64-.25.46-.58-1.53-.05-.71,1.88-.82-.52-.53-.18-.56-.52-.48.23.2.52-.74-.34-.1.54-.92.25-.13-.5-1.2.02-.54-.54-1.63.07-.77-.72-1.22.18-.46.52-.15-5.46.15,5.48-.69.87-1.02-.34-.54-2.31-1.71-2.54-3.04-.29-2.45.5-1.07-.43-.23-1.07.89-.83-.46-1.87-.77-.29-.15-.61-.71.13-1.45-.58.13-.52.03-.21-.71-.31.03,1.24-.41-.29-1.45.21-.74-.7.41-.2v-.34l1-1.23.53.58.84-.15.2-.38-.84-.14.15-.52,2.52.16.71-.34-.31-.36,1.07-.58-.41-1.5,2.09-1.15.41-.58-.13-.65-1.56-.52-3.37,1.07-.87-.38-.23-.67-.87-.36.03-.6-3.21-1.37.1-.42.87-.27-.38-.45-1.05-.13.2.3-1.15.05.46-.5-.26-.34.97-.29-2.09-.27-.48-.76.36-.13-.77-.6-.1-.21-1.91-1.19-1.58-.36-2.58.05-2.93-2-.08-.52-2.29-1.12-1.25-2.38-.89-1.77.43-1.08-.28-.16-.28.45-.74-1.73-.97-.77-.13-1.41-.79-.85.77-.93,1.68.77.18.54.43-.31.61.24-.08-.5,1.4.48v-.77l1.12.61-.02.41.84-.12.92-.32-.46.5.28.45.51-.04-.08-.68,1.43.49h1.79l.31-.29,3.67.34,2.8.09,2.42-.79,1.55.47,1.07-.2.58-.86-.92-.53,1.12.18.18.16,1.53.12.92-.49.28.56-.46.18,1.45.16.92-.38-.89-2.13ZM283.37,248.99l.23.58-1.05,1.01-1.22.12.05-.86,1.99-.85ZM286.84,248.16l.51.34-.38.59-.89-.29-.02-.54.79-.11ZM280.05,235.25l1.3,1.26-.1,1.42-1.07-1.15-.13-1.53ZM287.02,231.96l.18.47.89.22-.51.32-1.12-.36.56-.65ZM284.36,230.62l1.33.68.1.67-.43-.14-.82-.27.26-.47-.43-.47ZM311.37,229.13l.89,2.23-2.14-.52.74-.06.26-.43-1.17-.34.08-.54.31-.34h1.05ZM284.44,228.8l1.07.3.15,1.21-1.05-.43-.18-1.08ZM289.46,237.93l1.1,1.08-.76.05-1.12-1.08.79-.05ZM284.52,237.7l.84.14-.1.47-.76.12-.33-.68.36-.05Z"/>
        <path class="cls-4" d="M194.38,10.19l1.2.7-2.75,1.5.66.59-.28.69-.89.56-1.33.02.43-1.8,1.53-1.03-.38-.67,1.81-.56ZM193.08,36.35l.87.56.08,1.19-1.35,1.07-2.17-1.1-.41-.78,2.98-.93ZM188.32,14l1.71,1.33-1.05,1.41-.84-.78.18-1.96ZM189.03.28l.74.71-.56.78.33.7-.74.22-.46,1.07-1.73.74-.74-.93,1.27-1.16.82-1.84,1.07-.27ZM182.94,221.79l1.25.58-.82.92-1.33-.94.89-.56Z"/>
        <g>
          <path class="cls-8" d="M168.94,156c-4.37,0-7.91-3.54-7.91-7.91s3.54-7.91,7.91-7.91,7.91,3.54,7.91,7.91-3.54,7.91-7.91,7.91M166.28,136.29c-6.93,1.49-11.27,8.61-9.35,15.45.47,1.49,1.11,2.86,1.85,4.26,1.85,3.38,3.95,6.54,6.15,9.74.71,1.01,1.46,2.05,2.21,3.04.48.62.98,1.3,1.5,1.89.21.17.52.14.69-.07.33-.41.65-.81.97-1.22.23-.3.7-.91.92-1.22,2.61-3.55,5.01-7.2,7.22-10.96.9-1.57,1.71-3.19,2.32-4.87.14-.4.27-.81.37-1.22,1.99-8.74-6.05-16.84-14.84-14.84"/>
          <path class="cls-8" d="M168.95,158.25c5.08,0,9.21-4.12,9.21-9.21s-4.12-9.21-9.21-9.21-9.21,4.12-9.21,9.21,4.12,9.21,9.21,9.21"/>
          <path class="cls-8" d="M196.66,85.32c-4.07,0-7.36-3.3-7.36-7.36s3.3-7.36,7.36-7.36,7.36,3.29,7.36,7.36-3.3,7.36-7.36,7.36M194.18,66.99c-6.44,1.39-10.48,8.01-8.7,14.37.43,1.38,1.04,2.66,1.72,3.97,1.72,3.15,3.67,6.09,5.72,9.07.66.94,1.35,1.9,2.05,2.83.45.58.91,1.21,1.39,1.76.19.16.48.13.64-.06.31-.38.61-.76.9-1.13.21-.28.65-.85.86-1.13,2.43-3.3,4.66-6.7,6.72-10.2.83-1.46,1.6-2.97,2.16-4.53.13-.37.26-.75.34-1.13,1.85-8.13-5.63-15.66-13.8-13.8"/>
          <path class="cls-8" d="M196.66,87.41c4.73,0,8.57-3.83,8.57-8.57s-3.83-8.57-8.57-8.57-8.57,3.84-8.57,8.57,3.83,8.57,8.57,8.57"/>
        </g>
        <text class="cls-1" transform="translate(192.5 81.81)"><tspan x="0" y="0">1</tspan></text>
        <g>
          <path class="cls-8" d="M152.89,112.48c-4.07,0-7.36-3.3-7.36-7.36s3.3-7.36,7.36-7.36,7.36,3.29,7.36,7.36-3.3,7.36-7.36,7.36M150.41,94.15c-6.44,1.39-10.48,8.01-8.7,14.37.43,1.38,1.04,2.66,1.72,3.97,1.72,3.15,3.67,6.09,5.72,9.07.66.94,1.35,1.9,2.05,2.83.45.57.91,1.21,1.39,1.76.19.16.48.13.64-.06.31-.38.61-.76.9-1.13.21-.28.65-.85.86-1.13,2.43-3.3,4.66-6.7,6.72-10.2.83-1.46,1.6-2.97,2.16-4.53.13-.37.26-.75.34-1.13,1.85-8.13-5.63-15.66-13.8-13.8"/>
          <path class="cls-8" d="M152.89,114.57c4.73,0,8.57-3.83,8.57-8.57s-3.83-8.57-8.57-8.57-8.57,3.84-8.57,8.57,3.83,8.57,8.57,8.57"/>
        </g>
        <text class="cls-1" transform="translate(148.73 107.94)"><tspan x="0" y="0">5</tspan></text>
        <g>
          <path class="cls-8" d="M143.35,150.5c-4.07,0-7.36-3.3-7.36-7.36s3.3-7.36,7.36-7.36,7.36,3.29,7.36,7.36-3.3,7.36-7.36,7.36M140.87,132.17c-6.44,1.39-10.48,8.01-8.7,14.37.43,1.38,1.04,2.66,1.72,3.97,1.72,3.15,3.67,6.09,5.72,9.07.66.94,1.35,1.9,2.05,2.83.45.57.91,1.21,1.39,1.76.19.16.48.13.64-.06.31-.38.61-.76.9-1.13.21-.28.65-.85.86-1.13,2.43-3.3,4.66-6.7,6.72-10.2.83-1.46,1.6-2.97,2.16-4.53.13-.37.26-.75.34-1.13,1.85-8.13-5.63-15.66-13.8-13.8"/>
          <path class="cls-8" d="M143.36,152.59c4.73,0,8.57-3.83,8.57-8.57s-3.83-8.57-8.57-8.57-8.57,3.84-8.57,8.57,3.83,8.57,8.57,8.57"/>
        </g>
        <text class="cls-1" transform="translate(139.19 145.96)"><tspan x="0" y="0">6</tspan></text>
        <g>
          <path class="cls-8" d="M159.48,185.62c-4.07,0-7.36-3.3-7.36-7.36s3.3-7.36,7.36-7.36,7.36,3.29,7.36,7.36-3.3,7.36-7.36,7.36M157,167.29c-6.44,1.39-10.48,8.01-8.7,14.37.43,1.38,1.04,2.66,1.72,3.97,1.72,3.15,3.67,6.09,5.72,9.07.66.94,1.35,1.9,2.05,2.83.45.58.91,1.21,1.39,1.76.19.16.48.13.64-.06.31-.38.61-.76.9-1.13.21-.28.65-.85.86-1.13,2.43-3.3,4.66-6.7,6.72-10.2.83-1.46,1.6-2.97,2.16-4.53.13-.37.26-.75.34-1.13,1.85-8.13-5.63-15.66-13.8-13.8"/>
          <path class="cls-8" d="M159.48,187.71c4.73,0,8.57-3.83,8.57-8.57s-3.83-8.57-8.57-8.57-8.57,3.84-8.57,8.57,3.83,8.57,8.57,8.57"/>
        </g>
        <text class="cls-1" transform="translate(151.6 181.07)"><tspan class="cls-5" x="0" y="0">8-</tspan><tspan x="9.5" y="0">9</tspan></text>
        <g>
          <path class="cls-8" d="M193.02,222.76c-4.07,0-7.36-3.3-7.36-7.36s3.3-7.36,7.36-7.36,7.36,3.29,7.36,7.36-3.3,7.36-7.36,7.36M190.54,204.43c-6.44,1.39-10.48,8.01-8.7,14.37.43,1.38,1.04,2.66,1.72,3.97,1.72,3.15,3.67,6.09,5.72,9.07.66.94,1.35,1.9,2.05,2.83.45.58.91,1.21,1.39,1.76.19.16.48.13.64-.06.31-.38.61-.76.9-1.13.21-.28.65-.85.86-1.13,2.43-3.3,4.66-6.7,6.72-10.2.83-1.46,1.6-2.97,2.16-4.53.13-.37.26-.75.34-1.13,1.85-8.13-5.63-15.66-13.8-13.8"/>
          <path class="cls-8" d="M193.02,224.85c4.73,0,8.57-3.83,8.57-8.57s-3.83-8.57-8.57-8.57-8.57,3.84-8.57,8.57,3.83,8.57,8.57,8.57"/>
        </g>
        <text class="cls-1" transform="translate(185.24 218.22)"><tspan class="cls-6" x="0" y="0">1</tspan><tspan x="5.4" y="0">0</tspan></text>
        <g>
          <path class="cls-8" d="M306.55,231.13c-4.07,0-7.36-3.3-7.36-7.36s3.3-7.36,7.36-7.36,7.36,3.29,7.36,7.36-3.3,7.36-7.36,7.36M304.07,212.8c-6.44,1.39-10.48,8.01-8.7,14.37.43,1.38,1.04,2.66,1.72,3.97,1.72,3.15,3.67,6.09,5.72,9.07.66.94,1.35,1.9,2.05,2.83.45.58.91,1.21,1.39,1.76.19.16.48.13.64-.06.31-.38.61-.76.9-1.13.21-.28.65-.85.86-1.13,2.43-3.3,4.66-6.7,6.72-10.2.83-1.46,1.6-2.97,2.16-4.53.13-.37.26-.75.34-1.13,1.85-8.13-5.63-15.66-13.8-13.8"/>
          <path class="cls-8" d="M306.56,233.22c4.73,0,8.57-3.83,8.57-8.57s-3.83-8.57-8.57-8.57-8.57,3.84-8.57,8.57,3.83,8.57,8.57,8.57"/>
        </g>
        <text class="cls-1" transform="translate(299.77 226.58)"><tspan class="cls-6" x="0" y="0">1</tspan><tspan x="5.4" y="0">1</tspan></text>
        <g>
          <path class="cls-8" d="M263.95,280.96c-4.07,0-7.36-3.29-7.36-7.36s3.3-7.36,7.36-7.36,7.36,3.29,7.36,7.36-3.3,7.36-7.36,7.36M261.47,262.63c-6.44,1.39-10.48,8.01-8.7,14.37.43,1.38,1.04,2.67,1.72,3.97,1.72,3.15,3.67,6.09,5.72,9.07.66.94,1.35,1.9,2.05,2.83.45.58.91,1.21,1.39,1.76.19.16.48.13.64-.06.31-.38.61-.76.9-1.13.21-.28.65-.85.86-1.13,2.43-3.3,4.66-6.7,6.72-10.2.83-1.46,1.6-2.97,2.16-4.53.13-.37.26-.75.34-1.13,1.85-8.13-5.63-15.66-13.8-13.8"/>
          <path class="cls-8" d="M263.96,283.05c4.73,0,8.57-3.83,8.57-8.57s-3.83-8.57-8.57-8.57-8.57,3.83-8.57,8.57,3.83,8.57,8.57,8.57"/>
        </g>
        <text class="cls-1" transform="translate(256.17 276.41)"><tspan class="cls-6" x="0" y="0">1</tspan><tspan x="5.4" y="0">2</tspan></text>
        <g>
          <path class="cls-8" d="M329.13,361.63c-4.07,0-7.36-3.29-7.36-7.36s3.3-7.36,7.36-7.36,7.36,3.29,7.36,7.36-3.3,7.36-7.36,7.36M326.65,343.3c-6.44,1.39-10.48,8.01-8.7,14.37.43,1.38,1.04,2.67,1.72,3.97,1.72,3.15,3.67,6.09,5.72,9.07.66.94,1.35,1.9,2.05,2.83.45.58.91,1.21,1.39,1.76.19.16.48.13.64-.06.31-.38.61-.76.9-1.13.21-.28.65-.85.86-1.13,2.43-3.3,4.66-6.7,6.72-10.2.83-1.46,1.6-2.97,2.16-4.53.13-.37.26-.75.34-1.13,1.85-8.13-5.63-15.66-13.8-13.8"/>
          <path class="cls-8" d="M329.13,363.72c4.73,0,8.57-3.83,8.57-8.57s-3.83-8.57-8.57-8.57-8.57,3.83-8.57,8.57,3.83,8.57,8.57,8.57"/>
        </g>
        <text class="cls-1" transform="translate(321.35 357.08)"><tspan class="cls-6" x="0" y="0">1</tspan><tspan x="5.4" y="0">3</tspan></text>
        <g>
          <path class="cls-8" d="M123.75,132.5c-4.07,0-7.36-3.3-7.36-7.36s3.3-7.36,7.36-7.36,7.36,3.29,7.36,7.36-3.3,7.36-7.36,7.36M121.27,114.17c-6.44,1.39-10.48,8.01-8.7,14.37.43,1.38,1.04,2.66,1.72,3.97,1.72,3.15,3.67,6.09,5.72,9.07.66.94,1.35,1.9,2.05,2.83.45.58.91,1.21,1.39,1.76.19.16.48.13.64-.06.31-.38.61-.76.9-1.13.21-.28.65-.85.86-1.13,2.43-3.3,4.66-6.7,6.72-10.2.83-1.46,1.6-2.97,2.16-4.53.13-.37.26-.75.34-1.13,1.85-8.13-5.63-15.66-13.8-13.8"/>
          <path class="cls-8" d="M123.75,134.59c4.73,0,8.57-3.83,8.57-8.57s-3.83-8.57-8.57-8.57-8.57,3.84-8.57,8.57,3.83,8.57,8.57,8.57"/>
        </g>
        <text class="cls-2" transform="translate(116.31 127.41)"><tspan class="cls-7" x="0" y="0">2-</tspan><tspan x="7.08" y="0">4</tspan></text>
        <text class="cls-2" transform="translate(165.96 150.73)"><tspan x="0" y="0">7</tspan></text>
        <text class="cls-3" transform="translate(55.33 27.73)"><tspan x="0" y="0"> </tspan></text>
      </g>
    </g>
  </g>
</svg>