<?xml version="1.0" encoding="UTF-8"?>
<svg xmlns="http://www.w3.org/2000/svg" version="1.1" viewBox="0 0 25.92 23.84">
  <defs>
    <style>
      .cls-1 {
        fill: #075070;
      }
    </style>
  </defs>
  <!-- Generator: Adobe Illustrator 28.7.5, SVG Export Plug-In . SVG Version: 1.2.0 Build 176)  -->
  <g>
    <g id="Layer_1">
      <g>
        <path class="cls-1" d="M19.87,8.54c.11-.03.21-.08.29-.15.09-.07.15-.16.2-.26,0-.01.01-.03.01-.04l.23-.72c.03-.07.04-.14.05-.22,0-.08,0-.15-.02-.22s-.05-.14-.09-.21c-.04-.07-.09-.12-.15-.17-.72-.61-1.51-1.13-2.37-1.55-.85-.42-1.75-.72-2.68-.92-.21.28-.47.52-.77.71.28.03.49.06.54.07.87.18,1.7.46,2.49.84.8.38,1.53.86,2.21,1.43l-.18.58c-.64-.5-1.32-.92-2.04-1.27-.73-.35-1.48-.62-2.26-.8-.05-.01-.11-.01-.16,0-.05,0-.1.03-.15.05-.05.03-.08.06-.12.11-.03.04-.05.09-.07.14-.01.07-.01.14,0,.2h0v2.07c.27-.06.54-.1.81-.11v-1.54c1.31.39,2.5,1.01,3.58,1.86.09.07.19.12.3.14.11.02.22.02.33,0"/>
        <path class="cls-1" d="M5.49,6.73c-.05.05-.09.11-.13.17-.03.06-.06.13-.08.2-.02.07-.02.14-.02.21,0,.07.02.14.04.21l.2.69s0,.03.01.04c.02.06.05.1.08.15.03.05.07.09.12.13.04.04.09.07.14.1.05.03.11.05.16.06.06.01.11.02.17.02.06,0,.11,0,.17-.02.06-.02.11-.04.16-.06.05-.03.1-.06.14-.1.53-.47,1.1-.87,1.72-1.21.62-.34,1.27-.61,1.95-.8v1.59c.28.02.55.06.81.13v-2.09s0-.05,0-.08c0-.03,0-.07,0-.1,0-.03,0-.07-.02-.1,0-.03-.02-.06-.04-.09-.02-.03-.04-.05-.06-.08-.02-.02-.05-.04-.08-.06-.03-.02-.06-.03-.09-.04-.03,0-.07-.01-.1-.01-.03,0-.07,0-.1.01-.82.18-1.6.46-2.35.84-.75.38-1.44.84-2.07,1.39l-.16-.53c.66-.61,1.38-1.13,2.18-1.54.8-.41,1.64-.71,2.52-.89.05,0,.26-.04.54-.07-.3-.19-.56-.43-.77-.71-.95.2-1.86.52-2.72.98-.86.45-1.65,1.01-2.35,1.68"/>
        <path class="cls-1" d="M12.96,0h0c-.11,0-.22,0-.33.03-.11.02-.21.04-.32.07-.1.03-.21.07-.3.12s-.19.1-.28.16c-.09.06-.18.13-.26.2-.08.07-.16.15-.22.24-.07.08-.13.17-.19.27-.06.09-.11.19-.15.29-.04.1-.07.2-.1.31-.03.11-.04.21-.06.32-.01.11-.01.22,0,.33,0,.11.02.22.04.32.02.11.05.21.09.31.04.1.08.2.13.3s.11.19.17.28c.07.09.14.17.21.25.21.21.45.37.72.48.27.11.56.17.85.17h0c.29,0,.58-.06.85-.17.27-.11.51-.27.72-.48.08-.08.15-.16.21-.25.06-.09.12-.18.17-.28.05-.1.09-.2.13-.3.04-.1.07-.21.09-.31.02-.11.03-.21.04-.32,0-.11,0-.22,0-.32-.01-.11-.03-.22-.06-.32-.03-.11-.06-.21-.1-.31-.04-.1-.09-.2-.15-.29-.06-.09-.12-.18-.19-.27-.07-.09-.14-.16-.22-.24-.08-.07-.17-.14-.26-.2-.09-.06-.18-.11-.28-.16-.1-.05-.2-.09-.3-.12-.11-.03-.21-.06-.32-.07-.11-.02-.22-.02-.32-.03M13.95,3.22c-.13.13-.28.23-.45.31-.17.07-.35.11-.54.11h0c-.19,0-.37-.04-.54-.11-.17-.07-.32-.17-.46-.31-.1-.1-.18-.21-.25-.33-.07-.12-.11-.25-.14-.39-.03-.14-.03-.27-.02-.41.01-.14.05-.27.1-.4s.12-.25.21-.36.19-.2.31-.28c.11-.08.24-.14.37-.18.13-.04.27-.06.41-.07h0c.14,0,.28.02.41.06s.26.1.37.18c.12.08.22.17.31.28.09.11.16.23.21.36.05.13.09.26.1.4.01.14,0,.28-.02.41-.03.14-.07.27-.14.39-.07.12-.15.23-.25.33"/>
        <path class="cls-1" d="M4.55,14.94c0,.07.04.14.08.19.04.06.1.1.17.12.07.03.14.03.21.02.07-.01.14-.04.19-.08,0,0,.01,0,.02,0l1.13-.51-.06-.08s-.03-.04-.04-.07l-.08-.13s-.03-.05-.04-.08c-.06-.12-.11-.24-.16-.36l-.68.31c-.13-1.38,0-2.72.4-4.05.01-.05.03-.11.03-.16,0-.06,0-.11,0-.16,0-.06-.03-.11-.05-.16-.02-.05-.05-.1-.08-.14-.03-.05-.07-.09-.11-.12-.04-.04-.09-.07-.14-.09s-.1-.05-.15-.06c-.05-.01-.11-.02-.17-.02-.01,0-.03,0-.04,0l-.77.05c-.08,0-.15.01-.22.04-.07.02-.14.06-.2.1-.06.04-.12.1-.16.16-.05.06-.08.13-.11.2-.31.91-.49,1.85-.57,2.81-.07.96-.02,1.91.15,2.86.35.1.66.25.95.46-.08-.29-.13-.5-.15-.56-.16-.88-.21-1.77-.15-2.66.06-.89.23-1.76.51-2.61l.62-.05c-.23.79-.37,1.58-.42,2.4-.06.81-.02,1.62.1,2.43"/>
        <path class="cls-1" d="M5.53,19.5s-.14-.24-.28-.5c-.06.35-.19.68-.37.99.55.82,1.2,1.56,1.95,2.2.75.64,1.58,1.17,2.48,1.59.1.04.2.06.3.06.19,0,.36-.06.5-.19l.57-.45s.02-.02.03-.03c.04-.04.08-.08.11-.13.03-.05.06-.1.07-.16.02-.05.03-.11.04-.17,0-.06,0-.11,0-.17,0-.06-.02-.11-.05-.17-.02-.05-.05-.1-.08-.15-.03-.05-.07-.09-.12-.13-.04-.04-.09-.07-.14-.09-.65-.33-1.25-.72-1.81-1.18-.56-.46-1.06-.98-1.5-1.55l2.07-1.01-.54-.64-2.18,1.07s-.03.02-.04.02c-.03,0-.07.01-.1.03-.03.01-.06.03-.09.05s-.05.05-.07.07c-.02.03-.04.06-.05.09-.01.03-.02.06-.03.1,0,.03,0,.07,0,.1,0,.03.01.07.02.1.01.03.03.06.05.09.48.7,1.05,1.33,1.68,1.9s1.34,1.04,2.09,1.43l-.45.35c-.83-.39-1.59-.88-2.28-1.48-.69-.6-1.29-1.28-1.79-2.04"/>
        <path class="cls-1" d="M2.25,20.68c.22,0,.44-.03.65-.1.21-.06.41-.15.59-.27.18-.12.35-.26.49-.43.14-.17.26-.35.34-.55.12-.27.18-.56.18-.85,0-.3-.05-.58-.16-.86-.06-.14-.12-.27-.2-.39-.08-.12-.17-.24-.28-.34-.1-.1-.22-.2-.34-.28-.12-.08-.25-.15-.39-.21-.13-.06-.27-.1-.42-.13-.14-.03-.29-.05-.44-.05-.15,0-.29.01-.44.04-.14.03-.29.07-.42.12-.14.05-.27.12-.39.2-.12.08-.24.17-.34.27-.1.1-.2.21-.28.33-.08.12-.15.25-.21.38-.06.13-.1.27-.13.42-.03.14-.05.29-.05.44,0,.15,0,.29.04.44.03.15.07.29.12.42.04.1.09.2.15.3.06.1.12.19.19.28.07.08.15.17.23.24.08.08.17.14.26.21.09.06.19.12.29.17.1.05.2.09.31.12.11.03.22.06.33.07.11.02.22.02.33.02M.92,17.88c.08-.17.18-.33.32-.46.14-.13.29-.23.47-.3.09-.03.18-.06.27-.08.09-.02.19-.03.28-.03.09,0,.19.01.28.03.09.02.18.05.27.08.09.04.17.08.25.13.08.05.15.11.22.18.07.07.12.14.18.22.05.08.1.16.13.25.04.09.06.18.08.27s.03.18.02.28c0,.09-.01.19-.03.28-.02.09-.05.18-.08.27-.04.09-.08.17-.14.24-.05.08-.11.15-.18.21-.07.07-.14.12-.22.17-.08.05-.16.09-.25.13-.09.04-.18.06-.27.08-.09.02-.19.02-.28.02-.09,0-.19-.01-.28-.03-.09-.02-.18-.05-.27-.08-.09-.04-.17-.08-.25-.14-.08-.05-.15-.11-.22-.18-.07-.07-.12-.14-.18-.22-.05-.08-.1-.16-.13-.25-.07-.17-.11-.36-.1-.55,0-.19.04-.37.12-.54"/>
        <path class="cls-1" d="M21.88,15.98c.29-.21.61-.36.95-.46.17-.95.22-1.9.15-2.86-.07-.96-.26-1.9-.56-2.81-.03-.07-.06-.14-.11-.2-.05-.06-.1-.11-.16-.16-.06-.04-.13-.08-.2-.1-.07-.02-.15-.04-.22-.04l-.77-.06s-.03,0-.04,0c-.06,0-.11,0-.17.02-.05.01-.1.04-.15.06-.05.03-.1.06-.14.09-.04.04-.08.08-.11.12-.03.05-.06.09-.08.14-.02.05-.04.1-.05.16-.01.06-.01.11-.01.17,0,.05.01.11.03.16.4,1.32.53,2.67.4,4.05l-.68-.31c-.05.12-.1.24-.16.36-.01.03-.03.05-.04.08l-.08.13s-.03.04-.04.07l-.06.08,1.13.51s.01,0,.02,0c.06.04.12.07.19.08.07.01.14,0,.21-.02.07-.03.12-.07.17-.12.04-.06.07-.12.08-.19.12-.81.15-1.62.1-2.43-.05-.81-.19-1.61-.42-2.4l.62.04c.28.85.45,1.72.51,2.61.06.89,0,1.78-.15,2.66-.01.05-.07.27-.15.55"/>
        <path class="cls-1" d="M20.86,19.64c-.09-.21-.15-.42-.19-.64-.14.26-.25.46-.28.5-.5.76-1.1,1.44-1.79,2.04-.69.6-1.45,1.09-2.28,1.48l-.45-.35c.76-.39,1.45-.87,2.09-1.43.64-.56,1.2-1.2,1.68-1.9.02-.03.03-.06.05-.09.01-.03.02-.07.02-.1,0-.03,0-.07,0-.1,0-.03-.01-.07-.03-.1-.01-.03-.03-.06-.05-.09-.02-.03-.04-.05-.07-.07-.03-.02-.06-.04-.09-.05-.03-.01-.06-.02-.1-.03-.01,0-.02-.02-.04-.02l-2.18-1.07-.54.64,2.07,1.01c-.44.58-.94,1.09-1.5,1.55s-1.16.85-1.81,1.18c-.05.03-.1.06-.15.1-.04.04-.08.08-.12.13-.03.05-.06.1-.08.15-.02.05-.04.11-.05.17,0,.06-.01.11,0,.17,0,.06.02.11.04.17.02.05.04.11.07.16.03.05.07.09.11.13.01,0,.02.02.03.03l.57.45c.14.13.31.19.5.19.1,0,.21-.02.3-.06.9-.41,1.73-.94,2.48-1.59.75-.64,1.4-1.38,1.95-2.2-.07-.11-.13-.23-.18-.35"/>
        <path class="cls-1" d="M24.51,16.37c-.14-.05-.28-.1-.42-.12-.14-.03-.29-.04-.44-.04-.15,0-.29.02-.44.05-.15.03-.29.08-.42.13-.13.06-.26.13-.38.21-.12.08-.24.18-.34.28-.1.11-.19.22-.28.34-.08.12-.15.25-.2.39-.03.08-.06.17-.09.26-.02.09-.04.18-.05.27-.01.09-.02.18-.02.27,0,.09,0,.18.01.27.01.09.03.18.05.27.02.09.05.18.08.26.03.08.07.17.11.25.04.08.09.16.14.23.05.08.11.15.17.22.06.07.12.13.19.19.07.06.14.12.21.17.07.05.15.1.23.14s.16.08.25.11c.08.03.17.06.26.08.09.02.18.04.27.05.09.01.18.02.27.02.11,0,.22,0,.33-.02.11-.02.22-.04.32-.07.11-.03.21-.07.31-.12.1-.05.2-.1.29-.17.09-.06.18-.13.26-.21.08-.08.16-.16.23-.24.07-.09.13-.18.19-.27.06-.1.11-.2.15-.3.06-.14.1-.28.12-.42.03-.15.04-.29.04-.44,0-.15-.02-.29-.05-.44-.03-.14-.07-.28-.13-.42-.06-.14-.13-.26-.21-.38-.08-.12-.18-.23-.28-.33-.11-.1-.22-.19-.34-.27-.12-.08-.25-.15-.39-.2M25.01,18.97c-.04.09-.08.17-.13.25-.05.08-.11.15-.18.22-.07.07-.14.13-.22.18-.08.05-.16.1-.25.14-.09.04-.18.06-.27.08-.09.02-.18.03-.28.03-.09,0-.19,0-.28-.02-.09-.02-.18-.04-.27-.08-.08-.03-.15-.07-.22-.11-.07-.04-.14-.09-.2-.15-.06-.05-.12-.11-.17-.18-.05-.07-.1-.13-.14-.21-.04-.07-.07-.15-.1-.23-.03-.08-.05-.16-.06-.24-.01-.08-.02-.16-.02-.25,0-.08.01-.16.03-.24.02-.08.04-.16.07-.24.03-.08.07-.15.11-.22.04-.07.09-.14.14-.2.05-.06.11-.12.18-.17.06-.05.13-.1.2-.14.07-.04.15-.07.22-.1.08-.03.16-.05.24-.06.08-.01.16-.02.25-.02.18,0,.36.03.53.1.09.04.17.08.25.13.08.05.15.11.22.17.07.07.13.14.18.21.05.08.1.16.14.25.04.09.07.17.08.27.02.09.03.18.03.28,0,.09,0,.19-.02.28-.02.09-.04.18-.08.27"/>
        <path class="cls-1" d="M18.62,14.63l.34-.49s0-.01.01-.02l.08-.13s0-.02.01-.03c.26-.51.38-1.05.37-1.63-.05-1.84-1.6-3.35-3.52-3.44-1.21-.06-2.27.63-2.96,1.41-.69-.78-1.74-1.47-2.96-1.41-1.93.09-3.48,1.61-3.52,3.44-.02.57.11,1.12.36,1.63,0,0,.01.02.01.03l.08.13s0,.01.01.02l.34.49s.03.03.03.04l5.18,6.14c.06.06.12.11.2.15.08.03.16.05.24.05s.17-.02.25-.06c.08-.04.15-.09.21-.15l5.18-6.14s.02-.02.02-.03M17.97,14.16l-5.01,5.93-5.01-5.93-.32-.46-.07-.11c-.19-.39-.28-.8-.27-1.23.04-1.39,1.27-2.58,2.75-2.65,1.11-.05,2.06.73,2.58,1.49.02.03.04.05.07.07.03.02.05.04.08.05.03.02.06.03.09.03.03,0,.06.01.1.01s.07,0,.1-.01c.03,0,.06-.02.09-.03.03-.01.06-.03.08-.05.02-.02.05-.05.06-.07.53-.75,1.48-1.54,2.58-1.49,1.48.07,2.72,1.26,2.75,2.65.01.43-.08.84-.27,1.23l-.39.57Z"/>
      </g>
    </g>
  </g>
</svg>