<?xml version="1.0" encoding="UTF-8"?>
<svg id="Layer_1" data-name="Layer 1" xmlns="http://www.w3.org/2000/svg" xmlns:xlink="http://www.w3.org/1999/xlink" version="1.1" viewBox="0 0 790.6 140.1">
  <defs>
    <style>
      .cls-1 {
        clip-path: url(#clippath);
      }

      .cls-2 {
        fill: none;
      }

      .cls-2, .cls-3 {
        stroke-width: 0px;
      }

      .cls-4 {
        clip-path: url(#clippath-1);
      }

      .cls-5 {
        clip-path: url(#clippath-3);
      }

      .cls-6 {
        clip-path: url(#clippath-2);
      }

      .cls-7 {
        opacity: .6;
      }

      .cls-3 {
        fill: #00fff8;
      }
    </style>
    <clipPath id="clippath">
      <rect class="cls-2" width="790.6" height="140.1"/>
    </clipPath>
    <clipPath id="clippath-1">
      <rect class="cls-2" width="790.6" height="140.1"/>
    </clipPath>
    <clipPath id="clippath-2">
      <rect class="cls-2" x="-79.6" y="-137.7" width="1001.9" height="803.3"/>
    </clipPath>
    <clipPath id="clippath-3">
      <rect class="cls-2" x="-75.4" y="-135.4" width="997.6" height="819.8"/>
    </clipPath>
  </defs>
  <g class="cls-7">
    <g class="cls-1">
      <g>
        <path class="cls-3" d="M1240.5-619.8h0ZM1240.5-619.8h0ZM1240.5-619.8s-.2,0-.2,0c.2,0,.2,0,.2,0M1240.3-619.7h0M1240.3-619.7h0M1240.3-619.7c-7.8,3.7-73.4,36-142.9,103.1-69.5,67.1-141.5,168.2-159.4,308-9.5,74.3-29.1,140.6-57.3,196.2-1.8,3.4-3.6,6.7-5.5,10-1.1,1.3-2.2,2.6-3.4,3.9,32.1-58.3,54.3-129.4,64.7-210,18.5-144.6,94.8-248,166.5-315.2,71.7-67.2,137.2-96.1,137.2-96.1M853,35c-1.2,1.7-2.3,3.4-3.5,5.2-45.1,64.4-104.6,108.4-174.6,125.7-63.7,15.7-136,9.3-214.1-23.7-88.5-37.4-174.5-35.3-248.6-17-67.2,16.7-124.6,46.5-165.2,72.1S10.6,221.9-.4,230.5c-5.5,4.3-9.8,7.8-12.7,10.2-1.4,1.2-2.5,2.1-3.2,2.8-.7.6-3.6,1.6-3.6,1.6v-.8c0,0,97-86.7,231.8-120,74.5-18.4,161-20.6,249.8,17,77.8,32.9,149.7,39.2,212.9,23.6,56.8-14,106.7-45.8,147.6-92,10.9-11.7,21.2-24.3,30.8-37.8"/>
        <path class="cls-3" d="M1243.1-603h-.2c-7.7,3.5-72.3,33.5-141.1,96.9-68.7,63.4-140.1,159.9-158.4,295.6-9.6,71.5-29.1,135.9-56.9,190.5-2.6,4.8-5.2,9.5-7.9,14.1-1.1,1.3-2.2,2.7-3.4,4,1.9-3.3,3.7-6.6,5.5-10,30.1-56.2,51-123.4,61.2-198.5,18.9-140.4,94.5-239,165.4-302.4,70.9-63.4,135.3-91.3,135.3-91.3l.2,1h.3M858.5,27.1c-1.7,2.6-3.5,5.1-5.3,7.6,0,0-.2.3-.3.4-9.6,13.5-19.9,26.1-30.8,37.8-40.7,43.7-90,74.1-145.7,87.9-62.8,15.5-133.8,9.9-210.2-21.5-99.3-40.8-193.8-37.2-272.8-17.7-59.3,14.6-109.9,38.3-147.2,59-18.6,10.3-33.9,19.9-45.4,27.3-5.7,3.7-10.4,6.8-14.2,9.2-3.7,2.4-8.6,4.6-10.2,5.3l-.2-1c1.4-.6,5.9-2.7,9.5-5,12.9-8.3,38.7-25.8,74.3-44.4,35.6-18.6,81-38.4,133.1-51.3,79.4-19.6,174.4-23.2,273.9,17.8,76.2,31.3,146.8,36.9,209.1,21.5,58.1-14.3,109.2-47,150.9-94.1,10.5-11.3,20.5-23.5,29.9-36.4.5-.7,1-1.4,1.5-2.1"/>
        <path class="cls-3" d="M1245.7-586.3h-.2c-7.6,3.2-71.4,30.4-139.3,90.1-68,59.7-138.7,151.5-157.4,283.2-9.7,68.4-28.9,130.8-56.2,184.2-3.5,6.4-7,12.7-10.7,18.9-.2.2-.3.4-.5.6-.9,1.1-1.8,2.3-2.8,3.4,2.7-4.6,5.3-9.3,7.9-14.1,29.7-55.2,50.5-120.6,60.7-192.8,19.3-136.2,94.3-230,164.4-289.6,70.2-59.7,133.6-84.8,133.6-84.8l.2,1.1h.7M864.3,18.9c-1.9,2.8-3.8,5.5-5.7,8.2-.5.7-1,1.4-1.5,2.1-9.4,12.9-19.3,25.1-29.9,36.4-41.6,44.6-92,76-149.1,90.1-61.8,15.2-131.4,10.3-206.2-19.5-113.3-45.2-218.2-39.8-302.7-18.9-50.2,12.4-93.1,30.2-126.3,46.2-16.6,8-30.7,15.5-42.1,21.7s-22.2,11.5-27.8,14l-.2-1c5.4-2.5,15.9-7.7,27.2-13.8,34.2-18.5,93.4-49.5,168.9-68.1,84.8-21,190.3-26.3,303.8,19,74.6,29.8,143.8,34.6,205.1,19.5,59.6-14.7,111.9-48.3,154.5-96.5,10-10.8,19.5-22.3,28.5-34.4,1.2-1.6,2.3-3.2,3.5-4.8"/>
        <path class="cls-3" d="M1248.1-570.1h0c-7.5,3-70.4,27.4-137.6,83.4-67.2,56-137.3,143.1-156.3,270.7-9.8,65.5-28.8,125.9-55.6,178.2-4.3,7.9-8.8,15.7-13.5,23.2-1.1,1.4-2.2,2.7-3.2,4.1,3.7-6.2,7.3-12.4,10.7-18.9,29.2-54.1,49.7-117.5,60-186.5,19.7-132,94-220.9,163.4-276.9,69.4-55.9,131.9-78.3,132-78.4l.2,2.1h0M870,10.6c-1.9,2.8-3.8,5.5-5.7,8.2-1.1,1.6-2.3,3.2-3.5,4.8-9,12.2-18.5,23.7-28.5,34.4-42.5,45.7-94.1,78-152.8,92.5-60.8,15-129,10.8-202.2-17.5-131.6-50.8-249.1-43.3-339.4-21C58.5,131.6-2.2,163.2-30.7,176l-.2-1c28.4-12.8,88.9-44.4,168.6-64.1,90.6-22.4,208.6-29.9,340.5,21,73,28.2,140.8,32.3,201.1,17.5,61-15.1,114.4-49.6,157.8-98.7,9.6-10.3,18.7-21.2,27.3-32.7,1.8-2.5,3.7-5,5.5-7.5"/>
        <path class="cls-3" d="M1251.1-553.1h-.3c-7.4,2.5-69.5,24.2-135.9,76.4-66.4,52.3-135.9,134.8-155.3,258.3-9.8,62.6-28.6,121-54.9,172.2-5.2,9.5-10.6,18.7-16.2,27.6-1.1,1.4-2.1,2.8-3.2,4.1,4.7-7.5,9.2-15.3,13.5-23.2,28.7-53,49-114.4,59.4-180.5,20.1-127.8,93.7-211.9,162.3-264.1s130.2-71.8,130.3-71.9l.2,1.1h0M875.6,2.5c-1.9,2.7-3.7,5.4-5.7,8.1-1.8,2.5-3.6,5-5.5,7.5-8.6,11.5-17.7,22.5-27.3,32.7-43.4,46.6-96.2,80-156.3,94.8-59.7,14.8-126.5,11.2-198.1-15.6-154.2-57.7-285.1-48.6-381.4-24.9-57.7,14.2-105.1,34.3-135.5,48l-.2-1c30.4-13.7,77.7-33.8,135.5-48,96.6-23.9,228-32.9,382.7,25,71.4,26.7,137.7,30.2,197,15.5,62.5-15.4,117.2-51.1,161.5-101.1,9-9.7,17.7-20,25.9-30.8,2.5-3.3,5-6.7,7.5-10.1"/>
        <path class="cls-3" d="M1254.1-536.1h-.7c-7.3,2.1-68.5,21.1-134.2,69.6-65.7,48.6-134.5,126.4-154.3,245.8-9.9,59.7-28.4,116.1-54.2,166-6,11-12.4,21.8-19.2,32.2-1,1.4-2.1,2.7-3.1,4.1,5.7-9,11.1-18.2,16.2-27.6,28.2-51.9,48.3-111.3,58.8-174.5,20.5-123.6,93.4-202.9,161.3-251.3,67.8-48.4,128.5-65.3,128.6-65.4l.2,1.1h.6M881.4-5.8c-1.9,2.8-3.8,5.5-5.8,8.3-2.5,3.4-4.9,6.8-7.5,10.1-8.2,10.8-16.9,21.1-25.9,30.8-44.3,47.7-98.4,82.1-160,97.3-58.6,14.5-123.9,11.5-193.8-13.8C310.9,62.8,169.7,68.8,66.7,94.3c-39.9,9.8-76.2,23.2-104.6,35.9l-.2-1c28.4-12.8,64.5-26,104.5-35.9,103.3-25.5,245-31.5,422.8,32.8,69.7,25.2,134.6,28.1,192.8,13.7,64-15.8,119.9-52.5,165.1-103.5,8.6-9.2,16.8-18.9,24.6-29.1,3.3-4.2,6.5-8.5,9.6-12.9"/>
        <path class="cls-3" d="M1255.9-520.5l.2,1.1c-4.2,1-64.1,16.3-129.8,61-65.7,44.7-135.5,118.3-156,235.2-9.9,56.8-28.2,111.2-53.5,159.8-6.9,12.6-14.3,24.9-22.2,36.7-1,1.4-2,2.8-3.1,4.1,6.8-10.4,13.2-21.1,19.2-32.2,27.7-50.7,47.5-108.1,58.1-168.3,20.5-117.2,90.6-191.2,156.7-236.1,66-44.9,126.2-60.2,130.5-61.3M887.1-13.9c-1.9,2.7-3.8,5.4-5.7,8.1-3.1,4.4-6.3,8.7-9.6,12.9-7.8,10.1-16,19.8-24.6,29.1-45.2,48.7-100.6,84.2-163.7,99.7-57.5,14.2-121.3,11.8-189.6-12C299.6,56.1,155.2,50.5,43.3,78.2c-29.7,7.3-59.3,17.5-84.7,29l-.2-1c25.6-11.5,54.9-21.7,84.7-29,112.4-27.8,257.2-22.1,451.7,45.8,68,23.8,131.5,26,188.5,12,65.5-16.2,122.7-54,168.8-105.9,8.1-8.7,15.8-17.8,23.3-27.3,4-5.1,7.9-10.2,11.7-15.5"/>
        <path class="cls-3" d="M1259.1-502.1h-.4.4M1258.5-503.7l.2,1.1c-.9.2-1.4.3-4.7,1.1-19.7,4.8-79.7,22.1-139.6,64s-119.7,108.4-138.8,211.9c-10,54-27.9,106.2-52.7,153.5-5.6,10.2-11.6,20.2-17.9,30,4.1-7,8-14,11.7-21.2,27.2-49.5,46.7-104.9,57.3-162.1,19.2-103.8,79.2-170.6,139.4-212.7,60.2-42.1,120.5-59.5,140.3-64.4,4.4-1.1,4.7-1,4.7-1M893-22.2c-1.9,2.8-3.9,5.6-5.8,8.3,1-1.4,1.9-2.8,2.8-4.2l3-4.2M866.3,11.5c-.5.9-1,1.7-1.5,2.6-4.1,5.1-8.3,10-12.5,14.8-46.2,49.7-102.8,86.3-167.5,102.3-56.4,13.9-118.7,12.1-185.2-10.3-102.1-34.4-188.6-57.6-265-68.5-76.4-10.9-142.7-9.3-204.4,5.9-24.9,6.2-51.3,15.1-75.2,25.8l-.2-1c23.9-10.8,50.1-19.7,75.1-25.8,62-15.3,128.6-16.8,205.1-6,76.6,10.9,163.1,34.2,265.3,68.6,66.3,22.3,128.2,24.1,184.2,10.3,67-16.6,125.6-55.5,172.6-108.5,3.1-3.3,6.1-6.7,9.1-10.1"/>
        <path class="cls-3" d="M899-30.8c-2,2.9-4,5.7-6,8.5,1-1.4,1.9-2.8,2.9-4.3,1-1.4,2.1-2.8,3.1-4.3M869,6.8c-.6,1.1-1.2,2.1-1.8,3.2-3.3,4-6.6,7.9-10,11.7-47.1,50.8-105.1,88.6-171.4,104.9-55.2,13.6-116,12.3-180.8-8.7-105-34-191.5-62.8-268.8-78.9-77.3-16.1-145.5-19.4-213.7-2.6C-.4,42-25.5,50.5-48.7,61l-.2-1C-25.5,49.5-.7,41.1,22.3,35.4c68.6-16.9,137.1-13.6,214.5,2.5,77.5,16.1,164,44.9,269,78.9,64.6,21,125,22.2,179.8,8.7,68.7-17,128.7-57.3,176.7-111.4,2.2-2.4,4.5-4.9,6.6-7.3"/>
        <path class="cls-3" d="M1264.1-469.1h-.2.2M1263.8-470l.2,1c-2.9.4-14.3,1.8-33,6.4-33.6,8.3-86.5,26-135,61.7-48.6,35.7-92.9,89.6-109.6,170.4-14.6,70.5-44.7,140.5-87.3,199.8,11-16,21-32.7,30.1-50,26.1-47,45-98.2,55.7-149.7,16.8-81.1,61.3-135.3,110.2-171.2,48.8-36,101.9-53.7,135.8-62.1,21.4-5.3,33-6.3,33-6.3M871.9,1.6c-.8,1.4-1.5,2.8-2.3,4.2-2.4,2.8-4.8,5.6-7.2,8.3-48.1,51.9-107.6,91.1-175.5,107.8-54,13.3-113.2,12.5-176.3-7.1-106.7-33.2-192.3-67.8-270-89.3C162.8,3.9,93-4.7,17.8,13.8c-22,5.4-46.8,13.8-70.1,24.3l-.2-1.1C-29,26.5-4.6,18.2,17.6,12.7,93.3-5.9,163.4,2.8,241.3,24.4c77.9,21.6,163.5,56.2,270.1,89.4,62.8,19.6,121.7,20.4,175.3,7.1,72.5-17.9,135.5-61.6,185.2-119.3"/>
        <g class="cls-4">
          <g>
            <g class="cls-6">
              <path class="cls-3" d="M205.1,182.7c62.6-35.2,136-66.8,219.5-87,301-73,486.4,88.7,486.5,88.7h0c0,.1-2.1-2.9-7.8-7.1-5.7-4.2-14.2-10.2-25.3-17.2-22.2-13.9-55-31.7-97.1-47.2-84.3-31-206.2-52.9-356.4-16.5-83.4,20.2-156.7,51.8-219.1,86.9C83.5,251.9,2.9,333.8-29.7,370.5c-10.9,12.2-17.8,20.2-17.8,20.2l-.3-.5s89.9-115.9,252.9-207.5h0Z"/>
            </g>
            <g class="cls-5">
              <path class="cls-3" d="M204.8,198.5c61.6-36.7,134.2-70.2,217.1-92.5,299-80.4,488.8,76.6,488.8,76.6h0c0,.1-2.2-2.8-8-6.9-5.8-4.1-14.5-9.9-25.7-16.5-22.6-13.3-55.8-30.3-98.4-44.8-85.2-28.9-207.6-47.8-356.8-7.6-82.8,22.3-155.2,55.7-216.7,92.3C85.1,270.6,6.8,354.5-24.8,392c-10.5,12.5-17.2,20.6-17.2,20.6l-.3-.5s86.7-118.1,247.1-213.7h0Z"/>
            </g>
          </g>
        </g>
      </g>
    </g>
  </g>
</svg>