<?xml version="1.0" encoding="iso-8859-1"?>
<!-- Generator: Adobe Illustrator 25.2.1, SVG Export Plug-In . SVG Version: 6.00 Build 0)  -->
<svg version="1.1" id="Layer_1" xmlns="http://www.w3.org/2000/svg" xmlns:xlink="http://www.w3.org/1999/xlink" x="0px" y="0px"
	 viewBox="0 0 608.257 130.511" style="enable-background:new 0 0 608.257 130.511;" xml:space="preserve">
<g>
	<path style="fill:#FFFFFF;" d="M150.126,108.061c-1.625-0.715-3.085-1.688-4.318-2.919c-1.246-1.221-2.215-2.669-2.932-4.353
		c-0.717-1.638-1.098-3.408-1.098-5.287c0-1.886,0.381-3.647,1.098-5.338c0.717-1.655,1.686-3.085,2.932-4.331
		c1.233-1.235,2.693-2.194,4.318-2.9c1.64-0.732,3.408-1.098,5.269-1.098c2.28,0,4.324,0.411,6.103,1.233
		c1.784,0.799,3.278,1.92,4.45,3.377c0.482,0.583,0.719,1.212,0.719,1.871c0,0.551-0.155,1.061-0.409,1.477
		c-0.269,0.433-0.605,0.766-0.98,1.033c-0.387,0.263-0.792,0.482-1.201,0.622c-0.381,0.136-0.717,0.204-0.966,0.204
		c-0.754,0-1.485-0.373-2.183-1.184c-0.286-0.303-0.596-0.62-1.003-0.913c-0.387-0.276-0.801-0.527-1.279-0.768
		c-0.478-0.239-0.988-0.431-1.528-0.581c-0.571-0.136-1.117-0.205-1.724-0.205c-1.014,0-2,0.19-2.885,0.603
		c-0.895,0.39-1.705,0.924-2.383,1.623c-0.678,0.674-1.214,1.457-1.599,2.363c-0.392,0.915-0.585,1.871-0.585,2.913
		c0,1.022,0.192,1.993,0.585,2.885c0.385,0.921,0.921,1.686,1.599,2.394c0.678,0.659,1.488,1.197,2.383,1.574
		c0.885,0.385,1.871,0.609,2.885,0.609c1.208,0,2.303-0.265,3.252-0.779c1.007-0.493,1.737-1.053,2.282-1.672
		c0.381-0.441,0.741-0.758,1.122-0.941c0.351-0.181,0.719-0.301,1.079-0.301c0.392,0,0.779,0.12,1.21,0.301
		c0.435,0.183,0.799,0.431,1.147,0.753c0.351,0.317,0.624,0.672,0.857,1.07c0.211,0.402,0.323,0.812,0.323,1.234
		c0,0.682-0.237,1.3-0.719,1.894c-1.173,1.453-2.667,2.603-4.45,3.405c-1.78,0.805-3.823,1.208-6.103,1.208
		C153.534,109.137,151.766,108.756,150.126,108.061"/>
	<path style="fill:#FFFFFF;" d="M186.878,103.908h-10.806l-1.253,2.968c-0.241,0.579-0.633,1.012-1.128,1.328
		c-0.504,0.336-1.051,0.474-1.657,0.474c-0.276,0-0.609-0.039-0.947-0.138c-0.334-0.136-0.661-0.295-0.981-0.544
		c-0.299-0.233-0.564-0.571-0.766-0.954c-0.232-0.383-0.332-0.85-0.332-1.421c0-0.402,0.093-0.803,0.295-1.236l9.345-20.641
		c0.594-1.257,1.565-1.909,2.927-1.909c1.401,0,2.368,0.652,2.908,1.909l9.187,20.641c0.162,0.416,0.239,0.825,0.239,1.236
		c0,0.867-0.295,1.608-0.859,2.179c-0.603,0.571-1.319,0.878-2.153,0.878c-0.592,0-1.141-0.138-1.657-0.474
		c-0.506-0.316-0.9-0.749-1.13-1.328L186.878,103.908z M178.347,98.634h6.402l-3.173-7.713L178.347,98.634z"/>
	<path style="fill:#FFFFFF;" d="M215.789,103.45c0.366,0.275,0.616,0.618,0.811,1.018c0.157,0.398,0.263,0.811,0.263,1.225
		c0,0.338-0.067,0.656-0.205,1.003c-0.144,0.346-0.336,0.65-0.562,0.977c-0.25,0.295-0.581,0.53-0.938,0.732
		c-0.387,0.181-0.809,0.273-1.305,0.273c-0.349,0-0.7-0.037-1.044-0.138c-0.366-0.135-0.67-0.306-0.96-0.571l-7.986-6.845h-0.344
		v4.471c0,0.859-0.306,1.604-0.891,2.168c-0.599,0.609-1.332,0.915-2.215,0.915c-0.829,0-1.55-0.306-2.153-0.915
		c-0.592-0.564-0.902-1.309-0.902-2.168V85.373c0-0.867,0.31-1.58,0.902-2.166c0.603-0.614,1.324-0.902,2.153-0.902h6.828
		c1.302,0,2.525,0.237,3.653,0.743c1.167,0.478,2.155,1.169,3.037,2.038c0.872,0.859,1.537,1.877,2.051,3.012
		c0.467,1.16,0.719,2.366,0.719,3.685c0,1.808-0.512,3.384-1.517,4.684c-0.994,1.302-2.475,2.284-4.406,2.966L215.789,103.45z
		 M203.519,87.999v7.504h3.64c0.547,0,1.02-0.11,1.44-0.291c0.467-0.232,0.844-0.499,1.21-0.831c0.317-0.338,0.601-0.73,0.79-1.165
		c0.2-0.459,0.295-0.93,0.295-1.432c0-0.536-0.095-1.01-0.295-1.479c-0.189-0.458-0.472-0.857-0.79-1.186
		c-0.366-0.364-0.743-0.626-1.21-0.814c-0.42-0.205-0.893-0.304-1.44-0.304H203.519z"/>
	<path style="fill:#FFFFFF;" d="M224.585,108.678c-0.829,0-1.548-0.306-2.155-0.889c-0.607-0.59-0.913-1.335-0.913-2.168V85.372
		c0-0.865,0.306-1.578,0.913-2.166c0.607-0.613,1.326-0.9,2.155-0.9h11.891c0.797,0,1.46,0.288,2.013,0.809
		c0.547,0.571,0.833,1.253,0.833,2.056c0,0.775-0.286,1.449-0.833,2.011c-0.553,0.532-1.216,0.818-2.013,0.818h-8.785v4.497h6.746
		c0.751,0,1.369,0.26,1.884,0.771c0.497,0.534,0.749,1.143,0.749,1.879c0,0.73-0.252,1.339-0.749,1.892
		c-0.515,0.489-1.134,0.738-1.884,0.738h-6.746v5.198h8.785c0.797,0,1.46,0.297,2.013,0.84c0.547,0.549,0.833,1.208,0.833,2.011
		c0,0.799-0.286,1.47-0.833,2.023c-0.553,0.557-1.216,0.829-2.013,0.829H224.585z"/>
	<path style="fill:#FFFFFF;" d="M255.559,83.206c0.594-0.613,1.289-0.9,2.168-0.9c0.844,0,1.599,0.288,2.181,0.9
		c0.59,0.586,0.896,1.302,0.896,2.168v20.219c0,0.859-0.306,1.606-0.896,2.196c-0.583,0.583-1.337,0.889-2.181,0.889
		c-0.88,0-1.574-0.306-2.168-0.889c-0.594-0.59-0.913-1.337-0.913-2.196V85.374C254.646,84.508,254.965,83.793,255.559,83.206"/>
	<path style="fill:#FFFFFF;" d="M272.298,93.268v12.326c0,0.859-0.297,1.604-0.88,2.194c-0.611,0.583-1.341,0.889-2.215,0.889
		c-0.839,0-1.558-0.306-2.153-0.889c-0.585-0.59-0.878-1.335-0.878-2.194V85.374c0-0.867,0.293-1.58,0.878-2.168
		c0.596-0.613,1.315-0.9,2.153-0.9c0.529,0,0.995,0.123,1.421,0.34c0.387,0.217,0.713,0.469,0.99,0.788l11.06,14.22v-12.28
		c0-0.867,0.299-1.58,0.911-2.168c0.594-0.613,1.315-0.9,2.144-0.9c0.882,0,1.599,0.288,2.204,0.9
		c0.605,0.588,0.926,1.302,0.926,2.168v20.221c0,0.859-0.321,1.604-0.926,2.194c-0.605,0.583-1.322,0.889-2.204,0.889
		c-0.534,0-0.988-0.131-1.41-0.351c-0.413-0.265-0.751-0.538-1.009-0.872L272.298,93.268z"/>
	<path style="fill:#FFFFFF;" d="M308.155,108.678c-0.833,0-1.571-0.306-2.178-0.889c-0.583-0.59-0.878-1.335-0.878-2.168V85.372
		c0-0.865,0.295-1.578,0.878-2.166c0.607-0.613,1.345-0.9,2.178-0.9h11.884c0.797,0,1.47,0.288,2.023,0.809
		c0.568,0.571,0.829,1.253,0.829,2.056c0,0.775-0.262,1.449-0.829,2.011c-0.553,0.532-1.225,0.818-2.023,0.818h-8.81v4.497h6.763
		c0.758,0,1.382,0.26,1.884,0.771c0.502,0.534,0.754,1.143,0.754,1.879c0,0.73-0.252,1.339-0.754,1.892
		c-0.502,0.489-1.126,0.738-1.884,0.738h-6.763v5.198h8.81c0.797,0,1.47,0.297,2.023,0.84c0.568,0.549,0.829,1.208,0.829,2.011
		c0,0.799-0.262,1.47-0.829,2.023c-0.553,0.557-1.225,0.829-2.023,0.829H308.155z"/>
	<path style="fill:#FFFFFF;" d="M339.106,108.174c-0.478,0.364-1.051,0.504-1.711,0.504c-0.708,0-1.289-0.14-1.748-0.504
		c-0.478-0.362-0.854-0.827-1.083-1.427l-8.912-20.118c-0.148-0.402-0.228-0.805-0.228-1.231c0-0.34,0.041-0.706,0.159-1.063
		c0.138-0.387,0.306-0.698,0.57-0.994c0.252-0.295,0.57-0.549,0.956-0.749c0.368-0.185,0.839-0.289,1.358-0.289
		c0.626,0,1.171,0.172,1.681,0.476c0.506,0.314,0.874,0.747,1.098,1.348l6.15,15.236l6.07-15.236
		c0.23-0.601,0.605-1.035,1.121-1.348c0.502-0.304,1.074-0.476,1.677-0.476c0.375,0,0.766,0.08,1.108,0.192
		c0.37,0.138,0.712,0.321,0.979,0.598c0.325,0.237,0.536,0.553,0.732,0.954c0.164,0.366,0.256,0.812,0.256,1.35
		c0,0.426-0.092,0.829-0.256,1.231l-8.875,20.118C339.926,107.347,339.573,107.812,339.106,108.174"/>
	<path style="fill:#FFFFFF;" d="M355.827,108.678c-0.833,0-1.537-0.306-2.157-0.889c-0.598-0.59-0.9-1.335-0.9-2.168V85.372
		c0-0.865,0.303-1.578,0.9-2.166c0.62-0.613,1.324-0.9,2.157-0.9h11.898c0.805,0,1.466,0.288,2.013,0.809
		c0.572,0.571,0.835,1.253,0.835,2.056c0,0.775-0.263,1.449-0.835,2.011C369.191,87.714,368.53,88,367.725,88h-8.782v4.497h6.731
		c0.769,0,1.393,0.26,1.883,0.771c0.514,0.534,0.762,1.143,0.762,1.879c0,0.73-0.248,1.339-0.762,1.892
		c-0.489,0.489-1.113,0.738-1.883,0.738h-6.731v5.198h8.782c0.805,0,1.466,0.297,2.013,0.84c0.572,0.549,0.835,1.208,0.835,2.011
		c0,0.799-0.263,1.47-0.835,2.023c-0.547,0.557-1.208,0.829-2.013,0.829H355.827z"/>
	<path style="fill:#FFFFFF;" d="M393.414,103.45c0.368,0.275,0.644,0.618,0.801,1.018c0.198,0.398,0.267,0.811,0.267,1.225
		c0,0.338-0.052,0.656-0.187,1.003c-0.134,0.346-0.306,0.65-0.555,0.977c-0.261,0.295-0.56,0.53-0.951,0.732
		c-0.366,0.181-0.788,0.273-1.3,0.273c-0.329,0-0.674-0.037-1.061-0.138c-0.332-0.135-0.659-0.306-0.938-0.571l-7.988-6.845h-0.344
		v4.471c0,0.859-0.291,1.604-0.896,2.168c-0.596,0.609-1.332,0.915-2.208,0.915c-0.842,0-1.554-0.306-2.155-0.915
		c-0.596-0.564-0.887-1.309-0.887-2.168V85.373c0-0.867,0.291-1.58,0.887-2.166c0.601-0.614,1.313-0.902,2.155-0.902h6.813
		c1.319,0,2.536,0.237,3.674,0.743c1.139,0.478,2.155,1.169,3.027,2.038c0.88,0.859,1.55,1.877,2.039,3.012
		c0.493,1.16,0.743,2.366,0.743,3.685c0,1.808-0.502,3.384-1.52,4.684c-1.014,1.302-2.473,2.284-4.393,2.966L393.414,103.45z
		 M381.161,87.999v7.504h3.655c0.51,0,0.988-0.11,1.447-0.291c0.431-0.232,0.822-0.499,1.163-0.831
		c0.359-0.338,0.626-0.73,0.811-1.165c0.204-0.459,0.306-0.93,0.306-1.432c0-0.536-0.103-1.01-0.306-1.479
		c-0.185-0.458-0.452-0.857-0.811-1.186c-0.342-0.364-0.732-0.626-1.163-0.814c-0.459-0.205-0.938-0.304-1.447-0.304H381.161z"/>
	<path style="fill:#FFFFFF;" d="M410.46,97.777v7.818c0,0.859-0.31,1.604-0.915,2.194c-0.613,0.583-1.352,0.889-2.193,0.889
		c-0.827,0-1.55-0.306-2.133-0.889c-0.635-0.59-0.926-1.335-0.926-2.194v-7.818l-7.394-10.642c-0.332-0.525-0.512-1.096-0.512-1.737
		c0-0.501,0.103-0.926,0.271-1.324c0.207-0.388,0.437-0.71,0.732-0.982c0.293-0.273,0.631-0.456,0.982-0.596
		c0.353-0.11,0.732-0.191,1.072-0.191c0.489,0,0.971,0.123,1.408,0.338c0.45,0.219,0.831,0.553,1.141,0.995l5.358,7.739l5.401-7.739
		c0.297-0.443,0.659-0.777,1.126-0.995c0.448-0.215,0.893-0.338,1.382-0.338c0.364,0,0.719,0.08,1.083,0.191
		c0.372,0.14,0.708,0.323,0.973,0.596c0.306,0.273,0.547,0.594,0.741,0.982c0.164,0.398,0.288,0.824,0.288,1.324
		c0,0.641-0.211,1.212-0.54,1.737L410.46,97.777z"/>
	<path style="fill:#FFFFFF;" d="M434.276,107.762c-0.598-0.564-0.896-1.309-0.896-2.14V85.373c0-0.867,0.299-1.58,0.896-2.166
		c0.611-0.614,1.332-0.902,2.168-0.902h8.268c1.761,0,3.401,0.375,4.923,1.074c1.518,0.719,2.828,1.681,3.948,2.885
		c1.085,1.184,1.959,2.602,2.605,4.2c0.613,1.621,0.943,3.265,0.943,5.039c0,1.739-0.331,3.42-0.943,5.011
		c-0.646,1.614-1.52,3.007-2.605,4.193c-1.121,1.21-2.43,2.187-3.948,2.899c-1.522,0.719-3.162,1.072-4.923,1.072h-8.268
		C435.608,108.677,434.887,108.371,434.276,107.762 M439.534,87.999v14.965h4.406c0.967,0,1.894-0.219,2.751-0.607
		c0.865-0.413,1.608-0.934,2.247-1.621c0.631-0.689,1.134-1.464,1.485-2.361c0.381-0.895,0.551-1.841,0.551-2.846
		c0-1.022-0.17-1.959-0.551-2.861c-0.344-0.924-0.822-1.703-1.474-2.405c-0.613-0.678-1.358-1.238-2.222-1.623
		c-0.868-0.433-1.772-0.641-2.786-0.641H439.534z"/>
	<path style="fill:#FFFFFF;" d="M479.272,103.45c0.359,0.275,0.618,0.618,0.797,1.018c0.172,0.398,0.254,0.811,0.254,1.225
		c0,0.338-0.047,0.656-0.185,1.003c-0.121,0.346-0.321,0.65-0.558,0.977c-0.233,0.295-0.543,0.53-0.926,0.732
		c-0.398,0.181-0.831,0.273-1.302,0.273c-0.349,0-0.712-0.037-1.07-0.138c-0.342-0.135-0.654-0.306-0.951-0.571l-7.963-6.845h-0.351
		v4.471c0,0.859-0.31,1.604-0.904,2.168c-0.603,0.609-1.332,0.915-2.187,0.915c-0.872,0-1.574-0.306-2.168-0.915
		c-0.598-0.564-0.908-1.309-0.908-2.168V85.373c0-0.867,0.31-1.58,0.908-2.166c0.594-0.614,1.296-0.902,2.168-0.902h6.82
		c1.268,0,2.488,0.237,3.651,0.743c1.156,0.478,2.155,1.169,3.012,2.038c0.868,0.859,1.546,1.877,2.054,3.012
		c0.48,1.16,0.736,2.366,0.736,3.685c0,1.808-0.497,3.384-1.511,4.684c-1.031,1.302-2.488,2.284-4.402,2.966L479.272,103.45z
		 M467.017,87.999v7.504h3.638c0.523,0,1.007-0.11,1.451-0.291c0.456-0.232,0.827-0.499,1.182-0.831
		c0.346-0.338,0.613-0.73,0.818-1.165c0.198-0.459,0.291-0.93,0.291-1.432c0-0.536-0.093-1.01-0.291-1.479
		c-0.205-0.458-0.472-0.857-0.818-1.186c-0.355-0.364-0.727-0.626-1.182-0.814c-0.445-0.205-0.928-0.304-1.451-0.304H467.017z"/>
	<path style="fill:#FFFFFF;" d="M491.7,108.062c-1.634-0.715-3.068-1.69-4.312-2.919c-1.236-1.223-2.206-2.671-2.928-4.353
		c-0.712-1.64-1.057-3.403-1.057-5.287c0-1.888,0.346-3.647,1.057-5.336c0.723-1.657,1.692-3.091,2.928-4.335
		c1.244-1.233,2.678-2.193,4.312-2.899c1.653-0.732,3.436-1.098,5.308-1.098c1.871,0,3.651,0.366,5.312,1.098
		c1.662,0.706,3.108,1.666,4.318,2.899c1.255,1.244,2.222,2.678,2.943,4.335c0.708,1.688,1.061,3.448,1.061,5.336
		c0,1.884-0.353,3.647-1.061,5.287c-0.721,1.683-1.688,3.13-2.943,4.353c-1.21,1.229-2.656,2.204-4.318,2.919
		c-1.66,0.695-3.44,1.076-5.312,1.076C495.136,109.138,493.353,108.757,491.7,108.062 M490.135,98.386
		c0.375,0.923,0.915,1.686,1.601,2.392c0.684,0.663,1.472,1.205,2.372,1.578c0.911,0.388,1.856,0.607,2.9,0.607
		c1.025,0,2.006-0.219,2.932-0.607c0.891-0.373,1.698-0.915,2.379-1.578c0.667-0.706,1.218-1.47,1.601-2.392
		c0.39-0.893,0.573-1.862,0.573-2.884c0-1.044-0.183-1.998-0.573-2.913c-0.383-0.906-0.934-1.694-1.601-2.363
		c-0.682-0.698-1.488-1.233-2.379-1.623c-0.926-0.407-1.907-0.605-2.932-0.605c-1.044,0-1.989,0.198-2.9,0.605
		c-0.9,0.39-1.688,0.924-2.372,1.623c-0.685,0.669-1.225,1.457-1.601,2.363c-0.387,0.915-0.585,1.869-0.585,2.913
		C489.55,96.524,489.748,97.493,490.135,98.386"/>
	<path style="fill:#FFFFFF;" d="M513.693,85.373c0-0.867,0.278-1.58,0.88-2.166c0.588-0.614,1.324-0.902,2.176-0.902h6.903
		c1.3,0,2.518,0.237,3.653,0.743c1.165,0.478,2.183,1.141,3.037,2.011c0.846,0.842,1.531,1.86,2.026,3.009
		c0.474,1.165,0.726,2.374,0.726,3.715c0,1.298-0.252,2.516-0.726,3.666c-0.495,1.136-1.18,2.123-2.026,2.969
		c-0.854,0.853-1.871,1.545-3.037,2.032c-1.135,0.487-2.353,0.721-3.653,0.721h-3.825v4.423c0,0.859-0.289,1.604-0.887,2.168
		c-0.616,0.609-1.339,0.915-2.191,0.915s-1.587-0.306-2.176-0.915c-0.601-0.564-0.88-1.309-0.88-2.168V85.373z M519.826,87.999
		v7.504h3.367c0.529,0,1.009-0.11,1.459-0.291c0.476-0.232,0.85-0.499,1.18-0.831c0.336-0.338,0.616-0.73,0.811-1.165
		c0.194-0.459,0.295-0.93,0.295-1.432c0-0.536-0.101-1.01-0.295-1.479c-0.194-0.458-0.474-0.857-0.811-1.186
		c-0.331-0.364-0.704-0.626-1.18-0.814c-0.45-0.205-0.93-0.304-1.459-0.304H519.826z"/>
	<path style="fill:#FFFFFF;" d="M194.636,63.17c0.095,0.202,0.134,0.402,0.134,0.613v0.614c0,0.588-0.103,1.175-0.317,1.782
		c-0.192,0.616-0.514,1.21-0.934,1.767c-0.437,0.56-0.98,0.995-1.645,1.348c-0.648,0.346-1.453,0.527-2.396,0.527
		c-1.178,0-2.28-0.39-3.291-1.139c-1.01-0.754-1.672-1.733-2.002-2.921l-4.555-18.284l-6.826,18.835
		c-0.364,1.078-0.934,1.914-1.692,2.557c-0.747,0.639-1.688,0.952-2.798,0.952c-1.109,0-2.043-0.314-2.809-0.952
		c-0.751-0.642-1.317-1.479-1.688-2.557l-6.839-18.835l-4.602,18.284c-0.331,1.188-0.99,2.166-1.976,2.921
		c-0.992,0.749-2.073,1.139-3.272,1.139c-0.717,0-1.432-0.131-2.069-0.435c-0.663-0.282-1.236-0.669-1.707-1.175
		c-0.471-0.487-0.852-1.059-1.119-1.69c-0.303-0.637-0.456-1.319-0.456-2.066c0-0.413,0.077-0.85,0.187-1.285l8.864-35.445
		c0.329-1.206,0.934-2.155,1.819-2.919c0.876-0.773,1.996-1.143,3.356-1.143c1.066,0,2.062,0.327,3.011,0.994
		c0.951,0.637,1.63,1.511,2.045,2.568l7.256,19.95l7.259-19.95c0.415-1.057,1.078-1.931,2.036-2.568
		c0.941-0.667,1.948-0.994,3.014-0.994c1.345,0,2.463,0.37,3.352,1.143c0.883,0.764,1.487,1.713,1.817,2.919L194.636,63.17z"/>
	<path style="fill:#FFFFFF;" d="M228.006,61.453h-18.898l-2.211,5.22c-0.402,0.982-1.076,1.757-1.955,2.31
		c-0.915,0.562-1.894,0.837-2.91,0.837c-0.493,0-1.048-0.095-1.664-0.275c-0.613-0.189-1.193-0.499-1.729-0.93
		c-0.521-0.435-0.966-0.977-1.335-1.664c-0.375-0.672-0.571-1.498-0.571-2.493c0-0.685,0.177-1.406,0.495-2.127l16.375-36.147
		c1.016-2.219,2.725-3.309,5.11-3.309c2.456,0,4.17,1.091,5.117,3.309l16.039,36.147c0.297,0.672,0.446,1.393,0.446,2.127
		c0,1.518-0.515,2.786-1.537,3.817c-1.035,1.029-2.286,1.545-3.756,1.545c-1.018,0-1.993-0.275-2.9-0.837
		c-0.891-0.553-1.565-1.328-1.974-2.31L228.006,61.453z M213.047,52.205h11.209l-5.545-13.45L213.047,52.205z"/>
	<path style="fill:#FFFFFF;" d="M254.641,42.852v21.545c0,1.528-0.514,2.805-1.565,3.858c-1.046,1.04-2.327,1.561-3.842,1.561
		c-1.474,0-2.727-0.521-3.787-1.561c-1.051-1.053-1.571-2.331-1.571-3.858V29.021c0-1.477,0.519-2.736,1.571-3.797
		c1.061-1.04,2.314-1.561,3.787-1.561c0.9,0,1.714,0.209,2.422,0.586c0.723,0.387,1.32,0.842,1.756,1.386L272.813,50.5V29.021
		c0-1.477,0.506-2.736,1.556-3.797c1.05-1.04,2.327-1.561,3.78-1.561c1.522,0,2.807,0.521,3.849,1.561
		c1.052,1.061,1.58,2.32,1.58,3.797v35.376c0,1.528-0.529,2.805-1.58,3.858c-1.042,1.04-2.327,1.561-3.849,1.561
		c-0.924,0-1.763-0.232-2.486-0.641c-0.723-0.437-1.294-0.938-1.748-1.518L254.641,42.852z"/>
	<path style="fill:#FFFFFF;" d="M290.793,25.223c1.061-1.04,2.308-1.561,3.801-1.561c1.511,0,2.798,0.521,3.845,1.561
		c1.038,1.059,1.558,2.32,1.558,3.797v35.378c0,1.528-0.519,2.807-1.558,3.855c-1.048,1.046-2.335,1.565-3.845,1.565
		c-1.492,0-2.74-0.519-3.801-1.565c-1.04-1.048-1.561-2.327-1.561-3.855V29.02C289.232,27.542,289.753,26.282,290.793,25.223"/>
	<path style="fill:#FFFFFF;" d="M315.203,59.843h13.789c1.348,0,2.527,0.502,3.507,1.449c0.979,0.952,1.475,2.148,1.475,3.534
		c0,1.403-0.497,2.587-1.475,3.539c-0.98,0.971-2.159,1.453-3.507,1.453h-19.201c-1.483,0-2.747-0.519-3.789-1.565
		c-1.04-1.053-1.571-2.31-1.571-3.797V29.02c0-1.477,0.53-2.736,1.571-3.797c1.042-1.04,2.307-1.561,3.789-1.561
		c1.52,0,2.805,0.521,3.849,1.561c1.055,1.061,1.563,2.32,1.563,3.797V59.843z"/>
	<path style="fill:#FFFFFF;" d="M369.178,61.453h-18.895l-2.208,5.22c-0.42,0.982-1.078,1.757-1.978,2.31
		c-0.889,0.562-1.875,0.837-2.895,0.837c-0.499,0-1.044-0.095-1.658-0.275c-0.62-0.189-1.206-0.499-1.724-0.93
		c-0.515-0.435-0.975-0.977-1.335-1.664c-0.387-0.672-0.573-1.498-0.573-2.493c0-0.685,0.157-1.406,0.497-2.127l16.37-36.147
		c1.016-2.219,2.723-3.309,5.104-3.309c2.463,0,4.165,1.091,5.11,3.309l16.058,36.147c0.284,0.672,0.433,1.393,0.433,2.127
		c0,1.518-0.517,2.786-1.543,3.817c-1.04,1.029-2.28,1.545-3.769,1.545c-0.999,0-1.98-0.275-2.874-0.837
		c-0.9-0.553-1.554-1.328-1.961-2.31L369.178,61.453z M354.215,52.205h11.202l-5.534-13.45L354.215,52.205z"/>
	<path style="fill:#FFFFFF;" d="M442.716,49.927l6.335-22.518c0.327-1.124,0.966-2.051,1.916-2.723
		c0.934-0.689,2.008-1.023,3.207-1.023c0.895,0,1.675,0.181,2.357,0.521c0.693,0.342,1.229,0.799,1.672,1.32
		c0.428,0.544,0.74,1.117,0.98,1.739c0.215,0.644,0.342,1.261,0.342,1.828c0,0.609-0.097,1.178-0.258,1.67l-11.133,35.387
		c-0.375,1.147-0.971,2.039-1.856,2.706c-0.844,0.637-1.875,0.98-3.072,0.98c-1.182,0-2.213-0.31-3.07-0.947
		c-0.872-0.642-1.507-1.522-1.912-2.689l-8.662-24.428l-8.705,24.428c-0.402,1.167-1.035,2.047-1.884,2.689
		c-0.887,0.637-1.905,0.947-3.091,0.947c-1.175,0-2.213-0.344-3.078-0.98c-0.854-0.667-1.462-1.559-1.836-2.706l-11.153-35.387
		c-0.153-0.491-0.233-1.061-0.233-1.67c0-0.568,0.092-1.184,0.338-1.828c0.217-0.622,0.562-1.195,0.971-1.739
		c0.448-0.521,0.992-0.979,1.673-1.32c0.669-0.34,1.46-0.521,2.372-0.521c1.19,0,2.243,0.334,3.195,1.023
		c0.93,0.672,1.561,1.599,1.894,2.723l6.344,22.518l8.008-22.568c0.444-1.197,1.113-2.101,2.006-2.742
		c0.876-0.635,1.937-0.954,3.179-0.954c1.214,0,2.277,0.319,3.184,0.954c0.898,0.641,1.558,1.545,1.976,2.742L442.716,49.927z"/>
	<path style="fill:#FFFFFF;" d="M487.325,61.453h-18.887l-2.211,5.22c-0.403,0.982-1.066,1.757-1.982,2.31
		c-0.9,0.562-1.856,0.837-2.882,0.837c-0.495,0-1.042-0.095-1.653-0.275c-0.616-0.189-1.214-0.499-1.735-0.93
		c-0.521-0.435-0.982-0.977-1.35-1.664c-0.372-0.672-0.555-1.498-0.555-2.493c0-0.685,0.166-1.406,0.476-2.127l16.377-36.147
		c1.042-2.219,2.729-3.309,5.104-3.309c2.467,0,4.172,1.091,5.115,3.309l16.069,36.147c0.289,0.672,0.422,1.393,0.422,2.127
		c0,1.518-0.515,2.786-1.546,3.817c-1.022,1.029-2.269,1.545-3.748,1.545c-1.018,0-1.996-0.275-2.893-0.837
		c-0.895-0.553-1.541-1.328-1.963-2.31L487.325,61.453z M472.388,52.205h11.191l-5.55-13.45L472.388,52.205z"/>
	<path style="fill:#FFFFFF;" d="M527.823,23.662c1.376,0,2.583,0.489,3.563,1.451c0.992,0.951,1.488,2.127,1.488,3.539
		c0,1.395-0.497,2.572-1.488,3.532c-0.98,0.975-2.187,1.446-3.563,1.446h-9.097V64.4c0,1.526-0.557,2.801-1.615,3.853
		c-1.068,1.048-2.327,1.565-3.797,1.565c-1.496,0-2.747-0.517-3.789-1.565c-1.048-1.051-1.58-2.327-1.58-3.853V33.629h-9.17
		c-1.393,0-2.579-0.471-3.524-1.446c-0.977-0.96-1.459-2.137-1.459-3.532c0-1.412,0.482-2.588,1.459-3.539
		c0.945-0.962,2.131-1.451,3.524-1.451H527.823z"/>
	<path style="fill:#FFFFFF;" d="M543.092,69.817c-1.477,0-2.74-0.519-3.782-1.565c-1.059-1.048-1.58-2.31-1.58-3.797V29.02
		c0-1.477,0.521-2.738,1.58-3.797c1.042-1.04,2.305-1.561,3.782-1.561h20.799c1.397,0,2.576,0.487,3.537,1.451
		c0.964,0.951,1.449,2.127,1.449,3.539c0,1.395-0.486,2.572-1.449,3.53c-0.962,0.977-2.14,1.447-3.537,1.447h-15.38v7.874h11.805
		c1.309,0,2.419,0.452,3.281,1.35c0.887,0.906,1.328,2,1.328,3.272c0,1.272-0.441,2.349-1.328,3.265
		c-0.863,0.891-1.972,1.363-3.281,1.363h-11.805v9.09h15.38c1.397,0,2.576,0.502,3.537,1.453c0.964,0.949,1.449,2.144,1.449,3.53
		c0,1.403-0.486,2.587-1.449,3.539c-0.962,0.971-2.14,1.453-3.537,1.453H543.092z"/>
	<path style="fill:#FFFFFF;" d="M606.404,60.651c0.62,0.491,1.091,1.07,1.401,1.78c0.302,0.708,0.452,1.423,0.452,2.159
		c0,0.568-0.108,1.169-0.336,1.75c-0.226,0.594-0.56,1.167-0.999,1.688c-0.418,0.536-0.973,0.969-1.608,1.298
		c-0.674,0.327-1.431,0.491-2.288,0.491c-0.616,0-1.236-0.093-1.849-0.273c-0.613-0.191-1.16-0.501-1.649-0.958l-13.981-11.998
		h-0.628v7.808c0,1.528-0.506,2.809-1.565,3.855c-1.033,1.046-2.32,1.565-3.847,1.565c-1.46,0-2.721-0.519-3.78-1.565
		c-1.042-1.046-1.565-2.327-1.565-3.855V29.02c0-1.477,0.523-2.738,1.565-3.797c1.059-1.04,2.32-1.561,3.78-1.561h11.949
		c2.258,0,4.385,0.431,6.402,1.29c2.01,0.868,3.771,2.052,5.297,3.567c1.52,1.528,2.702,3.281,3.567,5.304
		c0.857,1.996,1.294,4.127,1.294,6.389c0,3.21-0.889,5.931-2.656,8.23c-1.757,2.271-4.318,3.985-7.696,5.19L606.404,60.651z
		 M584.919,33.629v13.107h6.41c0.915,0,1.746-0.168,2.531-0.521c0.781-0.355,1.459-0.825,2.066-1.418
		c0.586-0.599,1.05-1.268,1.406-2.054c0.351-0.788,0.527-1.63,0.527-2.531c0-0.898-0.176-1.746-0.527-2.553
		c-0.357-0.79-0.82-1.503-1.406-2.084c-0.607-0.603-1.285-1.074-2.066-1.418c-0.784-0.362-1.615-0.529-2.531-0.529H584.919z"/>
	<path style="fill:#FFFFFF;" d="M25.872,24.721c0,0-2.9,0.833-4.925,3.244c-2.041,2.406,0.379,4.113,2.161,2.406
		C25.532,28.15,25.872,24.721,25.872,24.721"/>
	<path style="fill:#FFFFFF;" d="M37.493,2.12c0,0-2.484-1.903-5.732-2.109c-3.25-0.226-3.197,2.833-0.67,3.272
		C34.424,3.949,37.493,2.12,37.493,2.12"/>
	<path style="fill:#FFFFFF;" d="M113.999,65.232c0,0,2.038-2.221,2.523-5.345c0.489-3.106-2.462-3.309-3.096-0.919
		C112.503,62.125,113.999,65.232,113.999,65.232"/>
	<path style="fill:#FFFFFF;" d="M110.213,66.54c-1.724,2.506-5.059,7.562-3.392,0.536c1.668-7.011,4.759-24.277-1.07-25.7
		c-5.829-1.425-2.221,11.945-5.917,3.959c-3.672-7.96-7.411-16.093-19.3-25.842C68.629,9.735,50.672,2.121,43.17,1.521
		c-0.603-0.039-2.689-0.133-2.59,0.902c0.116,1.038,2.181,1.683,2.928,2.026c1.612,0.773,3.838,1.681,4.753,3.326
		c0.465,0.861,0.674,1.959-0.609,1.967c-1.184,0.007-2.546-0.36-3.651-0.725c-8.802-2.844-18.79-4.874-28.32,4.161
		c-4.568,4.344-0.712,9.768,3.337,4.871c4.038-4.871,11.381-7.323,14.127-6.247c0.493,0.189,1.32,0.781,1.083,1.518
		c-0.219,0.685-0.988,0.842-1.608,0.876c-0.807,0.06-1.657-0.034-2.45,0c-0.614,0.035-1.178,0.105-1.774,0.233
		c-1.184,0.261-2.435,0.609-3.446,1.294c-0.407,0.267-0.861,0.674-1.055,1.15c-0.839,2.019,2.073,2.133,5.298,0.889
		c3.209-1.255,24.322-4.226,42.411,6.845c18.099,11.064,27.123,32.239,25.345,53.06c-1.787,20.82-13.682,33.912-23.56,40.577
		c-3.659,2.469-8.294,4.611-13.559,6.187c9.245-6.651,15.281-17.481,15.281-29.742c0-16.694-11.172-30.769-26.438-35.165
		c2.973-1.784,1.688-5.143-10.64-3.791C21.396,57.54,12.39,68.434,10.721,70.653c-1.04-2.075-3.769-2.075-6.227,1.576
		c-9.966,16.84-0.247,35.815-0.247,35.815s0.009-0.146,0.022-0.377c2.288,6.027,6.096,11.284,10.967,15.297
		c-0.934-1.21-1.795-2.484-2.544-3.868c-2.981-3.959-6.54-10.276-6.331-17.509c0.093-2.962,1.797-4.359,2.708-2.488
		c0.304-4.144,2.241-13.54,13.03-20.975c2.564-1.572,4.202-1.046,4.01,0.263c3.713-2.208,12.672-6.079,25.129-2.01
		c3.162,1.253,3.44,3.125,1.573,3.498c5.933,3.158,10.414,8.111,11.796,13.947c3.773,15.809-6.139,26.359-17.531,28.477
		c-5.672,1.048-11.876-0.207-16.181-3.485c-1.401-0.855-7.614-5.093-7.317-12.53c0.088-3.128,1.156-3.791,1.955-2.434
		c0.34-2.079,1.507-5.659,5.377-9.261c2.032-1.548,3.149-0.997,2.116,0.769c4.785-2.193,10.593-1.442,13.506,1.302
		c5.052,4.734,0.788,9.387-4.23,4.574c-5.304-5.108-14.494,2.8-9.246,11.286c5.638,9.155,25.209,3.222,25.756-10.221
		c-0.209-20.755-24.113-21.505-33.077-15.178c-10.214,7.205-12.616,20.798-4.303,32.151c2.955,4.028,6.578,6.516,10.01,8.059
		c0.833,0.368,1.954,0.818,3.401,1.244l0.035,0.022c2.019,0.594,4.65,1.173,8.089,1.515c1.115,0.125,2.29,0.217,3.565,0.286
		c5.636,0.301,12.905,0.037,22.219-1.328c26.307-3.866,29.387-12.741,26.641-14.046c-1.214-0.577-2.391,0.183-3.322,0.908
		c-2.779,2.122-5.702,3.821-9.14,4.615c-0.607,0.144-1.832,0.325-2.269-0.329c-0.525-0.755,0.697-1.795,1.154-2.209
		c1.892-1.679,4.025-3.057,5.898-4.794c2.067-1.903,4.036-3.873,5.932-5.974c2.426-2.732,4.759-5.526,6.899-8.488
		c2.467-3.41,4.757-6.925,6.738-10.645c2.144-4.004,3.972-8.13,5.394-12.448c0.176-0.519,0.366-1.031,0.514-1.558
		C115.855,64.633,111.935,64.043,110.213,66.54"/>
</g>
</svg>
