<svg id="Layer_1" data-name="Layer 1" xmlns="http://www.w3.org/2000/svg" viewBox="0 0 608.26 130.51"><defs><style>.cls-1{fill:#009fce;}.cls-2{fill:#18af89;}.cls-3{fill:#009ecc;}</style></defs><path class="cls-1" d="M150.13,108.06a14,14,0,0,1-4.32-2.92,13.82,13.82,0,0,1-4-9.64,13.47,13.47,0,0,1,1.1-5.34,13.7,13.7,0,0,1,2.93-4.33,13.91,13.91,0,0,1,4.32-2.9,12.81,12.81,0,0,1,5.26-1.1,14.5,14.5,0,0,1,6.11,1.24A11.88,11.88,0,0,1,166,86.44a2.94,2.94,0,0,1,.72,1.88,2.84,2.84,0,0,1-.41,1.47,3.63,3.63,0,0,1-1,1,5.27,5.27,0,0,1-1.2.62,3.21,3.21,0,0,1-1,.2,2.89,2.89,0,0,1-2.18-1.18,7.52,7.52,0,0,0-1-.92,11.09,11.09,0,0,0-1.28-.76,8.51,8.51,0,0,0-1.53-.59,7.58,7.58,0,0,0-1.73-.2,6.82,6.82,0,0,0-2.88.6,7.26,7.26,0,0,0-2.38,1.63,7.15,7.15,0,0,0-1.6,2.36,7.42,7.42,0,0,0,0,5.8,7.31,7.31,0,0,0,4,4,7.31,7.31,0,0,0,2.88.6,6.82,6.82,0,0,0,3.26-.77,7.38,7.38,0,0,0,2.28-1.68,3.73,3.73,0,0,1,1.12-.94,2.41,2.41,0,0,1,1.08-.3,3.16,3.16,0,0,1,1.21.3,3.84,3.84,0,0,1,1.15.76,4.18,4.18,0,0,1,.85,1.07,2.52,2.52,0,0,1,.33,1.23,2.92,2.92,0,0,1-.72,1.89,11.87,11.87,0,0,1-4.45,3.41,14.81,14.81,0,0,1-6.11,1.21,13.3,13.3,0,0,1-5.26-1.08" transform="translate(0 0)"/><path class="cls-1" d="M186.88,103.91H176.07l-1.25,3a2.81,2.81,0,0,1-1.13,1.32,2.85,2.85,0,0,1-1.66.48,3.4,3.4,0,0,1-.94-.14,4.31,4.31,0,0,1-1-.54,3.08,3.08,0,0,1-.77-1,2.69,2.69,0,0,1-.33-1.42,2.94,2.94,0,0,1,.29-1.24l9.35-20.64a3,3,0,0,1,2.93-1.91,2.93,2.93,0,0,1,2.9,1.91l9.19,20.64a3.45,3.45,0,0,1,.24,1.24,3,3,0,0,1-3,3.06,2.94,2.94,0,0,1-1.66-.48,2.71,2.71,0,0,1-1.13-1.32Zm-8.53-5.28h6.4l-3.17-7.71Z" transform="translate(0 0)"/><path class="cls-1" d="M215.79,103.45a2.68,2.68,0,0,1,.81,1,3.3,3.3,0,0,1,.26,1.22,2.63,2.63,0,0,1-.2,1,5.93,5.93,0,0,1-.56,1,3.54,3.54,0,0,1-.94.73,2.9,2.9,0,0,1-1.31.28,3.67,3.67,0,0,1-1-.14,2.91,2.91,0,0,1-1-.57l-8-6.85h-.34v4.47a2.94,2.94,0,0,1-.89,2.17,3,3,0,0,1-2.22.92,3.11,3.11,0,0,1-3-3.09V85.37a2.92,2.92,0,0,1,.9-2.16,2.87,2.87,0,0,1,2.15-.91h6.83a8.74,8.74,0,0,1,3.65.75,9.29,9.29,0,0,1,3,2,9.19,9.19,0,0,1,2.77,6.69,7.45,7.45,0,0,1-1.52,4.69,9.18,9.18,0,0,1-4.4,3ZM203.52,88v7.5h3.64a3.59,3.59,0,0,0,1.44-.29,5.19,5.19,0,0,0,1.21-.83,4.18,4.18,0,0,0,.79-1.16,3.53,3.53,0,0,0,.29-1.44,3.69,3.69,0,0,0-.29-1.48,3.88,3.88,0,0,0-.79-1.18,3.51,3.51,0,0,0-1.21-.82,3.28,3.28,0,0,0-1.44-.3Z" transform="translate(0 0)"/><path class="cls-1" d="M224.58,108.68a3,3,0,0,1-2.15-.89,2.94,2.94,0,0,1-.91-2.17V85.37a2.86,2.86,0,0,1,.91-2.16,2.89,2.89,0,0,1,2.15-.9h11.9a2.83,2.83,0,0,1,2,.8,2.89,2.89,0,0,1,.83,2.06,2.77,2.77,0,0,1-.83,2,2.81,2.81,0,0,1-2,.82h-8.79v4.5h6.75a2.55,2.55,0,0,1,1.88.77,2.62,2.62,0,0,1,.75,1.88,2.69,2.69,0,0,1-.75,1.89,2.6,2.6,0,0,1-1.88.74h-6.75V103h8.79a2.79,2.79,0,0,1,2,.84,2.87,2.87,0,0,1,0,4,2.7,2.7,0,0,1-2,.83Z" transform="translate(0 0)"/><path class="cls-1" d="M255.56,83.21a2.82,2.82,0,0,1,2.17-.9,2.88,2.88,0,0,1,2.18.9,2.92,2.92,0,0,1,.9,2.16v20.22a3.06,3.06,0,0,1-3.08,3.09,3,3,0,0,1-2.17-.89,3,3,0,0,1-.91-2.2V85.37a2.93,2.93,0,0,1,.91-2.16" transform="translate(0 0)"/><path class="cls-1" d="M272.3,93.27v12.32a3,3,0,0,1-.88,2.2,3.1,3.1,0,0,1-2.22.89,3,3,0,0,1-2.15-.89,3,3,0,0,1-.88-2.2V85.37a2.94,2.94,0,0,1,.88-2.16,2.85,2.85,0,0,1,2.15-.9,3,3,0,0,1,1.42.34,3.32,3.32,0,0,1,1,.78l11.06,14.22V85.37a3.11,3.11,0,0,1,3.06-3.06,3.12,3.12,0,0,1,3.13,3.06v20.22a3,3,0,0,1-.93,2.2,3,3,0,0,1-2.2.89,3,3,0,0,1-1.41-.35,4,4,0,0,1-1-.88Z" transform="translate(0 0)"/><path class="cls-1" d="M308.15,108.68a3.06,3.06,0,0,1-2.17-.89,3,3,0,0,1-.88-2.17V85.37a3,3,0,0,1,3-3.06H320a2.84,2.84,0,0,1,2,.8,2.81,2.81,0,0,1,.83,2.06,2.7,2.7,0,0,1-.83,2,2.82,2.82,0,0,1-2,.82h-8.81v4.5H318a2.56,2.56,0,0,1,1.89.77,2.62,2.62,0,0,1,.75,1.88,2.69,2.69,0,0,1-.75,1.89,2.61,2.61,0,0,1-1.89.74h-6.76V103H320a2.79,2.79,0,0,1,2,.84,2.87,2.87,0,0,1,0,4,2.71,2.71,0,0,1-2,.83Z" transform="translate(0 0)"/><path class="cls-1" d="M339.11,108.17a2.71,2.71,0,0,1-1.71.51,2.68,2.68,0,0,1-1.75-.51,3.16,3.16,0,0,1-1.09-1.42l-8.91-20.12a3.48,3.48,0,0,1-.23-1.23,3.59,3.59,0,0,1,.16-1.06,3,3,0,0,1,.57-1,3.17,3.17,0,0,1,1-.75,3.14,3.14,0,0,1,1.36-.29,3.25,3.25,0,0,1,1.68.48,2.65,2.65,0,0,1,1.1,1.35l6.15,15.23,6.07-15.23a2.54,2.54,0,0,1,1.12-1.35,3.24,3.24,0,0,1,1.67-.48,3.41,3.41,0,0,1,1.11.2,3.12,3.12,0,0,1,1.71,1.55,3.32,3.32,0,0,1,0,2.58l-8.87,20.12a3.77,3.77,0,0,1-1.1,1.42" transform="translate(0 0)"/><path class="cls-1" d="M355.83,108.68a3.05,3.05,0,0,1-2.16-.89,3,3,0,0,1-.9-2.17V85.37a3.07,3.07,0,0,1,3.06-3.06h11.9a2.79,2.79,0,0,1,2.84,2.86,2.7,2.7,0,0,1-.83,2,2.79,2.79,0,0,1-2,.82h-8.79v4.5h6.73a2.51,2.51,0,0,1,1.89.77,2.59,2.59,0,0,1,.76,1.88,2.66,2.66,0,0,1-.76,1.89,2.56,2.56,0,0,1-1.89.74h-6.73V103h8.79a2.77,2.77,0,0,1,2,.84,2.87,2.87,0,0,1,0,4,2.69,2.69,0,0,1-2,.83Z" transform="translate(0 0)"/><path class="cls-1" d="M393.41,103.45a2.35,2.35,0,0,1,.81,1,3,3,0,0,1,.08,2.23,4,4,0,0,1-.56,1,3,3,0,0,1-.95.73,2.77,2.77,0,0,1-1.3.28,4.18,4.18,0,0,1-1.06-.14,3.16,3.16,0,0,1-.94-.57l-8-6.85h-.34v4.47a2.84,2.84,0,0,1-.9,2.17,3,3,0,0,1-2.2.92,3.09,3.09,0,0,1-3.05-3.09V85.37a2.91,2.91,0,0,1,.89-2.16,2.86,2.86,0,0,1,2.16-.91h6.81a8.8,8.8,0,0,1,3.67.75,9.47,9.47,0,0,1,3,2,9.17,9.17,0,0,1,2,3,9.27,9.27,0,0,1,.74,3.68,7.39,7.39,0,0,1-1.52,4.69,9.3,9.3,0,0,1-4.39,3ZM381.16,88v7.5h3.66a3.89,3.89,0,0,0,1.44-.29,5.39,5.39,0,0,0,1.17-.83,3.59,3.59,0,0,0,1.11-2.6,3.69,3.69,0,0,0-.3-1.48,3.32,3.32,0,0,0-.81-1.18A3.6,3.6,0,0,0,384.82,88Z" transform="translate(0 0)"/><path class="cls-1" d="M410.46,97.78v7.81a3,3,0,0,1-.92,2.2,3.1,3.1,0,0,1-2.19.89,2.93,2.93,0,0,1-2.13-.89,2.87,2.87,0,0,1-.93-2.2V97.78L396.9,87.14a3.22,3.22,0,0,1-.51-1.74,3.32,3.32,0,0,1,.27-1.33,3.85,3.85,0,0,1,.73-1,3.09,3.09,0,0,1,1-.59,3.77,3.77,0,0,1,1.07-.19,3.25,3.25,0,0,1,1.41.33,3,3,0,0,1,1.14,1l5.36,7.74,5.4-7.74a2.79,2.79,0,0,1,1.13-1,3.18,3.18,0,0,1,1.38-.33,3.66,3.66,0,0,1,1.08.19,2.63,2.63,0,0,1,1,.59,3.47,3.47,0,0,1,.74,1,3.51,3.51,0,0,1,.29,1.33,3.25,3.25,0,0,1-.54,1.74Z" transform="translate(0 0)"/><path class="cls-1" d="M434.28,107.76a2.85,2.85,0,0,1-.9-2.14V85.37a3.09,3.09,0,0,1,3.06-3.07h8.27a11.72,11.72,0,0,1,4.93,1.08,13,13,0,0,1,3.94,2.88,13.81,13.81,0,0,1,2.61,14.25,13.68,13.68,0,0,1-2.61,4.2,12.87,12.87,0,0,1-3.94,2.9,11.56,11.56,0,0,1-4.93,1.07h-8.27a3,3,0,0,1-2.16-.92M439.53,88v15h4.41a6.6,6.6,0,0,0,2.75-.6,7.23,7.23,0,0,0,3.73-4,7.69,7.69,0,0,0,0-5.71A7,7,0,0,0,449,90.26a6.53,6.53,0,0,0-2.22-1.62,6.15,6.15,0,0,0-2.79-.64Z" transform="translate(0 0)"/><path class="cls-1" d="M479.27,103.45a2.57,2.57,0,0,1,.8,1,3.1,3.1,0,0,1,.25,1.22,2.6,2.6,0,0,1-.18,1,3.69,3.69,0,0,1-.56,1,2.65,2.65,0,0,1-.93.73,3,3,0,0,1-1.3.28,4,4,0,0,1-1.07-.14,3.34,3.34,0,0,1-.95-.57l-8-6.85H467v4.47a2.88,2.88,0,0,1-.91,2.17,3,3,0,0,1-2.18.92,3.12,3.12,0,0,1-3.08-3.09V85.37a2.89,2.89,0,0,1,.91-2.16,2.83,2.83,0,0,1,2.17-.91h6.82a9,9,0,0,1,3.65.75,9.17,9.17,0,0,1,3,2,9.32,9.32,0,0,1,2.79,6.69,7.44,7.44,0,0,1-1.51,4.69,9.48,9.48,0,0,1-4.4,3ZM467,88v7.5h3.63a3.88,3.88,0,0,0,1.46-.29,5.22,5.22,0,0,0,1.18-.83,4.28,4.28,0,0,0,.82-1.16,3.7,3.7,0,0,0,.29-1.44,3.87,3.87,0,0,0-.29-1.48,4,4,0,0,0-.82-1.18,3.49,3.49,0,0,0-1.18-.82,3.53,3.53,0,0,0-1.46-.3Z" transform="translate(0 0)"/><path class="cls-1" d="M491.7,108.06a14,14,0,0,1-4.31-2.92,13.45,13.45,0,0,1-2.93-4.35,13.16,13.16,0,0,1-1.06-5.29,13.49,13.49,0,0,1,1.06-5.33,13.64,13.64,0,0,1,7.24-7.24,13.48,13.48,0,0,1,10.62,0,13.35,13.35,0,0,1,4.32,2.9,13.82,13.82,0,0,1,2.94,4.34,13.49,13.49,0,0,1,1.06,5.33,13.16,13.16,0,0,1-1.06,5.29,13.78,13.78,0,0,1-7.26,7.27,13.59,13.59,0,0,1-10.62,0m-1.57-9.67a7.46,7.46,0,0,0,1.61,2.39,7.68,7.68,0,0,0,2.37,1.58,7.37,7.37,0,0,0,2.9.6,7.71,7.71,0,0,0,2.93-.6,7.31,7.31,0,0,0,4-4,7.41,7.41,0,0,0-1.6-8.16,7.48,7.48,0,0,0-2.38-1.63A7.35,7.35,0,0,0,497,88a7,7,0,0,0-2.9.6,7.33,7.33,0,0,0-2.37,1.63,6.93,6.93,0,0,0-1.61,2.36,7.54,7.54,0,0,0,0,5.8" transform="translate(0 0)"/><path class="cls-1" d="M513.69,85.37a3.06,3.06,0,0,1,3.06-3.07h6.9a8.77,8.77,0,0,1,3.65.75,8.92,8.92,0,0,1,3,2,9.56,9.56,0,0,1,2,3,9.35,9.35,0,0,1-2,10.35,9.42,9.42,0,0,1-3,2,9.08,9.08,0,0,1-3.65.72h-3.82v4.42a2.87,2.87,0,0,1-.89,2.17,3,3,0,0,1-2.19.92,2.94,2.94,0,0,1-2.18-.92,2.86,2.86,0,0,1-.88-2.17ZM519.83,88v7.5h3.36a3.88,3.88,0,0,0,1.46-.29,4.15,4.15,0,0,0,1.18-.83,3.86,3.86,0,0,0,.81-1.16,3.54,3.54,0,0,0,.3-1.44,3.69,3.69,0,0,0-.3-1.48,3.6,3.6,0,0,0-.81-1.18,3,3,0,0,0-1.18-.82,3.53,3.53,0,0,0-1.46-.3Z" transform="translate(0 0)"/><path class="cls-2" d="M194.64,63.17a1.46,1.46,0,0,1,.13.61v.62a5.2,5.2,0,0,1-.32,1.78,5.91,5.91,0,0,1-.93,1.77,5,5,0,0,1-4,1.87,5.63,5.63,0,0,1-5.3-4.06l-4.55-18.28L172.8,66.31a5.54,5.54,0,0,1-1.69,2.56,4.6,4.6,0,0,1-5.6,0,5.62,5.62,0,0,1-1.69-2.56L157,47.48l-4.6,18.28a5.38,5.38,0,0,1-2,2.92,5.29,5.29,0,0,1-3.27,1.14,4.73,4.73,0,0,1-2.07-.44,4.87,4.87,0,0,1-1.71-1.17,5.66,5.66,0,0,1-1.12-1.69,4.78,4.78,0,0,1-.45-2.07,5.26,5.26,0,0,1,.18-1.28l8.87-35.45a5.68,5.68,0,0,1,1.82-2.91A4.82,4.82,0,0,1,156,23.66a5.1,5.1,0,0,1,3,1,5.43,5.43,0,0,1,2.05,2.56l7.25,20,7.26-20a5.35,5.35,0,0,1,2-2.56,5.1,5.1,0,0,1,3-1A4.9,4.9,0,0,1,184,24.81a5.73,5.73,0,0,1,1.81,2.91Z" transform="translate(0 0)"/><path class="cls-2" d="M228,61.45h-18.9l-2.21,5.22a4.82,4.82,0,0,1-2,2.31,5.4,5.4,0,0,1-2.91.84,6.35,6.35,0,0,1-1.66-.27,5.11,5.11,0,0,1-1.73-.93A5.63,5.63,0,0,1,197.3,67a5.09,5.09,0,0,1-.57-2.49,5.29,5.29,0,0,1,.5-2.13L213.6,26.18a5.24,5.24,0,0,1,5.11-3.31,5.12,5.12,0,0,1,5.12,3.31l16,36.15a5.34,5.34,0,0,1,.44,2.13A5.24,5.24,0,0,1,235,69.82a5.36,5.36,0,0,1-2.9-.84,4.84,4.84,0,0,1-2-2.31Zm-15-9.25h11.21l-5.55-13.45Z" transform="translate(0 0)"/><path class="cls-2" d="M254.64,42.85V64.4a5.33,5.33,0,0,1-5.41,5.42,5.2,5.2,0,0,1-3.78-1.56,5.27,5.27,0,0,1-1.57-3.86V29a5.34,5.34,0,0,1,5.35-5.36,5.11,5.11,0,0,1,2.43.59,5.61,5.61,0,0,1,1.75,1.38l19.4,24.87V29a5.33,5.33,0,0,1,5.34-5.36A5.36,5.36,0,0,1,283.58,29V64.4a5.36,5.36,0,0,1-5.43,5.42,5.12,5.12,0,0,1-2.49-.64,6.53,6.53,0,0,1-1.75-1.52Z" transform="translate(0 0)"/><path class="cls-2" d="M290.79,25.22a5.21,5.21,0,0,1,3.8-1.56A5.33,5.33,0,0,1,300,29V64.4a5.34,5.34,0,0,1-5.41,5.42,5.18,5.18,0,0,1-3.8-1.57,5.24,5.24,0,0,1-1.56-3.85V29a5.23,5.23,0,0,1,1.56-3.8" transform="translate(0 0)"/><path class="cls-2" d="M315.2,59.84H329a5,5,0,0,1,3.51,1.45A5,5,0,0,1,329,69.82h-19.2A5.14,5.14,0,0,1,306,68.25a5.2,5.2,0,0,1-1.57-3.79V29a5.23,5.23,0,0,1,1.57-3.8,5.17,5.17,0,0,1,3.79-1.56,5.24,5.24,0,0,1,3.85,1.56A5.19,5.19,0,0,1,315.2,29Z" transform="translate(0 0)"/><path class="cls-2" d="M369.18,61.45h-18.9l-2.2,5.22a4.86,4.86,0,0,1-2,2.31,5.32,5.32,0,0,1-2.9.84,6.35,6.35,0,0,1-1.66-.27,5,5,0,0,1-1.72-.93A5.61,5.61,0,0,1,338.49,67a4.88,4.88,0,0,1-.58-2.49,5,5,0,0,1,.5-2.13l16.37-36.15a5.21,5.21,0,0,1,5.1-3.31A5.09,5.09,0,0,1,365,26.18l16.06,36.15a5.51,5.51,0,0,1,.43,2.13,5.26,5.26,0,0,1-5.31,5.36A5.27,5.27,0,0,1,373.3,69a4.72,4.72,0,0,1-2-2.31Zm-15-9.25h11.21l-5.54-13.45Z" transform="translate(0 0)"/><path class="cls-2" d="M442.72,49.93l6.33-22.52A4.93,4.93,0,0,1,451,24.69a5.54,5.54,0,0,1,5.56-.51,5.29,5.29,0,0,1,1.67,1.32,6.69,6.69,0,0,1,1,1.74,5.75,5.75,0,0,1,.34,1.83,5.42,5.42,0,0,1-.25,1.67L448.13,66.13a5.29,5.29,0,0,1-1.85,2.7,5.39,5.39,0,0,1-6.14,0,5.4,5.4,0,0,1-1.92-2.69l-8.66-24.43-8.7,24.43A5.54,5.54,0,0,1,419,68.87a5.17,5.17,0,0,1-3.09.94,5.1,5.1,0,0,1-3.08-1,5.44,5.44,0,0,1-1.83-2.7L399.81,30.74a5.76,5.76,0,0,1-.23-1.67,5,5,0,0,1,.34-1.83,6.37,6.37,0,0,1,1-1.74,5.52,5.52,0,0,1,1.67-1.32,5.18,5.18,0,0,1,2.37-.52,5.29,5.29,0,0,1,3.2,1A5,5,0,0,1,410,27.41l6.35,22.52,8-22.57a5.65,5.65,0,0,1,2-2.74,5.26,5.26,0,0,1,3.18-1,5.42,5.42,0,0,1,3.19,1,5.48,5.48,0,0,1,2,2.74Z" transform="translate(0 0)"/><path class="cls-2" d="M487.33,61.45H468.44l-2.21,5.22a4.76,4.76,0,0,1-2,2.31,5.28,5.28,0,0,1-2.89.84,6.28,6.28,0,0,1-1.65-.27,5,5,0,0,1-1.73-.93A5.36,5.36,0,0,1,456.63,67a5,5,0,0,1-.56-2.49,5.42,5.42,0,0,1,.48-2.13l16.37-36.15A5.26,5.26,0,0,1,478,22.87a5.09,5.09,0,0,1,5.11,3.31l16.07,36.15a5.33,5.33,0,0,1,.42,2.13,5.2,5.2,0,0,1-1.54,3.82,5.11,5.11,0,0,1-3.75,1.54,5.28,5.28,0,0,1-2.89-.84,4.9,4.9,0,0,1-2-2.31ZM472.39,52.2h11.19L478,38.75Z" transform="translate(0 0)"/><path class="cls-2" d="M527.82,23.66a5,5,0,0,1,3.57,1.45,4.94,4.94,0,0,1,0,7.07,4.87,4.87,0,0,1-3.57,1.45h-9.09V64.4a5.45,5.45,0,0,1-5.42,5.42,5.14,5.14,0,0,1-3.79-1.57,5.26,5.26,0,0,1-1.58-3.85V33.63h-9.17a5,5,0,0,1-5-5,4.72,4.72,0,0,1,1.46-3.54,4.78,4.78,0,0,1,3.52-1.45Z" transform="translate(0 0)"/><path class="cls-2" d="M543.09,69.82a5.38,5.38,0,0,1-5.36-5.36V29a5.36,5.36,0,0,1,5.36-5.36h20.8a5,5,0,0,1,3.54,8.52,4.74,4.74,0,0,1-3.54,1.45H548.51V41.5h11.81a4.37,4.37,0,0,1,3.28,1.35,4.68,4.68,0,0,1,0,6.54,4.41,4.41,0,0,1-3.28,1.36H548.51v9.09h15.38a5,5,0,0,1,3.54,8.52,4.75,4.75,0,0,1-3.54,1.46Z" transform="translate(0 0)"/><path class="cls-2" d="M606.4,60.65a4.57,4.57,0,0,1,1.4,1.78,5.31,5.31,0,0,1,.46,2.16,4.77,4.77,0,0,1-.34,1.75,6,6,0,0,1-1,1.69,4.91,4.91,0,0,1-1.61,1.3,5.23,5.23,0,0,1-2.28.49,6.54,6.54,0,0,1-1.85-.28,4.22,4.22,0,0,1-1.65-1l-14-12h-.63V64.4a5.38,5.38,0,1,1-10.76,0V29a5.34,5.34,0,0,1,5.35-5.36h12a16.16,16.16,0,0,1,6.4,1.29,16.72,16.72,0,0,1,8.86,8.87,16,16,0,0,1,1.3,6.39,13.06,13.06,0,0,1-2.66,8.23,16.31,16.31,0,0,1-7.7,5.19Zm-21.48-27V46.74h6.41a6,6,0,0,0,2.53-.53,6.78,6.78,0,0,0,3.47-3.47,6.17,6.17,0,0,0,.53-2.53,6.33,6.33,0,0,0-.53-2.55,6.89,6.89,0,0,0-1.41-2.08,6.49,6.49,0,0,0-2.06-1.42,6,6,0,0,0-2.53-.53Z" transform="translate(0 0)"/><path class="cls-3" d="M25.87,24.72A11.13,11.13,0,0,0,21,28c-2,2.4.38,4.11,2.16,2.4a9.82,9.82,0,0,0,2.76-5.65" transform="translate(0 0)"/><path class="cls-3" d="M37.49,2.12A11.68,11.68,0,0,0,31.76,0c-3.25-.22-3.2,2.84-.67,3.27a10.07,10.07,0,0,0,6.4-1.16" transform="translate(0 0)"/><path class="cls-3" d="M114,65.23a11.26,11.26,0,0,0,2.52-5.34c.49-3.11-2.46-3.31-3.09-.92a9.72,9.72,0,0,0,.57,6.26" transform="translate(0 0)"/><path class="cls-1" d="M110.21,66.54c-1.72,2.51-5.06,7.56-3.39.54s4.76-24.28-1.07-25.7-2.22,11.94-5.91,4-7.42-16.1-19.3-25.85S50.67,2.12,43.17,1.52c-.6,0-2.69-.13-2.59.9s2.18,1.69,2.93,2c1.61.77,3.84,1.68,4.75,3.33.47.86.68,2-.61,2A12.32,12.32,0,0,1,44,9c-8.8-2.85-18.79-4.88-28.32,4.16C11.11,17.52,15,23,19,18.05S30.4,10.73,33.14,11.8c.5.19,1.33.78,1.09,1.52s-1,.84-1.61.88c-.81.06-1.66,0-2.45,0a10.46,10.46,0,0,0-1.77.23A10,10,0,0,0,25,15.72a2.87,2.87,0,0,0-1.06,1.15c-.83,2,2.08,2.14,5.3.89s24.32-4.22,42.41,6.85S98.73,56.85,97,77.67a53.89,53.89,0,0,1-23.56,40.58,49.92,49.92,0,0,1-13.56,6.18,36.59,36.59,0,0,0-11.16-64.9c3-1.79,1.69-5.15-10.64-3.79A40.36,40.36,0,0,0,10.72,70.65c-1-2.07-3.77-2.07-6.23,1.58C-5.47,89.07,4.25,108,4.25,108s0-.14,0-.37a36.73,36.73,0,0,0,11,15.29,28.33,28.33,0,0,1-2.55-3.86c-3-4-6.54-10.28-6.33-17.51.09-3,1.8-4.36,2.71-2.49.3-4.14,2.24-13.54,13-21,2.56-1.57,4.2-1,4,.27,3.71-2.21,12.67-6.08,25.13-2,3.16,1.25,3.44,3.12,1.57,3.5C58.74,83,63.22,88,64.61,93.82c3.77,15.81-6.14,26.36-17.53,28.48a21.1,21.1,0,0,1-16.19-3.48c-1.4-.86-7.61-5.1-7.31-12.53.08-3.13,1.15-3.79,2-2.44a16.39,16.39,0,0,1,5.38-9.26c2-1.55,3.15-1,2.12.77,4.78-2.19,10.59-1.44,13.5,1.3,5,4.74.79,9.39-4.23,4.58-5.3-5.11-14.49,2.8-9.24,11.28,5.63,9.16,25.2,3.22,25.75-10.22C58.6,81.55,34.7,80.8,25.73,87.12c-10.21,7.21-12.61,20.8-4.3,32.15a24.94,24.94,0,0,0,10,8.06,28,28,0,0,0,3.4,1.25l0,0A44,44,0,0,0,43,130.11c1.11.13,2.29.22,3.56.29a112.53,112.53,0,0,0,22.22-1.33c26.31-3.86,29.39-12.74,26.64-14-1.21-.57-2.39.19-3.32.91a24,24,0,0,1-9.14,4.62c-.61.14-1.83.32-2.27-.33s.7-1.8,1.15-2.21c1.9-1.68,4-3.06,5.9-4.79,2.07-1.91,4-3.88,5.93-6a107.87,107.87,0,0,0,6.9-8.49,91.31,91.31,0,0,0,6.74-10.64,77.51,77.51,0,0,0,5.39-12.45c.18-.52.37-1,.52-1.56,2.67-9.47-1.25-10.06-3-7.56" transform="translate(0 0)"/></svg>