<?xml version="1.0" encoding="UTF-8"?><svg id="Layer_2" xmlns="http://www.w3.org/2000/svg" xmlns:xlink="http://www.w3.org/1999/xlink" viewBox="0 0 50.89 42.72"><defs><style>.cls-1{clip-path:url(#clippath);}.cls-2{fill:none;}.cls-2,.cls-3{stroke-width:0px;}.cls-3{fill:url(#linear-gradient);}</style><clipPath id="clippath"><path class="cls-2" d="M.02,24.02v18.69h21.65v-21.65h-9.46c0-3.43.71-6.04,2.25-7.93,1.54-1.89,3.9-3.08,7.22-3.55V0c-.14,0-.27,0-.41,0C9.94,0-.45,9.64.02,24.02M29.24,24.02v18.69h21.65v-21.65h-9.46c0-3.43.71-6.04,2.25-7.93,1.54-1.89,3.9-3.08,7.22-3.55V0c-.14,0-.27,0-.41,0-11.32,0-21.71,9.64-21.24,24.02"/></clipPath><linearGradient id="linear-gradient" x1="-270.77" y1="445.63" x2="-269.77" y2="445.63" gradientTransform="translate(-23991.46 14592.4) rotate(90) scale(53.89 -53.89)" gradientUnits="userSpaceOnUse"><stop offset="0" stop-color="#15b790"/><stop offset=".21" stop-color="#0fb19e"/><stop offset=".62" stop-color="#01a2c4"/><stop offset=".63" stop-color="#01a2c6"/><stop offset="1" stop-color="#01a2c6"/></linearGradient></defs><g id="Layer_1-2"><g class="cls-1"><rect class="cls-3" x="-8.13" y="-11.74" width="66.71" height="66.2" transform="translate(-7.8 22.71) rotate(-42.6)"/></g></g></svg>