<?xml version="1.0" encoding="UTF-8"?>
<svg id="Layer_1" xmlns="http://www.w3.org/2000/svg" xmlns:xlink="http://www.w3.org/1999/xlink" version="1.1" viewBox="0 0 485.9 229.8">
  <!-- Generator: Adobe Illustrator 29.3.1, SVG Export Plug-In . SVG Version: 2.1.0 Build 151)  -->
  <defs>
    <style>
      .st0 {
        stroke-miterlimit: 2;
        stroke-width: .5px;
      }

      .st0, .st1 {
        fill: none;
        stroke: #075072;
      }

      .st2 {
        isolation: isolate;
      }

      .st3 {
        fill: #00a0ca;
      }

      .st4 {
        fill: #fff;
      }

      .st5 {
        fill: #15b790;
      }

      .st1 {
        stroke-width: .9px;
      }

      .st6 {
        fill: #075072;
      }
    </style>
  </defs>
  <g id="Layer_11" data-name="Layer_1">
    <g class="st2">
      <g id="Layer_1-2">
        <g>
          <polyline class="st1" points="175 114.4 175 103.3 215.2 103.3 270.1 103.3 297.1 103.3 297.1 99.1"/>
          <polygon class="st6" points="297.1 93.7 294.6 100.6 299.7 100.6 297.1 93.7"/>
          <g>
            <rect class="st3" x=".3" width="485.6" height="47.1" rx="8.6" ry="8.6"/>
            <rect class="st5" x=".3" y="59" width="221.6" height="34.4" rx="8.6" ry="8.6"/>
            <rect class="st6" y="108.3" width="93.3" height="121.4" rx="4.3" ry="4.3"/>
            <rect class="st6" x="122.5" y="108.3" width="93.3" height="121.4" rx="4.3" ry="4.3"/>
            <rect class="st6" x="242.6" y="108.3" width="93.3" height="121.4" rx="4.3" ry="4.3"/>
            <rect class="st5" x="236.3" y="59" width="114.3" height="34.4" rx="8.6" ry="8.6"/>
            <rect class="st5" x="371.6" y="59" width="114.3" height="34.4" rx="8.6" ry="8.6"/>
            <rect class="st5" x="371.6" y="108.8" width="114.3" height="34.4" rx="4.3" ry="4.3"/>
            <rect class="st5" x="371.6" y="152" width="114.3" height="34.4" rx="4.3" ry="4.3"/>
            <rect class="st5" x="371.6" y="195.2" width="114.3" height="34.4" rx="4.3" ry="4.3"/>
          </g>
          <g class="st2">
            <g class="st2">
              <path class="st4" d="M77.8,73.7h-1.6v-1.2h4.7v1.2h-1.7v4.9h-1.4v-4.9h0Z"/>
            </g>
            <g class="st2">
              <path class="st4" d="M85.2,76.3c0,1.6-1.1,2.3-2.3,2.3s-2.3-.8-2.3-2.3.9-2.3,2.3-2.3,2.2.9,2.2,2.2ZM82,76.4c0,.8.3,1.3.9,1.3s.9-.5.9-1.3-.2-1.3-.9-1.3-.9.7-.9,1.3Z"/>
              <path class="st4" d="M86,75.7c0-.6,0-1.1,0-1.5h1.2v.6h0c.3-.5.8-.7,1.5-.7,1,0,1.8.8,1.8,2.2s-1,2.4-2,2.4-.9-.2-1.1-.5h0v2.2h-1.4v-4.7ZM87.4,76.7c0,.1,0,.2,0,.3,0,.4.4.7.8.7.6,0,.9-.5.9-1.2s-.3-1.2-.9-1.2-.7.3-.8.7c0,0,0,.2,0,.2v.6Z"/>
            </g>
            <g class="st2">
              <path class="st4" d="M98.4,76.3c0-.7,0-1.6,0-2.5h0c-.2.8-.4,1.6-.7,2.3l-.7,2.4h-1.1l-.7-2.3c-.2-.7-.4-1.6-.6-2.4h0c0,.8,0,1.8-.1,2.5v2.3h-1.4l.4-6.1h1.8l.6,2c.2.7.4,1.5.5,2.2h0c.2-.7.4-1.5.6-2.2l.7-2h1.8l.3,6.1h-1.3v-2.3q0,0,0,0Z"/>
            </g>
            <g class="st2">
              <path class="st4" d="M103.4,78.6v-.4h-.1c-.3.3-.7.5-1.3.5-.9,0-1.4-.7-1.4-1.3,0-1.1,1-1.7,2.6-1.7h0c0-.3-.1-.6-.8-.6s-.9.2-1.2.3l-.2-.9c.3-.2.9-.4,1.7-.4,1.5,0,1.9.9,1.9,1.9v1.5c0,.4,0,.8,0,1.1,0,0-1.2,0-1.2,0ZM103.2,76.5c-.7,0-1.3.2-1.3.7s.2.5.5.5.6-.2.7-.5c0,0,0-.2,0-.2,0,0,0-.5,0-.5Z"/>
              <path class="st4" d="M105.6,75.6c0-.6,0-1,0-1.4h1.2v.6h0c.2-.3.6-.7,1.4-.7s1.6.6,1.6,1.9v2.6h-1.4v-2.4c0-.6-.2-.9-.7-.9s-.6.3-.7.5c0,0,0,.2,0,.3v2.5h-1.4v-3h0Z"/>
              <path class="st4" d="M113.4,78.6v-.4h-.1c-.3.3-.7.5-1.3.5-.9,0-1.4-.7-1.4-1.3,0-1.1,1-1.7,2.6-1.7h0c0-.3-.1-.6-.8-.6s-.9.2-1.2.3l-.2-.9c.3-.2.9-.4,1.7-.4,1.5,0,1.9.9,1.9,1.9v1.5c0,.4,0,.8,0,1.1,0,0-1.2,0-1.2,0ZM113.3,76.5c-.7,0-1.3.2-1.3.7s.2.5.5.5.6-.2.7-.5c0,0,0-.2,0-.2,0,0,0-.5,0-.5Z"/>
              <path class="st4" d="M119.9,74.2c0,.3,0,.7,0,1.3v2.5c0,.8-.2,1.5-.7,2-.5.4-1.1.5-1.8.5s-1.2-.1-1.6-.3l.3-1c.3.2.8.3,1.3.3s1.1-.3,1.1-1.2v-.3h0c-.3.4-.7.6-1.2.6-1.1,0-1.9-.9-1.9-2.2s.9-2.3,2-2.3,1,.3,1.2.6h0v-.5h1.2ZM118.5,76c0,0,0-.2,0-.2,0-.4-.4-.6-.7-.6s-.9.4-.9,1.2.3,1.2.9,1.2.6-.2.7-.6c0,0,0-.2,0-.4v-.7h0Z"/>
              <path class="st4" d="M122,76.8c0,.6.6.8,1.2.8s.8,0,1.2-.2l.2.9c-.4.2-1,.3-1.6.3-1.5,0-2.3-.9-2.3-2.2s.7-2.3,2.2-2.3,2,1.1,2,2.2,0,.4,0,.5h-2.8ZM123.6,75.9c0-.3-.1-.9-.8-.9s-.8.5-.8.9c0,0,1.6,0,1.6,0Z"/>
              <path class="st4" d="M125.7,75.6c0-.6,0-1,0-1.4h1.2v.6h0c.2-.3.6-.7,1.3-.7s1,.3,1.2.8h0c.2-.2.4-.4.6-.5.2-.1.5-.2.8-.2.9,0,1.5.6,1.5,1.9v2.6h-1.3v-2.4c0-.6-.2-1-.6-1s-.5.2-.6.5c0,0,0,.2,0,.3v2.6h-1.3v-2.5c0-.6-.2-.9-.6-.9s-.6.3-.6.5c0,.1,0,.2,0,.3v2.6h-1.3v-3h0Z"/>
              <path class="st4" d="M134.5,76.8c0,.6.6.8,1.2.8s.9,0,1.2-.2l.2.9c-.4.2-1,.3-1.6.3-1.5,0-2.4-.9-2.4-2.2s.7-2.3,2.2-2.3,2,1.1,2,2.2,0,.4,0,.5h-2.8ZM136.1,75.9c0-.3-.1-.9-.8-.9s-.8.5-.9.9h1.6Z"/>
            </g>
            <g class="st2">
              <path class="st4" d="M138.2,75.6c0-.6,0-1,0-1.4h1.2v.6h0c.2-.3.6-.7,1.4-.7s1.6.6,1.6,1.9v2.6h-1.4v-2.4c0-.6-.2-.9-.7-.9s-.6.3-.7.5c0,0,0,.2,0,.3v2.5h-1.4v-3h0Z"/>
            </g>
            <g class="st2">
              <path class="st4" d="M144.9,72.9v1.3h1v1h-1v1.6c0,.5.1.8.5.8s.3,0,.4,0v1c-.2,0-.5.1-.9.1s-.8-.2-1-.4c-.2-.3-.4-.7-.4-1.3v-1.8h-.6v-1h.6v-.9l1.3-.3h0Z"/>
            </g>
          </g>
          <g class="st2">
            <g class="st2">
              <path class="st4" d="M26,130.8h0l-1.1.5-.2-1,1.5-.7h1.1v5.9h-1.3v-4.6h0Z"/>
              <path class="st4" d="M29.4,134.2c.2.1.8.3,1.2.3s.6-.1.6-.4-.1-.3-.6-.5c-.9-.3-1.3-.8-1.2-1.3,0-.8.7-1.4,1.8-1.4s1,.1,1.2.2l-.2.9c-.2-.1-.6-.2-1-.2s-.5.1-.5.4.2.3.7.5c.8.3,1.2.7,1.2,1.4,0,.8-.7,1.4-1.9,1.4s-1.1-.1-1.4-.3c0,0,.2-1,.2-1Z"/>
              <path class="st4" d="M34.9,129.8v1.3h1v1h-1v1.6c0,.5.1.8.5.8s.3,0,.4,0v1c-.2,0-.5.1-.9.1s-.8-.1-1-.4c-.2-.3-.4-.7-.4-1.3v-1.8h-.6v-1h.6v-.9l1.3-.3h0Z"/>
              <path class="st4" d="M38.5,129.3h1.4v4.9h2.4v1.1h-3.8v-6.1h0Z"/>
              <path class="st4" d="M44.5,129.8c0,.4-.3.7-.7.7s-.7-.3-.7-.7c0-.4.3-.7.7-.7s.7.3.7.7ZM43.1,135.4v-4.4h1.4v4.4h-1.4Z"/>
              <path class="st4" d="M45.5,132.4c0-.6,0-1,0-1.4h1.2v.6h0c.2-.3.6-.7,1.4-.7s1.6.6,1.6,1.9v2.6h-1.4v-2.4c0-.6-.2-.9-.7-.9s-.6.3-.7.5c0,0,0,.2,0,.3v2.5h-1.4v-3h0Z"/>
              <path class="st4" d="M51.9,133.6c0,.6.6.8,1.2.8s.8,0,1.2-.2l.2.9c-.5.2-1,.3-1.6.3-1.5,0-2.3-.9-2.3-2.2s.7-2.4,2.2-2.4,2,1.1,2,2.2,0,.4,0,.5h-2.8ZM53.5,132.7c0-.3-.1-.9-.8-.9s-.8.5-.8.9h1.6Z"/>
              <path class="st4" d="M61.7,133.2c0,1.6-1.1,2.4-2.3,2.4s-2.3-.9-2.3-2.3.9-2.3,2.3-2.3,2.2.9,2.2,2.2ZM58.5,133.2c0,.8.3,1.3.9,1.3s.9-.5.9-1.3-.2-1.3-.9-1.3-.9.7-.9,1.3Z"/>
              <path class="st4" d="M62.7,135.4v-3.4h-.6v-1h.6v-.2c0-.5.2-1.1.6-1.5.3-.3.8-.4,1.2-.4s.5,0,.7,0v1.1c-.2,0-.3,0-.5,0-.4,0-.6.4-.6.8v.2h.9v1h-.9v3.4h-1.4Z"/>
            </g>
          </g>
          <g class="st2">
            <g class="st2">
              <path class="st4" d="M28.7,139.4c.5,0,1.2-.1,1.9-.1,1.2,0,1.9.2,2.5.6.6.5,1,1.2,1,2.3s-.4,2-1,2.5c-.6.5-1.6.8-2.8.8s-1.2,0-1.6,0v-6h0ZM30.1,144.4c.1,0,.3,0,.5,0,1.2,0,2.1-.7,2.1-2.1s-.7-1.9-1.9-1.9-.5,0-.6,0v4h0Z"/>
              <path class="st4" d="M36,143.6c0,.6.6.8,1.2.8s.8,0,1.2-.2l.2.9c-.5.2-1,.3-1.6.3-1.5,0-2.3-.9-2.3-2.2s.7-2.4,2.2-2.4,2,1.1,2,2.2,0,.4,0,.5h-2.8ZM37.6,142.7c0-.3-.1-.9-.8-.9s-.8.5-.8.9h1.6Z"/>
            </g>
            <g class="st2">
              <path class="st4" d="M39.9,145.4v-3.4h-.6v-1h.6v-.2c0-.5.2-1.1.6-1.5.3-.3.8-.4,1.2-.4s.5,0,.7,0v1.1c-.2,0-.3,0-.5,0-.5,0-.6.4-.6.8v.2h.9v1h-.9v3.4h-1.4Z"/>
            </g>
            <g class="st2">
              <path class="st4" d="M43.8,143.6c0,.6.6.8,1.2.8s.8,0,1.2-.2l.2.9c-.5.2-1,.3-1.6.3-1.5,0-2.3-.9-2.3-2.2s.7-2.4,2.2-2.4,2,1.1,2,2.2,0,.4,0,.5h-2.8ZM45.4,142.7c0-.3-.1-.9-.8-.9s-.8.5-.8.9h1.6Z"/>
              <path class="st4" d="M47.5,142.4c0-.6,0-1,0-1.4h1.2v.6h0c.2-.3.6-.7,1.4-.7s1.6.6,1.6,1.9v2.6h-1.4v-2.4c0-.6-.2-.9-.7-.9s-.6.3-.7.5c0,0,0,.2,0,.3v2.5h-1.4v-3h0Z"/>
              <path class="st4" d="M52.7,144.2c.2.1.8.3,1.2.3s.6-.1.6-.4-.1-.3-.7-.5c-.9-.3-1.3-.8-1.2-1.3,0-.8.7-1.4,1.8-1.4s1,.1,1.2.2l-.2.9c-.2-.1-.6-.2-1-.2s-.5.1-.5.4.2.3.7.5c.8.3,1.2.7,1.2,1.4,0,.8-.7,1.4-1.9,1.4s-1.1-.1-1.4-.3c0,0,.2-1,.2-1Z"/>
              <path class="st4" d="M57.7,143.6c0,.6.6.8,1.2.8s.8,0,1.2-.2l.2.9c-.5.2-1,.3-1.6.3-1.5,0-2.3-.9-2.3-2.2s.7-2.4,2.2-2.4,2,1.1,2,2.2,0,.4,0,.5h-2.8ZM59.3,142.7c0-.3-.1-.9-.8-.9s-.8.5-.8.9h1.6Z"/>
            </g>
          </g>
          <g class="st2">
            <g class="st2">
              <path class="st4" d="M146.7,135.4v-.8l.8-.7c1.3-1.1,1.9-1.8,1.9-2.5,0-.5-.3-.9-1-.9s-.9.2-1.2.5l-.4-1c.4-.3,1.1-.6,1.9-.6,1.3,0,2.1.8,2.1,1.8s-.7,1.8-1.6,2.5l-.5.4h0s2.2,0,2.2,0v1.1h-4.2Z"/>
              <path class="st4" d="M151.8,132.4c0-.6,0-1,0-1.4h1.2v.6h0c.2-.3.6-.7,1.4-.7s1.6.6,1.6,1.9v2.6h-1.4v-2.4c0-.6-.2-.9-.7-.9s-.6.3-.7.5c0,0,0,.2,0,.3v2.5h-1.4v-3h0Z"/>
              <path class="st4" d="M161.4,129v5.1c0,.5,0,1,0,1.3h-1.2v-.6h0c-.3.5-.8.8-1.4.8-1,0-1.9-.9-1.9-2.3s.9-2.3,2-2.3,1,.2,1.2.5h0v-2.4h1.4ZM160,132.9c0,0,0-.2,0-.2,0-.4-.4-.7-.8-.7-.6,0-.9.6-.9,1.2s.4,1.2.9,1.2.7-.3.8-.7c0-.1,0-.2,0-.3v-.6h0Z"/>
              <path class="st4" d="M164.3,129.3h1.4v4.9h2.4v1.1h-3.8v-6.1h0Z"/>
              <path class="st4" d="M170.3,129.8c0,.4-.3.7-.7.7s-.7-.3-.7-.7c0-.4.3-.7.7-.7s.7.3.7.7h0ZM168.9,135.4v-4.4h1.4v4.4h-1.4Z"/>
              <path class="st4" d="M171.4,132.4c0-.6,0-1,0-1.4h1.2v.6h0c.2-.3.6-.7,1.4-.7s1.6.6,1.6,1.9v2.6h-1.4v-2.4c0-.6-.2-.9-.7-.9s-.6.3-.7.5c0,0,0,.2,0,.3v2.5h-1.4v-3h0Z"/>
              <path class="st4" d="M177.7,133.6c0,.6.6.8,1.2.8s.9,0,1.2-.2l.2.9c-.4.2-1,.3-1.6.3-1.5,0-2.4-.9-2.4-2.2s.7-2.4,2.2-2.4,2,1.1,2,2.2,0,.4,0,.5h-2.8ZM179.3,132.7c0-.3-.1-.9-.8-.9s-.8.5-.9.9h1.6Z"/>
              <path class="st4" d="M187.6,133.2c0,1.6-1.1,2.4-2.3,2.4s-2.3-.9-2.3-2.3.9-2.3,2.4-2.3,2.2.9,2.2,2.2ZM184.4,133.2c0,.8.3,1.3.9,1.3s.9-.5.9-1.3-.2-1.3-.9-1.3-.9.7-.9,1.3Z"/>
              <path class="st4" d="M188.5,135.4v-3.4h-.6v-1h.6v-.2c0-.5.2-1.1.6-1.5.3-.3.8-.4,1.2-.4s.5,0,.7,0v1.1c-.2,0-.3,0-.5,0-.4,0-.6.4-.6.8v.2h.9v1h-.9v3.4h-1.4Z"/>
            </g>
          </g>
          <g class="st2">
            <g class="st2">
              <path class="st4" d="M152.8,139.4c.5,0,1.2-.1,1.9-.1,1.1,0,1.9.2,2.5.6.6.5,1,1.2,1,2.3s-.4,2-1,2.5c-.6.5-1.6.8-2.8.8s-1.2,0-1.6,0v-6h0ZM154.2,144.4c.1,0,.3,0,.5,0,1.2,0,2.1-.7,2.1-2.1s-.7-1.9-1.9-1.9-.5,0-.6,0v4h0Z"/>
              <path class="st4" d="M160.1,143.6c0,.6.6.8,1.2.8s.9,0,1.2-.2l.2.9c-.4.2-1,.3-1.6.3-1.5,0-2.4-.9-2.4-2.2s.7-2.4,2.2-2.4,2,1.1,2,2.2,0,.4,0,.5h-2.8ZM161.7,142.7c0-.3-.1-.9-.8-.9s-.8.5-.9.9h1.6Z"/>
            </g>
            <g class="st2">
              <path class="st4" d="M164,145.4v-3.4h-.6v-1h.6v-.2c0-.5.2-1.1.6-1.5.3-.3.8-.4,1.2-.4s.5,0,.7,0v1.1c-.2,0-.3,0-.5,0-.4,0-.6.4-.6.8v.2h.9v1h-.9v3.4h-1.4Z"/>
            </g>
            <g class="st2">
              <path class="st4" d="M167.9,143.6c0,.6.6.8,1.2.8s.9,0,1.2-.2l.2.9c-.4.2-1,.3-1.6.3-1.5,0-2.4-.9-2.4-2.2s.7-2.4,2.2-2.4,2,1.1,2,2.2,0,.4,0,.5h-2.8ZM169.5,142.7c0-.3-.1-.9-.8-.9s-.8.5-.9.9h1.6Z"/>
              <path class="st4" d="M171.6,142.4c0-.6,0-1,0-1.4h1.2v.6h0c.2-.3.6-.7,1.4-.7s1.6.6,1.6,1.9v2.6h-1.4v-2.4c0-.6-.2-.9-.7-.9s-.6.3-.7.5c0,0,0,.2,0,.3v2.5h-1.4v-3h0Z"/>
              <path class="st4" d="M176.8,144.2c.2.1.8.3,1.2.3s.6-.1.6-.4-.1-.3-.6-.5c-.9-.3-1.3-.8-1.2-1.3,0-.8.7-1.4,1.8-1.4s1,.1,1.2.2l-.2.9c-.2-.1-.6-.2-.9-.2s-.5.1-.5.4.2.3.7.5c.8.3,1.2.7,1.2,1.4,0,.8-.6,1.4-1.9,1.4s-1.1-.1-1.4-.3l.2-1Z"/>
              <path class="st4" d="M181.8,143.6c0,.6.6.8,1.2.8s.9,0,1.2-.2l.2.9c-.4.2-1,.3-1.6.3-1.5,0-2.4-.9-2.4-2.2s.7-2.4,2.2-2.4,2,1.1,2,2.2,0,.4,0,.5h-2.8ZM183.4,142.7c0-.3-.1-.9-.8-.9s-.8.5-.9.9h1.6Z"/>
            </g>
          </g>
          <g class="st2">
            <g class="st2">
              <path class="st4" d="M267.7,134.1c.2.1.8.4,1.4.4s1.1-.3,1.1-.8-.6-.8-1.2-.8h-.6v-1h.5c.5,0,1-.2,1-.7s-.3-.6-.9-.6-1,.2-1.2.4l-.3-1c.4-.2,1-.4,1.8-.4,1.2,0,1.9.7,1.9,1.5s-.4,1.1-1.1,1.4h0c.7.2,1.3.7,1.3,1.4s-.9,1.8-2.4,1.8-1.4-.2-1.7-.4l.3-1h0Z"/>
            </g>
            <g class="st2">
              <path class="st4" d="M272.6,132.5c0-.6,0-1.1,0-1.4h1.2v.8h0c.2-.6.8-.9,1.2-.9s.2,0,.3,0v1.3c-.1,0-.2,0-.4,0-.5,0-.9.3-.9.7,0,0,0,.2,0,.3v2.2h-1.4v-2.9h0Z"/>
            </g>
            <g class="st2">
              <path class="st4" d="M280.3,129v5.1c0,.5,0,1,0,1.3h-1.2v-.6h0c-.3.5-.8.8-1.4.8-1,0-1.9-.9-1.9-2.3s.9-2.3,2-2.3,1,.2,1.2.5h0v-2.4h1.4ZM278.9,132.9c0,0,0-.2,0-.2,0-.4-.4-.7-.8-.7-.6,0-1,.6-1,1.2s.4,1.2.9,1.2.7-.3.8-.7c0-.1,0-.2,0-.3v-.6h0Z"/>
              <path class="st4" d="M283.2,129.3h1.4v4.9h2.4v1.1h-3.8v-6.1h0Z"/>
              <path class="st4" d="M289.2,129.8c0,.4-.3.7-.7.7s-.7-.3-.7-.7c0-.4.3-.7.7-.7s.7.3.7.7h0ZM287.8,135.4v-4.4h1.4v4.4h-1.4Z"/>
              <path class="st4" d="M290.2,132.4c0-.6,0-1,0-1.4h1.2v.6h0c.2-.3.6-.7,1.4-.7s1.6.6,1.6,1.9v2.6h-1.4v-2.4c0-.6-.2-.9-.7-.9s-.6.3-.7.5c0,0,0,.2,0,.3v2.5h-1.4v-3h0Z"/>
              <path class="st4" d="M296.6,133.6c0,.6.6.8,1.2.8s.9,0,1.2-.2l.2.9c-.5.2-1,.3-1.6.3-1.5,0-2.4-.9-2.4-2.2s.7-2.4,2.2-2.4,2,1.1,2,2.2,0,.4,0,.5h-2.8,0ZM298.2,132.7c0-.3-.1-.9-.8-.9s-.8.5-.9.9h1.6Z"/>
              <path class="st4" d="M306.4,133.2c0,1.6-1.1,2.4-2.3,2.4s-2.3-.9-2.3-2.3.9-2.3,2.4-2.3,2.2.9,2.2,2.2ZM303.2,133.2c0,.8.3,1.3.9,1.3s.9-.5.9-1.3-.2-1.3-.9-1.3-.9.7-.9,1.3Z"/>
              <path class="st4" d="M307.4,135.4v-3.4h-.6v-1h.6v-.2c0-.5.2-1.1.6-1.5.3-.3.8-.4,1.2-.4s.5,0,.7,0v1.1c-.2,0-.3,0-.5,0-.5,0-.6.4-.6.8v.2h.9v1h-.9v3.4h-1.4Z"/>
            </g>
          </g>
          <g class="st2">
            <g class="st2">
              <path class="st4" d="M272.7,139.4c.5,0,1.2-.1,1.9-.1,1.1,0,1.9.2,2.5.6.6.5,1,1.2,1,2.3s-.4,2-1,2.5c-.6.5-1.6.8-2.8.8s-1.2,0-1.6,0v-6h0ZM274.1,144.4c.1,0,.3,0,.5,0,1.2,0,2-.7,2-2.1s-.7-1.9-1.9-1.9-.5,0-.6,0v4h0Z"/>
              <path class="st4" d="M280,143.6c0,.6.6.8,1.2.8s.9,0,1.2-.2l.2.9c-.5.2-1,.3-1.6.3-1.5,0-2.4-.9-2.4-2.2s.7-2.4,2.2-2.4,2,1.1,2,2.2,0,.4,0,.5h-2.8,0ZM281.6,142.7c0-.3-.1-.9-.8-.9s-.8.5-.9.9h1.6Z"/>
            </g>
            <g class="st2">
              <path class="st4" d="M283.8,145.4v-3.4h-.6v-1h.6v-.2c0-.5.2-1.1.6-1.5.3-.3.8-.4,1.2-.4s.5,0,.7,0v1.1c-.2,0-.3,0-.5,0-.5,0-.6.4-.6.8v.2h.9v1h-.9v3.4h-1.4Z"/>
            </g>
            <g class="st2">
              <path class="st4" d="M287.7,143.6c0,.6.6.8,1.2.8s.9,0,1.2-.2l.2.9c-.5.2-1,.3-1.6.3-1.5,0-2.4-.9-2.4-2.2s.7-2.4,2.2-2.4,2,1.1,2,2.2,0,.4,0,.5h-2.8,0ZM289.3,142.7c0-.3-.1-.9-.8-.9s-.8.5-.9.9h1.6Z"/>
              <path class="st4" d="M291.4,142.4c0-.6,0-1,0-1.4h1.2v.6h0c.2-.3.6-.7,1.4-.7s1.6.6,1.6,1.9v2.6h-1.4v-2.4c0-.6-.2-.9-.7-.9s-.6.3-.7.5c0,0,0,.2,0,.3v2.5h-1.4v-3h0Z"/>
              <path class="st4" d="M296.7,144.2c.2.1.8.3,1.2.3s.6-.1.6-.4-.1-.3-.6-.5c-.9-.3-1.3-.8-1.2-1.3,0-.8.7-1.4,1.8-1.4s1,.1,1.2.2l-.2.9c-.2-.1-.6-.2-1-.2s-.5.1-.5.4.2.3.7.5c.8.3,1.2.7,1.2,1.4,0,.8-.6,1.4-1.9,1.4s-1.1-.1-1.4-.3l.2-1h0Z"/>
              <path class="st4" d="M301.6,143.6c0,.6.6.8,1.2.8s.9,0,1.2-.2l.2.9c-.5.2-1,.3-1.6.3-1.5,0-2.4-.9-2.4-2.2s.7-2.4,2.2-2.4,2,1.1,2,2.2,0,.4,0,.5h-2.8,0ZM303.3,142.7c0-.3-.1-.9-.8-.9s-.8.5-.9.9h1.6Z"/>
            </g>
          </g>
          <g class="st2">
            <g class="st2">
              <path class="st4" d="M25.1,183.8c.4,0,1.1-.1,1.8-.1s1.4,0,1.8.3c.4.2.7.6.7,1.2s-.3,1-1,1.3h0c.7.2,1.2.7,1.2,1.5s-.2,1-.6,1.3c-.4.4-1.2.6-2.4.6s-1.2,0-1.5,0v-6h0ZM26.5,186.1h.5c.7,0,1.1-.3,1.1-.8s-.4-.7-1-.7-.5,0-.6,0v1.4h0ZM26.5,188.8c.1,0,.3,0,.5,0,.6,0,1.2-.2,1.2-.9s-.5-.9-1.2-.9h-.5v1.7h0Z"/>
              <path class="st4" d="M34.7,188.4c0,.6,0,1,0,1.4h-1.2v-.6h0c-.2.3-.6.7-1.4.7s-1.5-.6-1.5-1.9v-2.6h1.4v2.4c0,.6.2,1,.7,1s.6-.3.7-.5c0,0,0-.2,0-.3v-2.6h1.4v3h0Z"/>
              <path class="st4" d="M35.7,188.6c.2.1.8.3,1.2.3s.6-.1.6-.4-.1-.3-.7-.5c-.9-.3-1.3-.8-1.2-1.3,0-.8.7-1.4,1.8-1.4s1,.1,1.2.2l-.2.9c-.2-.1-.6-.2-1-.2s-.5.1-.5.4.2.3.7.5c.8.3,1.2.7,1.2,1.4,0,.8-.7,1.4-1.9,1.4s-1.1-.1-1.4-.3c0,0,.2-1,.2-1Z"/>
              <path class="st4" d="M41.1,184.2c0,.4-.3.7-.7.7s-.7-.3-.7-.7c0-.4.3-.7.7-.7s.7.3.7.7ZM39.7,189.8v-4.4h1.4v4.4h-1.4Z"/>
              <path class="st4" d="M42.1,186.8c0-.6,0-1,0-1.4h1.2v.6h0c.2-.3.6-.7,1.4-.7s1.6.6,1.6,1.9v2.6h-1.4v-2.4c0-.6-.2-.9-.7-.9s-.6.3-.7.5c0,0,0,.2,0,.3v2.5h-1.4v-3h0Z"/>
              <path class="st4" d="M48.4,188c0,.6.6.8,1.2.8s.8,0,1.2-.2l.2.9c-.5.2-1,.3-1.6.3-1.5,0-2.3-.9-2.3-2.2s.7-2.4,2.2-2.4,2,1.1,2,2.2,0,.4,0,.5h-2.8,0ZM50,187.1c0-.3-.1-.9-.8-.9s-.8.5-.8.9h1.6Z"/>
              <path class="st4" d="M52.1,188.6c.2.1.8.3,1.2.3s.6-.1.6-.4-.1-.3-.7-.5c-.9-.3-1.3-.8-1.2-1.3,0-.8.7-1.4,1.8-1.4s1,.1,1.2.2l-.2.9c-.2-.1-.6-.2-1-.2s-.5.1-.5.4.2.3.7.5c.8.3,1.2.7,1.2,1.4,0,.8-.7,1.4-1.9,1.4s-1.1-.1-1.4-.3c0,0,.2-1,.2-1Z"/>
              <path class="st4" d="M56,188.6c.2.1.8.3,1.2.3s.6-.1.6-.4-.1-.3-.7-.5c-.9-.3-1.3-.8-1.2-1.3,0-.8.7-1.4,1.8-1.4s1,.1,1.2.2l-.2.9c-.2-.1-.6-.2-1-.2s-.5.1-.5.4.2.3.7.5c.8.3,1.2.7,1.2,1.4,0,.8-.7,1.4-1.9,1.4s-1.1-.1-1.4-.3c0,0,.2-1,.2-1Z"/>
            </g>
          </g>
          <g class="st2">
            <g class="st2">
              <path class="st4" d="M33.4,193.7v3.5c0,1,.4,1.6,1.1,1.6s1.1-.5,1.1-1.6v-3.5h1.4v3.4c0,1.9-1,2.8-2.5,2.8s-2.4-.9-2.4-2.8v-3.4h1.4,0Z"/>
              <path class="st4" d="M38.1,196.8c0-.6,0-1,0-1.4h1.2v.6h0c.2-.3.6-.7,1.4-.7s1.6.6,1.6,1.9v2.6h-1.4v-2.4c0-.6-.2-.9-.7-.9s-.6.3-.7.5c0,0,0,.2,0,.3v2.5h-1.4v-3h0Z"/>
              <path class="st4" d="M44.8,194.2c0,.4-.3.7-.7.7s-.7-.3-.7-.7c0-.4.3-.7.7-.7s.7.3.7.7ZM43.4,199.8v-4.4h1.4v4.4h-1.4Z"/>
              <path class="st4" d="M47.4,194.1v1.3h1v1h-1v1.6c0,.5.1.8.5.8s.3,0,.4,0v1c-.2,0-.5.1-.9.1s-.8-.1-1-.4c-.2-.3-.4-.7-.4-1.3v-1.8h-.6v-1h.6v-.9l1.3-.3h0Z"/>
              <path class="st4" d="M49.1,198.6c.2.1.8.3,1.2.3s.6-.1.6-.4-.1-.3-.7-.5c-.9-.3-1.3-.8-1.2-1.3,0-.8.7-1.4,1.8-1.4s1,.1,1.2.2l-.2.9c-.2-.1-.6-.2-1-.2s-.5.1-.5.4.2.3.7.5c.8.3,1.2.7,1.2,1.4,0,.8-.7,1.4-1.9,1.4s-1.1-.1-1.4-.3c0,0,.2-1,.2-1Z"/>
            </g>
          </g>
          <g class="st2">
            <g class="st2">
              <path class="st4" d="M140.1,187.2h-2.2v1.4h2.5v1.1h-3.9v-6.1h3.8v1.1h-2.4v1.3h2.2v1.1h0Z"/>
            </g>
            <g class="st2">
              <path class="st4" d="M141.2,186.8c0-.6,0-1,0-1.4h1.2v.6h0c.2-.3.6-.7,1.4-.7s1.6.6,1.6,1.9v2.6h-1.4v-2.4c0-.6-.2-.9-.7-.9s-.6.3-.7.5c0,0,0,.2,0,.3v2.5h-1.4v-3h0Z"/>
            </g>
            <g class="st2">
              <path class="st4" d="M148,184.1v1.3h1v1h-1v1.6c0,.5.1.8.5.8s.3,0,.4,0v1c-.2,0-.5.1-.9.1s-.8-.1-1-.4c-.2-.3-.4-.7-.4-1.3v-1.8h-.6v-1h.6v-.9l1.3-.3h0Z"/>
            </g>
            <g class="st2">
              <path class="st4" d="M150.8,188c0,.6.6.8,1.2.8s.9,0,1.2-.2l.2.9c-.4.2-1,.3-1.6.3-1.5,0-2.4-.9-2.4-2.2s.7-2.4,2.2-2.4,2,1.1,2,2.2,0,.4,0,.5h-2.8ZM152.4,187.1c0-.3-.1-.9-.8-.9s-.8.5-.9.9h1.6Z"/>
              <path class="st4" d="M154.4,186.9c0-.6,0-1.1,0-1.4h1.2v.8h0c.2-.6.8-.9,1.2-.9s.2,0,.3,0v1.3c-.1,0-.2,0-.4,0-.5,0-.9.3-.9.7,0,0,0,.2,0,.3v2.2h-1.4v-2.9h0Z"/>
              <path class="st4" d="M157.9,186.9c0-.6,0-1.1,0-1.5h1.2v.6h0c.3-.5.8-.7,1.5-.7,1,0,1.8.8,1.8,2.2s-1,2.4-2,2.4-.9-.2-1.1-.5h0v2.2h-1.4v-4.7h0ZM159.2,187.9c0,.1,0,.2,0,.3,0,.4.4.6.8.6.6,0,.9-.5.9-1.2s-.3-1.2-.9-1.2-.7.3-.8.7c0,0,0,.2,0,.2v.6Z"/>
              <path class="st4" d="M163.2,186.9c0-.6,0-1.1,0-1.4h1.2v.8h0c.2-.6.8-.9,1.2-.9s.2,0,.3,0v1.3c-.1,0-.2,0-.4,0-.5,0-.9.3-.9.7,0,0,0,.2,0,.3v2.2h-1.4v-2.9h0Z"/>
              <path class="st4" d="M168.1,184.2c0,.4-.3.7-.7.7s-.7-.3-.7-.7c0-.4.3-.7.7-.7s.7.3.7.7h0ZM166.7,189.8v-4.4h1.4v4.4h-1.4Z"/>
              <path class="st4" d="M169.1,188.6c.2.1.8.3,1.2.3s.6-.1.6-.4-.1-.3-.6-.5c-.9-.3-1.3-.8-1.2-1.3,0-.8.7-1.4,1.8-1.4s1,.1,1.2.2l-.2.9c-.2-.1-.6-.2-.9-.2s-.5.1-.5.4.2.3.7.5c.8.3,1.2.7,1.2,1.4,0,.8-.6,1.4-1.9,1.4s-1.1-.1-1.4-.3l.2-1Z"/>
              <path class="st4" d="M174.1,188c0,.6.6.8,1.2.8s.9,0,1.2-.2l.2.9c-.4.2-1,.3-1.6.3-1.5,0-2.4-.9-2.4-2.2s.7-2.4,2.2-2.4,2,1.1,2,2.2,0,.4,0,.5h-2.8ZM175.7,187.1c0-.3-.1-.9-.8-.9s-.8.5-.9.9h1.6Z"/>
            </g>
            <g class="st2">
              <path class="st4" d="M179.7,183.8c.4,0,1.1-.1,1.8-.1s1.5.1,2,.5c.4.3.6.7.6,1.3s-.6,1.3-1.1,1.5h0c.4.2.7.6.8,1.2.2.7.4,1.5.5,1.7h-1.4c-.1-.2-.2-.7-.4-1.4-.2-.8-.4-1-1-1h-.4v2.4h-1.4v-6h0ZM181,186.4h.5c.7,0,1.1-.3,1.1-.9s-.4-.8-1-.9c-.3,0-.5,0-.6,0v1.7h0Z"/>
            </g>
            <g class="st2">
              <path class="st4" d="M186.4,184.2c0,.4-.3.7-.7.7s-.7-.3-.7-.7c0-.4.3-.7.7-.7s.7.3.7.7h0ZM185,189.8v-4.4h1.4v4.4h-1.4Z"/>
              <path class="st4" d="M187.5,188.6c.2.1.8.3,1.2.3s.6-.1.6-.4-.1-.3-.6-.5c-.9-.3-1.3-.8-1.2-1.3,0-.8.7-1.4,1.8-1.4s1,.1,1.2.2l-.2.9c-.2-.1-.6-.2-.9-.2s-.5.1-.5.4.2.3.7.5c.8.3,1.2.7,1.2,1.4,0,.8-.6,1.4-1.9,1.4s-1.1-.1-1.4-.3l.2-1Z"/>
              <path class="st4" d="M192.8,187.3h0c.1-.2.2-.4.3-.5l.9-1.3h1.6l-1.6,1.8,1.8,2.6h-1.7l-1.1-1.8-.4.4v1.4h-1.4v-6.4h1.4v3.8h0Z"/>
            </g>
          </g>
          <g class="st2">
            <g class="st2">
              <path class="st4" d="M144.8,197.5c0-.7,0-1.6,0-2.5h0c-.2.8-.4,1.6-.7,2.4l-.7,2.4h-1.1l-.6-2.4c-.2-.7-.4-1.6-.6-2.4h0c0,.8,0,1.8-.1,2.5v2.3h-1.4l.4-6.1h1.8l.6,2c.2.7.4,1.5.5,2.2h0c.2-.7.4-1.5.6-2.2l.6-2h1.8l.3,6.1h-1.3v-2.3q0,0,0,0Z"/>
            </g>
            <g class="st2">
              <path class="st4" d="M149.8,199.8v-.4h-.1c-.3.4-.7.5-1.3.5-.9,0-1.4-.6-1.4-1.4,0-1.1,1-1.7,2.6-1.7h0c0-.3-.1-.6-.8-.6s-.9.1-1.2.3l-.2-.9c.3-.2.9-.4,1.7-.4,1.5,0,1.9.9,1.9,1.9v1.5c0,.4,0,.8,0,1.1h-1.2ZM149.6,197.7c-.7,0-1.3.2-1.3.7s.2.5.5.5.6-.2.7-.5c0,0,0-.1,0-.2v-.5h0Z"/>
              <path class="st4" d="M152,196.8c0-.6,0-1,0-1.4h1.2v.6h0c.2-.3.6-.7,1.4-.7s1.6.6,1.6,1.9v2.6h-1.4v-2.4c0-.6-.2-.9-.7-.9s-.6.3-.7.5c0,0,0,.2,0,.3v2.5h-1.4v-3h0Z"/>
              <path class="st4" d="M159.8,199.8v-.4h-.1c-.3.4-.7.5-1.3.5-.9,0-1.4-.6-1.4-1.4,0-1.1,1-1.7,2.6-1.7h0c0-.3-.1-.6-.8-.6s-.9.1-1.2.3l-.2-.9c.3-.2.9-.4,1.7-.4,1.5,0,1.9.9,1.9,1.9v1.5c0,.4,0,.8,0,1.1h-1.2ZM159.6,197.7c-.7,0-1.3.2-1.3.7s.2.5.5.5.6-.2.7-.5c0,0,0-.1,0-.2v-.5h0Z"/>
              <path class="st4" d="M166.2,195.4c0,.3,0,.6,0,1.3v2.5c0,.9-.2,1.5-.7,2-.5.4-1.1.5-1.8.5s-1.2-.1-1.6-.3l.3-1c.3.2.8.3,1.3.3s1.1-.4,1.1-1.2v-.3h0c-.3.4-.7.6-1.2.6-1.1,0-1.9-.9-1.9-2.1s.9-2.3,2-2.3,1,.3,1.2.6h0v-.5h1.2,0ZM164.8,197.2c0,0,0-.2,0-.2-.1-.4-.4-.6-.7-.6s-.9.4-.9,1.2.3,1.2.9,1.2.6-.2.7-.6c0-.1,0-.2,0-.4v-.6h0Z"/>
              <path class="st4" d="M168.4,198c0,.6.6.8,1.2.8s.9,0,1.2-.2l.2.9c-.4.2-1,.3-1.6.3-1.5,0-2.4-.9-2.4-2.2s.7-2.4,2.2-2.4,2,1.1,2,2.2,0,.4,0,.5h-2.8ZM170,197.1c0-.3-.1-.9-.8-.9s-.8.5-.9.9h1.6Z"/>
              <path class="st4" d="M172.1,196.8c0-.6,0-1,0-1.4h1.1v.6h0c.2-.3.6-.7,1.3-.7s1,.3,1.2.8h0c.2-.2.4-.4.6-.5.2-.1.5-.2.8-.2.9,0,1.5.6,1.5,1.9v2.6h-1.3v-2.4c0-.6-.2-1-.6-1s-.5.2-.6.5c0,.1,0,.2,0,.4v2.6h-1.3v-2.5c0-.6-.2-.9-.6-.9s-.6.3-.6.5c0,.1,0,.2,0,.3v2.6h-1.3v-3h0Z"/>
              <path class="st4" d="M180.9,198c0,.6.6.8,1.2.8s.9,0,1.2-.2l.2.9c-.4.2-1,.3-1.6.3-1.5,0-2.4-.9-2.4-2.2s.7-2.4,2.2-2.4,2,1.1,2,2.2,0,.4,0,.5h-2.8ZM182.5,197.1c0-.3-.1-.9-.8-.9s-.8.5-.9.9h1.6Z"/>
            </g>
            <g class="st2">
              <path class="st4" d="M184.6,196.8c0-.6,0-1,0-1.4h1.2v.6h0c.2-.3.6-.7,1.4-.7s1.6.6,1.6,1.9v2.6h-1.4v-2.4c0-.6-.2-.9-.7-.9s-.6.3-.7.5c0,0,0,.2,0,.3v2.5h-1.4v-3h0Z"/>
            </g>
            <g class="st2">
              <path class="st4" d="M191.3,194.1v1.3h1v1h-1v1.6c0,.5.1.8.5.8s.3,0,.4,0v1c-.2,0-.5.1-.9.1s-.8-.1-1-.4c-.2-.3-.4-.7-.4-1.3v-1.8h-.6v-1h.6v-.9l1.3-.3h0Z"/>
            </g>
          </g>
          <g class="st2">
            <g class="st2">
              <path class="st4" d="M274.5,183.7v6.1h-1.4v-6.1h1.4Z"/>
            </g>
            <g class="st2">
              <path class="st4" d="M275.6,186.8c0-.6,0-1,0-1.4h1.2v.6h0c.2-.3.6-.7,1.4-.7s1.6.6,1.6,1.9v2.6h-1.4v-2.4c0-.6-.2-.9-.7-.9s-.6.3-.7.5c0,0,0,.2,0,.3v2.5h-1.4v-3h0Z"/>
            </g>
            <g class="st2">
              <path class="st4" d="M282.4,184.1v1.3h1v1h-1v1.6c0,.5.1.8.5.8s.3,0,.4,0v1c-.2,0-.5.1-.9.1s-.8-.1-1-.4c-.2-.3-.4-.7-.4-1.3v-1.8h-.6v-1h.6v-.9l1.3-.3h0Z"/>
            </g>
            <g class="st2">
              <path class="st4" d="M285.2,188c0,.6.6.8,1.2.8s.9,0,1.2-.2l.2.9c-.5.2-1,.3-1.6.3-1.5,0-2.4-.9-2.4-2.2s.7-2.4,2.2-2.4,2,1.1,2,2.2,0,.4,0,.5h-2.8,0ZM286.8,187.1c0-.3-.1-.9-.8-.9s-.8.5-.9.9h1.6Z"/>
              <path class="st4" d="M288.9,186.9c0-.6,0-1.1,0-1.4h1.2v.8h0c.2-.6.8-.9,1.2-.9s.2,0,.3,0v1.3c-.1,0-.2,0-.4,0-.5,0-.9.3-.9.7,0,0,0,.2,0,.3v2.2h-1.4v-2.9h0Z"/>
              <path class="st4" d="M292.3,186.8c0-.6,0-1,0-1.4h1.2v.6h0c.2-.3.6-.7,1.4-.7s1.6.6,1.6,1.9v2.6h-1.4v-2.4c0-.6-.2-.9-.7-.9s-.6.3-.7.5c0,0,0,.2,0,.3v2.5h-1.4v-3h0Z"/>
              <path class="st4" d="M300.1,189.8v-.4h-.1c-.3.4-.7.5-1.3.5-.9,0-1.4-.6-1.4-1.4,0-1.1,1-1.7,2.6-1.7h0c0-.3-.1-.6-.8-.6s-.9.1-1.2.3l-.2-.9c.3-.2.9-.4,1.7-.4,1.5,0,1.9.9,1.9,1.9v1.5c0,.4,0,.8,0,1.1h-1.2ZM299.9,187.7c-.7,0-1.3.2-1.3.7s.2.5.5.5.6-.2.7-.5c0,0,0-.1,0-.2v-.5h0Z"/>
              <path class="st4" d="M302.3,183.4h1.4v6.4h-1.4v-6.4Z"/>
            </g>
          </g>
          <g class="st2">
            <g class="st2">
              <path class="st4" d="M279.3,198.2l-.4,1.6h-1.4l1.9-6.1h1.8l1.9,6.1h-1.5l-.5-1.6h-1.7,0ZM280.8,197.2l-.4-1.3c-.1-.4-.2-.8-.3-1.2h0c0,.4-.2.8-.3,1.2l-.4,1.3h1.3Z"/>
            </g>
            <g class="st2">
              <path class="st4" d="M287.8,198.4c0,.6,0,1,0,1.4h-1.2v-.6h0c-.2.3-.6.7-1.4.7s-1.5-.6-1.5-1.9v-2.6h1.4v2.4c0,.6.2,1,.7,1s.6-.3.7-.5c0,0,0-.2,0-.3v-2.6h1.4v3h0Z"/>
              <path class="st4" d="M293.1,193.4v5.1c0,.5,0,1,0,1.3h-1.2v-.6h0c-.3.5-.8.8-1.4.8-1,0-1.9-.9-1.9-2.3s.9-2.3,2-2.3,1,.2,1.2.5h0v-2.4h1.4,0ZM291.8,197.3c0,0,0-.2,0-.2,0-.4-.4-.7-.8-.7-.6,0-1,.6-1,1.2s.4,1.2.9,1.2.7-.3.8-.7c0-.1,0-.2,0-.3v-.6h0Z"/>
              <path class="st4" d="M295.6,194.2c0,.4-.3.7-.7.7s-.7-.3-.7-.7c0-.4.3-.7.7-.7s.7.3.7.7h0ZM294.2,199.8v-4.4h1.4v4.4h-1.4Z"/>
              <path class="st4" d="M298.2,194.1v1.3h1v1h-1v1.6c0,.5.1.8.5.8s.3,0,.4,0v1c-.2,0-.5.1-.9.1s-.8-.1-1-.4c-.2-.3-.4-.7-.4-1.3v-1.8h-.6v-1h.6v-.9l1.3-.3h0Z"/>
            </g>
          </g>
          <g class="st2">
            <g class="st2">
              <path class="st4" d="M398.2,77l-.4,1.6h-1.4l1.9-6.1h1.8l1.9,6.1h-1.5l-.5-1.6h-1.7,0ZM399.7,76l-.4-1.3c-.1-.4-.2-.8-.3-1.2h0c0,.4-.2.8-.3,1.2l-.4,1.3h1.3Z"/>
            </g>
            <g class="st2">
              <path class="st4" d="M406.6,77.2c0,.6,0,1,0,1.4h-1.2v-.6h0c-.2.3-.6.7-1.4.7s-1.5-.6-1.5-1.9v-2.6h1.4v2.4c0,.6.2,1,.7,1s.6-.3.7-.5c0,0,0-.2,0-.3v-2.6h1.4v3h0Z"/>
              <path class="st4" d="M412,72.2v5.1c0,.5,0,1,0,1.3h-1.2v-.7h0c-.3.5-.8.8-1.4.8-1,0-1.9-.9-1.9-2.3s.9-2.3,2-2.3,1,.2,1.2.5h0v-2.4h1.4ZM410.6,76c0,0,0-.2,0-.2,0-.4-.4-.7-.8-.7-.6,0-1,.6-1,1.2s.4,1.2.9,1.2.7-.3.8-.7c0,0,0-.2,0-.3v-.6h0Z"/>
              <path class="st4" d="M414.5,72.9c0,.4-.3.7-.7.7s-.7-.3-.7-.7c0-.4.3-.7.7-.7s.7.3.7.7h0ZM413.1,78.6v-4.4h1.4v4.4h-1.4Z"/>
              <path class="st4" d="M417.1,72.9v1.3h1v1h-1v1.6c0,.5.1.8.5.8s.3,0,.4,0v1c-.2,0-.5.1-.9.1s-.8-.2-1-.4c-.2-.3-.4-.7-.4-1.3v-1.8h-.6v-1h.6v-.9l1.3-.3h0Z"/>
            </g>
            <g class="st2">
              <path class="st4" d="M425.2,78.4c-.2.1-.8.3-1.6.3-2.1,0-3.2-1.3-3.2-3s1.5-3.2,3.3-3.2,1.2.1,1.5.3l-.3,1.1c-.3-.1-.7-.2-1.1-.2-1.1,0-1.9.7-1.9,2s.7,2,1.9,2,.9,0,1.1-.2l.2,1.1h0Z"/>
            </g>
            <g class="st2">
              <path class="st4" d="M430.2,76.3c0,1.6-1.1,2.3-2.3,2.3s-2.3-.8-2.3-2.3.9-2.3,2.4-2.3,2.2.9,2.2,2.2ZM427,76.4c0,.8.3,1.3.9,1.3s.9-.5.9-1.3-.2-1.3-.9-1.3-.9.7-.9,1.3Z"/>
              <path class="st4" d="M431.1,75.6c0-.6,0-1,0-1.4h1.1v.6h0c.2-.3.6-.7,1.3-.7s1,.3,1.2.8h0c.2-.2.4-.4.6-.5.2-.1.5-.2.8-.2.9,0,1.5.6,1.5,1.9v2.6h-1.3v-2.4c0-.6-.2-1-.6-1s-.5.2-.6.5c0,0,0,.2,0,.3v2.6h-1.3v-2.5c0-.6-.2-.9-.6-.9s-.6.3-.6.5c0,.1,0,.2,0,.3v2.6h-1.3v-3h0Z"/>
              <path class="st4" d="M438.8,75.6c0-.6,0-1,0-1.4h1.1v.6h0c.2-.3.6-.7,1.3-.7s1,.3,1.2.8h0c.2-.2.4-.4.6-.5.2-.1.5-.2.8-.2.9,0,1.5.6,1.5,1.9v2.6h-1.3v-2.4c0-.6-.2-1-.6-1s-.5.2-.6.5c0,0,0,.2,0,.3v2.6h-1.3v-2.5c0-.6-.2-.9-.6-.9s-.6.3-.6.5c0,.1,0,.2,0,.3v2.6h-1.3v-3h0Z"/>
              <path class="st4" d="M448,72.9c0,.4-.3.7-.7.7s-.7-.3-.7-.7c0-.4.3-.7.7-.7s.7.3.7.7h0ZM446.5,78.6v-4.4h1.4v4.4h-1.4Z"/>
              <path class="st4" d="M450.5,72.9v1.3h1v1h-1v1.6c0,.5.1.8.5.8s.3,0,.4,0v1c-.2,0-.5.1-.9.1s-.8-.2-1-.4c-.2-.3-.4-.7-.4-1.3v-1.8h-.6v-1h.6v-.9l1.3-.3h0Z"/>
            </g>
            <g class="st2">
              <path class="st4" d="M453.8,72.9v1.3h1v1h-1v1.6c0,.5.1.8.5.8s.3,0,.4,0v1c-.2,0-.5.1-.9.1s-.8-.2-1-.4c-.2-.3-.4-.7-.4-1.3v-1.8h-.6v-1h.6v-.9l1.3-.3h0Z"/>
            </g>
            <g class="st2">
              <path class="st4" d="M456.6,76.8c0,.6.6.8,1.2.8s.9,0,1.2-.2l.2.9c-.5.2-1,.3-1.6.3-1.5,0-2.4-.9-2.4-2.2s.7-2.3,2.2-2.3,2,1.1,2,2.2,0,.4,0,.5h-2.8,0ZM458.2,75.9c0-.3-.1-.9-.8-.9s-.8.5-.9.9h1.6Z"/>
              <path class="st4" d="M461.4,76.8c0,.6.6.8,1.2.8s.9,0,1.2-.2l.2.9c-.5.2-1,.3-1.6.3-1.5,0-2.4-.9-2.4-2.2s.7-2.3,2.2-2.3,2,1.1,2,2.2,0,.4,0,.5h-2.8,0ZM463,75.9c0-.3-.1-.9-.8-.9s-.8.5-.9.9h1.6Z"/>
            </g>
          </g>
          <g class="st2">
            <g class="st2">
              <path class="st4" d="M262.6,72.4c.4,0,1.1-.1,1.8-.1s1.5.1,2,.5c.4.3.6.7.6,1.3s-.5,1.3-1.1,1.5h0c.4.2.7.6.8,1.2.2.7.4,1.5.5,1.7h-1.4c-.1-.2-.2-.7-.4-1.4-.2-.8-.4-1-1-1h-.4v2.4h-1.4v-6h0ZM263.9,75h.5c.7,0,1.1-.3,1.1-.9s-.4-.8-1-.8c-.3,0-.5,0-.6,0v1.7h0Z"/>
            </g>
            <g class="st2">
              <path class="st4" d="M269.4,72.8c0,.4-.3.7-.7.7s-.7-.3-.7-.7c0-.4.3-.7.7-.7s.7.3.7.7h0ZM268,78.4v-4.4h1.4v4.4h-1.4Z"/>
              <path class="st4" d="M270.4,77.2c.2.2.8.3,1.2.3s.6-.1.6-.4-.1-.3-.6-.5c-.9-.3-1.3-.8-1.2-1.3,0-.8.7-1.4,1.8-1.4s1,.1,1.2.2l-.2.9c-.2-.1-.6-.2-1-.2s-.5.1-.5.4.2.3.7.5c.8.3,1.2.7,1.2,1.4,0,.8-.6,1.4-1.9,1.4s-1.1-.1-1.4-.3l.2-1h0Z"/>
              <path class="st4" d="M275.7,75.8h0c.1-.2.2-.4.3-.5l.9-1.3h1.6l-1.6,1.8,1.8,2.6h-1.7l-1.1-1.8-.4.4v1.4h-1.4v-6.4h1.4v3.8h0Z"/>
            </g>
            <g class="st2">
              <path class="st4" d="M285.5,78.2c-.2.1-.8.3-1.6.3-2.1,0-3.2-1.3-3.2-3s1.5-3.2,3.3-3.2,1.2.1,1.5.3l-.3,1.1c-.3-.1-.7-.2-1.1-.2-1.1,0-1.9.7-1.9,2s.7,2,2,2,.9,0,1.1-.2l.2,1.1h0Z"/>
            </g>
            <g class="st2">
              <path class="st4" d="M290.5,76.1c0,1.6-1.1,2.3-2.3,2.3s-2.3-.8-2.3-2.3.9-2.3,2.4-2.3,2.2.9,2.2,2.2ZM287.4,76.2c0,.8.3,1.3.9,1.3s.9-.5.9-1.3-.2-1.3-.9-1.3-.9.7-.9,1.3Z"/>
              <path class="st4" d="M291.4,75.4c0-.6,0-1,0-1.4h1.1v.6h0c.2-.3.6-.7,1.3-.7s1,.3,1.2.8h0c.2-.2.4-.4.6-.5.2-.1.5-.2.8-.2.9,0,1.5.6,1.5,1.9v2.6h-1.3v-2.4c0-.6-.2-1-.6-1s-.5.2-.6.5c0,0,0,.2,0,.3v2.6h-1.3v-2.5c0-.6-.2-.9-.6-.9s-.6.3-.6.5c0,.1,0,.2,0,.3v2.6h-1.3v-3h0Z"/>
              <path class="st4" d="M299.1,75.4c0-.6,0-1,0-1.4h1.1v.6h0c.2-.3.6-.7,1.3-.7s1,.3,1.2.8h0c.2-.2.4-.4.6-.5.2-.1.5-.2.8-.2.9,0,1.5.6,1.5,1.9v2.6h-1.3v-2.4c0-.6-.2-1-.6-1s-.5.2-.6.5c0,0,0,.2,0,.3v2.6h-1.3v-2.5c0-.6-.2-.9-.6-.9s-.6.3-.6.5c0,.1,0,.2,0,.3v2.6h-1.3v-3h0Z"/>
              <path class="st4" d="M308.3,72.8c0,.4-.3.7-.7.7s-.7-.3-.7-.7c0-.4.3-.7.7-.7s.7.3.7.7h0ZM306.9,78.4v-4.4h1.4v4.4h-1.4Z"/>
              <path class="st4" d="M310.9,72.7v1.3h1v1h-1v1.6c0,.5.1.8.5.8s.3,0,.4,0v1c-.2,0-.5.1-.9.1s-.8-.2-1-.4c-.2-.3-.4-.7-.4-1.3v-1.8h-.6v-1h.6v-.9l1.3-.3h0Z"/>
            </g>
            <g class="st2">
              <path class="st4" d="M314.2,72.7v1.3h1v1h-1v1.6c0,.5.1.8.5.8s.3,0,.4,0v1c-.2,0-.5.1-.9.1s-.8-.2-1-.4c-.2-.3-.4-.7-.4-1.3v-1.8h-.6v-1h.6v-.9l1.3-.3h0Z"/>
            </g>
            <g class="st2">
              <path class="st4" d="M317,76.6c0,.6.6.8,1.2.8s.9,0,1.2-.2l.2.9c-.5.2-1,.3-1.6.3-1.5,0-2.4-.9-2.4-2.2s.7-2.3,2.2-2.3,2,1.1,2,2.2,0,.4,0,.5h-2.8,0ZM318.6,75.7c0-.3-.1-.9-.8-.9s-.8.5-.9.9h1.6Z"/>
              <path class="st4" d="M321.7,76.6c0,.6.6.8,1.2.8s.9,0,1.2-.2l.2.9c-.5.2-1,.3-1.6.3-1.5,0-2.4-.9-2.4-2.2s.7-2.3,2.2-2.3,2,1.1,2,2.2,0,.4,0,.5h-2.8,0ZM323.3,75.7c0-.3-.1-.9-.8-.9s-.8.5-.9.9h1.6Z"/>
            </g>
          </g>
          <g class="st2">
            <g class="st2">
              <path class="st4" d="M407.6,208.8c.4,0,1.1-.1,1.8-.1s1.5.1,2,.5c.4.3.6.7.6,1.3s-.5,1.3-1.1,1.5h0c.4.2.7.6.8,1.2.2.7.4,1.5.5,1.7h-1.4c-.1-.2-.2-.7-.4-1.4-.2-.8-.4-1-1-1h-.4v2.4h-1.4v-6h0ZM408.9,211.4h.5c.7,0,1.1-.3,1.1-.9s-.4-.8-1-.9c-.3,0-.5,0-.6,0v1.7h0Z"/>
              <path class="st4" d="M413.9,213c0,.6.6.8,1.2.8s.9,0,1.2-.2l.2.9c-.5.2-1,.3-1.6.3-1.5,0-2.4-.9-2.4-2.2s.7-2.4,2.2-2.4,2,1.1,2,2.2,0,.4,0,.5h-2.8,0ZM415.5,212c0-.3-.1-.9-.8-.9s-.8.5-.9.9h1.6Z"/>
              <path class="st4" d="M421.8,210.3c0,.3,0,.6,0,1.3v2.5c0,.9-.2,1.5-.7,2-.5.4-1.1.5-1.8.5s-1.2-.1-1.6-.3l.3-1c.3.2.8.3,1.3.3s1.1-.4,1.1-1.2v-.3h0c-.3.4-.7.6-1.2.6-1.1,0-1.9-.9-1.9-2.1s.9-2.3,2-2.3,1,.3,1.2.6h0v-.5h1.2ZM420.4,212.1c0,0,0-.2,0-.2-.1-.4-.4-.6-.7-.6s-.9.4-.9,1.2.3,1.2.9,1.2.6-.2.7-.6c0-.1,0-.2,0-.4v-.6h0Z"/>
              <path class="st4" d="M427,213.3c0,.6,0,1,0,1.4h-1.2v-.6h0c-.2.3-.6.7-1.4.7s-1.5-.6-1.5-1.9v-2.6h1.4v2.4c0,.6.2,1,.7,1s.6-.3.7-.5c0,0,0-.2,0-.3v-2.6h1.4v3h0Z"/>
              <path class="st4" d="M428.1,208.4h1.4v6.4h-1.4v-6.4Z"/>
            </g>
            <g class="st2">
              <path class="st4" d="M433.1,214.7v-.4h-.1c-.3.4-.7.5-1.3.5-.9,0-1.4-.6-1.4-1.4,0-1.1,1-1.7,2.6-1.7h0c0-.3-.1-.6-.8-.6s-.9.1-1.2.3l-.2-.9c.3-.2.9-.4,1.7-.4,1.5,0,1.9.9,1.9,1.9v1.5c0,.4,0,.8,0,1.1h-1.2ZM433,212.7c-.7,0-1.3.2-1.3.7s.2.5.5.5.6-.2.7-.5c0,0,0-.1,0-.2v-.5h0Z"/>
            </g>
            <g class="st2">
              <path class="st4" d="M436.8,209.1v1.3h1v1h-1v1.6c0,.5.1.8.5.8s.3,0,.4,0v1c-.2,0-.5.1-.9.1s-.8-.1-1-.4c-.2-.3-.4-.7-.4-1.3v-1.8h-.6v-1h.6v-.9l1.3-.3h0Z"/>
            </g>
            <g class="st2">
              <path class="st4" d="M442.9,212.5c0,1.6-1.1,2.4-2.3,2.4s-2.3-.9-2.3-2.3.9-2.3,2.4-2.3,2.2.9,2.2,2.2ZM439.7,212.5c0,.8.3,1.3.9,1.3s.9-.5.9-1.3-.2-1.3-.9-1.3-.9.7-.9,1.3Z"/>
              <path class="st4" d="M443.8,211.8c0-.6,0-1.1,0-1.4h1.2v.8h0c.2-.6.8-.9,1.2-.9s.2,0,.3,0v1.3c-.1,0-.2,0-.4,0-.5,0-.9.3-.9.7,0,0,0,.2,0,.3v2.2h-1.4v-2.9h0Z"/>
              <path class="st4" d="M447.2,213.5c.2.1.8.3,1.2.3s.6-.1.6-.4-.1-.3-.6-.5c-.9-.3-1.3-.8-1.2-1.3,0-.8.7-1.4,1.8-1.4s1,.1,1.2.2l-.2.9c-.2-.1-.6-.2-1-.2s-.5.1-.5.4.2.3.7.5c.8.3,1.2.7,1.2,1.4,0,.8-.6,1.4-1.9,1.4s-1.1-.1-1.4-.3l.2-1h0Z"/>
            </g>
          </g>
          <g class="st2">
            <g class="st2">
              <path class="st4" d="M413.8,166.3c-.2.1-.8.3-1.6.3-2.1,0-3.2-1.3-3.2-3s1.5-3.2,3.3-3.2,1.2.1,1.5.3l-.3,1.1c-.3-.1-.7-.2-1.1-.2-1.1,0-1.9.7-1.9,2s.7,2,2,2,.9,0,1.1-.2l.2,1.1h0Z"/>
            </g>
            <g class="st2">
              <path class="st4" d="M415.5,164.7c0,.6.6.8,1.2.8s.9,0,1.2-.2l.2.9c-.5.2-1,.3-1.6.3-1.5,0-2.4-.9-2.4-2.2s.7-2.4,2.2-2.4,2,1.1,2,2.2,0,.4,0,.5h-2.8,0ZM417.1,163.8c0-.3-.1-.9-.8-.9s-.8.5-.9.9h1.6Z"/>
            </g>
            <g class="st2">
              <path class="st4" d="M419.2,163.6c0-.6,0-1.1,0-1.4h1.2v.8h0c.2-.6.8-.9,1.2-.9s.2,0,.3,0v1.3c-.1,0-.2,0-.4,0-.5,0-.9.3-.9.7,0,0,0,.2,0,.3v2.2h-1.4v-2.9h0Z"/>
            </g>
            <g class="st2">
              <path class="st4" d="M424.3,160.8v1.3h1v1h-1v1.6c0,.5.1.8.5.8s.3,0,.4,0v1c-.2,0-.5.1-.9.1s-.8-.1-1-.4c-.2-.3-.4-.7-.4-1.3v-1.8h-.6v-1h.6v-.9l1.3-.3h0Z"/>
              <path class="st4" d="M427.5,160.9c0,.4-.3.7-.7.7s-.7-.3-.7-.7c0-.4.3-.7.7-.7s.7.3.7.7h0ZM426.1,166.5v-4.4h1.4v4.4h-1.4Z"/>
              <path class="st4" d="M428.7,166.5v-3.4h-.6v-1h.6v-.2c0-.5.2-1.1.6-1.5.3-.3.8-.4,1.2-.4s.5,0,.7,0v1.1c-.2,0-.3,0-.5,0-.5,0-.6.4-.6.8v.2h.9v1h-.9v3.4h-1.4Z"/>
              <path class="st4" d="M432.7,162.1l.7,2.2c0,.3.2.6.2.8h0c0-.2.1-.6.2-.8l.5-2.2h1.5l-1,2.9c-.6,1.8-1,2.4-1.5,2.9-.5.4-1,.6-1.3.6l-.3-1.2c.2,0,.4-.1.6-.2.2-.1.4-.3.6-.6,0,0,0-.1,0-.2s0-.1,0-.2l-1.6-4h1.5,0Z"/>
              <path class="st4" d="M437.8,160.9c0,.4-.3.7-.7.7s-.7-.3-.7-.7c0-.4.3-.7.7-.7s.7.3.7.7h0ZM436.4,166.5v-4.4h1.4v4.4h-1.4Z"/>
              <path class="st4" d="M438.8,163.5c0-.6,0-1,0-1.4h1.2v.6h0c.2-.3.6-.7,1.4-.7s1.6.6,1.6,1.9v2.6h-1.4v-2.4c0-.6-.2-.9-.7-.9s-.6.3-.7.5c0,0,0,.2,0,.3v2.5h-1.4v-3h0Z"/>
              <path class="st4" d="M448.3,162.1c0,.3,0,.6,0,1.3v2.5c0,.9-.2,1.5-.7,2-.5.4-1.1.5-1.8.5s-1.2-.1-1.6-.3l.3-1c.3.2.8.3,1.3.3s1.1-.4,1.1-1.2v-.3h0c-.3.4-.7.6-1.2.6-1.1,0-1.9-.9-1.9-2.1s.9-2.3,2-2.3,1,.3,1.2.6h0v-.5h1.2ZM446.9,163.9c0,0,0-.2,0-.2-.1-.4-.4-.6-.7-.6s-.9.4-.9,1.2.3,1.2.9,1.2.6-.2.7-.6c0-.1,0-.2,0-.4v-.6h0Z"/>
            </g>
          </g>
          <g class="st2">
            <g class="st2">
              <path class="st4" d="M407.6,170.4v6.1h-1.4v-6.1h1.4Z"/>
            </g>
            <g class="st2">
              <path class="st4" d="M408.8,173.5c0-.6,0-1,0-1.4h1.2v.6h0c.2-.3.6-.7,1.4-.7s1.6.6,1.6,1.9v2.6h-1.4v-2.4c0-.6-.2-.9-.7-.9s-.6.3-.7.5c0,0,0,.2,0,.3v2.5h-1.4v-3h0Z"/>
              <path class="st4" d="M414,175.3c.2.1.8.3,1.2.3s.6-.1.6-.4-.1-.3-.6-.5c-.9-.3-1.3-.8-1.2-1.3,0-.8.7-1.4,1.8-1.4s1,.1,1.2.2l-.2.9c-.2-.1-.6-.2-1-.2s-.5.1-.5.4.2.3.7.5c.8.3,1.2.7,1.2,1.4,0,.8-.6,1.4-1.9,1.4s-1.1-.1-1.4-.3l.2-1h0Z"/>
              <path class="st4" d="M419.5,170.8v1.3h1v1h-1v1.6c0,.5.1.8.5.8s.3,0,.4,0v1c-.2,0-.5.1-.9.1s-.8-.1-1-.4c-.2-.3-.4-.7-.4-1.3v-1.8h-.6v-1h.6v-.9l1.3-.3h0Z"/>
              <path class="st4" d="M422.7,170.9c0,.4-.3.7-.7.7s-.7-.3-.7-.7c0-.4.3-.7.7-.7s.7.3.7.7h0ZM421.3,176.5v-4.4h1.4v4.4h-1.4Z"/>
              <path class="st4" d="M425.3,170.8v1.3h1v1h-1v1.6c0,.5.1.8.5.8s.3,0,.4,0v1c-.2,0-.5.1-.9.1s-.8-.1-1-.4c-.2-.3-.4-.7-.4-1.3v-1.8h-.6v-1h.6v-.9l1.3-.3h0Z"/>
              <path class="st4" d="M431.2,175.1c0,.6,0,1,0,1.4h-1.2v-.6h0c-.2.3-.6.7-1.4.7s-1.5-.6-1.5-1.9v-2.6h1.4v2.4c0,.6.2,1,.7,1s.6-.3.7-.5c0,0,0-.2,0-.3v-2.6h1.4v3h0Z"/>
              <path class="st4" d="M433.8,170.8v1.3h1v1h-1v1.6c0,.5.1.8.5.8s.3,0,.4,0v1c-.2,0-.5.1-.9.1s-.8-.1-1-.4c-.2-.3-.4-.7-.4-1.3v-1.8h-.6v-1h.6v-.9l1.3-.3h0Z"/>
              <path class="st4" d="M437,170.9c0,.4-.3.7-.7.7s-.7-.3-.7-.7c0-.4.3-.7.7-.7s.7.3.7.7h0ZM435.6,176.5v-4.4h1.4v4.4h-1.4Z"/>
              <path class="st4" d="M442.4,174.2c0,1.6-1.1,2.4-2.3,2.4s-2.3-.9-2.3-2.3.9-2.3,2.4-2.3,2.2.9,2.2,2.2ZM439.2,174.3c0,.8.3,1.3.9,1.3s.9-.5.9-1.3-.2-1.3-.9-1.3-.9.7-.9,1.3Z"/>
              <path class="st4" d="M443.2,173.5c0-.6,0-1,0-1.4h1.2v.6h0c.2-.3.6-.7,1.4-.7s1.6.6,1.6,1.9v2.6h-1.4v-2.4c0-.6-.2-.9-.7-.9s-.6.3-.7.5c0,0,0,.2,0,.3v2.5h-1.4v-3h0Z"/>
              <path class="st4" d="M448.5,175.3c.2.1.8.3,1.2.3s.6-.1.6-.4-.1-.3-.6-.5c-.9-.3-1.3-.8-1.2-1.3,0-.8.7-1.4,1.8-1.4s1,.1,1.2.2l-.2.9c-.2-.1-.6-.2-1-.2s-.5.1-.5.4.2.3.7.5c.8.3,1.2.7,1.2,1.4,0,.8-.6,1.4-1.9,1.4s-1.1-.1-1.4-.3l.2-1h0Z"/>
            </g>
          </g>
          <g class="st2">
            <g class="st2">
              <path class="st4" d="M416.2,120.8h-2.2v1.4h2.5v1.1h-3.9v-6.1h3.8v1.1h-2.4v1.3h2.2v1.1h0Z"/>
            </g>
            <g class="st2">
              <path class="st4" d="M418.4,118.9l.4.7c.1.2.2.4.4.7h0c.1-.2.2-.5.3-.7l.4-.7h1.5l-1.5,2.1,1.5,2.3h-1.5l-.4-.8c-.1-.2-.2-.4-.3-.7h0c-.1.2-.2.4-.3.7l-.4.8h-1.5l1.5-2.2-1.5-2.2h1.5,0Z"/>
            </g>
            <g class="st2">
              <path class="st4" d="M423.6,117.7v1.3h1v1h-1v1.6c0,.5.1.8.5.8s.3,0,.4,0v1c-.2,0-.5.1-.9.1s-.8-.2-1-.4c-.2-.3-.4-.7-.4-1.3v-1.8h-.6v-1h.6v-.9l1.3-.3h0Z"/>
            </g>
            <g class="st2">
              <path class="st4" d="M426.4,121.6c0,.6.6.8,1.2.8s.9,0,1.2-.2l.2.9c-.5.2-1,.3-1.6.3-1.5,0-2.4-.9-2.4-2.2s.7-2.3,2.2-2.3,2,1.1,2,2.2,0,.4,0,.5h-2.8,0ZM428,120.6c0-.3-.1-.9-.8-.9s-.8.5-.9.9h1.6Z"/>
              <path class="st4" d="M430.1,120.4c0-.7,0-1.1,0-1.4h1.2v.8h0c.2-.6.8-.9,1.2-.9s.2,0,.3,0v1.3c-.1,0-.2,0-.4,0-.5,0-.9.3-.9.7,0,0,0,.2,0,.3v2.2h-1.4v-2.9h0Z"/>
              <path class="st4" d="M433.6,120.3c0-.6,0-1,0-1.4h1.2v.6h0c.2-.3.6-.7,1.4-.7s1.6.6,1.6,1.9v2.6h-1.4v-2.4c0-.6-.2-.9-.7-.9s-.6.3-.7.5c0,0,0,.2,0,.3v2.5h-1.4v-3h0Z"/>
              <path class="st4" d="M441.3,123.3v-.4h-.1c-.3.3-.7.5-1.3.5-.9,0-1.4-.7-1.4-1.3,0-1.1,1-1.7,2.6-1.7h0c0-.3-.1-.6-.8-.6s-.9.2-1.2.3l-.2-.9c.3-.2.9-.4,1.7-.4,1.5,0,1.9.9,1.9,1.9v1.5c0,.4,0,.8,0,1.1h-1.2ZM441.2,121.2c-.7,0-1.3.2-1.3.7s.2.5.5.5.6-.2.7-.5c0,0,0-.2,0-.2,0,0,0-.5,0-.5Z"/>
              <path class="st4" d="M443.6,116.9h1.4v6.4h-1.4v-6.4Z"/>
            </g>
          </g>
          <g class="st2">
            <g class="st2">
              <path class="st4" d="M419.7,131.8l-.4,1.6h-1.4l1.9-6.1h1.8l1.9,6.1h-1.5l-.5-1.6h-1.7,0ZM421.2,130.8l-.4-1.3c-.1-.4-.2-.8-.3-1.2h0c0,.4-.2.8-.3,1.2l-.4,1.3h1.3Z"/>
            </g>
            <g class="st2">
              <path class="st4" d="M428.2,131.9c0,.6,0,1,0,1.4h-1.2v-.6h0c-.2.3-.6.7-1.4.7s-1.5-.6-1.5-1.9v-2.6h1.4v2.4c0,.6.2,1,.7,1s.6-.3.7-.5c0,0,0-.2,0-.3v-2.6h1.4v3h0Z"/>
              <path class="st4" d="M433.5,126.9v5.1c0,.5,0,1,0,1.3h-1.2v-.6h0c-.3.5-.8.8-1.4.8-1,0-1.9-.9-1.9-2.3s.9-2.3,2-2.3,1,.2,1.2.5h0v-2.4h1.4ZM432.2,130.8c0,0,0-.2,0-.2,0-.4-.4-.7-.8-.7-.6,0-1,.6-1,1.2s.4,1.2.9,1.2.7-.3.8-.7c0-.1,0-.2,0-.3v-.6h0Z"/>
              <path class="st4" d="M436,127.7c0,.4-.3.7-.7.7s-.7-.3-.7-.7c0-.4.3-.7.7-.7s.7.3.7.7h0ZM434.6,133.3v-4.4h1.4v4.4h-1.4Z"/>
              <path class="st4" d="M438.6,127.7v1.3h1v1h-1v1.6c0,.5.1.8.5.8s.3,0,.4,0v1c-.2,0-.5.1-.9.1s-.8-.1-1-.4c-.2-.3-.4-.7-.4-1.3v-1.8h-.6v-1h.6v-.9l1.3-.3h0Z"/>
            </g>
          </g>
          <line class="st1" x1="44.5" y1="107.9" x2="44.5" y2="96.6"/>
          <polygon class="st6" points="44.5 91.2 42 98.2 47 98.2 44.5 91.2"/>
          <line class="st1" x1="163.3" y1="107.9" x2="163.3" y2="96.6"/>
          <polygon class="st6" points="163.3 91.2 160.7 98.2 165.8 98.2 163.3 91.2"/>
          <polyline class="st1" points="299 107.4 299 103.9 406.3 103.9 406.3 98.8"/>
          <polygon class="st6" points="406.3 93.4 403.8 100.4 408.9 100.4 406.3 93.4"/>
          <line class="st1" x1="416" y1="107.4" x2="416" y2="100.8"/>
          <polygon class="st6" points="416 95.4 413.5 102.4 418.5 102.4 416 95.4"/>
          <line class="st0" x1="97" y1="148.7" x2="116.8" y2="148.7"/>
          <polygon class="st6" points="92.3 148.7 98.6 151 98.6 146.4 92.3 148.7"/>
          <polygon class="st6" points="121.5 148.7 115.2 146.4 115.2 151 121.5 148.7"/>
          <line class="st0" x1="221.8" y1="148.7" x2="236.3" y2="148.7"/>
          <polygon class="st6" points="217.1 148.7 223.4 151 223.4 146.4 217.1 148.7"/>
          <polygon class="st6" points="241 148.7 234.8 146.4 234.8 151 241 148.7"/>
          <line class="st0" x1="341.7" y1="126.1" x2="367" y2="126.1"/>
          <polygon class="st6" points="337 126.1 343.3 128.4 343.3 123.8 337 126.1"/>
          <polygon class="st6" points="371.7 126.1 365.4 123.8 365.4 128.4 371.7 126.1"/>
          <line class="st0" x1="97" y1="189.9" x2="116.8" y2="189.9"/>
          <polygon class="st6" points="92.3 189.9 98.6 192.2 98.6 187.6 92.3 189.9"/>
          <polygon class="st6" points="121.5 189.9 115.2 187.6 115.2 192.2 121.5 189.9"/>
          <line class="st0" x1="221.8" y1="189.9" x2="236.3" y2="189.9"/>
          <polygon class="st6" points="217.1 189.9 223.4 192.2 223.4 187.6 217.1 189.9"/>
          <polygon class="st6" points="241 189.9 234.8 187.6 234.8 192.2 241 189.9"/>
          <line class="st1" x1="369.5" y1="169.3" x2="342.6" y2="169.3"/>
          <polygon class="st6" points="337.2 169.3 344.1 171.9 344.1 166.8 337.2 169.3"/>
          <line class="st1" x1="369.5" y1="211" x2="342.6" y2="211"/>
          <polygon class="st6" points="337.2 211 344.1 213.5 344.1 208.4 337.2 211"/>
          <g class="st2">
            <g class="st2">
              <path class="st4" d="M205.8,16.7c.4,0,1.1-.1,1.8-.1s1.4,0,1.8.3c.4.2.7.6.7,1.2s-.3,1-1,1.3h0c.7.2,1.2.7,1.2,1.5s-.2,1-.6,1.3c-.4.4-1.2.5-2.4.5s-1.2,0-1.5,0v-6h0ZM207.2,19h.4c.7,0,1.1-.3,1.1-.8s-.4-.7-1-.7-.5,0-.6,0v1.4h0ZM207.2,21.7c.1,0,.3,0,.5,0,.6,0,1.2-.2,1.2-.9s-.6-.9-1.2-.9h-.5v1.7Z"/>
            </g>
            <g class="st2">
              <path class="st4" d="M215.6,20.4c0,1.6-1.1,2.4-2.3,2.4s-2.3-.9-2.3-2.3.9-2.3,2.4-2.3,2.2.9,2.2,2.2ZM212.4,20.5c0,.8.3,1.3.9,1.3s.9-.5.9-1.3-.2-1.3-.9-1.3-.9.7-.9,1.3Z"/>
              <path class="st4" d="M218.9,22.7v-.4h-.1c-.3.4-.7.5-1.3.5-.9,0-1.4-.6-1.4-1.4,0-1.1,1-1.7,2.6-1.7h0c0-.3-.1-.6-.8-.6s-.9.1-1.2.3l-.2-.9c.3-.2.9-.4,1.7-.4,1.5,0,1.9.9,1.9,1.9v1.5c0,.4,0,.8,0,1.1h-1.2ZM218.8,20.6c-.7,0-1.3.2-1.3.7s.2.5.5.5.6-.2.7-.5c0,0,0-.1,0-.2v-.5Z"/>
            </g>
            <g class="st2">
              <path class="st4" d="M221.2,19.7c0-.6,0-1.1,0-1.5h1.2v.8h0c.2-.6.8-.9,1.2-.9s.2,0,.3,0v1.3c-.1,0-.2,0-.4,0-.5,0-.9.3-.9.7,0,0,0,.2,0,.3v2.2h-1.4v-3h0Z"/>
            </g>
            <g class="st2">
              <path class="st4" d="M228.8,16.3v5.1c0,.5,0,1,0,1.3h-1.2v-.6h0c-.3.5-.8.8-1.4.8-1,0-1.9-.9-1.9-2.3s.9-2.3,2-2.3,1,.2,1.2.5h0v-2.4h1.4ZM227.4,20.1c0,0,0-.2,0-.2,0-.4-.4-.7-.8-.7-.6,0-.9.6-.9,1.2s.4,1.2.9,1.2.7-.3.8-.7c0-.1,0-.2,0-.3v-.6h0Z"/>
              <path class="st4" d="M236.1,20.4c0,1.6-1.1,2.4-2.3,2.4s-2.3-.9-2.3-2.3.9-2.3,2.4-2.3,2.2.9,2.2,2.2ZM232.9,20.5c0,.8.3,1.3.9,1.3s.9-.5.9-1.3-.2-1.3-.9-1.3-.9.7-.9,1.3Z"/>
              <path class="st4" d="M237.1,22.7v-3.4h-.6v-1h.6v-.2c0-.5.2-1.1.6-1.5.3-.3.8-.4,1.2-.4s.5,0,.7,0v1c-.2,0-.3,0-.5,0-.4,0-.6.4-.6.8v.2h.9v1h-.9v3.4h-1.4Z"/>
            </g>
            <g class="st2">
              <path class="st4" d="M241.9,16.7c.5,0,1.2-.1,1.9-.1,1.1,0,1.9.2,2.5.6.6.5,1,1.2,1,2.3s-.4,2-1,2.5c-.6.5-1.6.8-2.8.8s-1.2,0-1.6,0v-6h0ZM243.2,21.6c.1,0,.3,0,.5,0,1.2,0,2.1-.7,2.1-2.1s-.7-1.9-1.9-1.9-.5,0-.6,0v4Z"/>
            </g>
            <g class="st2">
              <path class="st4" d="M249.5,17c0,.4-.3.7-.7.7s-.7-.3-.7-.7c0-.4.3-.7.7-.7s.7.3.7.7h0ZM248.1,22.7v-4.4h1.4v4.4h-1.4Z"/>
            </g>
            <g class="st2">
              <path class="st4" d="M250.6,19.7c0-.6,0-1.1,0-1.5h1.2v.8h0c.2-.6.8-.9,1.2-.9s.2,0,.3,0v1.3c-.1,0-.2,0-.4,0-.5,0-.9.3-.9.7,0,0,0,.2,0,.3v2.2h-1.4v-3h0Z"/>
            </g>
            <g class="st2">
              <path class="st4" d="M255,20.9c0,.6.6.8,1.2.8s.9,0,1.2-.2l.2.9c-.5.2-1,.3-1.6.3-1.5,0-2.4-.9-2.4-2.2s.7-2.4,2.2-2.4,2,1.1,2,2.2,0,.4,0,.5h-2.8,0ZM256.6,20c0-.3-.1-.9-.8-.9s-.8.5-.9.9h1.6Z"/>
            </g>
            <g class="st2">
              <path class="st4" d="M262,22.5c-.2.1-.7.2-1.2.2-1.4,0-2.3-.9-2.3-2.2s.9-2.3,2.5-2.3.8,0,1,.2l-.2,1c-.2,0-.4-.1-.8-.1-.7,0-1.2.5-1.2,1.2,0,.8.5,1.2,1.2,1.2s.6,0,.8-.1l.2,1h0Z"/>
            </g>
            <g class="st2">
              <path class="st4" d="M264.4,17v1.3h1v1h-1v1.6c0,.5.1.8.5.8s.3,0,.4,0v1c-.2,0-.5.1-.9.1s-.8-.1-1-.4c-.2-.3-.4-.7-.4-1.3v-1.8h-.6v-1h.6v-1l1.3-.3h0Z"/>
            </g>
            <g class="st2">
              <path class="st4" d="M270.5,20.4c0,1.6-1.1,2.4-2.3,2.4s-2.3-.9-2.3-2.3.9-2.3,2.4-2.3,2.2.9,2.2,2.2ZM267.3,20.5c0,.8.3,1.3.9,1.3s.9-.5.9-1.3-.2-1.3-.9-1.3-.9.7-.9,1.3Z"/>
              <path class="st4" d="M271.3,19.7c0-.6,0-1.1,0-1.5h1.2v.8h0c.2-.6.8-.9,1.2-.9s.2,0,.3,0v1.3c-.1,0-.2,0-.4,0-.5,0-.9.3-.9.7,0,0,0,.2,0,.3v2.2h-1.4v-3h0Z"/>
              <path class="st4" d="M274.8,21.5c.2.1.8.3,1.2.3s.6-.1.6-.4-.1-.3-.6-.5c-.9-.3-1.3-.8-1.2-1.3,0-.8.7-1.4,1.8-1.4s1,.1,1.2.2l-.2,1c-.2-.1-.6-.2-1-.2s-.5.1-.5.4.2.3.7.5c.8.3,1.2.7,1.2,1.4,0,.8-.6,1.4-1.9,1.4s-1.1-.1-1.4-.3l.2-1h0Z"/>
            </g>
          </g>
          <g class="st2">
            <g class="st2">
              <path class="st4" d="M232.4,26.4c-.5.8-.9,2-.9,3.6s.4,2.8.9,3.6h-.9c-.5-.7-1-1.9-1-3.6s.5-2.9,1-3.6c0,0,.9,0,.9,0Z"/>
              <path class="st4" d="M233.2,26.7c.4,0,1.1-.1,1.8-.1s1.4,0,1.8.3c.4.2.7.6.7,1.2s-.3,1-1,1.3h0c.7.2,1.2.7,1.2,1.5s-.2,1-.6,1.3c-.4.3-1.2.5-2.4.5s-1.2,0-1.5,0v-6h0ZM234.6,29h.4c.7,0,1.1-.3,1.1-.8s-.4-.7-1-.7-.5,0-.6,0v1.4h0ZM234.6,31.7c.1,0,.3,0,.5,0,.6,0,1.2-.2,1.2-.9s-.6-.9-1.2-.9h-.5v1.7Z"/>
              <path class="st4" d="M244.2,29.6c0,2-1.2,3.2-3,3.2s-2.9-1.4-2.9-3.1,1.2-3.2,2.9-3.2,2.9,1.4,2.9,3.1ZM239.9,29.6c0,1.2.6,2,1.5,2s1.5-.9,1.5-2.1-.5-2-1.5-2-1.5.9-1.5,2.1Z"/>
            </g>
            <g class="st2">
              <path class="st4" d="M245.1,26.7c.5,0,1.2-.1,1.9-.1,1.1,0,1.9.2,2.5.6.6.5,1,1.2,1,2.3s-.4,2-1,2.5c-.6.5-1.6.8-2.8.8s-1.2,0-1.6,0v-6h0ZM246.5,31.6c.1,0,.3,0,.5,0,1.2,0,2.1-.7,2.1-2.1s-.7-1.9-1.9-1.9-.5,0-.6,0v4Z"/>
            </g>
            <g class="st2">
              <path class="st4" d="M251,33.7c.5-.8.9-2,.9-3.6s-.4-2.8-.9-3.6h1c.5.7,1,1.9,1,3.6s-.6,2.9-1,3.6h-1Z"/>
            </g>
          </g>
        </g>
      </g>
    </g>
  </g>
</svg>