<?xml version="1.0" encoding="UTF-8"?>
<svg xmlns="http://www.w3.org/2000/svg" version="1.1" viewBox="0 0 211.49 50.17">
  <defs>
    <style>
      .cls-1 {
        fill: #26aed2;
      }

      .cls-2 {
        fill: #fff;
      }

      .cls-3 {
        fill: none;
        stroke: #33474f;
        stroke-linecap: round;
        stroke-linejoin: round;
        stroke-width: .5px;
      }
    </style>
  </defs>
  <!-- Generator: Adobe Illustrator 28.7.5, SVG Export Plug-In . SVG Version: 1.2.0 Build 176)  -->
  <g>
    <g id="Layer_1">
      <g>
        <rect class="cls-1" width="211.49" height="50.17" rx="6.48" ry="6.48"/>
        <g>
          <path class="cls-2" d="M71.53,4.91v5.77h-.75v-5.77h.75Z"/>
          <path class="cls-2" d="M72.88,7.66c0-.43,0-.78-.03-1.12h.66l.03.67h.03c.23-.39.62-.76,1.3-.76.56,0,.99.34,1.17.83h.02c.13-.23.29-.41.46-.54.25-.19.52-.29.92-.29.55,0,1.36.36,1.36,1.8v2.44h-.74v-2.35c0-.8-.29-1.28-.9-1.28-.43,0-.76.32-.89.68-.03.1-.06.24-.06.38v2.56h-.74v-2.48c0-.66-.29-1.14-.86-1.14-.47,0-.81.38-.93.75-.04.11-.06.24-.06.37v2.5h-.74v-3.02Z"/>
          <path class="cls-2" d="M80.01,7.89c0-.53-.02-.96-.03-1.35h.68l.03.71h.02c.31-.5.8-.8,1.47-.8,1,0,1.75.85,1.75,2.11,0,1.49-.91,2.23-1.88,2.23-.55,0-1.03-.24-1.28-.65h-.02v2.25h-.74v-4.49ZM80.76,8.99c0,.11.02.21.03.31.14.52.59.88,1.13.88.8,0,1.26-.65,1.26-1.6,0-.83-.44-1.54-1.23-1.54-.51,0-.99.37-1.14.93-.03.09-.05.21-.05.31v.71Z"/>
          <path class="cls-2" d="M87.17,10.68l-.06-.52h-.03c-.23.33-.68.62-1.27.62-.84,0-1.27-.59-1.27-1.19,0-1,.89-1.55,2.49-1.54v-.08c0-.34-.09-.96-.94-.96-.39,0-.79.12-1.08.31l-.17-.5c.34-.22.84-.37,1.36-.37,1.27,0,1.57.86,1.57,1.7v1.55c0,.36.02.71.07.99h-.69ZM87.06,8.57c-.82-.02-1.75.13-1.75.93,0,.49.33.72.71.72.54,0,.88-.34,1-.69.03-.08.04-.16.04-.24v-.72Z"/>
          <path class="cls-2" d="M91.96,10.53c-.2.1-.63.24-1.19.24-1.25,0-2.06-.85-2.06-2.11s.87-2.2,2.23-2.2c.45,0,.84.11,1.04.21l-.17.58c-.18-.1-.46-.2-.87-.2-.95,0-1.46.7-1.46,1.57,0,.96.62,1.55,1.44,1.55.43,0,.71-.11.92-.21l.13.56Z"/>
          <path class="cls-2" d="M93.85,5.35v1.19h1.08v.57h-1.08v2.23c0,.51.15.8.56.8.2,0,.34-.03.44-.05l.03.56c-.15.06-.38.1-.67.1-.35,0-.63-.11-.81-.32-.21-.22-.29-.59-.29-1.08v-2.26h-.64v-.57h.64v-.99l.74-.2Z"/>
          <path class="cls-2" d="M102.47,8.15c-.04-.8-.09-1.77-.09-2.49h-.03c-.2.68-.44,1.39-.73,2.19l-1.02,2.8h-.56l-.93-2.75c-.27-.81-.5-1.56-.67-2.24h-.02c-.02.72-.06,1.69-.11,2.55l-.15,2.47h-.71l.4-5.77h.95l.98,2.79c.24.71.44,1.34.58,1.94h.03c.15-.58.35-1.21.61-1.94l1.03-2.79h.95l.36,5.77h-.73l-.15-2.53Z"/>
          <path class="cls-2" d="M106.81,10.68l-.06-.52h-.03c-.23.33-.68.62-1.27.62-.84,0-1.27-.59-1.27-1.19,0-1,.89-1.55,2.49-1.54v-.08c0-.34-.09-.96-.94-.96-.39,0-.79.12-1.08.31l-.17-.5c.34-.22.84-.37,1.36-.37,1.27,0,1.57.86,1.57,1.7v1.55c0,.36.02.71.07.99h-.69ZM106.7,8.57c-.82-.02-1.75.13-1.75.93,0,.49.33.72.71.72.54,0,.88-.34,1-.69.03-.08.04-.16.04-.24v-.72Z"/>
          <path class="cls-2" d="M109.51,5.35v1.19h1.08v.57h-1.08v2.23c0,.51.15.8.57.8.2,0,.34-.03.44-.05l.03.56c-.15.06-.38.1-.67.1-.35,0-.63-.11-.81-.32-.21-.22-.29-.59-.29-1.08v-2.26h-.64v-.57h.64v-.99l.74-.2Z"/>
          <path class="cls-2" d="M111.81,8.74c.02,1.02.67,1.44,1.42,1.44.54,0,.86-.09,1.15-.21l.13.54c-.27.12-.72.26-1.38.26-1.28,0-2.04-.84-2.04-2.09s.74-2.23,1.94-2.23c1.35,0,1.71,1.19,1.71,1.95,0,.15-.02.27-.03.35h-2.91ZM114.02,8.21c0-.48-.2-1.22-1.04-1.22-.76,0-1.1.7-1.16,1.22h2.2Z"/>
          <path class="cls-2" d="M115.68,7.83c0-.49,0-.91-.03-1.29h.66l.03.81h.03c.19-.56.64-.91,1.15-.91.09,0,.15,0,.21.03v.71c-.08-.02-.15-.03-.26-.03-.53,0-.91.4-1.01.97-.02.1-.03.22-.03.35v2.21h-.75v-2.85Z"/>
          <path class="cls-2" d="M119.34,5.37c0,.26-.18.46-.48.46-.26,0-.45-.21-.45-.46s.2-.47.47-.47.46.21.46.47ZM118.5,10.68v-4.14h.75v4.14h-.75Z"/>
          <path class="cls-2" d="M122.8,10.68l-.06-.52h-.03c-.23.33-.68.62-1.27.62-.84,0-1.27-.59-1.27-1.19,0-1,.89-1.55,2.49-1.54v-.08c0-.34-.09-.96-.94-.96-.39,0-.79.12-1.08.31l-.17-.5c.34-.22.84-.37,1.36-.37,1.27,0,1.57.86,1.57,1.7v1.55c0,.36.02.71.07.99h-.69ZM122.69,8.57c-.82-.02-1.75.13-1.75.93,0,.49.33.72.71.72.54,0,.88-.34,1-.69.03-.08.04-.16.04-.24v-.72Z"/>
          <path class="cls-2" d="M124.63,4.6h.75v6.08h-.75v-6.08Z"/>
          <path class="cls-2" d="M127.49,5.37c0,.26-.18.46-.48.46-.26,0-.45-.21-.45-.46s.2-.47.47-.47.46.21.46.47ZM126.65,10.68v-4.14h.75v4.14h-.75Z"/>
          <path class="cls-2" d="M129.56,5.35v1.19h1.08v.57h-1.08v2.23c0,.51.15.8.57.8.2,0,.34-.03.44-.05l.03.56c-.15.06-.38.1-.67.1-.35,0-.63-.11-.81-.32-.21-.22-.29-.59-.29-1.08v-2.26h-.64v-.57h.64v-.99l.74-.2Z"/>
          <path class="cls-2" d="M131.82,6.54l.91,2.45c.09.27.2.6.27.85h.02c.08-.25.16-.56.27-.86l.82-2.43h.8l-1.13,2.95c-.54,1.42-.91,2.15-1.42,2.59-.37.33-.74.45-.92.49l-.19-.63c.19-.06.44-.18.66-.37.21-.16.46-.45.63-.84.03-.08.06-.14.06-.18s-.02-.1-.05-.2l-1.53-3.82h.82Z"/>
        </g>
        <g>
          <path class="cls-2" d="M80.53,29.29c-.21.11-.64.21-1.18.21-1.26,0-2.22-.8-2.22-2.27s.95-2.35,2.34-2.35c.56,0,.91.12,1.06.2l-.14.47c-.22-.11-.53-.19-.9-.19-1.05,0-1.75.67-1.75,1.85,0,1.1.63,1.8,1.72,1.8.35,0,.71-.07.94-.19l.12.46Z"/>
          <path class="cls-2" d="M84.08,27.8c0,1.19-.82,1.71-1.6,1.71-.87,0-1.54-.64-1.54-1.66,0-1.08.71-1.71,1.6-1.71s1.55.67,1.55,1.66ZM81.53,27.84c0,.71.41,1.24.98,1.24s.98-.53.98-1.25c0-.55-.27-1.24-.96-1.24s-.99.64-.99,1.25Z"/>
          <path class="cls-2" d="M84.82,27.09c0-.33,0-.61-.03-.87h.51l.03.52h.02c.18-.31.48-.59,1.01-.59.44,0,.77.27.91.65h.01c.1-.18.23-.32.36-.42.19-.15.41-.23.71-.23.43,0,1.06.28,1.06,1.4v1.9h-.57v-1.82c0-.62-.23-.99-.7-.99-.33,0-.59.25-.69.53-.03.08-.05.19-.05.29v1.99h-.57v-1.93c0-.51-.23-.88-.67-.88-.37,0-.63.29-.73.59-.03.09-.05.19-.05.29v1.94h-.57v-2.35Z"/>
          <path class="cls-2" d="M90.37,27.27c0-.41-.01-.75-.03-1.05h.53l.03.55h.01c.24-.39.62-.62,1.14-.62.78,0,1.36.66,1.36,1.64,0,1.16-.71,1.73-1.46,1.73-.43,0-.8-.19-.99-.51h-.01v1.75h-.58v-3.49ZM90.95,28.13c0,.09.01.17.03.24.11.41.46.69.88.69.62,0,.98-.51.98-1.24,0-.65-.34-1.2-.96-1.2-.4,0-.77.29-.88.72-.02.07-.04.16-.04.24v.55Z"/>
          <path class="cls-2" d="M95.94,29.44l-.05-.41h-.02c-.18.25-.53.48-.98.48-.65,0-.98-.46-.98-.92,0-.78.69-1.2,1.94-1.2v-.07c0-.27-.07-.75-.73-.75-.3,0-.61.09-.84.24l-.13-.39c.27-.17.65-.29,1.06-.29.98,0,1.22.67,1.22,1.32v1.2c0,.28.01.55.05.77h-.53ZM95.85,27.8c-.64-.01-1.36.1-1.36.73,0,.38.25.56.55.56.42,0,.69-.27.78-.54.02-.06.03-.13.03-.19v-.56Z"/>
          <path class="cls-2" d="M97.36,27.09c0-.33,0-.61-.03-.87h.52l.03.53h.01c.16-.31.53-.61,1.06-.61.45,0,1.14.27,1.14,1.37v1.92h-.59v-1.86c0-.52-.19-.95-.75-.95-.39,0-.69.27-.79.6-.03.07-.04.17-.04.27v1.94h-.59v-2.35Z"/>
          <path class="cls-2" d="M101.19,26.22l.71,1.9c.07.21.15.47.21.66h.01c.06-.19.13-.44.21-.67l.64-1.89h.62l-.88,2.29c-.42,1.1-.71,1.67-1.1,2.02-.29.25-.57.35-.72.38l-.15-.49c.15-.05.34-.14.51-.29.16-.13.36-.35.49-.65.03-.06.05-.11.05-.14s-.01-.08-.04-.15l-1.19-2.97h.64Z"/>
          <path class="cls-2" d="M105.04,24.88c-.15.56-.44,1.27-.63,1.58l-.37.05c.15-.39.32-1.08.39-1.56l.61-.06Z"/>
          <path class="cls-2" d="M105.13,28.84c.17.11.48.23.77.23.43,0,.62-.21.62-.48,0-.28-.17-.43-.6-.59-.58-.21-.85-.53-.85-.91,0-.52.42-.94,1.11-.94.33,0,.61.09.79.2l-.15.43c-.13-.08-.36-.19-.66-.19-.35,0-.54.2-.54.44,0,.27.19.39.61.55.56.21.84.49.84.97,0,.57-.44.96-1.2.96-.35,0-.68-.09-.9-.22l.15-.45Z"/>
          <path class="cls-2" d="M109.85,24.96v4.48h-.58v-4.48h.58Z"/>
          <path class="cls-2" d="M110.91,27.09c0-.33,0-.61-.03-.87h.51l.03.52h.02c.18-.31.48-.59,1.01-.59.44,0,.77.27.91.65h.01c.1-.18.23-.32.36-.42.19-.15.41-.23.71-.23.43,0,1.06.28,1.06,1.4v1.9h-.57v-1.82c0-.62-.23-.99-.7-.99-.33,0-.59.25-.69.53-.03.08-.05.19-.05.29v1.99h-.57v-1.93c0-.51-.23-.88-.67-.88-.37,0-.63.29-.73.59-.03.09-.05.19-.05.29v1.94h-.57v-2.35Z"/>
          <path class="cls-2" d="M116.46,27.27c0-.41-.01-.75-.03-1.05h.53l.03.55h.01c.24-.39.62-.62,1.14-.62.78,0,1.36.66,1.36,1.64,0,1.16-.71,1.73-1.46,1.73-.43,0-.8-.19-.99-.51h-.01v1.75h-.58v-3.49ZM117.04,28.13c0,.09.01.17.03.24.11.41.46.69.88.69.62,0,.98-.51.98-1.24,0-.65-.34-1.2-.96-1.2-.4,0-.77.29-.88.72-.02.07-.04.16-.04.24v.55Z"/>
          <path class="cls-2" d="M122.03,29.44l-.05-.41h-.02c-.18.25-.53.48-.98.48-.65,0-.98-.46-.98-.92,0-.78.69-1.2,1.94-1.2v-.07c0-.27-.07-.75-.73-.75-.3,0-.61.09-.84.24l-.13-.39c.27-.17.65-.29,1.06-.29.99,0,1.22.67,1.22,1.32v1.2c0,.28.01.55.05.77h-.53ZM121.94,27.8c-.64-.01-1.36.1-1.36.73,0,.38.25.56.55.56.42,0,.68-.27.78-.54.02-.06.03-.13.03-.19v-.56Z"/>
          <path class="cls-2" d="M125.75,29.32c-.15.08-.49.19-.92.19-.97,0-1.6-.66-1.6-1.64s.68-1.71,1.73-1.71c.35,0,.65.09.81.17l-.13.45c-.14-.08-.36-.15-.68-.15-.74,0-1.14.55-1.14,1.22,0,.75.48,1.2,1.12,1.2.33,0,.55-.09.72-.16l.1.44Z"/>
          <path class="cls-2" d="M127.22,25.3v.92h.84v.45h-.84v1.74c0,.4.11.63.44.63.15,0,.27-.02.34-.04l.03.44c-.11.05-.29.08-.52.08-.27,0-.49-.09-.63-.25-.17-.17-.23-.46-.23-.84v-1.76h-.5v-.45h.5v-.77l.57-.15Z"/>
        </g>
        <g>
          <path class="cls-2" d="M85.24,35.79c0,1.19-.82,1.71-1.6,1.71-.87,0-1.54-.64-1.54-1.66,0-1.08.71-1.71,1.6-1.71s1.55.67,1.55,1.66ZM82.68,35.82c0,.71.41,1.24.98,1.24s.98-.53.98-1.25c0-.55-.27-1.24-.96-1.24s-.99.64-.99,1.25Z"/>
          <path class="cls-2" d="M85.98,35.08c0-.33,0-.61-.03-.87h.52l.03.53h.01c.16-.31.53-.61,1.06-.61.45,0,1.14.27,1.14,1.37v1.92h-.59v-1.86c0-.52-.19-.95-.75-.95-.39,0-.69.27-.79.6-.03.07-.04.17-.04.27v1.94h-.59v-2.35Z"/>
          <path class="cls-2" d="M91,36.83c.17.11.48.23.77.23.43,0,.62-.21.62-.48,0-.28-.17-.43-.6-.59-.58-.21-.85-.53-.85-.91,0-.52.42-.94,1.11-.94.33,0,.61.09.79.2l-.15.43c-.13-.08-.36-.19-.66-.19-.35,0-.54.2-.54.44,0,.27.19.39.61.55.56.21.85.49.85.97,0,.57-.44.96-1.2.96-.35,0-.68-.09-.9-.22l.15-.45Z"/>
          <path class="cls-2" d="M94.42,33.28v.92h.84v.45h-.84v1.74c0,.4.11.63.44.63.15,0,.27-.02.34-.04l.03.44c-.11.05-.29.08-.52.08-.27,0-.49-.09-.63-.25-.17-.17-.23-.46-.23-.84v-1.76h-.5v-.45h.5v-.77l.57-.15Z"/>
          <path class="cls-2" d="M97.7,37.43l-.05-.41h-.02c-.18.25-.53.48-.98.48-.65,0-.98-.46-.98-.92,0-.78.69-1.2,1.94-1.2v-.07c0-.27-.07-.75-.73-.75-.3,0-.61.09-.84.24l-.13-.39c.27-.17.65-.29,1.06-.29.98,0,1.22.67,1.22,1.32v1.2c0,.28.01.55.05.77h-.53ZM97.61,35.78c-.64-.01-1.36.1-1.36.73,0,.38.25.56.55.56.42,0,.69-.27.78-.54.02-.06.03-.13.03-.19v-.56Z"/>
          <path class="cls-2" d="M99.7,35.68h.01c.08-.11.19-.25.29-.37l.94-1.11h.71l-1.24,1.32,1.42,1.9h-.71l-1.11-1.54-.3.33v1.21h-.58v-4.72h.58v2.98Z"/>
          <path class="cls-2" d="M102.57,35.92c.01.79.52,1.12,1.1,1.12.42,0,.67-.07.89-.17l.1.42c-.21.09-.56.2-1.07.2-.99,0-1.58-.65-1.58-1.62s.57-1.74,1.51-1.74c1.05,0,1.33.92,1.33,1.52,0,.12-.01.21-.02.27h-2.26ZM104.29,35.5c0-.37-.15-.95-.81-.95-.59,0-.85.55-.9.95h1.71Z"/>
          <path class="cls-2" d="M105.58,32.7h.59v2.01h.01c.09-.17.24-.31.42-.41.17-.1.38-.17.6-.17.43,0,1.12.27,1.12,1.38v1.92h-.58v-1.85c0-.52-.19-.96-.75-.96-.38,0-.68.27-.79.59-.03.08-.04.17-.04.28v1.94h-.59v-4.72Z"/>
          <path class="cls-2" d="M112.19,35.79c0,1.19-.83,1.71-1.6,1.71-.87,0-1.54-.64-1.54-1.66,0-1.08.71-1.71,1.6-1.71s1.55.67,1.55,1.66ZM109.63,35.82c0,.71.41,1.24.98,1.24s.98-.53.98-1.25c0-.55-.27-1.24-.96-1.24s-.99.64-.99,1.25Z"/>
          <path class="cls-2" d="M112.93,32.7h.59v4.72h-.59v-4.72Z"/>
          <path class="cls-2" d="M117.28,32.7v3.89c0,.29,0,.61.03.83h-.53l-.03-.56h-.01c-.18.36-.57.63-1.1.63-.78,0-1.38-.66-1.38-1.64,0-1.07.66-1.73,1.44-1.73.49,0,.83.23.97.49h.01v-1.92h.59ZM116.69,35.52c0-.07,0-.17-.03-.25-.09-.37-.41-.68-.84-.68-.61,0-.96.53-.96,1.24,0,.65.32,1.19.95,1.19.39,0,.75-.26.86-.7.02-.08.03-.16.03-.25v-.56Z"/>
          <path class="cls-2" d="M118.58,35.92c.01.79.52,1.12,1.1,1.12.42,0,.67-.07.89-.17l.1.42c-.21.09-.56.2-1.07.2-.99,0-1.58-.65-1.58-1.62s.57-1.74,1.51-1.74c1.05,0,1.33.92,1.33,1.52,0,.12-.01.21-.02.27h-2.26ZM120.29,35.5c0-.37-.15-.95-.81-.95-.59,0-.85.55-.9.95h1.71Z"/>
          <path class="cls-2" d="M121.58,35.21c0-.38,0-.71-.03-1h.51l.02.63h.03c.15-.43.5-.71.89-.71.07,0,.11,0,.17.02v.55c-.06-.01-.12-.02-.2-.02-.41,0-.71.31-.79.75-.01.08-.03.17-.03.27v1.72h-.58v-2.22Z"/>
        </g>
        <g>
          <path class="cls-2" d="M89.01,45.41l-.05-.41h-.02c-.18.25-.53.48-.98.48-.65,0-.98-.46-.98-.92,0-.78.69-1.2,1.94-1.2v-.07c0-.27-.07-.75-.73-.75-.3,0-.61.09-.84.24l-.13-.39c.27-.17.65-.29,1.06-.29.98,0,1.22.67,1.22,1.32v1.2c0,.28.01.55.05.77h-.53ZM88.92,43.77c-.64-.01-1.36.1-1.36.73,0,.38.25.56.55.56.42,0,.69-.27.78-.54.02-.06.03-.13.03-.19v-.56Z"/>
          <path class="cls-2" d="M90.44,43.06c0-.33,0-.61-.03-.87h.52l.03.53h.01c.16-.31.53-.61,1.06-.61.45,0,1.14.27,1.14,1.37v1.92h-.59v-1.86c0-.52-.19-.95-.75-.95-.39,0-.69.27-.79.6-.03.07-.04.17-.04.27v1.94h-.59v-2.35Z"/>
          <path class="cls-2" d="M96.91,40.69v3.89c0,.29,0,.61.03.83h-.53l-.03-.56h-.01c-.18.36-.57.63-1.1.63-.78,0-1.38-.66-1.38-1.64,0-1.07.66-1.73,1.44-1.73.49,0,.83.23.97.49h.01v-1.92h.59ZM96.32,43.5c0-.07,0-.17-.03-.25-.09-.37-.41-.68-.84-.68-.61,0-.96.53-.96,1.24,0,.65.32,1.19.95,1.19.39,0,.75-.26.86-.7.02-.08.03-.16.03-.25v-.56Z"/>
          <path class="cls-2" d="M99.21,44.81c.17.11.48.23.77.23.43,0,.62-.21.62-.48,0-.28-.17-.43-.6-.59-.58-.21-.85-.53-.85-.91,0-.52.42-.94,1.11-.94.33,0,.61.09.79.2l-.15.43c-.13-.08-.36-.19-.66-.19-.35,0-.54.2-.54.44,0,.27.19.39.61.55.56.21.85.49.85.97,0,.57-.44.96-1.2.96-.35,0-.68-.09-.9-.22l.15-.45Z"/>
          <path class="cls-2" d="M104.84,43.77c0,1.19-.82,1.71-1.6,1.71-.87,0-1.54-.64-1.54-1.66,0-1.08.71-1.71,1.6-1.71s1.55.67,1.55,1.66ZM102.29,43.81c0,.71.41,1.24.98,1.24s.98-.53.98-1.25c0-.55-.27-1.24-.96-1.24s-.99.64-.99,1.25Z"/>
          <path class="cls-2" d="M107.88,45.29c-.15.08-.49.19-.92.19-.97,0-1.6-.66-1.6-1.64s.68-1.71,1.73-1.71c.35,0,.65.09.81.17l-.13.45c-.14-.08-.36-.15-.68-.15-.74,0-1.14.55-1.14,1.22,0,.75.48,1.2,1.12,1.2.33,0,.55-.09.72-.16l.1.44Z"/>
          <path class="cls-2" d="M109.21,41.29c0,.2-.14.36-.37.36-.21,0-.35-.16-.35-.36s.15-.37.37-.37.36.16.36.37ZM108.56,45.41v-3.22h.59v3.22h-.59Z"/>
          <path class="cls-2" d="M110.44,43.91c.01.79.52,1.12,1.1,1.12.42,0,.67-.07.89-.17l.1.42c-.21.09-.56.2-1.07.2-.99,0-1.58-.65-1.58-1.62s.57-1.74,1.51-1.74c1.05,0,1.33.92,1.33,1.52,0,.12-.01.21-.02.27h-2.26ZM112.16,43.49c0-.37-.15-.95-.81-.95-.59,0-.85.55-.9.95h1.71Z"/>
          <path class="cls-2" d="M114.16,41.27v.92h.84v.45h-.84v1.74c0,.4.11.63.44.63.15,0,.27-.02.34-.04l.03.44c-.11.05-.29.08-.52.08-.27,0-.49-.09-.63-.25-.17-.17-.23-.46-.23-.84v-1.76h-.5v-.45h.5v-.77l.57-.15Z"/>
          <path class="cls-2" d="M115.92,42.19l.71,1.9c.07.21.15.47.21.66h.01c.06-.19.13-.44.21-.67l.64-1.89h.62l-.88,2.29c-.42,1.1-.71,1.67-1.1,2.02-.29.25-.57.35-.72.38l-.15-.49c.15-.05.34-.14.51-.29.16-.13.36-.35.49-.65.03-.06.05-.11.05-.14s-.01-.08-.04-.15l-1.19-2.97h.64Z"/>
        </g>
        <g>
          <path class="cls-2" d="M26.88,40.77c-.21.11-.64.21-1.18.21-1.26,0-2.22-.8-2.22-2.27s.95-2.36,2.34-2.36c.56,0,.91.12,1.06.2l-.14.47c-.22-.11-.53-.19-.9-.19-1.05,0-1.75.67-1.75,1.85,0,1.1.63,1.8,1.72,1.8.35,0,.71-.07.94-.19l.12.46Z"/>
          <path class="cls-2" d="M30.43,39.28c0,1.19-.82,1.71-1.6,1.71-.87,0-1.54-.64-1.54-1.66,0-1.08.71-1.71,1.6-1.71s1.55.67,1.55,1.66ZM27.88,39.32c0,.71.41,1.24.98,1.24s.98-.53.98-1.25c0-.55-.27-1.24-.96-1.24s-.99.64-.99,1.25Z"/>
          <path class="cls-2" d="M31.17,38.57c0-.33,0-.61-.03-.87h.51l.03.52h.02c.18-.31.48-.59,1.01-.59.44,0,.77.27.91.65h.01c.1-.18.23-.32.36-.42.19-.15.41-.23.71-.23.43,0,1.06.28,1.06,1.4v1.9h-.57v-1.82c0-.62-.23-.99-.7-.99-.33,0-.59.25-.69.53-.03.08-.05.19-.05.29v1.99h-.57v-1.93c0-.51-.23-.88-.67-.88-.37,0-.63.29-.73.59-.03.09-.05.19-.05.29v1.94h-.57v-2.35Z"/>
          <path class="cls-2" d="M36.72,38.75c0-.41-.01-.75-.03-1.05h.53l.03.55h.01c.24-.39.62-.62,1.14-.62.78,0,1.36.66,1.36,1.64,0,1.16-.71,1.73-1.46,1.73-.43,0-.8-.19-.99-.51h-.01v1.75h-.58v-3.49ZM37.3,39.61c0,.09.01.17.03.24.11.41.46.69.88.69.62,0,.98-.51.98-1.24,0-.65-.34-1.2-.96-1.2-.4,0-.77.29-.88.72-.02.07-.04.16-.04.24v.55Z"/>
          <path class="cls-2" d="M42.29,40.92l-.05-.41h-.02c-.18.25-.53.48-.98.48-.65,0-.98-.46-.98-.92,0-.78.69-1.2,1.94-1.2v-.07c0-.27-.07-.75-.73-.75-.3,0-.61.09-.84.24l-.13-.39c.27-.17.65-.29,1.06-.29.98,0,1.22.67,1.22,1.32v1.2c0,.28.01.55.05.77h-.53ZM42.2,39.28c-.64-.01-1.36.1-1.36.73,0,.38.25.56.55.56.42,0,.69-.27.78-.54.02-.06.03-.13.03-.19v-.56Z"/>
          <path class="cls-2" d="M43.72,38.57c0-.33,0-.61-.03-.87h.52l.03.53h.01c.16-.31.53-.61,1.06-.61.45,0,1.14.27,1.14,1.37v1.92h-.59v-1.86c0-.52-.19-.95-.75-.95-.39,0-.69.27-.79.6-.03.07-.04.17-.04.27v1.94h-.59v-2.35Z"/>
          <path class="cls-2" d="M47.54,37.7l.71,1.9c.07.21.15.47.21.66h.01c.06-.19.13-.44.21-.67l.64-1.89h.62l-.88,2.29c-.42,1.1-.71,1.67-1.1,2.02-.29.25-.57.35-.72.38l-.15-.49c.15-.05.34-.14.51-.29.16-.13.36-.35.49-.65.03-.06.05-.11.05-.14s-.01-.08-.04-.15l-1.19-2.97h.64Z"/>
        </g>
        <rect class="cls-3" x="16.25" y="34.92" width="40.72" height="8.37"/>
        <g>
          <path class="cls-2" d="M156.78,38.95c-.03-.62-.07-1.38-.07-1.94h-.02c-.15.53-.34,1.08-.57,1.7l-.79,2.18h-.44l-.73-2.14c-.21-.63-.39-1.21-.52-1.74h-.01c-.01.56-.05,1.31-.09,1.98l-.12,1.92h-.55l.31-4.48h.74l.76,2.17c.19.55.34,1.04.45,1.51h.02c.11-.45.27-.95.47-1.51l.8-2.17h.74l.28,4.48h-.57l-.11-1.97Z"/>
          <path class="cls-2" d="M160.16,40.92l-.05-.41h-.02c-.18.25-.53.48-.99.48-.65,0-.98-.46-.98-.92,0-.78.69-1.2,1.94-1.2v-.07c0-.27-.07-.75-.73-.75-.3,0-.61.09-.84.24l-.13-.39c.27-.17.65-.29,1.06-.29.98,0,1.22.67,1.22,1.32v1.2c0,.28.01.55.05.77h-.53ZM160.07,39.28c-.64-.01-1.36.1-1.36.73,0,.38.25.56.55.56.42,0,.69-.27.78-.54.02-.06.03-.13.03-.19v-.56Z"/>
          <path class="cls-2" d="M162.26,36.78v.92h.84v.45h-.84v1.74c0,.4.11.63.44.63.15,0,.27-.02.34-.04l.03.44c-.11.05-.29.08-.52.08-.27,0-.49-.09-.63-.25-.17-.17-.23-.46-.23-.84v-1.76h-.5v-.45h.5v-.77l.57-.15Z"/>
          <path class="cls-2" d="M164.05,39.42c.01.79.52,1.12,1.1,1.12.42,0,.67-.07.89-.17l.1.42c-.21.09-.56.2-1.07.2-.99,0-1.58-.65-1.58-1.62s.57-1.74,1.51-1.74c1.05,0,1.33.92,1.33,1.52,0,.12-.01.21-.02.27h-2.26ZM165.77,39c0-.37-.15-.95-.81-.95-.59,0-.85.55-.9.95h1.71Z"/>
          <path class="cls-2" d="M167.06,38.71c0-.38,0-.71-.03-1h.51l.02.63h.03c.15-.43.5-.71.89-.71.07,0,.11,0,.17.02v.55c-.06-.01-.12-.02-.2-.02-.41,0-.71.31-.79.75-.01.08-.03.17-.03.27v1.72h-.58v-2.22Z"/>
          <path class="cls-2" d="M169.91,36.8c0,.2-.14.36-.37.36-.21,0-.35-.16-.35-.36s.15-.37.37-.37.36.16.36.37ZM169.25,40.92v-3.22h.58v3.22h-.58Z"/>
          <path class="cls-2" d="M172.59,40.92l-.05-.41h-.02c-.18.25-.53.48-.99.48-.65,0-.98-.46-.98-.92,0-.78.69-1.2,1.94-1.2v-.07c0-.27-.07-.75-.73-.75-.3,0-.61.09-.84.24l-.13-.39c.27-.17.65-.29,1.06-.29.98,0,1.22.67,1.22,1.32v1.2c0,.28.01.55.05.77h-.53ZM172.51,39.28c-.64-.01-1.36.1-1.36.73,0,.38.25.56.55.56.42,0,.69-.27.78-.54.02-.06.03-.13.03-.19v-.56Z"/>
          <path class="cls-2" d="M174.02,36.2h.58v4.72h-.58v-4.72Z"/>
          <path class="cls-2" d="M177.6,36.44v4.48h-.58v-4.48h.58Z"/>
          <path class="cls-2" d="M178.51,40.32c.17.11.48.23.77.23.43,0,.62-.21.62-.48,0-.28-.17-.43-.6-.59-.58-.21-.85-.53-.85-.91,0-.52.42-.94,1.11-.94.33,0,.61.09.79.2l-.15.43c-.13-.08-.36-.19-.66-.19-.35,0-.54.2-.54.44,0,.27.19.39.61.55.56.21.85.49.85.97,0,.57-.44.96-1.21.96-.35,0-.68-.09-.9-.22l.15-.45Z"/>
          <path class="cls-2" d="M181.15,40.32c.17.11.48.23.77.23.43,0,.62-.21.62-.48,0-.28-.17-.43-.6-.59-.58-.21-.85-.53-.85-.91,0-.52.42-.94,1.11-.94.33,0,.61.09.79.2l-.15.43c-.13-.08-.36-.19-.66-.19-.35,0-.54.2-.54.44,0,.27.19.39.61.55.56.21.84.49.84.97,0,.57-.44.96-1.2.96-.35,0-.68-.09-.91-.22l.15-.45Z"/>
          <path class="cls-2" d="M186.56,40.04c0,.33,0,.62.03.88h-.52l-.03-.53h-.01c-.15.26-.49.6-1.06.6-.51,0-1.11-.28-1.11-1.41v-1.88h.59v1.78c0,.61.19,1.02.72,1.02.39,0,.67-.27.77-.53.03-.09.05-.19.05-.3v-1.98h.59v2.34Z"/>
          <path class="cls-2" d="M187.85,39.42c.01.79.52,1.12,1.1,1.12.42,0,.67-.07.89-.17l.1.42c-.21.09-.56.2-1.07.2-.99,0-1.58-.65-1.58-1.62s.57-1.74,1.51-1.74c1.05,0,1.33.92,1.33,1.52,0,.12-.01.21-.02.27h-2.26ZM189.57,39c0-.37-.15-.95-.81-.95-.59,0-.85.55-.9.95h1.71Z"/>
        </g>
        <rect class="cls-3" x="147.62" y="34.92" width="47.62" height="8.37"/>
        <line class="cls-3" x1="59.49" y1="19.42" x2="140.94" y2="19.42"/>
        <polygon class="cls-3" points="144.67 19.42 140.82 17.2 140.82 21.65 144.67 19.42"/>
        <path class="cls-3" d="M33.81,28.95h-2.8M38.21,10.17h3.2M43,24.55h5.6v-3.2h-5.6v3.2ZM43,18.56h5.6v-3.2h-5.6v3.2ZM35.01,28.95h13.58V10.14c0,.69-.56,1.16-1.15,1.16-.25,0-.5-.08-.72-.26l-4.19-3.4c-.2-.17-.46-.26-.73-.26h-6.79v6.79M48.6,10.14c0,.69-.56,1.16-1.16,1.16-.25,0-.5-.08-.72-.26l-4.19-3.4c-.2-.17-.46-.26-.73-.26h-7.23c-.64,0-1.15-.51-1.15-1.15v-.09c0-.64.51-1.15,1.15-1.15h8.42l.32.23,2.6,2.17,2.26,1.89c.26.22.42.54.42.88ZM29.41,12.16l.4-1.2h-.8l.4-1.2M26.62,12.16l.4-1.2h-.8l.4-1.2M39.84,25.35h-5.67l.32-3.2h5.03l.32,3.2ZM40.2,28.95h-6.39l.36-3.6.32-3.2.52-5.2h4l.52,5.2.32,3.2.36,3.6ZM39.01,16.96h-4c-.66,0-1.2-.54-1.2-1.2v-.4c0-.66.54-1.2,1.2-1.2h4c.66,0,1.2.54,1.2,1.2v.4c0,.66-.54,1.2-1.2,1.2ZM30.65,25.35h-5.67l.32-3.2h5.04l.32,3.2ZM31.01,28.95h-6.39l.36-3.6.32-3.2.52-5.2h4l.52,5.2.32,3.2.36,3.6ZM29.81,16.96h-4c-.66,0-1.2-.54-1.2-1.2v-.4c0-.66.54-1.2,1.2-1.2h4c.66,0,1.2.54,1.2,1.2v.4c0,.66-.54,1.2-1.2,1.2Z"/>
        <path class="cls-3" d="M164.06,28.95h14.39M171.25,8.17v2M171.25,25.75v-2M178.05,16.96c0,1.05-.24,2.03-.66,2.92-.19.05-.39.08-.58.11-.93.13-1.89.1-2.83.06-.12,0-.27-.03-.32-.14-.04-.1.02-.2.07-.28.49-.74,1.29-1.34,1.37-2.23.04-.44-.13-.89-.37-1.27-.24-.38-.54-.71-.81-1.07-.14-.2-.28-.4-.33-.64-.09-.43.11-.87.39-1.22.03-.04.06-.07.09-.11.27-.3.59-.55.94-.76.26-.16.53-.29.8-.42,1.37,1.24,2.23,3.04,2.23,5.04ZM171.14,18.01c-.22.38-.4.78-.64,1.14-.24.36-.58.69-.99.83-.12-.79-.23-1.58-.35-2.37-.02-.18-.06-.37-.21-.47-.09-.06-.21-.08-.32-.08-.45,0-.89.18-1.22.5-.3.29-.5.7-.87.91-.23.14-.51.18-.78.2-.36.02-.73.02-1.1-.02-.13-.54-.2-1.1-.2-1.67,0-3.32,2.39-6.09,5.54-6.68.05.03.09.06.14.09.05.04.1.07.16.1.39.26.79.59.9,1.05.09.39-.05.8-.22,1.16-.2.45-.45.87-.73,1.28-.17.24-.36.5-.36.79,0,.44.38.77.75,1,.37.23.79.48.9.9.13.46-.16.92-.4,1.34ZM182.44,16.96c0,2.68-.95,5.14-2.53,7.07-1.64,2.01-3.98,3.45-6.64,3.93-.48.09-.82.5-.82.98h-3.2c-.44,0-.8-.36-.8-.8v-1.6c0-.44.36-.8.8-.8h1.78c4.76,0,8.82-3.69,9-8.45.19-5-3.82-9.13-8.79-9.13h-1.6c-.44,0-.8-.36-.8-.8v-1.6c0-.44.36-.8.8-.8h2.8v.86c5.61.6,9.99,5.36,9.99,11.13ZM178.05,16.96c0,1.05-.24,2.03-.66,2.92-1.09,2.29-3.43,3.88-6.14,3.88-3.18,0-5.84-2.18-6.59-5.12-.13-.54-.2-1.1-.2-1.67,0-3.32,2.39-6.09,5.54-6.68.41-.08.83-.12,1.25-.12,1.76,0,3.35.66,4.56,1.76,1.37,1.24,2.23,3.04,2.23,5.04Z"/>
      </g>
    </g>
  </g>
</svg>