<?xml version="1.0" encoding="UTF-8"?>
<svg xmlns="http://www.w3.org/2000/svg" version="1.1" viewBox="0 0 211.49 50.17">
  <defs>
    <style>
      .cls-1 {
        fill: #26aed2;
      }

      .cls-2 {
        fill: #fff;
      }

      .cls-3 {
        fill: none;
        stroke: #33474f;
        stroke-linecap: round;
        stroke-linejoin: round;
        stroke-width: .5px;
      }
    </style>
  </defs>
  <!-- Generator: Adobe Illustrator 28.7.5, SVG Export Plug-In . SVG Version: 1.2.0 Build 176)  -->
  <g>
    <g id="Layer_1">
      <g>
        <rect class="cls-1" width="211.49" height="50.17" rx="6.48" ry="6.48"/>
        <g>
          <path class="cls-2" d="M71.34,4.91h3.11v.62h-2.36v1.92h2.18v.62h-2.18v2.61h-.75v-5.77Z"/>
          <path class="cls-2" d="M76.1,5.37c0,.26-.18.46-.48.46-.27,0-.45-.21-.45-.46s.2-.47.47-.47.46.21.46.47ZM75.26,10.68v-4.14h.75v4.14h-.75Z"/>
          <path class="cls-2" d="M77.27,7.66c0-.43,0-.78-.03-1.12h.67l.04.69h.02c.21-.39.68-.78,1.37-.78.57,0,1.46.34,1.46,1.76v2.47h-.75v-2.39c0-.67-.25-1.22-.96-1.22-.5,0-.88.35-1.01.77-.03.09-.05.22-.05.35v2.49h-.75v-3.02Z"/>
          <path class="cls-2" d="M84.31,10.68l-.06-.52h-.03c-.23.33-.68.62-1.27.62-.84,0-1.27-.59-1.27-1.19,0-1,.89-1.55,2.49-1.54v-.08c0-.34-.09-.96-.94-.96-.39,0-.79.12-1.08.31l-.17-.5c.34-.22.84-.37,1.36-.37,1.27,0,1.57.86,1.57,1.7v1.55c0,.36.02.71.07.99h-.69ZM84.2,8.56c-.82-.02-1.75.13-1.75.93,0,.49.33.72.71.72.54,0,.88-.34,1-.69.03-.08.04-.16.04-.24v-.72Z"/>
          <path class="cls-2" d="M86.14,7.66c0-.43,0-.78-.03-1.12h.67l.04.69h.02c.21-.39.68-.78,1.37-.78.57,0,1.46.34,1.46,1.76v2.47h-.75v-2.39c0-.67-.25-1.22-.96-1.22-.5,0-.88.35-1.01.77-.03.09-.05.22-.05.35v2.49h-.75v-3.02Z"/>
          <path class="cls-2" d="M93.84,10.52c-.2.1-.63.24-1.19.24-1.25,0-2.06-.85-2.06-2.11s.87-2.2,2.23-2.2c.45,0,.84.11,1.04.21l-.17.58c-.18-.1-.46-.2-.87-.2-.95,0-1.46.7-1.46,1.57,0,.96.62,1.55,1.44,1.55.43,0,.71-.11.92-.21l.13.56Z"/>
          <path class="cls-2" d="M95.56,5.37c0,.26-.18.46-.48.46-.27,0-.45-.21-.45-.46s.2-.47.47-.47.46.21.46.47ZM94.72,10.68v-4.14h.75v4.14h-.75Z"/>
          <path class="cls-2" d="M99.01,10.68l-.06-.52h-.03c-.23.33-.68.62-1.27.62-.84,0-1.27-.59-1.27-1.19,0-1,.89-1.55,2.49-1.54v-.08c0-.34-.09-.96-.94-.96-.39,0-.79.12-1.08.31l-.17-.5c.34-.22.84-.37,1.36-.37,1.27,0,1.57.86,1.57,1.7v1.55c0,.36.02.71.07.99h-.69ZM98.9,8.56c-.82-.02-1.75.13-1.75.93,0,.49.33.72.71.72.54,0,.88-.34,1-.69.03-.08.04-.16.04-.24v-.72Z"/>
          <path class="cls-2" d="M100.84,4.6h.75v6.08h-.75v-6.08Z"/>
          <path class="cls-2" d="M109.57,8.14c-.04-.8-.09-1.77-.09-2.49h-.03c-.2.68-.44,1.39-.73,2.19l-1.02,2.8h-.57l-.93-2.75c-.27-.81-.5-1.56-.67-2.24h-.02c-.02.72-.06,1.69-.11,2.55l-.15,2.47h-.71l.4-5.77h.95l.98,2.79c.24.71.44,1.34.58,1.94h.03c.15-.58.35-1.21.61-1.94l1.03-2.79h.95l.36,5.77h-.73l-.15-2.53Z"/>
          <path class="cls-2" d="M113.9,10.68l-.06-.52h-.03c-.23.33-.68.62-1.27.62-.84,0-1.27-.59-1.27-1.19,0-1,.89-1.55,2.49-1.54v-.08c0-.34-.09-.96-.94-.96-.38,0-.79.12-1.08.31l-.17-.5c.34-.22.84-.37,1.36-.37,1.27,0,1.58.86,1.58,1.7v1.55c0,.36.02.71.07.99h-.68ZM113.79,8.56c-.82-.02-1.75.13-1.75.93,0,.49.33.72.71.72.54,0,.88-.34,1-.69.03-.08.04-.16.04-.24v-.72Z"/>
          <path class="cls-2" d="M116.6,5.35v1.19h1.08v.57h-1.08v2.23c0,.51.15.8.57.8.2,0,.34-.03.44-.05l.03.56c-.15.06-.38.1-.67.1-.35,0-.63-.11-.81-.32-.21-.22-.29-.59-.29-1.08v-2.26h-.64v-.57h.64v-.99l.74-.2Z"/>
          <path class="cls-2" d="M118.9,8.74c.02,1.02.67,1.44,1.42,1.44.54,0,.86-.09,1.15-.21l.13.54c-.27.12-.72.26-1.38.26-1.28,0-2.04-.84-2.04-2.09s.74-2.23,1.94-2.23c1.35,0,1.71,1.19,1.71,1.95,0,.15-.02.27-.03.35h-2.91ZM121.11,8.21c0-.48-.2-1.22-1.04-1.22-.76,0-1.1.7-1.16,1.22h2.2Z"/>
          <path class="cls-2" d="M122.77,7.83c0-.49,0-.91-.03-1.29h.66l.03.81h.03c.19-.56.64-.91,1.15-.91.09,0,.15,0,.21.03v.71c-.08-.02-.15-.03-.26-.03-.53,0-.91.4-1.01.97-.02.1-.03.22-.03.35v2.21h-.74v-2.85Z"/>
          <path class="cls-2" d="M126.43,5.37c0,.26-.18.46-.48.46-.27,0-.45-.21-.45-.46s.2-.47.47-.47.46.21.46.47ZM125.6,10.68v-4.14h.75v4.14h-.75Z"/>
          <path class="cls-2" d="M129.89,10.68l-.06-.52h-.03c-.23.33-.68.62-1.27.62-.84,0-1.27-.59-1.27-1.19,0-1,.89-1.55,2.49-1.54v-.08c0-.34-.09-.96-.94-.96-.38,0-.79.12-1.08.31l-.17-.5c.34-.22.84-.37,1.36-.37,1.27,0,1.58.86,1.58,1.7v1.55c0,.36.02.71.07.99h-.68ZM129.78,8.56c-.82-.02-1.75.13-1.75.93,0,.49.33.72.71.72.54,0,.88-.34,1-.69.03-.08.04-.16.04-.24v-.72Z"/>
          <path class="cls-2" d="M131.72,4.6h.75v6.08h-.75v-6.08Z"/>
          <path class="cls-2" d="M134.58,5.37c0,.26-.18.46-.48.46-.27,0-.45-.21-.45-.46s.2-.47.47-.47.46.21.46.47ZM133.74,10.68v-4.14h.75v4.14h-.75Z"/>
          <path class="cls-2" d="M136.65,5.35v1.19h1.08v.57h-1.08v2.23c0,.51.15.8.56.8.2,0,.34-.03.44-.05l.03.56c-.15.06-.38.1-.67.1-.35,0-.63-.11-.81-.32-.21-.22-.29-.59-.29-1.08v-2.26h-.64v-.57h.64v-.99l.74-.2Z"/>
          <path class="cls-2" d="M138.92,6.54l.91,2.45c.09.27.2.6.27.85h.02c.08-.25.16-.56.26-.86l.82-2.43h.8l-1.13,2.95c-.54,1.42-.91,2.15-1.42,2.59-.37.33-.74.45-.92.49l-.19-.63c.19-.06.44-.18.66-.37.21-.16.46-.45.63-.84.03-.08.06-.14.06-.18s-.02-.1-.05-.2l-1.53-3.82h.82Z"/>
        </g>
        <g>
          <path class="cls-2" d="M75.65,27.47c-.03-.63-.07-1.38-.07-1.94h-.02c-.15.53-.34,1.08-.57,1.7l-.79,2.18h-.44l-.73-2.14c-.21-.63-.39-1.21-.52-1.74h-.01c-.01.56-.05,1.31-.09,1.98l-.12,1.92h-.55l.31-4.48h.74l.77,2.17c.19.55.34,1.04.45,1.51h.02c.11-.45.27-.95.47-1.51l.8-2.17h.74l.28,4.48h-.57l-.11-1.97Z"/>
          <path class="cls-2" d="M79.03,29.44l-.05-.41h-.02c-.18.25-.53.48-.98.48-.65,0-.98-.46-.98-.92,0-.78.69-1.2,1.94-1.2v-.07c0-.27-.07-.75-.73-.75-.3,0-.61.09-.84.24l-.13-.39c.27-.17.65-.29,1.06-.29.98,0,1.22.67,1.22,1.32v1.2c0,.28.01.55.05.77h-.53ZM78.94,27.8c-.64-.01-1.36.1-1.36.73,0,.38.25.56.55.56.42,0,.69-.27.78-.54.02-.06.03-.13.03-.19v-.56Z"/>
          <path class="cls-2" d="M81.13,25.3v.92h.84v.45h-.84v1.74c0,.4.11.63.44.63.15,0,.27-.02.34-.04l.03.44c-.11.05-.29.08-.52.08-.27,0-.49-.09-.63-.25-.17-.17-.23-.46-.23-.84v-1.76h-.5v-.45h.5v-.77l.57-.15Z"/>
          <path class="cls-2" d="M82.92,27.94c.01.79.52,1.12,1.1,1.12.42,0,.67-.07.89-.17l.1.42c-.21.09-.56.2-1.07.2-.99,0-1.58-.65-1.58-1.62s.57-1.74,1.51-1.74c1.05,0,1.33.92,1.33,1.52,0,.12-.01.21-.02.27h-2.26ZM84.64,27.52c0-.37-.15-.95-.81-.95-.59,0-.85.55-.9.95h1.71Z"/>
          <path class="cls-2" d="M85.93,27.22c0-.38,0-.71-.03-1h.51l.02.63h.03c.15-.43.5-.71.89-.71.07,0,.11,0,.17.02v.55c-.06-.01-.12-.02-.2-.02-.41,0-.71.31-.79.75-.01.08-.03.17-.03.27v1.72h-.58v-2.22Z"/>
          <path class="cls-2" d="M88.78,25.32c0,.2-.14.36-.37.36-.21,0-.35-.16-.35-.36s.15-.37.37-.37.36.16.36.37ZM88.13,29.44v-3.22h.59v3.22h-.59Z"/>
          <path class="cls-2" d="M91.47,29.44l-.05-.41h-.02c-.18.25-.53.48-.98.48-.65,0-.98-.46-.98-.92,0-.78.69-1.2,1.94-1.2v-.07c0-.27-.07-.75-.73-.75-.3,0-.61.09-.84.24l-.13-.39c.27-.17.65-.29,1.06-.29.98,0,1.22.67,1.22,1.32v1.2c0,.28.01.55.05.77h-.53ZM91.38,27.8c-.64-.01-1.36.1-1.36.73,0,.38.25.56.55.56.42,0,.69-.27.78-.54.02-.06.03-.13.03-.19v-.56Z"/>
          <path class="cls-2" d="M92.89,24.72h.59v4.72h-.59v-4.72Z"/>
          <path class="cls-2" d="M96.53,25.32c0,.2-.14.36-.37.36-.21,0-.35-.16-.35-.36s.15-.37.37-.37.36.16.36.37ZM95.88,29.44v-3.22h.59v3.22h-.59Z"/>
          <path class="cls-2" d="M97.35,28.84c.17.11.48.23.77.23.43,0,.62-.21.62-.48,0-.28-.17-.43-.6-.59-.58-.21-.85-.53-.85-.91,0-.52.42-.94,1.11-.94.33,0,.61.09.79.2l-.15.43c-.13-.08-.36-.19-.66-.19-.35,0-.54.2-.54.44,0,.27.19.39.61.55.56.21.85.49.85.97,0,.57-.44.96-1.2.96-.35,0-.68-.09-.9-.22l.15-.45Z"/>
          <path class="cls-2" d="M99.99,28.84c.17.11.48.23.77.23.43,0,.62-.21.62-.48,0-.28-.17-.43-.6-.59-.58-.21-.85-.53-.85-.91,0-.52.42-.94,1.11-.94.33,0,.61.09.79.2l-.15.43c-.13-.08-.36-.19-.66-.19-.35,0-.54.2-.54.44,0,.27.19.39.61.55.56.21.85.49.85.97,0,.57-.44.96-1.2.96-.35,0-.68-.09-.9-.22l.15-.45Z"/>
          <path class="cls-2" d="M105.4,28.56c0,.33,0,.62.03.88h-.52l-.03-.53h-.01c-.15.26-.49.6-1.06.6-.51,0-1.11-.28-1.11-1.41v-1.88h.59v1.78c0,.61.19,1.03.72,1.03.39,0,.67-.27.77-.53.03-.09.05-.19.05-.3v-1.98h.59v2.34Z"/>
          <path class="cls-2" d="M106.69,27.94c.01.79.52,1.12,1.1,1.12.42,0,.67-.07.89-.17l.1.42c-.21.09-.56.2-1.07.2-.99,0-1.58-.65-1.58-1.62s.57-1.74,1.51-1.74c1.05,0,1.33.92,1.33,1.52,0,.12-.01.21-.02.27h-2.26ZM108.41,27.52c0-.37-.15-.95-.81-.95-.59,0-.85.55-.9.95h1.71Z"/>
          <path class="cls-2" d="M109.62,28.84c.17.11.48.23.77.23.43,0,.62-.21.62-.48,0-.28-.17-.43-.6-.59-.58-.21-.85-.53-.85-.91,0-.52.42-.94,1.11-.94.33,0,.61.09.79.2l-.15.43c-.13-.08-.36-.19-.66-.19-.35,0-.54.2-.54.44,0,.27.19.39.61.55.56.21.85.49.85.97,0,.57-.44.96-1.21.96-.35,0-.68-.09-.9-.22l.15-.45Z"/>
          <path class="cls-2" d="M114.4,25.32c0,.2-.14.36-.37.36-.21,0-.35-.16-.35-.36s.15-.37.37-.37.36.16.36.37ZM113.75,29.44v-3.22h.58v3.22h-.58Z"/>
          <path class="cls-2" d="M115.31,27.09c0-.33,0-.61-.03-.87h.51l.03.52h.02c.18-.31.48-.59,1.01-.59.44,0,.77.27.91.65h.01c.1-.18.23-.32.36-.42.19-.15.41-.23.71-.23.43,0,1.06.28,1.06,1.4v1.9h-.57v-1.82c0-.62-.23-.99-.7-.99-.33,0-.59.25-.69.53-.03.08-.05.19-.05.29v1.99h-.57v-1.93c0-.51-.23-.88-.67-.88-.37,0-.63.29-.72.59-.03.09-.05.19-.05.29v1.94h-.57v-2.35Z"/>
          <path class="cls-2" d="M120.86,27.27c0-.41-.01-.75-.03-1.05h.53l.03.55h.01c.24-.39.62-.62,1.14-.62.78,0,1.36.66,1.36,1.64,0,1.16-.71,1.73-1.46,1.73-.43,0-.8-.19-.99-.51h-.01v1.75h-.58v-3.49ZM121.43,28.13c0,.09.01.17.03.24.11.41.46.69.88.69.62,0,.98-.51.98-1.24,0-.65-.34-1.2-.96-1.2-.4,0-.77.29-.88.72-.02.07-.04.16-.04.24v.55Z"/>
          <path class="cls-2" d="M126.42,29.44l-.05-.41h-.02c-.18.25-.53.48-.99.48-.65,0-.98-.46-.98-.92,0-.78.69-1.2,1.94-1.2v-.07c0-.27-.07-.75-.73-.75-.3,0-.61.09-.84.24l-.13-.39c.27-.17.65-.29,1.06-.29.98,0,1.22.67,1.22,1.32v1.2c0,.28.01.55.05.77h-.53ZM126.34,27.8c-.64-.01-1.36.1-1.36.73,0,.38.25.56.55.56.42,0,.69-.27.78-.54.02-.06.03-.13.03-.19v-.56Z"/>
          <path class="cls-2" d="M130.14,29.32c-.15.08-.49.19-.92.19-.97,0-1.6-.66-1.6-1.64s.68-1.71,1.73-1.71c.35,0,.65.09.81.17l-.13.45c-.14-.08-.36-.15-.68-.15-.74,0-1.14.54-1.14,1.22,0,.75.48,1.2,1.12,1.2.33,0,.55-.09.72-.16l.1.44Z"/>
          <path class="cls-2" d="M131.62,25.3v.92h.84v.45h-.84v1.74c0,.4.11.63.44.63.15,0,.27-.02.34-.04l.03.44c-.11.05-.29.08-.52.08-.27,0-.49-.09-.63-.25-.17-.17-.23-.46-.23-.84v-1.76h-.5v-.45h.5v-.77l.57-.15Z"/>
          <path class="cls-2" d="M137.44,27.8c0,1.19-.82,1.71-1.6,1.71-.87,0-1.54-.64-1.54-1.66,0-1.08.71-1.71,1.6-1.71s1.55.67,1.55,1.66ZM134.89,27.84c0,.71.41,1.24.98,1.24s.98-.53.98-1.25c0-.55-.27-1.24-.96-1.24s-.99.64-.99,1.25Z"/>
          <path class="cls-2" d="M138.18,27.09c0-.33,0-.61-.03-.87h.52l.03.53h.01c.16-.31.53-.61,1.06-.61.45,0,1.14.27,1.14,1.37v1.92h-.58v-1.86c0-.52-.19-.95-.75-.95-.39,0-.69.27-.79.6-.03.07-.04.17-.04.27v1.94h-.58v-2.35Z"/>
        </g>
        <g>
          <path class="cls-2" d="M76.4,37.31c-.15.08-.49.19-.92.19-.97,0-1.6-.66-1.6-1.64s.68-1.71,1.73-1.71c.35,0,.65.09.81.17l-.13.45c-.14-.08-.36-.15-.68-.15-.74,0-1.14.55-1.14,1.22,0,.75.48,1.2,1.12,1.2.33,0,.55-.09.72-.16l.1.44Z"/>
          <path class="cls-2" d="M79.97,35.79c0,1.19-.82,1.71-1.6,1.71-.87,0-1.54-.64-1.54-1.66,0-1.08.71-1.71,1.6-1.71s1.55.67,1.55,1.66ZM77.42,35.82c0,.71.41,1.24.98,1.24s.98-.53.98-1.25c0-.55-.27-1.24-.96-1.24s-.99.64-.99,1.25Z"/>
          <path class="cls-2" d="M80.71,35.08c0-.33,0-.61-.03-.87h.51l.03.52h.02c.18-.31.48-.59,1.01-.59.44,0,.77.27.91.65h.01c.1-.18.23-.32.36-.42.19-.15.41-.23.71-.23.43,0,1.06.28,1.06,1.4v1.9h-.57v-1.82c0-.62-.23-.99-.7-.99-.33,0-.59.25-.69.53-.03.08-.05.19-.05.29v1.99h-.57v-1.93c0-.51-.23-.88-.67-.88-.37,0-.63.29-.73.59-.03.09-.05.19-.05.29v1.94h-.57v-2.35Z"/>
          <path class="cls-2" d="M86.26,35.26c0-.41-.01-.75-.03-1.05h.53l.03.55h.01c.24-.39.62-.62,1.14-.62.78,0,1.36.66,1.36,1.64,0,1.16-.71,1.73-1.46,1.73-.43,0-.8-.19-.99-.51h-.01v1.75h-.58v-3.49ZM86.84,36.12c0,.09.01.17.03.24.11.41.46.69.88.69.62,0,.98-.51.98-1.24,0-.65-.34-1.2-.96-1.2-.4,0-.77.29-.88.72-.02.07-.04.16-.04.24v.55Z"/>
          <path class="cls-2" d="M91.83,37.43l-.05-.41h-.02c-.18.25-.53.48-.98.48-.65,0-.98-.46-.98-.92,0-.78.69-1.2,1.94-1.2v-.07c0-.27-.07-.75-.73-.75-.3,0-.61.09-.84.24l-.13-.39c.27-.17.65-.29,1.06-.29.98,0,1.22.67,1.22,1.32v1.2c0,.28.01.55.05.77h-.53ZM91.74,35.78c-.64-.01-1.36.1-1.36.73,0,.38.25.56.55.56.42,0,.69-.27.78-.54.02-.06.03-.13.03-.19v-.56Z"/>
          <path class="cls-2" d="M93.25,35.08c0-.33,0-.61-.03-.87h.52l.03.53h.01c.16-.31.53-.61,1.06-.61.45,0,1.14.27,1.14,1.37v1.92h-.59v-1.86c0-.52-.19-.95-.75-.95-.39,0-.69.27-.79.6-.03.07-.04.17-.04.27v1.94h-.59v-2.35Z"/>
          <path class="cls-2" d="M97.08,34.21l.71,1.9c.07.21.15.47.21.66h.01c.06-.19.13-.44.21-.67l.64-1.89h.62l-.88,2.29c-.42,1.1-.71,1.67-1.1,2.02-.29.25-.57.35-.72.38l-.15-.49c.15-.05.34-.14.51-.29.16-.13.36-.35.49-.65.03-.06.05-.11.05-.14s-.01-.08-.04-.15l-1.19-2.97h.64Z"/>
          <path class="cls-2" d="M101.41,35.26c0-.41-.01-.75-.03-1.05h.53l.03.55h.01c.24-.39.62-.62,1.14-.62.78,0,1.36.66,1.36,1.64,0,1.16-.71,1.73-1.46,1.73-.43,0-.8-.19-.99-.51h-.01v1.75h-.58v-3.49ZM101.99,36.12c0,.09.01.17.03.24.11.41.46.69.88.69.62,0,.98-.51.98-1.24,0-.65-.34-1.2-.96-1.2-.4,0-.77.29-.88.72-.02.07-.04.16-.04.24v.55Z"/>
          <path class="cls-2" d="M105.52,35.92c.01.79.52,1.12,1.1,1.12.42,0,.67-.07.89-.17l.1.42c-.21.09-.56.2-1.07.2-.99,0-1.58-.65-1.58-1.62s.57-1.74,1.51-1.74c1.05,0,1.33.92,1.33,1.52,0,.12-.01.21-.02.27h-2.26ZM107.24,35.5c0-.37-.15-.95-.81-.95-.59,0-.85.55-.9.95h1.71Z"/>
          <path class="cls-2" d="M108.53,35.21c0-.38,0-.71-.03-1h.51l.02.63h.03c.15-.43.5-.71.89-.71.07,0,.11,0,.17.02v.55c-.06-.01-.12-.02-.2-.02-.41,0-.71.31-.78.75-.01.08-.03.17-.03.27v1.72h-.58v-2.22Z"/>
          <path class="cls-2" d="M110.97,37.43v-2.77h-.45v-.45h.45v-.15c0-.45.1-.87.37-1.12.22-.21.51-.3.79-.3.21,0,.39.05.5.09l-.08.45c-.09-.04-.21-.07-.37-.07-.5,0-.62.44-.62.93v.17h.78v.45h-.78v2.77h-.58Z"/>
          <path class="cls-2" d="M115.68,35.79c0,1.19-.83,1.71-1.6,1.71-.87,0-1.54-.64-1.54-1.66,0-1.08.71-1.71,1.6-1.71s1.55.67,1.55,1.66ZM113.13,35.82c0,.71.41,1.24.98,1.24s.98-.53.98-1.25c0-.55-.27-1.24-.96-1.24s-.99.64-.99,1.25Z"/>
          <path class="cls-2" d="M116.42,35.21c0-.38,0-.71-.03-1h.51l.02.63h.03c.15-.43.5-.71.89-.71.07,0,.11,0,.17.02v.55c-.06-.01-.12-.02-.2-.02-.41,0-.71.31-.78.75-.01.08-.03.17-.03.27v1.72h-.58v-2.22Z"/>
          <path class="cls-2" d="M118.63,35.08c0-.33,0-.61-.03-.87h.51l.03.52h.02c.18-.31.48-.59,1.01-.59.44,0,.77.27.91.65h.01c.1-.18.23-.32.36-.42.19-.15.41-.23.71-.23.43,0,1.06.28,1.06,1.4v1.9h-.57v-1.82c0-.62-.23-.99-.7-.99-.33,0-.59.25-.69.53-.03.08-.05.19-.05.29v1.99h-.57v-1.93c0-.51-.23-.88-.67-.88-.37,0-.63.29-.72.59-.03.09-.05.19-.05.29v1.94h-.57v-2.35Z"/>
          <path class="cls-2" d="M125.96,37.43l-.05-.41h-.02c-.18.25-.53.48-.99.48-.65,0-.98-.46-.98-.92,0-.78.69-1.2,1.94-1.2v-.07c0-.27-.07-.75-.73-.75-.3,0-.61.09-.84.24l-.13-.39c.27-.17.65-.29,1.06-.29.98,0,1.22.67,1.22,1.32v1.2c0,.28.01.55.05.77h-.53ZM125.87,35.78c-.64-.01-1.36.1-1.36.73,0,.38.25.56.55.56.42,0,.69-.27.78-.54.02-.06.03-.13.03-.19v-.56Z"/>
          <path class="cls-2" d="M127.38,35.08c0-.33,0-.61-.03-.87h.52l.03.53h.01c.16-.31.53-.61,1.06-.61.45,0,1.14.27,1.14,1.37v1.92h-.58v-1.86c0-.52-.19-.95-.75-.95-.39,0-.69.27-.79.6-.03.07-.04.17-.04.27v1.94h-.58v-2.35Z"/>
          <path class="cls-2" d="M133.37,37.31c-.15.08-.49.19-.92.19-.97,0-1.6-.66-1.6-1.64s.68-1.71,1.73-1.71c.35,0,.65.09.81.17l-.13.45c-.14-.08-.36-.15-.68-.15-.74,0-1.14.55-1.14,1.22,0,.75.48,1.2,1.12,1.2.33,0,.55-.09.72-.16l.1.44Z"/>
          <path class="cls-2" d="M134.35,35.92c.01.79.52,1.12,1.1,1.12.42,0,.67-.07.89-.17l.1.42c-.21.09-.56.2-1.07.2-.99,0-1.58-.65-1.58-1.62s.57-1.74,1.51-1.74c1.05,0,1.33.92,1.33,1.52,0,.12-.01.21-.02.27h-2.26ZM136.07,35.5c0-.37-.15-.95-.81-.95-.59,0-.85.55-.9.95h1.71Z"/>
          <path class="cls-2" d="M136.86,37.69l1.86-4.82h.45l-1.86,4.82h-.45Z"/>
        </g>
        <g>
          <path class="cls-2" d="M93.25,43.24c0-.41-.01-.75-.03-1.05h.53l.03.55h.01c.24-.39.62-.62,1.14-.62.78,0,1.36.66,1.36,1.64,0,1.16-.71,1.73-1.46,1.73-.43,0-.8-.19-.99-.51h-.01v1.75h-.58v-3.49ZM93.83,44.1c0,.09.01.17.03.24.11.41.46.69.88.69.62,0,.98-.51.98-1.24,0-.65-.34-1.2-.96-1.2-.4,0-.77.29-.88.72-.02.07-.04.16-.04.24v.55Z"/>
          <path class="cls-2" d="M97.04,43.2c0-.38,0-.71-.03-1h.51l.02.63h.03c.15-.43.5-.71.89-.71.07,0,.11,0,.17.02v.55c-.06-.01-.12-.02-.2-.02-.41,0-.71.31-.78.75-.01.08-.03.17-.03.27v1.72h-.58v-2.22Z"/>
          <path class="cls-2" d="M102.06,43.77c0,1.19-.82,1.71-1.6,1.71-.87,0-1.54-.64-1.54-1.66,0-1.08.71-1.71,1.6-1.71s1.55.67,1.55,1.66ZM99.51,43.81c0,.71.41,1.24.98,1.24s.98-.53.98-1.25c0-.55-.27-1.24-.96-1.24s-.99.64-.99,1.25Z"/>
          <path class="cls-2" d="M102.72,44.81c.17.11.48.23.77.23.43,0,.62-.21.62-.48,0-.28-.17-.43-.6-.59-.58-.21-.85-.53-.85-.91,0-.52.42-.94,1.11-.94.33,0,.61.09.79.2l-.15.43c-.13-.08-.36-.19-.66-.19-.35,0-.54.2-.54.44,0,.27.19.39.61.55.56.21.85.49.85.97,0,.57-.44.96-1.2.96-.35,0-.68-.09-.9-.22l.15-.45Z"/>
          <path class="cls-2" d="M105.44,43.24c0-.41-.01-.75-.03-1.05h.53l.03.55h.01c.24-.39.62-.62,1.14-.62.78,0,1.36.66,1.36,1.64,0,1.16-.71,1.73-1.46,1.73-.43,0-.8-.19-.99-.51h-.01v1.75h-.58v-3.49ZM106.02,44.1c0,.09.01.17.03.24.11.41.46.69.88.69.62,0,.98-.51.98-1.24,0-.65-.34-1.2-.96-1.2-.4,0-.77.29-.88.72-.02.07-.04.16-.04.24v.55Z"/>
          <path class="cls-2" d="M109.55,43.91c.01.79.52,1.12,1.1,1.12.42,0,.67-.07.89-.17l.1.42c-.21.09-.56.2-1.07.2-.99,0-1.58-.65-1.58-1.62s.57-1.74,1.51-1.74c1.05,0,1.33.92,1.33,1.52,0,.12-.01.21-.02.27h-2.26ZM111.27,43.49c0-.37-.15-.95-.81-.95-.59,0-.85.55-.9.95h1.71Z"/>
          <path class="cls-2" d="M114.85,45.29c-.15.08-.49.19-.92.19-.97,0-1.6-.66-1.6-1.64s.68-1.71,1.73-1.71c.35,0,.65.09.81.17l-.13.45c-.14-.08-.36-.15-.68-.15-.74,0-1.14.54-1.14,1.22,0,.75.48,1.2,1.12,1.2.33,0,.55-.09.72-.16l.1.44Z"/>
          <path class="cls-2" d="M116.33,41.27v.92h.84v.45h-.84v1.74c0,.4.11.63.44.63.15,0,.27-.02.34-.04l.03.44c-.11.05-.29.08-.52.08-.27,0-.49-.09-.63-.25-.17-.17-.23-.46-.23-.84v-1.76h-.5v-.45h.5v-.77l.57-.15Z"/>
          <path class="cls-2" d="M117.75,44.81c.17.11.48.23.77.23.43,0,.62-.21.62-.48,0-.28-.17-.43-.6-.59-.58-.21-.85-.53-.85-.91,0-.52.42-.94,1.11-.94.33,0,.61.09.79.2l-.15.43c-.13-.08-.36-.19-.66-.19-.35,0-.54.2-.54.44,0,.27.19.39.61.55.56.21.85.49.85.97,0,.57-.44.96-1.21.96-.35,0-.68-.09-.9-.22l.15-.45Z"/>
        </g>
        <g>
          <path class="cls-2" d="M26.88,40.77c-.21.11-.64.21-1.18.21-1.26,0-2.22-.8-2.22-2.27s.95-2.36,2.34-2.36c.56,0,.91.12,1.06.2l-.14.47c-.22-.11-.53-.19-.9-.19-1.05,0-1.75.67-1.75,1.85,0,1.1.63,1.8,1.72,1.8.35,0,.71-.07.94-.19l.12.46Z"/>
          <path class="cls-2" d="M30.44,39.28c0,1.19-.82,1.71-1.6,1.71-.87,0-1.54-.64-1.54-1.66,0-1.08.71-1.71,1.6-1.71s1.55.67,1.55,1.66ZM27.88,39.32c0,.71.41,1.24.98,1.24s.98-.53.98-1.25c0-.55-.27-1.24-.96-1.24s-.99.64-.99,1.25Z"/>
          <path class="cls-2" d="M31.17,38.57c0-.33,0-.61-.03-.87h.51l.03.52h.02c.18-.31.48-.59,1.01-.59.44,0,.77.27.91.65h.01c.1-.18.23-.32.36-.42.19-.15.41-.23.71-.23.43,0,1.06.28,1.06,1.4v1.9h-.57v-1.82c0-.62-.23-.99-.7-.99-.33,0-.59.25-.69.53-.03.08-.05.19-.05.29v1.99h-.57v-1.93c0-.51-.23-.88-.67-.88-.37,0-.63.29-.73.59-.03.09-.05.19-.05.29v1.94h-.57v-2.35Z"/>
          <path class="cls-2" d="M36.72,38.75c0-.41-.01-.75-.03-1.05h.53l.03.55h.01c.24-.39.62-.62,1.14-.62.78,0,1.36.66,1.36,1.64,0,1.16-.71,1.73-1.46,1.73-.43,0-.8-.19-.99-.51h-.01v1.75h-.58v-3.49ZM37.3,39.61c0,.09.01.17.03.24.11.41.46.69.88.69.62,0,.98-.51.98-1.24,0-.65-.34-1.2-.96-1.2-.4,0-.77.29-.88.72-.02.07-.04.16-.04.24v.55Z"/>
          <path class="cls-2" d="M42.29,40.92l-.05-.41h-.02c-.18.25-.53.48-.98.48-.65,0-.98-.46-.98-.92,0-.78.69-1.2,1.94-1.2v-.07c0-.27-.07-.75-.73-.75-.3,0-.61.09-.84.24l-.13-.39c.27-.17.65-.29,1.06-.29.98,0,1.22.67,1.22,1.32v1.2c0,.28.01.55.05.77h-.53ZM42.21,39.28c-.64-.01-1.36.1-1.36.73,0,.38.25.56.55.56.42,0,.69-.27.78-.54.02-.06.03-.13.03-.19v-.56Z"/>
          <path class="cls-2" d="M43.72,38.57c0-.33,0-.61-.03-.87h.52l.03.53h.01c.16-.31.53-.61,1.06-.61.45,0,1.14.27,1.14,1.37v1.92h-.59v-1.86c0-.52-.19-.95-.75-.95-.39,0-.69.27-.79.6-.03.07-.04.17-.04.27v1.94h-.59v-2.35Z"/>
          <path class="cls-2" d="M47.54,37.7l.71,1.9c.07.21.15.47.21.66h.01c.06-.19.13-.44.21-.67l.64-1.89h.62l-.88,2.29c-.42,1.1-.71,1.67-1.1,2.02-.29.25-.57.35-.72.38l-.15-.49c.15-.05.34-.14.51-.29.16-.13.36-.35.49-.65.03-.06.05-.11.05-.14s-.01-.08-.04-.15l-1.19-2.97h.64Z"/>
        </g>
        <rect class="cls-3" x="16.25" y="34.92" width="40.72" height="8.37"/>
        <g>
          <path class="cls-2" d="M156.78,38.95c-.03-.63-.07-1.38-.07-1.94h-.02c-.15.53-.34,1.08-.57,1.7l-.79,2.18h-.44l-.73-2.14c-.21-.63-.39-1.21-.52-1.74h-.01c-.01.56-.05,1.31-.09,1.98l-.12,1.92h-.55l.31-4.48h.74l.76,2.17c.19.55.34,1.04.45,1.51h.02c.11-.45.27-.95.47-1.51l.8-2.17h.74l.28,4.48h-.57l-.11-1.97Z"/>
          <path class="cls-2" d="M160.16,40.92l-.05-.41h-.02c-.18.25-.53.48-.99.48-.65,0-.98-.46-.98-.92,0-.78.69-1.2,1.94-1.2v-.07c0-.27-.07-.75-.73-.75-.3,0-.61.09-.84.24l-.13-.39c.27-.17.65-.29,1.06-.29.98,0,1.22.67,1.22,1.32v1.2c0,.28.01.55.05.77h-.53ZM160.07,39.28c-.64-.01-1.36.1-1.36.73,0,.38.25.56.55.56.42,0,.69-.27.78-.54.02-.06.03-.13.03-.19v-.56Z"/>
          <path class="cls-2" d="M162.26,36.78v.92h.84v.45h-.84v1.74c0,.4.11.63.44.63.15,0,.27-.02.34-.04l.03.44c-.11.05-.29.08-.52.08-.27,0-.49-.09-.63-.25-.17-.17-.23-.46-.23-.84v-1.76h-.5v-.45h.5v-.77l.57-.15Z"/>
          <path class="cls-2" d="M164.05,39.42c.01.79.52,1.12,1.1,1.12.42,0,.67-.07.89-.17l.1.42c-.21.09-.56.2-1.07.2-.99,0-1.58-.65-1.58-1.62s.57-1.74,1.51-1.74c1.05,0,1.33.92,1.33,1.52,0,.12-.01.21-.02.27h-2.26ZM165.77,39c0-.37-.15-.95-.81-.95-.59,0-.85.55-.9.95h1.71Z"/>
          <path class="cls-2" d="M167.06,38.71c0-.38,0-.71-.03-1h.51l.02.63h.03c.15-.43.5-.71.89-.71.07,0,.11,0,.17.02v.55c-.06-.01-.12-.02-.2-.02-.41,0-.71.31-.79.75-.01.08-.03.17-.03.27v1.72h-.58v-2.22Z"/>
          <path class="cls-2" d="M169.91,36.8c0,.2-.14.36-.37.36-.21,0-.35-.16-.35-.36s.15-.37.37-.37.36.16.36.37ZM169.25,40.92v-3.22h.58v3.22h-.58Z"/>
          <path class="cls-2" d="M172.59,40.92l-.05-.41h-.02c-.18.25-.53.48-.99.48-.65,0-.98-.46-.98-.92,0-.78.69-1.2,1.94-1.2v-.07c0-.27-.07-.75-.73-.75-.3,0-.61.09-.84.24l-.13-.39c.27-.17.65-.29,1.06-.29.98,0,1.22.67,1.22,1.32v1.2c0,.28.01.55.05.77h-.53ZM172.51,39.28c-.64-.01-1.36.1-1.36.73,0,.38.25.56.55.56.42,0,.69-.27.78-.54.02-.06.03-.13.03-.19v-.56Z"/>
          <path class="cls-2" d="M174.02,36.2h.58v4.72h-.58v-4.72Z"/>
          <path class="cls-2" d="M177.6,36.44v4.48h-.58v-4.48h.58Z"/>
          <path class="cls-2" d="M178.51,40.32c.17.11.48.23.77.23.43,0,.62-.21.62-.48,0-.28-.17-.43-.6-.59-.58-.21-.85-.53-.85-.91,0-.52.42-.94,1.11-.94.33,0,.61.09.79.2l-.15.43c-.13-.08-.36-.19-.66-.19-.35,0-.54.2-.54.44,0,.27.19.39.61.55.56.21.85.49.85.97,0,.57-.44.96-1.21.96-.35,0-.68-.09-.9-.22l.15-.45Z"/>
          <path class="cls-2" d="M181.15,40.32c.17.11.48.23.77.23.43,0,.62-.21.62-.48,0-.28-.17-.43-.6-.59-.58-.21-.85-.53-.85-.91,0-.52.42-.94,1.11-.94.33,0,.61.09.79.2l-.15.43c-.13-.08-.36-.19-.66-.19-.35,0-.54.2-.54.44,0,.27.19.39.61.55.56.21.84.49.84.97,0,.57-.44.96-1.2.96-.35,0-.68-.09-.91-.22l.15-.45Z"/>
          <path class="cls-2" d="M186.56,40.04c0,.33,0,.62.03.88h-.52l-.03-.53h-.01c-.15.26-.49.6-1.06.6-.51,0-1.11-.28-1.11-1.41v-1.88h.59v1.78c0,.61.19,1.03.72,1.03.39,0,.67-.27.77-.53.03-.09.05-.19.05-.3v-1.98h.59v2.34Z"/>
          <path class="cls-2" d="M187.85,39.42c.01.79.52,1.12,1.1,1.12.42,0,.67-.07.89-.17l.1.42c-.21.09-.56.2-1.07.2-.99,0-1.58-.65-1.58-1.62s.57-1.74,1.51-1.74c1.05,0,1.33.92,1.33,1.52,0,.12-.01.21-.02.27h-2.26ZM189.57,39c0-.37-.15-.95-.81-.95-.59,0-.85.55-.9.95h1.71Z"/>
        </g>
        <rect class="cls-3" x="147.62" y="34.92" width="47.62" height="8.37"/>
        <line class="cls-3" x1="144.67" y1="19.42" x2="63.22" y2="19.42"/>
        <polygon class="cls-3" points="59.49 19.42 63.34 21.65 63.34 17.2 59.49 19.42"/>
        <path class="cls-3" d="M33.81,28.95h-2.8M38.21,10.17h3.2M43,24.55h5.6v-3.2h-5.6v3.2ZM43,18.56h5.6v-3.2h-5.6v3.2ZM35.01,28.95h13.58V10.14c0,.69-.56,1.15-1.15,1.15-.25,0-.5-.08-.72-.26l-4.19-3.4c-.2-.17-.46-.26-.73-.26h-6.79v6.79M48.6,10.14c0,.69-.56,1.15-1.16,1.15-.25,0-.5-.08-.72-.26l-4.19-3.4c-.2-.17-.46-.26-.73-.26h-7.23c-.64,0-1.15-.51-1.15-1.15v-.09c0-.64.51-1.15,1.15-1.15h8.42l.32.23,2.6,2.17,2.26,1.89c.26.22.42.54.42.88ZM29.41,12.16l.4-1.2h-.8l.4-1.2M26.62,12.16l.4-1.2h-.8l.4-1.2M39.84,25.35h-5.67l.32-3.2h5.03l.32,3.2ZM40.2,28.95h-6.39l.36-3.6.32-3.2.52-5.19h4l.52,5.19.32,3.2.36,3.6ZM39.01,16.96h-4c-.66,0-1.2-.54-1.2-1.2v-.4c0-.66.54-1.2,1.2-1.2h4c.66,0,1.2.54,1.2,1.2v.4c0,.66-.54,1.2-1.2,1.2ZM30.65,25.35h-5.67l.32-3.2h5.04l.32,3.2ZM31.01,28.95h-6.39l.36-3.6.32-3.2.52-5.19h4l.52,5.19.32,3.2.36,3.6ZM29.81,16.96h-4c-.66,0-1.2-.54-1.2-1.2v-.4c0-.66.54-1.2,1.2-1.2h4c.66,0,1.2.54,1.2,1.2v.4c0,.66-.54,1.2-1.2,1.2Z"/>
        <path class="cls-3" d="M164.06,28.95h14.39M171.25,8.17v2M171.25,25.75v-2M178.05,16.96c0,1.05-.24,2.03-.66,2.92-.19.05-.39.08-.58.11-.93.13-1.89.1-2.83.06-.12,0-.27-.03-.32-.14-.04-.1.02-.2.07-.28.49-.74,1.29-1.34,1.37-2.23.04-.44-.13-.89-.37-1.27-.24-.38-.54-.71-.81-1.07-.14-.2-.28-.4-.33-.64-.09-.43.11-.87.39-1.21.03-.04.06-.07.09-.11.27-.3.59-.55.94-.75.26-.16.53-.29.8-.42,1.37,1.24,2.23,3.04,2.23,5.04ZM171.14,18.01c-.22.38-.4.78-.64,1.14-.24.36-.58.69-.99.83-.12-.79-.23-1.58-.35-2.37-.02-.17-.06-.37-.21-.47-.09-.06-.21-.08-.32-.08-.45,0-.89.18-1.22.5-.3.29-.5.7-.87.91-.23.14-.51.18-.78.2-.36.02-.73.02-1.1-.02-.13-.54-.2-1.1-.2-1.67,0-3.32,2.39-6.09,5.54-6.68.05.03.09.06.14.09.05.04.1.07.16.1.39.26.79.59.9,1.06.09.39-.05.8-.22,1.16-.2.45-.45.87-.73,1.27-.17.24-.36.5-.36.8,0,.44.38.77.75,1,.37.23.79.48.9.9.13.46-.16.92-.4,1.34ZM182.44,16.96c0,2.68-.95,5.14-2.53,7.07-1.64,2.01-3.98,3.45-6.64,3.93-.48.09-.82.5-.82.98h-3.2c-.44,0-.8-.36-.8-.8v-1.6c0-.44.36-.8.8-.8h1.78c4.76,0,8.82-3.69,9-8.45.19-5-3.82-9.13-8.79-9.13h-1.6c-.44,0-.8-.36-.8-.8v-1.6c0-.44.36-.8.8-.8h2.8v.86c5.61.6,9.99,5.36,9.99,11.13ZM178.05,16.96c0,1.05-.24,2.03-.66,2.92-1.09,2.29-3.43,3.88-6.14,3.88-3.18,0-5.84-2.18-6.59-5.12-.13-.54-.2-1.1-.2-1.67,0-3.32,2.39-6.09,5.54-6.68.41-.08.83-.12,1.25-.12,1.76,0,3.35.66,4.56,1.76,1.37,1.24,2.23,3.04,2.23,5.04Z"/>
      </g>
    </g>
  </g>
</svg>