<?xml version="1.0" encoding="UTF-8"?>
<svg xmlns="http://www.w3.org/2000/svg" version="1.1" viewBox="0 0 34.92 34.92">
  <defs>
    <style>
      .cls-1 {
        fill: #fff;
      }

      .cls-2 {
        fill: #009bce;
      }
    </style>
  </defs>
  <!-- Generator: Adobe Illustrator 28.7.5, SVG Export Plug-In . SVG Version: 1.2.0 Build 176)  -->
  <g>
    <g id="Layer_1">
      <path class="cls-2" d="M17.46,34.92c9.64,0,17.46-7.82,17.46-17.46S27.1,0,17.46,0,0,7.82,0,17.46s7.82,17.46,17.46,17.46"/>
      <path class="cls-1" d="M20.38,12.97h-.69c-.01.21-.02.41-.03.62h.75c-.01-.21-.02-.41-.03-.62M19.4,22.6h.08c.37-.16.75-.33,1.12-.5.03-.02.07-.07.07-.1v-1.31h-1.28v1.91h.01ZM18.11,18.73h3.84v-.62h-3.84v.62ZM19.61,14.25c-.07,1.08-.13,2.13-.2,3.2h1.24c-.07-1.08-.13-2.14-.2-3.2,0,0-.84,0-.84,0ZM21.96,19.41h-3.85v3.19h.63v-2.55h2.58v1.6c.2-.18.38-.32.55-.48.04-.04.08-.11.08-.17v-1.6M17.45,16.19h-4.48s-.01.06-.01.09v4.71c0,.07.05.16.1.22.61.57,1.3,1.01,2.08,1.29.2.07.41.1.62.11.42.02.84,0,1.27,0h.41v-6.42h.01ZM13.81,22.61c-1.2-.77-2.12-1.77-2.73-3.05-.61-1.27-.82-2.61-.63-4.01.19-1.41.76-2.64,1.69-3.71,2.58-2.97,7.07-3.25,10.03-.62,1.46,1.3,2.27,2.95,2.35,4.9.11,2.8-1.09,4.93-3.45,6.49h.86c.08,0,.17-.06.22-.12.26-.39.57-.73.98-.96.34-.2.57-.48.78-.79.59-.87.96-1.82,1.14-2.85.02-.13.08-.18.2-.2.19-.04.38-.09.57-.14v-2.07c-.2-.05-.4-.09-.6-.16-.06-.02-.14-.1-.15-.16-.21-1.1-.62-2.12-1.26-3.04-.07-.11-.07-.18,0-.28.11-.16.2-.33.28-.46-.5-.5-.98-.99-1.47-1.48-.15.09-.31.18-.47.28-.1.07-.18.08-.28,0-.92-.64-1.93-1.06-3.04-1.25-.12-.02-.16-.08-.18-.18-.04-.19-.1-.39-.15-.58h-2.07c-.05.2-.09.41-.16.6-.02.06-.1.14-.17.15-1.1.21-2.12.62-3.04,1.26-.11.07-.18.07-.28,0-.16-.11-.33-.2-.46-.28-.5.5-.99.99-1.48,1.48.08.14.17.3.28.46.07.1.07.18,0,.28-.64.92-1.06,1.93-1.25,3.04-.02.12-.08.16-.18.18-.19.05-.39.1-.58.14v2.07c.2.05.41.09.6.16.06.02.14.1.15.17.21,1.1.62,2.12,1.26,3.04.07.1.08.17.01.27-.11.16-.21.34-.32.52.3.3.58.59.88.87.05.04.13.05.2.05h1.92v-.02ZM24.23,25.51v-2.58h2.54c.04-.6.1-.52-.36-.84-.98-.69-2.93-.72-3.81.92-.1.2-.22.25-.43.25h-13.15c-.49.03-.89.45-.9.94-.01.57.43.99,1.04.99h12.99c.23,0,.34.06.46.27.89,1.63,2.81,1.58,3.81.92.32-.21.45-.47.35-.85h-2.53v-.02ZM22.61,20.34c1.87-2.47,1.78-6.25-.83-8.61-2.6-2.35-6.55-2.21-8.95.29-2.45,2.57-2.18,6.22-.52,8.31v-4.81h1.29v-1.27h.65v1.26h.65v-1.91h.64v1.91h.64v-1.26h.65v1.28h1.29v1.91h.65c.11-1.71.21-3.41.32-5.13h1.89c.11,1.71.21,3.42.32,5.14h1.31v2.88h0ZM10.8,22.56c-.26-.26-.53-.51-.8-.78.12-.21.25-.41.36-.61.03-.07.04-.18,0-.25-.49-.79-.84-1.63-1.04-2.53-.03-.11-.07-.17-.19-.19-.18-.04-.37-.08-.54-.14-.06-.02-.13-.1-.13-.15v-2.84c0-.05.07-.12.12-.14.19-.06.39-.09.58-.16.06-.02.13-.09.15-.15.22-.92.57-1.78,1.07-2.59.03-.05.02-.15,0-.21-.11-.21-.24-.4-.35-.59.73-.73,1.45-1.44,2.19-2.18.18.11.38.23.59.35.06.03.16.03.21,0,.8-.49,1.65-.85,2.57-1.07.06-.02.14-.09.16-.16.06-.19.1-.39.16-.58.01-.05.08-.11.13-.11h2.97c.06.24.11.47.19.7.02.06.09.13.15.15.92.22,1.78.57,2.58,1.07.05.03.15.03.21,0,.21-.11.4-.24.59-.35.73.73,1.45,1.45,2.18,2.19-.11.18-.24.38-.35.59-.03.06-.03.16,0,.21.5.8.85,1.65,1.07,2.57.02.06.09.14.16.16.19.06.39.1.58.16.05.02.11.08.11.13v2.97c-.24.06-.47.12-.7.19-.06.02-.13.07-.15.13-.15.46-.27.93-.45,1.37s-.42.85-.63,1.28c.28.02.58.02.87.05.76.1,1.41.41,1.91,1.01.06.07.1.19.1.28.01.41,0,.82,0,1.24h-2.56v1.29h2.56v1.34c0,.06-.06.13-.1.19-.74.84-1.71,1.12-2.79,1.02-1.03-.09-1.83-.61-2.39-1.48-.08-.12-.17-.11-.27-.11h-12.63c-.15,0-.31,0-.46-.03-.81-.15-1.37-.89-1.3-1.71.07-.81.75-1.46,1.57-1.47h1.72s.02-.03.02-.05"/>
      <path class="cls-1" d="M9.09,23.9c.17,0,.32.14.33.31,0,.17-.14.32-.31.33-.17,0-.32-.14-.33-.31,0-.17.14-.32.31-.33"/>
      <rect class="cls-1" x="16.18" y="20.69" width=".63" height=".62"/>
      <rect class="cls-1" x="14.89" y="20.69" width=".62" height=".62"/>
      <rect class="cls-1" x="13.61" y="20.69" width=".62" height=".62"/>
      <rect class="cls-1" x="16.18" y="19.4" width=".62" height=".63"/>
      <rect class="cls-1" x="14.89" y="19.4" width=".62" height=".62"/>
      <rect class="cls-1" x="13.61" y="19.41" width=".62" height=".61"/>
      <rect class="cls-1" x="16.19" y="18.12" width=".62" height=".62"/>
      <rect class="cls-1" x="14.9" y="18.12" width=".62" height=".62"/>
      <rect class="cls-1" x="13.61" y="18.12" width=".62" height=".62"/>
      <rect class="cls-1" x="16.18" y="16.83" width=".62" height=".62"/>
      <rect class="cls-1" x="14.9" y="16.83" width=".62" height=".62"/>
      <rect class="cls-1" x="13.61" y="16.83" width=".62" height=".62"/>
    </g>
  </g>
</svg>