<?xml version="1.0" encoding="UTF-8"?>
<svg xmlns="http://www.w3.org/2000/svg" version="1.1" viewBox="0 0 34.92 34.92">
  <defs>
    <style>
      .cls-1 {
        fill: #fff;
      }

      .cls-2 {
        fill: #009bce;
      }
    </style>
  </defs>
  <!-- Generator: Adobe Illustrator 28.7.5, SVG Export Plug-In . SVG Version: 1.2.0 Build 176)  -->
  <g>
    <g id="Layer_1">
      <path class="cls-2" d="M17.46,34.92c9.64,0,17.46-7.82,17.46-17.46S27.1,0,17.46,0,0,7.82,0,17.46s7.82,17.46,17.46,17.46"/>
      <path class="cls-1" d="M20.06,16.49h2.58c.22,0,.34-.13.34-.37v-1.11c0-.2-.07-.33-.24-.43-.41-.24-.8-.5-1.22-.72-.2-.11-.22-.21-.14-.41.18-.49.37-.97.31-1.51-.04-.36-.3-.64-.66-.64s-.63.27-.64.63c-.02.36,0,.71.14,1.05.08.18.12.39.2.57.06.13.01.19-.1.26-.26.15-.52.31-.79.48.22.27.24.58.23.89v1.32M15.09,14.28c-.25-.15-.47-.31-.72-.43-.2-.1-.22-.21-.15-.41.18-.48.37-.97.31-1.51-.04-.36-.3-.64-.66-.64s-.63.28-.65.65c-.01.36,0,.71.15,1.05.08.18.11.38.19.55.05.13.02.19-.1.26-.43.25-.85.52-1.29.77-.18.1-.26.23-.26.44v1.05c0,.32.11.42.43.42h2.31c.06,0,.12,0,.18-.01v-1.23c0-.34-.02-.68.23-.97M17.44,17.78h1.54c.32,0,.42-.11.42-.43v-2.35c0-.2-.07-.33-.24-.43-.41-.24-.82-.5-1.24-.73-.18-.1-.2-.2-.13-.38.18-.49.37-.98.32-1.53-.04-.36-.31-.64-.66-.64s-.63.27-.64.63c-.02.36,0,.71.14,1.05.08.18.11.38.19.55.06.15.01.21-.11.29-.43.25-.86.51-1.29.77-.16.1-.24.22-.23.41v2.37c0,.31.11.42.41.42h1.52M20.08,17.13c-.02.21-.02.39-.06.57-.1.42-.46.72-.89.73-1.11,0-2.22.01-3.33,0-.51,0-.92-.42-.94-.94v-.36h-2.55c-.61,0-1.02-.41-1.02-1.02v-1.16c0-.41.17-.71.52-.92.33-.2.66-.4.99-.6,0,0,.02-.02.03-.04-.05-.14-.09-.3-.15-.45-.15-.42-.14-.85-.06-1.28.12-.65.73-1.08,1.38-1.02.65.06,1.15.6,1.18,1.26.02.45,0,.89-.19,1.31-.03.06-.04.13-.06.2.23.14.44.27.67.39.05.02.13.01.18-.02.18-.1.35-.21.52-.31.1-.05.11-.11.07-.21-.19-.43-.23-.88-.22-1.35.03-.72.59-1.29,1.3-1.29s1.29.56,1.3,1.28c0,.26,0,.52-.03.77-.04.24-.14.48-.21.73.22.13.44.27.66.39.04.02.12.02.16,0,.21-.11.49-.2.58-.38.08-.15-.1-.41-.12-.63-.03-.41-.07-.83,0-1.22.12-.61.77-1.01,1.38-.93.63.08,1.11.6,1.15,1.23.02.48,0,.95-.21,1.39-.05.12-.02.18.09.24.3.17.59.36.89.53.36.21.54.52.53.93v1.16c0,.59-.42,1-1.01,1.01h-2.54.01Z"/>
      <path class="cls-1" d="M10.82,19.12c.14-.52.42-.89.9-1.07.57-.22,1.11-.13,1.56.3.55.53,1.09,1.07,1.62,1.62.57.61.91,1.34.93,2.17.03,1.68,0,3.35,0,5.05h-.64v-4.71c0-.87-.3-1.61-.92-2.22-.46-.45-.92-.92-1.38-1.38-.37-.37-.87-.38-1.21-.04-.34.34-.32.84.05,1.21.63.63,1.26,1.26,1.89,1.89.05.05.1.11.16.17-.16.15-.3.28-.46.44-.03-.03-.08-.07-.13-.12-.92-.92-1.84-1.85-2.77-2.77-.51-.51-.76-1.11-.76-1.83v-6.71c0-.11,0-.23-.04-.34-.1-.3-.39-.48-.7-.44-.3.04-.54.29-.56.6v8.66c0,.88.3,1.62.93,2.23.6.59,1.18,1.19,1.78,1.78.37.36.55.79.54,1.31v2.28h-.65v-2.3c0-.32-.11-.59-.34-.82-.6-.6-1.2-1.21-1.81-1.8-.74-.73-1.1-1.62-1.1-2.66v-8.6c0-.75.55-1.32,1.26-1.34.73-.02,1.32.55,1.33,1.29v6.96c0,.45.15.84.5,1.19"/>
      <path class="cls-1" d="M23.95,27.19h-.65v-2.32c0-.49.17-.9.51-1.24.61-.61,1.21-1.22,1.82-1.82.62-.61.92-1.35.92-2.22v-8.56c0-.52-.45-.85-.9-.66-.28.12-.4.34-.4.65v6.87c0,.65-.22,1.22-.68,1.68-.96.97-1.93,1.93-2.9,2.9-.02.02-.05.04-.08.07-.14-.16-.28-.31-.46-.51.04-.02.11-.05.16-.1.65-.64,1.3-1.28,1.94-1.94.45-.46.27-1.19-.33-1.37-.29-.09-.57-.04-.79.18-.56.54-1.11,1.08-1.64,1.65-.49.53-.72,1.18-.72,1.91v4.82h-.65v-4.74c0-1.03.36-1.91,1.09-2.64.44-.43.9-.85,1.3-1.31.81-.93,2.28-.66,2.63.61.06-.06.11-.11.15-.16.24-.31.34-.67.34-1.06v-6.88c0-.72.52-1.29,1.21-1.34.74-.05,1.37.52,1.39,1.27v8.62c0,1.07-.37,1.98-1.13,2.73-.58.57-1.15,1.16-1.74,1.73-.26.26-.39.55-.38.92.01.67,0,1.34,0,2.01v.24h-.01Z"/>
      <polygon class="cls-1" points="15.83 7.73 21.35 7.73 21.35 9.34 23.61 9.34 23.61 13.23 22.98 13.23 22.98 10 20.71 10 20.71 8.38 16.49 8.38 16.49 10.31 15.85 10.31 15.85 9.68 11.94 9.68 11.94 13.23 11.31 13.23 11.31 9.02 15.83 9.02 15.83 7.73"/>
      <rect class="cls-1" x="17.15" y="9.03" width=".95" height=".62"/>
      <rect class="cls-1" x="19.1" y="9.03" width=".94" height=".63"/>
    </g>
  </g>
</svg>