<?xml version="1.0" encoding="UTF-8"?>
<svg xmlns="http://www.w3.org/2000/svg" version="1.1" viewBox="0 0 34.92 34.92">
  <defs>
    <style>
      .cls-1 {
        fill: #fff;
      }

      .cls-2 {
        fill: #009bce;
      }
    </style>
  </defs>
  <!-- Generator: Adobe Illustrator 28.7.5, SVG Export Plug-In . SVG Version: 1.2.0 Build 176)  -->
  <g>
    <g id="Layer_1">
      <path class="cls-2" d="M17.46,34.92c9.64,0,17.46-7.82,17.46-17.46S27.1,0,17.46,0,0,7.82,0,17.46s7.82,17.46,17.46,17.46"/>
      <path class="cls-1" d="M6.8,24.96h17.16v-9.4H6.8v9.4ZM5.82,14.91c.15-.25.37-.33.66-.33h17.8c.53,0,.67.15.67.68v10c0,.53-.15.68-.67.68H6.46c-.3,0-.51-.09-.64-.36v-10.68h0Z"/>
      <path class="cls-1" d="M29.1,19.77c-.1.23-.27.35-.52.38-.21.03-.41.09-.62.12-.33.05-.56-.11-.61-.39-.05-.27.14-.49.44-.56.08-.02.16-.04.26-.06-.59-3.08-1.18-6.15-1.77-9.24-.4.07-.79.15-1.18.22-4.61.89-9.23,1.77-13.84,2.66-.1.02-.21.04-.32.03-.23-.01-.41-.2-.43-.42-.02-.25.11-.46.37-.52.44-.1.87-.17,1.31-.26,2.56-.49,5.13-.98,7.69-1.47,2.21-.42,4.43-.85,6.64-1.28.33-.06.56.09.62.43.38,1.98.76,3.95,1.14,5.93.26,1.36.52,2.72.78,4.08,0,.03.02.05.04.08,0,0,0,.27,0,.27Z"/>
      <path class="cls-1" d="M26.13,22.14c-.33-3.13-.66-6.23-.98-9.36-.33.03-.66.06-.98.1-2.44.26-4.88.51-7.32.77-2.39.25-4.77.5-7.16.76-.4.04-.65-.11-.68-.41-.03-.28.14-.5.44-.53.69-.08,1.39-.15,2.08-.22,1.52-.16,3.04-.32,4.56-.48,1.38-.15,2.76-.29,4.13-.43,1.66-.17,3.31-.35,4.97-.52.03,0,.06,0,.09-.01.59-.06.74.04.8.63.17,1.5.32,3.01.48,4.52.16,1.52.32,3.04.48,4.56.03.32.07.65.1.97.03.35-.12.55-.47.6-.33.04-.66.08-.99.11-.27.02-.5-.16-.53-.42-.03-.27.12-.49.4-.54.18-.04.37-.05.58-.08"/>
      <path class="cls-1" d="M8.46,18.43v3.57s.09.13.15.15c.58.22.98.62,1.19,1.2.05.13.1.16.23.16h10.7c.14,0,.19-.05.24-.18.21-.56.6-.96,1.16-1.16.14-.05.18-.12.18-.26v-3.48c-.62-.2-1.08-.56-1.31-1.16-.08-.22-.19-.25-.4-.25h-10.45c-.06,0-.12-.01-.18,0-.06.02-.13.06-.15.1-.23.66-.7,1.08-1.37,1.29M15.39,24.48h-5.75c-.52,0-.62-.09-.69-.59-.07-.47-.39-.79-.87-.86-.49-.07-.58-.18-.58-.68v-4.21c0-.46.13-.6.57-.64.48-.05.83-.41.88-.92.04-.39.2-.53.59-.53h11.71c.38,0,.55.16.58.54.04.5.4.86.91.91.39.04.54.2.54.58v4.36c0,.36-.15.52-.51.57-.59.07-.89.38-.95.97-.03.29-.19.46-.47.48h-5.95"/>
      <path class="cls-1" d="M15.36,21.96c.95.01,1.72-.73,1.74-1.67.01-.95-.76-1.72-1.71-1.73-.91,0-1.69.76-1.7,1.67-.01.95.73,1.72,1.67,1.73M18.05,20.28c0,1.46-1.2,2.66-2.66,2.67-1.49,0-2.69-1.2-2.68-2.69,0-1.48,1.2-2.66,2.68-2.66s2.66,1.2,2.66,2.68"/>
    </g>
  </g>
</svg>