<?xml version="1.0" encoding="UTF-8"?>
<svg xmlns="http://www.w3.org/2000/svg" xmlns:xlink="http://www.w3.org/1999/xlink" version="1.1" viewBox="0 0 101 99.87">
  <defs>
    <style>
      .cls-1 {
        fill: none;
      }

      .cls-2 {
        fill: #f3f9fd;
      }

      .cls-3 {
        fill: #d2d9de;
      }

      .cls-4 {
        fill: #dce2e7;
      }

      .cls-5 {
        fill: #d6dce1;
      }

      .cls-6 {
        fill: #e0e5e9;
      }

      .cls-7 {
        fill: #ecf1f5;
      }

      .cls-8 {
        fill: #d7dee3;
      }

      .cls-9 {
        fill: #dadfe4;
      }

      .cls-10 {
        fill: #e8ecf0;
      }

      .cls-11 {
        fill: #e5eaee;
      }

      .cls-12 {
        fill: #f3f7fc;
      }

      .cls-13 {
        fill: #dbe1e5;
      }

      .cls-14 {
        fill: #18ae88;
      }

      .cls-14, .cls-15 {
        fill-rule: evenodd;
      }

      .cls-16 {
        fill: #ebf0f3;
      }

      .cls-17 {
        fill: #e6ebee;
      }

      .cls-18 {
        fill: #eff5f9;
      }

      .cls-15 {
        fill: #079ecc;
      }

      .cls-19 {
        fill: #f0f5f9;
      }

      .cls-20 {
        clip-path: url(#clippath-1);
      }

      .cls-21 {
        clip-path: url(#clippath-3);
      }

      .cls-22 {
        clip-path: url(#clippath-2);
      }

      .cls-23 {
        fill: #d2d8dd;
      }

      .cls-24 {
        fill: #fdb614;
      }

      .cls-25 {
        fill: #eef3f7;
      }

      .cls-26 {
        fill: #0b9fcd;
      }

      .cls-27 {
        fill: #fff;
      }

      .cls-28 {
        fill: #edf2f7;
      }

      .cls-29 {
        fill: #eaeff2;
      }

      .cls-30 {
        fill: #e1e7ec;
      }

      .cls-31 {
        fill: #18af89;
      }

      .cls-32 {
        fill: #e9edf1;
      }

      .cls-33 {
        fill: #bf9d2e;
      }

      .cls-34 {
        fill: #e1e6eb;
      }

      .cls-35 {
        fill: #ebf1f5;
      }

      .cls-36 {
        fill: #11775b;
      }

      .cls-37 {
        fill: #d4dbe1;
      }

      .cls-38 {
        fill: #e3e8ec;
      }

      .cls-39 {
        fill: #dee3e9;
      }

      .cls-40 {
        fill: #eff4f8;
      }

      .cls-41 {
        fill: #e7ecef;
      }

      .cls-42 {
        fill: #08758f;
      }

      .cls-43 {
        fill: #f1f6fa;
      }

      .cls-44 {
        clip-path: url(#clippath);
      }

      .cls-45 {
        fill: #cfd6db;
      }
    </style>
    <clipPath id="clippath">
      <path class="cls-1" d="M25.89,50.49c0-13.59,11.02-24.61,24.61-24.61,1.61,0,3.18.16,4.7.45,11.35,2.19,19.91,12.18,19.91,24.16,0,13.59-11.02,24.61-24.61,24.61s-24.61-11.02-24.61-24.61M3.39,50.49c0,26.02,21.09,47.11,47.11,47.11s47.11-21.09,47.11-47.11c0-22.95-16.4-42.06-38.12-46.25-2.91-.56-5.91-.86-8.99-.86C24.48,3.37,3.39,24.47,3.39,50.49"/>
    </clipPath>
    <clipPath id="clippath-1">
      <path class="cls-1" d="M32.64,50.49c0,9.86,8,17.86,17.86,17.86s17.86-8,17.86-17.86-8-17.86-17.86-17.86-17.86,7.99-17.86,17.86"/>
    </clipPath>
    <clipPath id="clippath-2">
      <rect class="cls-1" x="23.79" y="64.77" width="3.69" height="3.63"/>
    </clipPath>
    <clipPath id="clippath-3">
      <rect class="cls-1" x="55.63" y="15.96" width="15.35" height="7.95"/>
    </clipPath>
  </defs>
  <!-- Generator: Adobe Illustrator 28.7.5, SVG Export Plug-In . SVG Version: 1.2.0 Build 176)  -->
  <g>
    <g id="Layer_1">
      <g>
        <polygon class="cls-42" points="9.1 34.78 8.43 36.82 2.48 34.88 9.1 34.78"/>
        <polygon class="cls-36" points="16.2 22.48 17.63 20.89 12.98 16.7 16.2 22.48"/>
        <polygon class="cls-42" points="25.01 39.95 24.35 41.99 30.3 43.92 25.01 39.95"/>
        <polygon class="cls-36" points="28.63 33.68 30.07 32.09 34.72 36.28 28.63 33.68"/>
        <polygon class="cls-33" points="57.6 94.19 59.69 93.75 60.99 99.87 57.6 94.19"/>
        <polygon class="cls-42" points="43.4 94.19 41.3 93.75 40 99.87 43.4 94.19"/>
        <polygon class="cls-33" points="54.12 77.82 56.21 77.38 54.91 71.26 54.12 77.82"/>
        <polygon class="cls-42" points="46.88 77.82 44.78 77.38 46.08 71.26 46.88 77.82"/>
        <polygon class="cls-33" points="91.9 34.78 92.56 36.82 98.51 34.89 91.9 34.78"/>
        <polygon class="cls-33" points="75.98 39.95 76.64 41.99 70.69 43.92 75.98 39.95"/>
        <polygon class="cls-36" points="72.36 33.68 70.93 32.09 66.28 36.28 72.36 33.68"/>
        <polygon class="cls-36" points="84.8 22.48 83.37 20.89 88.02 16.7 84.8 22.48"/>
        <g class="cls-44">
          <rect class="cls-2" x="3.39" y="3.37" width="94.22" height="1.08"/>
          <rect class="cls-2" x="3.39" y="4.45" width="94.22" height="2.57"/>
          <rect class="cls-2" x="3.39" y="7.02" width="94.22" height="2.57"/>
          <rect class="cls-2" x="3.39" y="9.58" width="94.22" height="2.57"/>
          <rect class="cls-12" x="3.39" y="12.15" width="94.22" height="2.57"/>
          <rect class="cls-12" x="3.39" y="14.71" width="94.22" height="2.57"/>
          <rect class="cls-12" x="3.39" y="17.28" width="94.22" height="2.57"/>
          <rect class="cls-43" x="3.39" y="19.85" width="94.22" height="2.57"/>
          <rect class="cls-43" x="3.39" y="22.41" width="94.22" height="2.57"/>
          <rect class="cls-19" x="3.39" y="24.98" width="94.22" height="2.57"/>
          <rect class="cls-18" x="3.39" y="27.54" width="94.22" height="2.57"/>
          <rect class="cls-40" x="3.39" y="30.11" width="94.22" height="2.57"/>
          <rect class="cls-25" x="3.39" y="32.68" width="94.22" height="2.57"/>
          <rect class="cls-28" x="3.39" y="35.24" width="94.22" height="2.57"/>
          <rect class="cls-7" x="3.39" y="37.81" width="94.22" height="2.57"/>
          <rect class="cls-35" x="3.39" y="40.37" width="94.22" height="2.57"/>
          <rect class="cls-16" x="3.39" y="42.94" width="94.22" height="2.57"/>
          <rect class="cls-29" x="3.39" y="45.51" width="94.22" height="2.57"/>
          <rect class="cls-32" x="3.39" y="48.07" width="94.22" height="2.57"/>
          <rect class="cls-10" x="3.39" y="50.64" width="94.22" height="2.57"/>
          <rect class="cls-41" x="3.39" y="53.2" width="94.22" height="2.57"/>
          <rect class="cls-17" x="3.39" y="55.77" width="94.22" height="2.57"/>
          <rect class="cls-11" x="3.39" y="58.34" width="94.22" height="2.57"/>
          <rect class="cls-38" x="3.39" y="60.9" width="94.22" height="2.57"/>
          <rect class="cls-30" x="3.39" y="63.47" width="94.22" height="2.57"/>
          <rect class="cls-34" x="3.39" y="66.03" width="94.22" height="2.57"/>
          <rect class="cls-6" x="3.39" y="68.6" width="94.22" height="2.57"/>
          <rect class="cls-39" x="3.39" y="71.17" width="94.22" height="2.57"/>
          <rect class="cls-4" x="3.39" y="73.73" width="94.22" height="2.57"/>
          <rect class="cls-13" x="3.39" y="76.3" width="94.22" height="2.57"/>
          <rect class="cls-9" x="3.39" y="78.87" width="94.22" height="2.57"/>
          <rect class="cls-8" x="3.39" y="81.43" width="94.22" height="2.57"/>
          <rect class="cls-5" x="3.39" y="84" width="94.22" height="2.57"/>
          <rect class="cls-37" x="3.39" y="86.56" width="94.22" height="2.57"/>
          <rect class="cls-3" x="3.39" y="89.13" width="94.22" height="2.57"/>
          <rect class="cls-23" x="3.39" y="91.7" width="94.22" height="2.57"/>
          <rect class="cls-45" x="3.39" y="94.26" width="94.22" height="2.57"/>
          <rect class="cls-45" x="3.39" y="96.83" width="94.22" height=".77"/>
          <rect class="cls-19" x="25.89" y="25.88" width="49.22" height="1.67"/>
          <rect class="cls-18" x="25.89" y="27.54" width="49.22" height="2.57"/>
          <rect class="cls-40" x="25.89" y="30.11" width="49.22" height="2.57"/>
          <rect class="cls-25" x="25.89" y="32.68" width="49.22" height="2.57"/>
          <rect class="cls-28" x="25.89" y="35.24" width="49.22" height="2.57"/>
          <rect class="cls-7" x="25.89" y="37.81" width="49.22" height="2.57"/>
          <rect class="cls-35" x="25.89" y="40.37" width="49.22" height="2.57"/>
          <rect class="cls-16" x="25.89" y="42.94" width="49.22" height="2.57"/>
          <rect class="cls-29" x="25.89" y="45.51" width="49.22" height="2.57"/>
          <rect class="cls-32" x="25.89" y="48.07" width="49.22" height="2.57"/>
          <rect class="cls-10" x="25.89" y="50.64" width="49.22" height="2.57"/>
          <rect class="cls-41" x="25.89" y="53.2" width="49.22" height="2.57"/>
          <rect class="cls-17" x="25.89" y="55.77" width="49.22" height="2.57"/>
          <rect class="cls-11" x="25.89" y="58.34" width="49.22" height="2.57"/>
          <rect class="cls-38" x="25.89" y="60.9" width="49.22" height="2.57"/>
          <rect class="cls-30" x="25.89" y="63.47" width="49.22" height="2.57"/>
          <rect class="cls-34" x="25.89" y="66.03" width="49.22" height="2.57"/>
          <rect class="cls-6" x="25.89" y="68.6" width="49.22" height="2.57"/>
          <rect class="cls-39" x="25.89" y="71.17" width="49.22" height="2.57"/>
          <rect class="cls-4" x="25.89" y="73.73" width="49.22" height="1.36"/>
        </g>
        <rect class="cls-2" x="61.18" y="10.34" width="8.41" height="50.52" transform="translate(-6.02 56.66) rotate(-45)"/>
        <rect class="cls-2" x="61.63" y="13.64" width=".92" height="50.52" transform="translate(-9.32 55.3) rotate(-45)"/>
        <rect class="cls-2" x="60.98" y="14.28" width=".92" height="50.52" transform="translate(-9.96 55.03) rotate(-45)"/>
        <rect class="cls-2" x="60.33" y="14.93" width=".92" height="50.52" transform="translate(-10.61 54.76) rotate(-45)"/>
        <rect class="cls-12" x="59.69" y="15.58" width=".92" height="50.52" transform="translate(-11.26 54.49) rotate(-45)"/>
        <rect class="cls-12" x="59.04" y="16.23" width=".92" height="50.52" transform="translate(-11.91 54.22) rotate(-45)"/>
        <rect class="cls-12" x="58.39" y="16.88" width=".92" height="50.52" transform="translate(-12.56 53.95) rotate(-45)"/>
        <rect class="cls-43" x="57.74" y="17.53" width=".92" height="50.52" transform="translate(-13.21 53.68) rotate(-45)"/>
        <rect class="cls-43" x="57.09" y="18.18" width=".92" height="50.52" transform="translate(-13.86 53.42) rotate(-45)"/>
        <rect class="cls-19" x="56.44" y="18.82" width=".92" height="50.52" transform="translate(-14.5 53.15) rotate(-45)"/>
        <rect class="cls-18" x="55.79" y="19.47" width=".92" height="50.52" transform="translate(-15.15 52.88) rotate(-45)"/>
        <rect class="cls-40" x="55.15" y="20.12" width=".92" height="50.52" transform="translate(-15.8 52.61) rotate(-45)"/>
        <rect class="cls-25" x="54.5" y="20.77" width=".92" height="50.52" transform="translate(-16.45 52.34) rotate(-45)"/>
        <rect class="cls-28" x="53.85" y="21.42" width=".92" height="50.52" transform="translate(-17.1 52.07) rotate(-45)"/>
        <rect class="cls-7" x="53.2" y="22.07" width=".92" height="50.52" transform="translate(-17.75 51.8) rotate(-45)"/>
        <rect class="cls-35" x="52.55" y="22.72" width=".92" height="50.52" transform="translate(-18.4 51.53) rotate(-45)"/>
        <rect class="cls-16" x="51.9" y="23.36" width=".92" height="50.52" transform="translate(-19.04 51.27) rotate(-45)"/>
        <rect class="cls-29" x="51.26" y="24.01" width=".92" height="50.52" transform="translate(-19.69 51) rotate(-45)"/>
        <rect class="cls-32" x="50.61" y="24.66" width=".92" height="50.52" transform="translate(-20.34 50.73) rotate(-45)"/>
        <rect class="cls-10" x="49.96" y="25.31" width=".92" height="50.52" transform="translate(-20.99 50.46) rotate(-45)"/>
        <rect class="cls-41" x="49.31" y="25.96" width=".92" height="50.52" transform="translate(-21.64 50.19) rotate(-45)"/>
        <rect class="cls-17" x="48.66" y="26.61" width=".92" height="50.52" transform="translate(-22.29 49.92) rotate(-45)"/>
        <rect class="cls-11" x="48.01" y="27.26" width=".92" height="50.52" transform="translate(-22.94 49.66) rotate(-45)"/>
        <rect class="cls-38" x="47.36" y="27.9" width=".92" height="50.52" transform="translate(-23.58 49.39) rotate(-45)"/>
        <rect class="cls-30" x="46.72" y="28.55" width=".92" height="50.52" transform="translate(-24.23 49.12) rotate(-45)"/>
        <rect class="cls-34" x="46.07" y="29.2" width=".92" height="50.52" transform="translate(-24.88 48.85) rotate(-45)"/>
        <rect class="cls-6" x="45.42" y="29.85" width=".92" height="50.52" transform="translate(-25.53 48.58) rotate(-45)"/>
        <rect class="cls-39" x="44.77" y="30.5" width=".92" height="50.52" transform="translate(-26.18 48.31) rotate(-45)"/>
        <rect class="cls-4" x="44.12" y="31.15" width=".92" height="50.52" transform="translate(-26.83 48.04) rotate(-45)"/>
        <rect class="cls-13" x="43.47" y="31.79" width=".92" height="50.52" transform="translate(-27.48 47.77) rotate(-45)"/>
        <rect class="cls-9" x="42.82" y="32.44" width=".92" height="50.52" transform="translate(-28.12 47.51) rotate(-45)"/>
        <rect class="cls-8" x="42.18" y="33.09" width=".92" height="50.52" transform="translate(-28.77 47.24) rotate(-45)"/>
        <rect class="cls-5" x="41.53" y="33.74" width=".92" height="50.52" transform="translate(-29.42 46.97) rotate(-45)"/>
        <rect class="cls-37" x="40.88" y="34.39" width=".92" height="50.52" transform="translate(-30.07 46.7) rotate(-45)"/>
        <rect class="cls-3" x="40.23" y="35.04" width=".92" height="50.52" transform="translate(-30.72 46.43) rotate(-45)"/>
        <rect class="cls-23" x="39.58" y="35.69" width=".92" height="50.52" transform="translate(-31.37 46.16) rotate(-45)"/>
        <rect class="cls-45" x="38.93" y="36.33" width=".92" height="50.52" transform="translate(-32.02 45.89) rotate(-45)"/>
        <rect class="cls-45" x="31.31" y="39.87" width="9.09" height="50.52" transform="translate(-35.55 44.43) rotate(-45)"/>
        <g class="cls-20">
          <polygon class="cls-2" points="68.36 44.51 56.47 32.63 68.36 32.63 68.36 44.51"/>
          <polygon class="cls-2" points="68.36 45.81 55.18 32.63 56.47 32.63 68.36 44.51 68.36 45.81"/>
          <polygon class="cls-2" points="68.36 47.11 53.88 32.63 55.18 32.63 68.36 45.81 68.36 47.11"/>
          <polygon class="cls-2" points="68.36 48.4 52.58 32.63 53.88 32.63 68.36 47.11 68.36 48.4"/>
          <polygon class="cls-12" points="68.36 49.7 51.28 32.63 52.58 32.63 68.36 48.4 68.36 49.7"/>
          <polygon class="cls-12" points="68.36 51 49.99 32.63 51.28 32.63 68.36 49.7 68.36 51"/>
          <polygon class="cls-12" points="68.36 52.29 48.69 32.63 49.99 32.63 68.36 51 68.36 52.29"/>
          <polygon class="cls-43" points="68.36 53.59 47.39 32.63 48.69 32.63 68.36 52.29 68.36 53.59"/>
          <polygon class="cls-43" points="68.36 54.89 46.1 32.63 47.39 32.63 68.36 53.59 68.36 54.89"/>
          <polygon class="cls-19" points="68.36 56.19 44.8 32.63 46.1 32.63 68.36 54.89 68.36 56.19"/>
          <polygon class="cls-18" points="68.36 57.48 43.5 32.63 44.8 32.63 68.36 56.19 68.36 57.48"/>
          <polygon class="cls-40" points="68.36 58.78 42.2 32.63 43.5 32.63 68.36 57.48 68.36 58.78"/>
          <polygon class="cls-25" points="68.36 60.08 40.91 32.63 42.2 32.63 68.36 58.78 68.36 60.08"/>
          <polygon class="cls-28" points="68.36 61.37 39.61 32.63 40.91 32.63 68.36 60.08 68.36 61.37"/>
          <polygon class="cls-7" points="68.36 62.67 38.31 32.63 39.61 32.63 68.36 61.37 68.36 62.67"/>
          <polygon class="cls-35" points="68.36 63.25 68 63.61 37.38 32.99 37.74 32.63 38.31 32.63 68.36 62.67 68.36 63.25"/>
          <rect class="cls-16" x="51.9" y="26.97" width=".92" height="43.31" transform="translate(-19.04 51.27) rotate(-45)"/>
          <rect class="cls-29" x="51.26" y="27.62" width=".92" height="43.31" transform="translate(-19.69 51) rotate(-45)"/>
          <rect class="cls-32" x="50.61" y="28.27" width=".92" height="43.31" transform="translate(-20.34 50.73) rotate(-45)"/>
          <rect class="cls-10" x="49.96" y="28.91" width=".92" height="43.31" transform="translate(-20.99 50.46) rotate(-45)"/>
          <rect class="cls-41" x="49.31" y="29.56" width=".92" height="43.31" transform="translate(-21.64 50.19) rotate(-45)"/>
          <rect class="cls-17" x="48.66" y="30.21" width=".92" height="43.31" transform="translate(-22.29 49.92) rotate(-45)"/>
          <rect class="cls-11" x="48.01" y="30.86" width=".92" height="43.31" transform="translate(-22.94 49.65) rotate(-45)"/>
          <polygon class="cls-38" points="63.46 68.15 63.26 68.35 62.36 68.35 32.64 38.62 32.64 37.72 32.84 37.53 63.46 68.15"/>
          <polygon class="cls-30" points="61.06 68.35 32.64 39.92 32.64 38.63 62.36 68.35 61.06 68.35"/>
          <polygon class="cls-34" points="59.76 68.35 32.64 41.22 32.64 39.92 61.06 68.35 59.76 68.35"/>
          <polygon class="cls-6" points="58.47 68.35 32.64 42.52 32.64 41.22 59.76 68.35 58.47 68.35"/>
          <polygon class="cls-39" points="57.17 68.35 32.64 43.81 32.64 42.52 58.47 68.35 57.17 68.35"/>
          <polygon class="cls-4" points="55.87 68.35 32.64 45.11 32.64 43.81 57.17 68.35 55.87 68.35"/>
          <polygon class="cls-13" points="54.58 68.35 32.64 46.41 32.64 45.11 55.87 68.35 54.58 68.35"/>
          <polygon class="cls-9" points="53.28 68.35 32.64 47.7 32.64 46.41 54.58 68.35 53.28 68.35"/>
          <polygon class="cls-8" points="51.98 68.35 32.64 49 32.64 47.7 53.28 68.35 51.98 68.35"/>
          <polygon class="cls-5" points="50.68 68.35 32.64 50.3 32.64 49 51.98 68.35 50.68 68.35"/>
          <polygon class="cls-37" points="49.39 68.35 32.64 51.6 32.64 50.3 50.68 68.35 49.39 68.35"/>
          <polygon class="cls-3" points="48.09 68.35 32.64 52.89 32.64 51.6 49.39 68.35 48.09 68.35"/>
          <polygon class="cls-23" points="46.79 68.35 32.64 54.19 32.64 52.89 48.09 68.35 46.79 68.35"/>
          <polygon class="cls-45" points="45.5 68.35 32.64 55.49 32.64 54.19 46.79 68.35 45.5 68.35"/>
          <polygon class="cls-45" points="32.64 55.49 45.5 68.35 32.64 68.35 32.64 55.49"/>
        </g>
        <g>
          <path class="cls-31" d="M50.51,0c-3.81,0-7.61.43-11.34,1.28-6.79,1.55-13.3,4.52-19.06,8.87-2.54,1.92-4.93,4.1-7.14,6.55l21.74,19.57c3.89-4.31,9.52-7.03,15.78-7.03s11.89,2.71,15.78,7.03l21.74-19.57h0c-1.17-1.3-2.42-2.54-3.74-3.74C74.63,4.28,62.55,0,50.52,0h0Z"/>
          <path class="cls-26" d="M1.11,39.99c-3.55,16.72,1.61,33.27,12.43,44.9,4.74,5.1,10.56,9.26,17.21,12.07,2.93,1.24,6.02,2.22,9.24,2.91l6.08-28.61c-5.68-1.21-10.84-4.73-13.97-10.15-3.13-5.43-3.6-11.66-1.81-17.18L2.48,34.88h0c-.54,1.66-.99,3.36-1.36,5.1"/>
          <path class="cls-24" d="M70.69,43.92c1.79,5.52,1.33,11.76-1.8,17.18-3.13,5.43-8.3,8.94-13.98,10.15l6.08,28.61h0c1.71-.36,3.41-.82,5.11-1.37,16.26-5.28,28-18.03,32.67-33.22,2.05-6.65,2.74-13.77,1.85-20.94-.39-3.16-1.09-6.32-2.11-9.46l-27.82,9.04Z"/>
          <path class="cls-27" d="M31.21,71.68c.09-.02.17-.06.24-.12.07-.06.12-.13.16-.21,0-.01,0-.02.01-.03l.19-.59c.02-.06.04-.12.04-.18,0-.06,0-.12-.02-.18-.01-.06-.04-.12-.07-.17-.03-.05-.07-.1-.12-.14-.59-.5-1.23-.92-1.92-1.26-.69-.34-1.41-.59-2.17-.75-.17.23-.38.42-.62.58.23.02.4.05.44.05.7.14,1.38.37,2.02.68.64.31,1.24.7,1.79,1.16l-.15.47c-.52-.4-1.07-.74-1.65-1.03-.59-.28-1.2-.5-1.84-.65-.04,0-.09-.01-.13,0-.04,0-.08.02-.12.04-.04.02-.07.05-.09.09-.02.04-.04.07-.05.12-.01.06-.01.11,0,.17h0s0,1.68,0,1.68c.21-.05.43-.08.66-.09v-1.25c1.06.31,2.03.82,2.9,1.51.07.06.15.1.24.11.09.02.18.02.27,0"/>
          <path class="cls-27" d="M19.56,70.22s-.08.08-.1.14c-.03.05-.05.1-.06.16-.01.06-.02.11-.01.17,0,.06.01.11.03.17l.16.56s0,.02.01.03c.02.04.04.08.07.12.03.04.06.07.09.1.04.03.07.06.12.08.04.02.09.04.13.05.05.01.09.02.14.02.05,0,.09,0,.14-.02.04-.01.09-.03.13-.05.04-.02.08-.05.11-.08.43-.38.89-.71,1.4-.98s1.03-.49,1.58-.65v1.29c.22.01.44.05.66.11v-1.69s0-.04,0-.06c0-.03,0-.05,0-.08,0-.03,0-.05-.01-.08,0-.03-.02-.05-.03-.07-.01-.02-.03-.05-.05-.07-.02-.02-.04-.04-.07-.05-.02-.01-.05-.03-.08-.03-.03,0-.05-.01-.08-.01-.03,0-.05,0-.08,0-.66.15-1.3.38-1.91.68-.61.3-1.17.68-1.68,1.12l-.13-.43c.53-.5,1.12-.91,1.77-1.25s1.33-.58,2.04-.72c.04,0,.21-.03.44-.05-.24-.15-.45-.35-.62-.58-.77.16-1.51.42-2.21.79-.7.37-1.33.82-1.91,1.36"/>
        </g>
        <g class="cls-22">
          <path class="cls-27" d="M26.41,67.38c-.11.11-.23.19-.37.25-.14.06-.29.09-.44.09h0c-.15,0-.3-.03-.43-.09-.14-.06-.26-.14-.37-.25-.08-.08-.15-.17-.2-.27-.05-.1-.09-.2-.11-.32-.02-.11-.03-.22-.02-.33.01-.11.04-.22.08-.32.04-.11.1-.2.17-.29.07-.09.15-.16.25-.23.09-.06.19-.11.3-.15.11-.03.22-.05.33-.05.11,0,.22.02.33.05.11.03.21.08.3.15.09.06.18.14.25.23.07.09.13.18.17.29.04.1.07.21.08.32.01.11,0,.22-.02.33-.02.11-.06.22-.11.32-.05.1-.12.19-.2.27M25.61,64.77h0c-.09,0-.18,0-.27.02-.09.01-.17.03-.26.06-.08.03-.17.06-.25.1-.08.04-.16.08-.23.13-.07.05-.14.1-.21.16-.07.06-.12.12-.18.19s-.11.14-.15.22c-.04.08-.08.15-.12.24-.03.08-.06.17-.08.25-.02.09-.04.17-.05.26,0,.09-.01.18,0,.26,0,.09.01.18.03.26.02.09.04.17.07.25.03.08.07.16.11.24.04.08.09.15.14.22.05.07.11.14.17.2.17.17.36.3.58.39.22.09.45.14.69.14h0c.24,0,.47-.05.69-.14.22-.09.41-.22.58-.39.06-.06.12-.13.17-.2.05-.07.1-.15.14-.22.04-.08.08-.16.11-.24.03-.08.05-.17.07-.25.02-.09.03-.17.03-.26,0-.09,0-.18,0-.26,0-.09-.02-.18-.05-.26-.02-.09-.05-.17-.08-.25-.03-.08-.07-.16-.12-.24-.05-.08-.1-.15-.15-.22-.06-.07-.12-.13-.18-.19-.07-.06-.13-.11-.21-.16-.07-.05-.15-.09-.23-.13-.08-.04-.16-.07-.25-.1-.08-.03-.17-.04-.26-.06-.09-.01-.18-.02-.26-.02"/>
        </g>
        <g>
          <path class="cls-27" d="M18.79,76.87c0,.06.03.11.07.15.04.05.08.08.14.1.05.02.11.03.17.02.06,0,.11-.03.15-.07,0,0,0,0,.01,0l.92-.41-.04-.07s-.02-.04-.03-.05l-.07-.11s-.02-.04-.04-.07c-.05-.1-.09-.19-.13-.29l-.55.25c-.11-1.11,0-2.21.32-3.28.01-.04.02-.09.02-.13,0-.05,0-.09,0-.13,0-.04-.02-.09-.04-.13-.02-.04-.04-.08-.07-.12-.03-.04-.06-.07-.09-.1-.03-.03-.07-.05-.11-.08s-.08-.04-.12-.05c-.04-.01-.09-.02-.13-.02-.01,0-.02,0-.04,0l-.62.05c-.06,0-.12,0-.18.03-.06.02-.12.05-.17.08-.05.04-.09.08-.13.13-.04.05-.07.1-.09.16-.25.74-.4,1.5-.46,2.28-.06.78-.02,1.55.12,2.32.28.08.54.2.77.37-.07-.23-.11-.41-.12-.45-.13-.71-.17-1.43-.12-2.15.05-.72.19-1.43.41-2.12l.51-.04c-.18.64-.3,1.28-.34,1.94-.04.66-.02,1.32.08,1.97"/>
          <path class="cls-27" d="M19.59,80.57s-.11-.19-.23-.41c-.05.29-.15.55-.3.8.44.67.97,1.26,1.58,1.78.61.52,1.28.95,2.01,1.29.08.03.16.05.24.05.15,0,.29-.05.4-.15l.46-.36s.02-.01.03-.02c.03-.03.06-.07.09-.11.02-.04.05-.08.06-.12.02-.05.02-.09.03-.14,0-.05,0-.09,0-.14,0-.05-.02-.09-.04-.13-.02-.04-.04-.08-.07-.12-.03-.04-.06-.07-.1-.1-.04-.03-.08-.06-.12-.08-.52-.26-1.01-.58-1.46-.96-.45-.37-.86-.79-1.21-1.26l1.67-.82-.44-.52-1.77.87s-.02.01-.03.02c-.03,0-.05.01-.08.02-.03.01-.05.02-.07.04-.02.02-.04.04-.06.06-.02.02-.03.05-.04.07-.01.02-.02.05-.02.08,0,.03,0,.05,0,.08,0,.03,0,.05.02.08.01.03.02.05.04.07.39.57.85,1.08,1.36,1.54.52.46,1.08.84,1.7,1.16l-.36.28c-.67-.31-1.29-.71-1.85-1.2-.56-.48-1.04-1.03-1.45-1.65"/>
          <path class="cls-27" d="M15.86,79.26c.06-.14.15-.27.26-.37.11-.11.24-.19.38-.25.07-.03.14-.05.22-.06.08-.01.15-.02.23-.02.08,0,.15,0,.23.02.08.02.15.04.22.07.07.03.14.07.2.11.06.04.12.09.18.15.05.05.1.11.14.18.04.06.08.13.11.2.03.07.05.14.06.22.02.08.02.15.02.23,0,.08,0,.15-.02.22-.02.08-.04.15-.07.22-.03.07-.07.14-.11.2-.04.06-.09.12-.15.17-.05.05-.11.1-.18.14-.06.04-.13.08-.2.1-.07.03-.14.05-.22.06-.08.01-.15.02-.23.02-.08,0-.15,0-.23-.02-.07-.02-.15-.04-.22-.07-.07-.03-.14-.07-.2-.11-.06-.04-.12-.09-.18-.15-.05-.05-.1-.11-.14-.18-.04-.07-.08-.13-.11-.2-.06-.14-.09-.29-.08-.44,0-.15.03-.3.09-.44M16.93,81.52c.18,0,.35-.02.52-.08.17-.05.33-.12.48-.22.15-.1.28-.21.39-.35.11-.14.21-.29.28-.45.1-.22.14-.45.15-.69,0-.24-.04-.47-.13-.69-.04-.11-.1-.21-.17-.32-.07-.1-.14-.19-.22-.28-.08-.08-.17-.16-.27-.23-.1-.07-.2-.12-.31-.17-.11-.05-.22-.08-.34-.11-.12-.02-.23-.04-.35-.04-.12,0-.24,0-.36.03-.12.02-.23.05-.34.1-.11.04-.22.1-.32.16-.1.07-.19.14-.28.22-.09.08-.16.17-.23.27-.07.1-.12.2-.17.31-.05.11-.08.22-.11.34-.02.12-.04.23-.04.35s0,.24.03.35c.02.12.05.23.1.34.03.08.07.16.12.24s.1.15.15.22c.06.07.12.14.19.2.07.06.14.12.21.17.07.05.15.1.23.13.08.04.17.07.25.1.09.03.17.05.26.06.09.01.18.02.27.02"/>
          <path class="cls-27" d="M32.84,77.72c.24-.17.49-.29.77-.37.14-.77.18-1.54.12-2.32-.06-.78-.21-1.54-.46-2.28-.02-.06-.05-.11-.09-.16-.04-.05-.08-.09-.13-.13-.05-.04-.1-.06-.16-.08-.06-.02-.12-.03-.18-.03l-.62-.05s-.02,0-.03,0c-.04,0-.09,0-.13.02-.04.01-.09.03-.12.05-.04.02-.08.05-.11.08-.03.03-.07.06-.09.1-.03.04-.05.08-.07.12-.02.04-.03.08-.04.13,0,.04-.01.09,0,.13,0,.04,0,.09.02.13.32,1.07.43,2.17.32,3.28l-.55-.25c-.04.1-.08.2-.13.29-.01.02-.02.04-.04.07l-.06.11s-.02.04-.03.05l-.04.06.92.41s0,0,.01,0c.04.04.1.06.15.07.06,0,.11,0,.17-.02.06-.02.1-.06.14-.1.04-.05.06-.1.07-.15.1-.65.12-1.31.08-1.97-.04-.66-.16-1.31-.34-1.94l.51.04c.23.69.36,1.39.41,2.12.05.72,0,1.44-.12,2.15-.01.04-.05.22-.12.45"/>
          <path class="cls-27" d="M32.01,80.68c-.07-.17-.12-.34-.16-.52-.11.21-.2.37-.23.41-.41.62-.89,1.17-1.45,1.65-.56.48-1.18.88-1.85,1.2l-.37-.28c.61-.32,1.18-.7,1.7-1.16.52-.46.97-.97,1.36-1.54.02-.02.03-.05.04-.07,0-.03.02-.05.02-.08,0-.03,0-.06,0-.08,0-.03-.01-.05-.02-.08-.01-.02-.02-.05-.04-.07-.02-.02-.04-.04-.06-.06-.02-.02-.05-.03-.07-.04-.02-.01-.05-.02-.08-.02-.01,0-.02-.01-.03-.02l-1.77-.87-.44.52,1.68.82c-.36.47-.76.89-1.21,1.26-.45.37-.94.69-1.47.95-.04.02-.08.05-.12.08-.04.03-.07.07-.1.1-.03.04-.05.08-.07.12-.02.04-.03.09-.04.14,0,.05,0,.09,0,.14,0,.05.01.09.03.14.02.04.04.09.06.13.02.04.05.08.09.11,0,0,.02.02.03.02l.46.36c.11.1.25.15.4.15.08,0,.17-.02.24-.05.73-.33,1.4-.76,2.01-1.28.61-.52,1.14-1.12,1.58-1.78-.05-.09-.1-.18-.14-.28"/>
          <path class="cls-27" d="M35.37,80.14c-.03.07-.06.14-.11.2-.04.06-.09.12-.14.18-.05.05-.11.1-.18.15-.06.04-.13.08-.2.11-.07.03-.14.05-.22.07-.07.01-.15.02-.23.02-.08,0-.15,0-.23-.02-.08-.01-.15-.03-.22-.06-.06-.02-.12-.05-.18-.09s-.11-.07-.16-.12c-.05-.04-.1-.09-.14-.14-.04-.05-.08-.11-.11-.17-.03-.06-.06-.12-.08-.18-.02-.06-.04-.13-.05-.19-.01-.07-.01-.13-.01-.2,0-.07,0-.13.02-.2.01-.07.03-.13.05-.19.02-.06.05-.12.09-.18.04-.06.07-.11.12-.16.04-.05.09-.1.14-.14.05-.04.11-.08.16-.11.06-.03.12-.06.18-.08.06-.02.13-.04.19-.05.07-.01.13-.02.2-.02.15,0,.29.03.43.08.07.03.14.06.2.1.06.04.12.09.18.14.05.05.1.11.15.17.04.06.08.13.11.2.03.07.05.14.07.22.01.07.02.15.02.22,0,.08,0,.15-.02.23-.01.08-.03.15-.06.22M34.97,78.03c-.11-.04-.23-.08-.34-.1s-.24-.03-.35-.03c-.12,0-.24.01-.35.04-.12.02-.23.06-.34.11-.11.05-.21.1-.31.17-.1.07-.19.14-.27.23-.08.08-.16.18-.22.28-.07.1-.12.2-.17.31-.03.07-.05.14-.07.21-.02.07-.03.14-.04.22-.01.07-.01.15-.02.22,0,.07,0,.15.01.22,0,.07.02.15.04.22.02.07.04.14.06.21.02.07.05.14.09.2.03.07.07.13.11.19.04.06.09.12.14.17.05.06.1.11.16.16.05.05.11.09.17.14.06.04.12.08.19.11s.13.07.2.09c.07.03.14.05.21.07.07.02.14.03.22.04.07.01.15.01.22.01.09,0,.18,0,.27-.02.09-.01.18-.03.26-.06.09-.03.17-.06.25-.1.08-.04.16-.08.24-.13.07-.05.15-.11.21-.17.07-.06.13-.13.19-.2.06-.07.11-.14.15-.22.05-.08.09-.16.12-.24.04-.11.08-.22.1-.34s.03-.23.03-.35c0-.12-.02-.24-.04-.35-.03-.12-.06-.23-.11-.34-.05-.11-.1-.21-.17-.31-.07-.1-.14-.19-.23-.27-.08-.08-.18-.16-.28-.22-.1-.07-.21-.12-.32-.16"/>
          <path class="cls-27" d="M29.67,76.24l-4.06,4.81-4.06-4.81-.26-.38-.05-.09c-.16-.31-.23-.65-.22-1,.03-1.13,1.03-2.09,2.23-2.15.9-.04,1.67.59,2.09,1.2.02.02.03.04.05.06.02.02.04.03.07.04.02.01.05.02.07.03.03,0,.05,0,.08,0s.05,0,.08,0c.03,0,.05-.02.07-.03.02-.01.05-.03.07-.04.02-.02.04-.04.05-.06.43-.61,1.2-1.25,2.09-1.2,1.2.06,2.2,1.02,2.23,2.15,0,.35-.07.68-.22,1l-.32.46ZM30.2,76.62l.28-.4s0-.01.01-.02l.07-.11s0-.01.01-.02c.21-.41.31-.85.3-1.32-.04-1.49-1.29-2.71-2.85-2.79-.98-.05-1.84.51-2.4,1.14-.56-.63-1.41-1.19-2.4-1.14-1.56.08-2.82,1.3-2.85,2.79-.01.47.09.9.3,1.32,0,0,0,.02.01.02l.07.11s0,.01.01.02l.28.4s.02.03.03.04l4.2,4.97c.05.05.1.09.16.12.06.03.13.04.2.04.07,0,.14-.01.2-.04.06-.03.12-.07.17-.12l4.2-4.97s.01-.02.02-.02"/>
          <path class="cls-27" d="M61.51,12.23c-.07,0-.12-.03-.16-.09l-.71-1.08-.45.68c-.06.09-.18.11-.26.05-.09-.06-.11-.18-.06-.26l.61-.93c.04-.05.1-.08.16-.08s.12.03.16.08l.71,1.08,2.33-3.54c.03-.05.1-.09.16-.09s.12.03.16.09l.52.79c.06.09.03.21-.05.26-.09.06-.21.03-.26-.05l-.36-.55-2.33,3.54c-.04.05-.1.09-.16.09M67.03,13.04c-.06,0-.12-.03-.16-.09l-1.53-2.32c-.06-.09-.03-.21.05-.26.09-.06.21-.03.26.05l1.53,2.32c.06.09.03.21-.05.26-.03.02-.07.03-.1.03M57.01,16.43s-.07-.01-.1-.03c-.09-.06-.11-.18-.05-.26l.93-1.41c.06-.09.18-.11.26-.05.09.06.11.18.05.26l-.93,1.41c-.04.06-.1.09-.16.09"/>
          <path class="cls-27" d="M64,9.83c-.31,0-.61-.09-.87-.26-.09-.06-.11-.18-.05-.26.06-.09.18-.11.26-.05.2.13.42.2.66.2.07,0,.13,0,.19-.02.11-.02.2.05.22.16.02.1-.05.2-.16.22-.08.01-.17.02-.26.02"/>
          <path class="cls-27" d="M60.64,12.29c-.06,0-.12,0-.18-.01-.1-.01-.18-.11-.17-.21.01-.1.11-.18.21-.17.04,0,.09,0,.14,0,.23,0,.46-.07.66-.2.09-.06.21-.03.26.05.06.09.03.21-.05.26-.26.17-.56.26-.87.26"/>
          <path class="cls-27" d="M61.06,13.9s-.03,0-.05,0c-.1-.03-.16-.13-.14-.23l.45-1.68c.03-.1.13-.16.23-.13.1.03.16.13.14.23l-.45,1.68c-.02.08-.1.14-.18.14"/>
          <path class="cls-27" d="M57.4,10.77h2.12l-1.06-1.06-1.06,1.06ZM59.98,11.15h-3.04c-.08,0-.15-.05-.18-.12-.03-.07-.01-.15.04-.21l1.52-1.52s.08-.06.13-.06.1.02.13.06l1.52,1.52c.05.05.07.14.04.21-.03.07-.1.12-.18.12"/>
          <path class="cls-27" d="M60.54,12.33h-4.15c-.08,0-.15-.05-.18-.12-.03-.07-.01-.15.04-.21l1.18-1.18c.07-.08.2-.08.27,0,.07.07.07.2,0,.27l-.86.86h3.23l-.86-.86c-.07-.07-.07-.2,0-.27.07-.08.2-.08.27,0l1.18,1.18c.05.05.07.14.04.21-.03.07-.1.12-.18.12"/>
          <path class="cls-27" d="M60.54,13.24h-4.15c-.08,0-.15-.05-.18-.12-.03-.07-.01-.15.04-.21l.9-.9c.07-.07.2-.07.27,0,.07.07.07.19,0,.27l-.58.58h3.23l-.58-.58c-.08-.08-.08-.2,0-.27.07-.07.2-.07.27,0l.9.9c.05.05.07.14.04.21-.03.07-.1.12-.18.12"/>
          <path class="cls-27" d="M60.54,14.14h-4.15c-.08,0-.15-.05-.18-.12-.03-.07-.01-.15.04-.21l.9-.9c.07-.07.2-.07.27,0,.07.07.07.19,0,.27l-.58.58h3.23l-.58-.58c-.08-.08-.08-.2,0-.27.07-.07.2-.07.27,0l.9.9c.05.05.07.14.04.21-.03.07-.1.12-.18.12"/>
          <path class="cls-27" d="M58.99,15.54c-.11,0-.19-.08-.19-.19v-1.4c0-.11.08-.19.19-.19s.19.09.19.19v1.4c0,.11-.08.19-.19.19M57.93,16.43c-.11,0-.19-.09-.19-.19v-2.28c0-.11.08-.19.19-.19s.19.09.19.19v2.28c0,.1-.09.19-.19.19"/>
          <path class="cls-27" d="M67.81,11.84h1.5l-.75-.75-.75.75ZM69.77,12.22h-2.42c-.08,0-.15-.05-.18-.12-.03-.07-.01-.15.04-.21l1.21-1.21s.08-.05.13-.05.1.02.14.05l1.21,1.21c.05.05.07.14.04.21-.03.07-.1.12-.18.12"/>
          <path class="cls-27" d="M70.21,13.16h-3.31c-.08,0-.15-.05-.18-.12-.03-.07-.01-.15.04-.21l.94-.94c.07-.07.19-.07.27,0,.07.07.07.2,0,.27l-.62.62h2.39l-.62-.62c-.07-.07-.07-.2,0-.27.07-.07.2-.07.27,0l.94.94c.05.05.07.14.04.21-.03.07-.1.12-.18.12"/>
          <path class="cls-27" d="M70.21,13.88h-3.31c-.08,0-.15-.05-.18-.12-.03-.07-.01-.15.04-.21l.72-.72c.08-.07.2-.07.27,0,.07.08.07.2,0,.27l-.4.4h2.39l-.4-.4c-.07-.08-.07-.2,0-.27.07-.07.2-.07.27,0l.72.72c.05.05.07.14.04.21-.03.07-.1.12-.18.12"/>
          <path class="cls-27" d="M70.21,14.6h-3.31c-.08,0-.15-.05-.18-.12-.03-.07-.01-.15.04-.21l.72-.72c.08-.07.2-.07.27,0,.07.08.07.2,0,.27l-.4.4h2.39l-.4-.4c-.07-.08-.07-.2,0-.27.07-.07.2-.07.27,0l.72.72c.05.05.07.14.04.21-.03.07-.1.12-.18.12"/>
          <path class="cls-27" d="M68.98,15.39c-.1,0-.19-.08-.19-.19v-.79c0-.1.09-.19.19-.19s.19.09.19.19v.79c0,.11-.09.19-.19.19M68.14,15.77c-.11,0-.19-.09-.19-.19v-1.16c0-.1.09-.19.19-.19s.19.09.19.19v1.16c0,.11-.08.19-.19.19"/>
          <path class="cls-27" d="M63.66,12.07h1.37l-.69-.69-.69.69ZM65.49,12.45h-2.29c-.08,0-.15-.05-.18-.12-.03-.07-.01-.15.04-.21l1.15-1.15s.08-.05.14-.05.1.02.14.05l1.15,1.15c.05.05.07.14.04.21-.03.07-.1.12-.18.12"/>
          <path class="cls-27" d="M65.91,13.34h-3.13c-.08,0-.15-.05-.18-.12-.03-.07-.01-.15.04-.21l.89-.89c.07-.07.2-.07.27,0,.07.07.07.2,0,.27l-.57.57h2.21l-.57-.57c-.07-.07-.07-.2,0-.27.08-.07.2-.07.27,0l.89.89c.05.05.07.14.04.21-.03.07-.1.12-.18.12"/>
          <path class="cls-27" d="M65.91,14.02h-3.13c-.08,0-.15-.05-.18-.12-.03-.07-.01-.15.04-.21l.68-.68c.07-.08.19-.08.27,0,.07.07.07.2,0,.27l-.36.36h2.21l-.36-.36c-.07-.07-.07-.2,0-.27.07-.08.2-.08.27,0l.68.68c.05.05.07.14.04.21-.03.07-.1.12-.18.12"/>
          <path class="cls-27" d="M65.91,14.7h-3.13c-.08,0-.15-.05-.18-.12-.03-.07-.01-.15.04-.21l.68-.68c.07-.07.19-.07.27,0,.07.08.07.2,0,.27l-.36.36h2.21l-.36-.36c-.07-.07-.07-.2,0-.27.07-.07.2-.07.27,0l.68.68c.05.05.07.14.04.21-.03.07-.1.12-.18.12"/>
          <path class="cls-27" d="M63.94,15.4c-.11,0-.19-.09-.19-.19v-.7c0-.1.08-.19.19-.19s.19.08.19.19v.7c0,.1-.08.19-.19.19M64.74,15.8c-.11,0-.19-.09-.19-.19v-1.1c0-.1.09-.19.19-.19s.19.09.19.19v1.1c0,.1-.08.19-.19.19"/>
          <path class="cls-27" d="M58.42,16.43s-.01,0-.02,0c-.1,0-.18-.1-.17-.21.06-.69.63-1.21,1.32-1.21s1.26.52,1.32,1.21c0,.1-.07.2-.17.21-.11,0-.2-.07-.21-.17-.05-.49-.45-.86-.94-.86s-.9.37-.94.86c0,.1-.09.17-.19.17"/>
          <path class="cls-27" d="M62.7,16.43s-.01,0-.02,0c-.1,0-.18-.1-.17-.21.06-.69.63-1.21,1.32-1.21s1.26.52,1.32,1.21c0,.1-.07.2-.17.21-.11,0-.2-.07-.21-.17-.05-.49-.45-.86-.94-.86s-.9.37-.94.86c0,.1-.09.17-.19.17"/>
          <path class="cls-27" d="M65.99,16.43c-.1,0-.18-.07-.19-.17-.03-.33-.3-.57-.62-.57-.12,0-.24.04-.35.1-.09.06-.21.03-.27-.05-.06-.09-.03-.21.05-.26.17-.11.36-.17.56-.17.52,0,.96.39,1,.92.01.1-.07.2-.17.21,0,0-.01,0-.02,0"/>
          <path class="cls-27" d="M67.85,16.43s-.01,0-.02,0c-.11,0-.18-.1-.17-.21.06-.69.63-1.21,1.32-1.21s1.26.52,1.32,1.21c0,.1-.07.2-.17.21-.11,0-.2-.07-.21-.17-.05-.49-.45-.86-.94-.86s-.9.37-.94.86c0,.1-.09.17-.19.17"/>
          <path class="cls-27" d="M61.03,7.43c-.21,0-.38.17-.38.38,0,.1-.08.19-.19.19-.23,0-.42.19-.42.42s.19.42.42.42h1.11c.23,0,.42-.19.42-.42s-.19-.42-.42-.42c-.1,0-.19-.09-.19-.19,0-.21-.17-.38-.38-.38M61.58,9.23h-1.11c-.44,0-.81-.36-.81-.8,0-.38.27-.7.62-.78.08-.34.38-.59.74-.59s.66.25.74.59c.36.08.62.4.62.78,0,.44-.36.8-.81.8"/>
          <path class="cls-27" d="M65.83,8.25c-.32,0-.59.26-.59.59,0,.1-.08.19-.19.19-.36,0-.64.3-.64.65s.29.65.65.65h1.53c.36,0,.65-.29.65-.65s-.29-.65-.64-.65c-.1,0-.19-.09-.19-.19,0-.32-.26-.59-.59-.59M66.6,10.72h-1.53c-.57,0-1.03-.46-1.03-1.03,0-.5.37-.93.85-1.02.08-.45.48-.79.95-.79s.87.34.95.79c.48.09.85.51.85,1.02,0,.57-.46,1.03-1.03,1.03"/>
        </g>
        <g class="cls-21">
          <path class="cls-27" d="M56.01,16.43c.1,3.93,3.33,7.1,7.29,7.1s7.19-3.17,7.29-7.1h-14.58ZM63.3,23.9c-4.23,0-7.67-3.44-7.67-7.67,0-.1.09-.19.19-.19h14.96c.11,0,.19.09.19.19,0,4.23-3.44,7.67-7.67,7.67"/>
        </g>
        <path class="cls-27" d="M64.88,18.89s-.07,0-.1,0c-.21-.04-.3-.21-.37-.35-.13-.25-.32-.59-1.27-.67-.89-.07-1.56-.59-2-1.54-.04-.1,0-.21.09-.25.1-.04.21,0,.25.09.38.83.93,1.26,1.69,1.32,1.16.1,1.42.58,1.58.87.05.1.08.15.11.16.04,0,.17,0,.5-.18.63-.34.77-.63.89-.9.13-.29.26-.56.89-.67.4-.07.72-.28.96-.62.06-.09.18-.11.27-.05.09.06.11.18.05.27-.2.29-.58.67-1.21.78-.43.08-.49.2-.61.46-.13.28-.31.67-1.05,1.07-.3.16-.5.23-.66.23"/>
        <path class="cls-27" d="M66.28,23.29c-.09,0-.17-.06-.19-.16-.19-.98-.22-2.35.7-3.3.74-.77.69-1.22.64-1.54-.04-.28-.08-.59.48-.76.54-.17.9.36,1.27.93.25.37.53.79.88,1.04.09.06.11.18.05.26-.06.09-.18.11-.27.05-.41-.29-.71-.74-.98-1.14-.36-.53-.59-.85-.84-.78-.12.04-.2.08-.22.12-.02.04,0,.13,0,.23.05.36.12.95-.75,1.85-.81.83-.77,2.07-.6,2.96.02.1-.05.2-.15.22-.01,0-.02,0-.04,0"/>
        <path class="cls-27" d="M64.06,23.86c-.08,0-.15-.05-.18-.12-.27-.7-.51-1.55-.73-2.53-.27-1.28-.71-1.2-1.32-1.09-.66.12-1.47.26-1.97-1.39-.33-1.08-.87-1.86-1.62-2.34-.09-.06-.11-.17-.06-.26.06-.09.17-.11.26-.06.82.53,1.42,1.38,1.77,2.55.4,1.32.93,1.23,1.54,1.12.63-.11,1.4-.25,1.76,1.39.21.96.44,1.79.71,2.47.04.1-.01.21-.11.25-.02,0-.05.01-.07.01"/>
        <path class="cls-27" d="M95.33,57.25h-1.16c-.09,0-.18.04-.23.11l-.83,1.08-2.86-3.09s-.1-.08-.15-.09c-2.52-.52-2.78-2.78-2.79-2.88-.01-.11-.09-.21-.2-.25-.11-.04-.23,0-.31.08l-1.09,1.16c-.5.53-1.22.79-1.94.71h-.03c-.16-.02-.3-.12-.36-.28-.06-.15-.03-.32.07-.45l2.12-2.46c.57-.67,1.5-.88,2.31-.54l2.64,1.12s.07.02.11.02h4.69c.16,0,.29-.13.29-.29s-.13-.29-.29-.29h-4.63l-2.59-1.1c-1.05-.44-2.25-.16-2.99.7l-.92,1.08h-6.27c-.16,0-.29.13-.29.29s.13.29.29.29h5.77l-.69.8c-.24.29-.31.69-.17,1.04.14.35.46.6.84.64h.03c.9.11,1.81-.22,2.44-.88l.72-.76c.26.83.99,2.34,3.03,2.8l2.82,3.05c.3.33.29.84-.03,1.15l-.02.02c-.16.16-.37.24-.6.23-.22,0-.43-.1-.58-.26l-.69-.74c-.11-.12-.3-.13-.42-.02-.12.11-.13.3-.02.41l.93,1c.27.29.26.76-.03,1.04h-.02c-.15.15-.33.23-.53.22-.2,0-.39-.09-.52-.23l-1.17-1.24c-.11-.12-.3-.12-.41-.01-.12.11-.13.29-.02.41l.79.86c.13.14.19.32.18.51,0,.19-.09.36-.23.49h-.02c-.14.14-.32.2-.51.19-.19-.01-.36-.1-.49-.24l-.26-.29s-.05-.06-.07-.09l-.41-.46c-.11-.12-.29-.13-.41-.02-.12.11-.13.29-.02.41l.46.52c.09.12.13.27.12.43-.01.18-.1.35-.25.48-.27.23-.68.21-.92-.05l-.49-.52.44-.47c.22-.23.33-.54.32-.85-.01-.32-.15-.61-.39-.84-.31-.29-.75-.38-1.13-.28-.03-.28-.16-.54-.38-.75-.31-.29-.75-.38-1.13-.28-.03-.28-.16-.54-.38-.75-.23-.22-.54-.33-.86-.32-.09,0-.19.02-.28.04-.03-.28-.16-.54-.38-.75-.23-.22-.54-.33-.86-.32-.3,0-.59.13-.8.35h-2.29c-.16,0-.29.13-.29.29s.13.29.29.29h1.74l-.8.85c-.22.23-.33.54-.32.85.01.32.15.61.39.84.23.21.52.32.82.32.11,0,.21-.01.32-.04.03.28.16.54.38.75.22.21.51.32.82.32.01,0,.03,0,.04,0,.1,0,.19-.02.28-.04.03.28.16.54.38.75.22.21.51.32.81.32.02,0,.03,0,.04,0,.1,0,.19-.02.28-.04.03.27.16.54.38.75.22.21.51.32.82.32.01,0,.03,0,.04,0,.32-.01.61-.15.83-.38l.47-.51.47.49c.25.26.58.39.91.39.29,0,.59-.1.83-.31.22-.19.37-.44.42-.72.15.07.31.11.48.12.35.02.68-.1.94-.33h.01c.23-.22.38-.49.42-.79.17.09.36.14.57.14.36,0,.7-.12.95-.37h.02c.35-.35.47-.84.36-1.29h.01c.39,0,.75-.13,1.02-.4l.02-.02c.4-.39.52-.96.35-1.46l.88-1.14h1.01c.16,0,.29-.13.29-.29s-.13-.29-.29-.29M80.4,60.31s-.06.07-.09.11l-.09.1c-.23.24-.61.26-.87.02-.12-.11-.19-.26-.19-.42,0-.16.05-.32.16-.43l1.32-1.41c.11-.12.26-.19.42-.19h.02c.15,0,.3.06.43.18.22.21.25.54.09.78l-1.19,1.27ZM81.91,61.34s-.06.07-.09.11l-.1.1c-.11.12-.26.19-.42.19-.16,0-.32-.05-.45-.18-.22-.2-.25-.54-.09-.78l1.19-1.27h0s.06-.07.09-.11l.1-.1c.12-.13.28-.19.44-.19.15,0,.31.06.43.17.22.21.25.54.09.78l-1.19,1.27ZM83.43,62.37s-.06.07-.09.11l-.1.1c-.11.12-.26.19-.42.19-.17,0-.32-.05-.45-.18-.22-.2-.25-.54-.09-.78l1.19-1.27s.06-.07.09-.11l.09-.1c.11-.12.26-.19.42-.19h.02c.15,0,.3.06.43.17.12.11.19.26.19.42,0,.13-.03.25-.1.36l-1.19,1.28ZM84.76,63.61c-.23.24-.61.26-.87.02-.22-.2-.25-.54-.09-.78l1.19-1.27s.06-.07.09-.11l.09-.1c.12-.13.28-.19.44-.19.15,0,.31.06.43.17.25.23.26.61.03.86l-1.32,1.41Z"/>
        <path class="cls-27" d="M26.53,14.17v-2.66h.99c.18,0,.34.03.48.1.14.07.25.16.33.29.08.12.12.28.12.46s-.04.33-.12.45c-.08.12-.19.22-.33.29-.14.07-.3.1-.48.1h-.51v.98h-.48ZM27.02,12.76h.51c.09,0,.16-.02.23-.05.06-.03.11-.08.15-.14.04-.06.05-.13.05-.21,0-.08-.02-.16-.05-.22-.04-.06-.09-.11-.15-.14-.06-.03-.14-.05-.23-.05h-.51v.82Z"/>
        <path class="cls-27" d="M28.81,14.17v-1.94h.44v.43l-.03-.06c.04-.15.12-.25.21-.3.1-.06.21-.09.35-.09h.11v.41h-.17c-.13,0-.24.04-.32.12-.08.08-.12.2-.12.35v1.08h-.47Z"/>
        <path class="cls-27" d="M31.09,14.21c-.19,0-.36-.04-.52-.13-.15-.09-.28-.21-.37-.36-.09-.15-.14-.33-.14-.52s.05-.37.14-.52c.09-.15.22-.27.37-.36.15-.09.33-.13.52-.13s.36.04.52.13c.15.09.28.21.37.36.09.15.14.32.14.52s-.05.37-.14.52c-.09.15-.22.27-.37.36-.15.09-.33.13-.51.13M31.09,13.79c.11,0,.2-.03.28-.08.08-.05.14-.12.19-.21s.07-.19.07-.3-.02-.21-.07-.3c-.05-.09-.11-.16-.19-.21-.08-.05-.17-.08-.28-.08s-.2.03-.28.08c-.08.05-.14.12-.19.21-.05.09-.07.19-.07.3s.02.21.07.3c.05.09.11.16.19.21.08.05.17.08.28.08"/>
        <path class="cls-27" d="M33.32,14.19c-.22,0-.39-.06-.51-.18-.12-.12-.18-.29-.18-.51v-.86h-.34v-.42h.04c.1,0,.17-.02.22-.08.05-.05.08-.12.08-.22v-.15h.47v.44h.45v.42h-.45v.83c0,.06.01.12.03.16.02.05.06.08.11.1.05.02.11.03.19.03.02,0,.04,0,.06,0,.02,0,.05,0,.07,0v.4s-.07,0-.11.01c-.04,0-.08,0-.12,0"/>
        <path class="cls-27" d="M34.81,14.21c-.2,0-.38-.05-.52-.14-.15-.09-.27-.21-.35-.37-.08-.16-.12-.33-.12-.51s.04-.37.13-.52c.08-.15.2-.27.35-.36.15-.09.31-.13.49-.13.15,0,.29.02.4.07.11.05.21.12.29.21s.14.19.18.3c.04.11.06.23.06.37,0,.03,0,.07,0,.1,0,.03,0,.07-.02.09h-1.5v-.36h1.24l-.22.17c.02-.11.02-.21-.02-.29-.03-.08-.08-.15-.16-.2-.07-.05-.16-.08-.26-.08s-.18.03-.26.07c-.08.05-.13.12-.17.21s-.05.21-.05.34c0,.12,0,.22.05.32.04.09.1.16.19.21.08.05.18.08.28.08s.2-.02.27-.07c.08-.05.13-.11.18-.18l.38.18c-.04.09-.1.17-.18.25-.08.07-.18.13-.29.17-.11.04-.23.06-.37.06"/>
        <path class="cls-27" d="M37.01,14.21c-.19,0-.36-.04-.52-.13-.15-.09-.27-.21-.36-.36-.09-.15-.13-.33-.13-.52s.04-.37.13-.52c.09-.15.21-.27.36-.36.15-.09.33-.13.52-.13.14,0,.27.02.39.07.12.05.22.11.31.2.09.08.15.19.19.3l-.41.18c-.04-.1-.1-.18-.18-.24-.08-.06-.18-.09-.29-.09-.1,0-.19.03-.27.08-.08.05-.14.12-.19.21-.05.09-.07.19-.07.3s.02.22.07.3c.04.09.11.16.19.21.08.05.17.08.27.08.11,0,.21-.03.29-.09.08-.06.14-.14.18-.24l.41.19c-.04.11-.1.21-.18.29-.09.09-.19.15-.31.2-.12.05-.25.07-.39.07"/>
        <path class="cls-27" d="M39.13,14.19c-.22,0-.39-.06-.51-.18-.12-.12-.18-.29-.18-.51v-.86h-.34v-.42h.04c.1,0,.17-.02.22-.08.05-.05.08-.12.08-.22v-.15h.47v.44h.45v.42h-.45v.83c0,.06.01.12.03.16.02.05.06.08.11.1.05.02.11.03.19.03.02,0,.04,0,.06,0,.02,0,.05,0,.07,0v.4s-.07,0-.11.01c-.04,0-.08,0-.12,0"/>
        <path class="cls-27" d="M39.72,11.51h.47v.5h-.47v-.5ZM39.72,12.23h.47v1.94h-.47v-1.94Z"/>
        <path class="cls-27" d="M40.61,14.17v-1.94h.44v.38l-.03-.07c.04-.12.12-.2.22-.27.1-.06.22-.09.36-.09s.27.03.38.09c.11.06.2.15.26.26.06.11.09.24.09.38v1.25h-.47v-1.14c0-.09-.02-.16-.05-.22-.03-.06-.08-.11-.14-.14-.06-.03-.13-.05-.2-.05s-.14.02-.2.05c-.06.03-.11.08-.14.14-.03.06-.05.14-.05.22v1.14h-.47Z"/>
        <path class="cls-27" d="M43.67,14.96c-.14,0-.28-.02-.4-.07-.12-.05-.23-.11-.32-.2-.09-.09-.15-.18-.19-.3l.43-.16c.03.09.08.16.17.22.08.06.19.08.31.08.1,0,.18-.02.25-.05.07-.03.13-.09.17-.15.04-.07.06-.15.06-.24v-.44l.09.11c-.07.12-.16.2-.27.26-.11.06-.24.09-.38.09-.18,0-.34-.04-.48-.12-.14-.08-.26-.2-.34-.34-.08-.15-.12-.31-.12-.49s.04-.35.12-.49c.08-.14.19-.26.33-.34.14-.08.3-.12.48-.12.14,0,.27.03.38.09.11.06.2.15.28.26l-.06.12v-.43h.44v1.85c0,.17-.04.32-.12.45-.08.13-.19.24-.33.31-.14.08-.3.11-.49.11M43.65,13.66c.1,0,.19-.02.26-.07.08-.04.13-.11.18-.18.04-.08.06-.17.06-.27s-.02-.19-.07-.27c-.04-.08-.1-.14-.18-.19-.07-.04-.16-.07-.26-.07s-.19.02-.26.07c-.08.05-.14.11-.18.19-.04.08-.07.17-.07.27s.02.19.07.27c.04.08.11.14.18.19.08.05.17.07.27.07"/>
        <path class="cls-27" d="M46.58,14.19c-.22,0-.39-.06-.51-.18-.12-.12-.18-.29-.18-.51v-.86h-.34v-.42h.04c.1,0,.17-.02.22-.08.05-.05.08-.12.08-.22v-.15h.47v.44h.45v.42h-.45v.83c0,.06.01.12.03.16.02.05.06.08.11.1.05.02.11.03.19.03.02,0,.04,0,.06,0,.02,0,.05,0,.07,0v.4s-.07,0-.11.01c-.04,0-.08,0-.12,0"/>
        <path class="cls-27" d="M47.17,14.17v-2.7h.47v1.14l-.06-.07c.04-.12.12-.2.22-.27.1-.06.22-.09.36-.09s.27.03.38.09c.11.06.2.15.26.26.06.11.09.24.09.38v1.25h-.47v-1.14c0-.09-.02-.16-.05-.22-.03-.06-.08-.11-.14-.14-.06-.03-.13-.05-.21-.05s-.14.02-.2.05c-.06.03-.11.08-.14.14-.03.06-.05.14-.05.22v1.14h-.47Z"/>
        <path class="cls-27" d="M50.2,14.21c-.2,0-.38-.05-.52-.14-.15-.09-.27-.21-.35-.37-.08-.16-.12-.33-.12-.51s.04-.37.13-.52c.08-.15.2-.27.35-.36.15-.09.31-.13.49-.13.15,0,.29.02.4.07.11.05.21.12.29.21s.14.19.18.3c.04.11.06.23.06.37,0,.03,0,.07,0,.1,0,.03,0,.07-.02.09h-1.5v-.36h1.24l-.22.17c.02-.11.02-.21-.02-.29-.03-.08-.08-.15-.16-.2-.07-.05-.16-.08-.26-.08s-.18.03-.26.07c-.08.05-.13.12-.17.21s-.05.21-.05.34c0,.12,0,.22.05.32.04.09.1.16.19.21.08.05.18.08.28.08s.2-.02.27-.07c.08-.05.13-.11.18-.18l.38.18c-.04.09-.1.17-.18.25-.08.07-.18.13-.29.17-.11.04-.23.06-.37.06"/>
        <polygon class="cls-27" points="28.03 18.45 28.03 15.79 29.8 15.79 29.8 16.22 28.52 16.22 28.52 16.9 29.73 16.9 29.73 17.33 28.52 17.33 28.52 18.02 29.8 18.02 29.8 18.45 28.03 18.45"/>
        <path class="cls-27" d="M30.12,18.45v-1.94h.44v.38l-.03-.07c.04-.12.12-.2.22-.27.1-.06.22-.09.36-.09s.27.03.38.09c.11.06.2.15.26.26.06.11.09.24.09.38v1.25h-.47v-1.14c0-.09-.02-.16-.05-.22-.03-.06-.08-.11-.14-.14-.06-.03-.13-.05-.2-.05s-.14.02-.2.05c-.06.03-.11.08-.14.14-.03.06-.05.14-.05.22v1.14h-.47Z"/>
        <polygon class="cls-27" points="32.78 18.45 32.02 16.51 32.53 16.51 33.08 18.04 32.89 18.04 33.45 16.51 33.96 16.51 33.2 18.45 32.78 18.45"/>
        <path class="cls-27" d="M34.22,15.79h.47v.5h-.47v-.5ZM34.22,16.51h.47v1.94h-.47v-1.94Z"/>
        <path class="cls-27" d="M35.12,18.45v-1.94h.44v.43l-.03-.06c.04-.15.12-.25.21-.3.1-.06.21-.09.35-.09h.11v.41h-.17c-.13,0-.24.04-.32.12-.08.08-.12.2-.12.35v1.08h-.47Z"/>
        <path class="cls-27" d="M37.4,18.5c-.19,0-.36-.04-.52-.13-.15-.09-.28-.21-.37-.36-.09-.15-.14-.33-.14-.52s.05-.37.14-.52c.09-.15.22-.27.37-.36.15-.09.33-.13.52-.13s.36.04.52.13c.15.09.28.21.37.36.09.15.14.32.14.52s-.05.37-.14.52c-.09.15-.22.27-.37.36-.15.09-.33.13-.51.13M37.4,18.07c.11,0,.2-.03.28-.08.08-.05.14-.12.19-.21s.07-.19.07-.3-.02-.21-.07-.3c-.05-.09-.11-.16-.19-.21-.08-.05-.17-.08-.28-.08s-.2.03-.28.08c-.08.05-.14.12-.19.21-.05.09-.07.19-.07.3s.02.21.07.3c.05.09.11.16.19.21.08.05.17.08.28.08"/>
        <path class="cls-27" d="M38.78,18.45v-1.94h.44v.38l-.03-.07c.04-.12.12-.2.22-.27.1-.06.22-.09.36-.09s.27.03.38.09c.11.06.2.15.26.26.06.11.09.24.09.38v1.25h-.47v-1.14c0-.09-.02-.16-.05-.22-.03-.06-.08-.11-.14-.14-.06-.03-.13-.05-.2-.05s-.14.02-.2.05c-.06.03-.11.08-.14.14-.03.06-.05.14-.05.22v1.14h-.47Z"/>
        <path class="cls-27" d="M40.89,18.45v-1.94h.44v.45l-.05-.08c.04-.14.11-.24.21-.31.11-.07.23-.1.38-.1.16,0,.3.04.42.12.12.08.2.19.24.33h-.13c.06-.14.15-.26.27-.34.12-.08.26-.12.41-.12.14,0,.26.03.37.09s.19.15.26.26c.06.11.09.24.09.38v1.25h-.47v-1.14c0-.09-.02-.16-.05-.22s-.07-.11-.13-.14c-.05-.03-.12-.05-.2-.05s-.14.02-.2.05c-.06.03-.1.08-.13.14-.03.06-.05.14-.05.22v1.14h-.47v-1.14c0-.09-.02-.16-.05-.22-.03-.06-.07-.11-.13-.14-.06-.03-.12-.05-.2-.05s-.14.02-.2.05c-.06.03-.1.08-.13.14s-.05.14-.05.22v1.14h-.47Z"/>
        <path class="cls-27" d="M45.11,18.5c-.2,0-.38-.05-.52-.14-.15-.09-.27-.21-.35-.37-.08-.16-.12-.33-.12-.51s.04-.37.13-.52c.08-.15.2-.27.35-.36.15-.09.31-.13.49-.13.15,0,.29.02.4.07.11.05.21.12.29.21s.14.19.18.3c.04.11.06.23.06.37,0,.03,0,.07,0,.1,0,.03,0,.07-.02.09h-1.5v-.36h1.24l-.22.17c.02-.11.02-.21-.02-.29-.03-.08-.08-.15-.16-.2-.07-.05-.16-.08-.26-.08s-.18.03-.26.07c-.08.05-.13.12-.17.21s-.05.21-.05.34c0,.12,0,.22.05.32.04.09.1.16.19.21.08.05.18.08.28.08s.2-.02.27-.07c.08-.05.13-.11.18-.18l.38.18c-.04.09-.1.17-.18.25-.08.07-.18.13-.29.17-.11.04-.23.06-.37.06"/>
        <path class="cls-27" d="M46.38,18.45v-1.94h.44v.38l-.03-.07c.04-.12.12-.2.22-.27.1-.06.22-.09.36-.09s.27.03.38.09c.11.06.2.15.26.26.06.11.09.24.09.38v1.25h-.47v-1.14c0-.09-.02-.16-.05-.22-.03-.06-.08-.11-.14-.14-.06-.03-.13-.05-.2-.05s-.14.02-.2.05c-.06.03-.11.08-.14.14-.03.06-.05.14-.05.22v1.14h-.47Z"/>
        <path class="cls-27" d="M49.38,18.47c-.22,0-.39-.06-.51-.18-.12-.12-.18-.29-.18-.51v-.86h-.34v-.42h.04c.1,0,.17-.02.22-.08.05-.05.08-.12.08-.22v-.15h.47v.44h.45v.42h-.45v.83c0,.06.01.12.03.16.02.05.06.08.11.1.05.02.11.03.19.03.02,0,.04,0,.06,0,.02,0,.05,0,.07,0v.4s-.07,0-.11.01c-.04,0-.08,0-.12,0"/>
        <polygon class="cls-27" points="8.38 52.51 8.38 49.85 8.86 49.85 8.86 51.01 10 51.01 10 49.85 10.48 49.85 10.48 52.51 10 52.51 10 51.44 8.86 51.44 8.86 52.51 8.38 52.51"/>
        <path class="cls-27" d="M11.88,52.55c-.2,0-.38-.04-.52-.14-.15-.09-.27-.21-.35-.37-.08-.16-.12-.33-.12-.51s.04-.37.13-.52c.08-.15.2-.27.35-.36.15-.09.31-.13.49-.13.15,0,.29.02.4.07.11.05.21.12.29.21s.14.19.18.3c.04.11.06.23.06.37,0,.03,0,.07,0,.1,0,.03,0,.07-.02.09h-1.5v-.36h1.24l-.22.17c.02-.11.02-.21-.02-.29-.03-.08-.08-.15-.16-.2-.07-.05-.16-.08-.26-.08s-.18.03-.26.07c-.08.05-.13.12-.17.21s-.05.21-.05.34c0,.12,0,.22.05.32.04.09.1.16.19.21.08.05.18.08.28.08s.2-.02.27-.07c.08-.05.13-.11.18-.18l.38.18c-.04.09-.1.17-.18.25-.08.07-.18.13-.29.17-.11.04-.23.06-.37.06"/>
        <rect class="cls-27" x="13.14" y="49.8" width=".47" height="2.7"/>
        <path class="cls-27" d="M14.04,53.22v-2.66h.44v.39l-.04-.1c.07-.1.16-.19.27-.24.11-.06.25-.09.4-.09.18,0,.35.04.49.14.15.09.26.21.35.36.09.15.13.32.13.51s-.04.36-.13.51c-.09.16-.2.28-.35.37-.15.09-.32.13-.5.13-.14,0-.27-.03-.39-.08-.12-.06-.21-.14-.28-.24l.08-.09v1.09h-.47ZM15.04,52.12c.11,0,.2-.03.29-.08.08-.05.15-.12.19-.21.05-.09.07-.19.07-.3s-.02-.21-.07-.3c-.05-.09-.11-.16-.19-.21-.08-.05-.18-.08-.29-.08-.1,0-.19.03-.28.08s-.15.12-.19.21c-.05.09-.07.19-.07.3s.02.22.07.3c.05.09.11.16.19.21s.17.08.28.08"/>
        <path class="cls-27" d="M16.44,49.85h.47v.5h-.47v-.5ZM16.44,50.56h.47v1.94h-.47v-1.94Z"/>
        <path class="cls-27" d="M17.34,52.51v-1.94h.44v.38l-.03-.07c.04-.12.12-.2.22-.27.1-.06.22-.09.36-.09s.27.03.38.09c.11.06.2.15.26.26.06.11.09.24.09.38v1.25h-.47v-1.14c0-.09-.02-.16-.05-.22-.03-.06-.08-.11-.14-.14-.06-.03-.13-.05-.2-.05s-.14.02-.2.05c-.06.03-.11.08-.14.14-.03.06-.05.14-.05.22v1.14h-.47Z"/>
        <path class="cls-27" d="M20.39,53.29c-.14,0-.28-.02-.4-.07-.12-.05-.23-.11-.32-.2-.09-.09-.15-.18-.19-.3l.43-.16c.03.09.08.16.17.22.08.06.19.08.31.08.1,0,.18-.02.25-.05.07-.03.13-.09.17-.15.04-.07.06-.15.06-.24v-.44l.09.11c-.07.12-.16.2-.27.26-.11.06-.24.09-.38.09-.18,0-.34-.04-.48-.12-.14-.08-.26-.2-.34-.34-.08-.15-.12-.31-.12-.49s.04-.35.12-.49c.08-.14.19-.26.33-.34.14-.08.3-.12.48-.12.14,0,.27.03.38.09.11.06.2.15.28.26l-.06.12v-.43h.44v1.85c0,.17-.04.32-.12.45-.08.13-.19.24-.33.31-.14.08-.3.11-.49.11M20.37,52c.1,0,.19-.02.26-.07.08-.04.13-.11.18-.18.04-.08.06-.17.06-.27s-.02-.19-.07-.27c-.04-.08-.1-.14-.18-.19-.07-.04-.16-.07-.26-.07s-.19.02-.26.07c-.08.05-.14.11-.18.19-.04.08-.07.17-.07.27s.02.19.07.27c.04.08.11.14.18.19s.17.07.27.07"/>
        <path class="cls-27" d="M4.76,56.83c-.19,0-.36-.03-.53-.1-.16-.07-.3-.16-.42-.29-.12-.12-.21-.27-.28-.43-.07-.17-.1-.35-.1-.55s.03-.38.1-.55c.07-.17.16-.31.28-.43.12-.12.26-.22.42-.29.16-.07.34-.1.53-.1s.36.03.51.1c.15.06.28.15.38.26.1.11.18.22.23.35l-.44.2c-.05-.13-.13-.24-.25-.33-.12-.09-.26-.13-.43-.13s-.31.04-.44.12c-.13.08-.23.19-.3.33s-.11.3-.11.48.04.35.11.49c.07.14.17.25.3.33.13.08.27.12.44.12s.31-.04.43-.13c.12-.09.2-.2.25-.33l.44.2c-.05.13-.12.24-.23.35-.11.11-.23.19-.38.26-.15.06-.32.1-.51.1"/>
        <path class="cls-27" d="M7.15,56.83c-.19,0-.36-.04-.52-.13-.15-.09-.28-.21-.37-.36-.09-.15-.14-.33-.14-.52s.05-.37.14-.52c.09-.15.22-.27.37-.36.15-.09.33-.13.52-.13s.36.04.52.13c.15.09.28.21.37.36.09.15.14.33.14.52s-.05.37-.14.52c-.09.15-.22.27-.37.36-.15.09-.33.13-.51.13M7.15,56.4c.11,0,.2-.03.28-.08.08-.05.14-.12.19-.21s.07-.19.07-.3-.02-.21-.07-.3c-.05-.09-.11-.16-.19-.21-.08-.05-.17-.08-.28-.08s-.2.03-.28.08c-.08.05-.14.12-.19.21-.05.09-.07.19-.07.3s.02.21.07.3c.05.09.11.16.19.21.08.05.17.08.28.08"/>
        <path class="cls-27" d="M8.53,56.79v-1.94h.44v.45l-.05-.08c.04-.14.11-.24.21-.31.11-.07.23-.1.38-.1.16,0,.3.04.42.12.12.08.2.19.24.33h-.13c.06-.14.15-.26.27-.34.12-.08.26-.12.41-.12.14,0,.26.03.37.09s.19.15.26.26c.06.11.09.24.09.38v1.25h-.47v-1.14c0-.09-.02-.16-.05-.22s-.07-.11-.13-.14c-.05-.03-.12-.05-.2-.05s-.14.02-.2.05c-.06.03-.1.08-.13.14-.03.06-.05.14-.05.22v1.14h-.47v-1.14c0-.09-.02-.16-.05-.22-.03-.06-.07-.11-.13-.14-.06-.03-.12-.05-.2-.05s-.14.02-.2.05c-.06.03-.1.08-.13.14s-.05.14-.05.22v1.14h-.47Z"/>
        <path class="cls-27" d="M11.83,56.79v-1.94h.44v.45l-.05-.08c.04-.14.11-.24.21-.31.11-.07.23-.1.38-.1.16,0,.3.04.42.12.12.08.2.19.24.33h-.13c.06-.14.15-.26.27-.34.12-.08.26-.12.41-.12.14,0,.26.03.37.09s.19.15.26.26c.06.11.09.24.09.38v1.25h-.47v-1.14c0-.09-.02-.16-.05-.22s-.07-.11-.13-.14c-.05-.03-.12-.05-.2-.05s-.14.02-.2.05c-.06.03-.1.08-.13.14-.03.06-.05.14-.05.22v1.14h-.47v-1.14c0-.09-.02-.16-.05-.22-.03-.06-.07-.11-.13-.14-.06-.03-.12-.05-.2-.05s-.14.02-.2.05c-.06.03-.1.08-.13.14s-.05.14-.05.22v1.14h-.47Z"/>
        <path class="cls-27" d="M15.82,56.83c-.15,0-.28-.03-.39-.1-.11-.07-.2-.16-.25-.28-.06-.12-.09-.26-.09-.42v-1.19h.47v1.15c0,.08.02.15.05.21.03.06.08.11.14.14.06.03.13.05.2.05s.14-.02.2-.05c.06-.04.11-.08.14-.15.03-.06.05-.14.05-.22v-1.14h.47v1.94h-.44v-.38l.04.07c-.05.12-.12.21-.22.27-.1.06-.23.09-.36.09"/>
        <path class="cls-27" d="M17.24,56.79v-1.94h.44v.38l-.03-.07c.04-.12.12-.2.22-.27.1-.06.22-.09.36-.09s.27.03.38.09c.11.06.2.15.26.26.06.11.09.24.09.38v1.25h-.47v-1.14c0-.09-.02-.16-.05-.22-.03-.06-.08-.11-.14-.14-.06-.03-.13-.05-.2-.05s-.14.02-.2.05c-.06.03-.11.08-.14.14-.03.06-.05.14-.05.22v1.14h-.47Z"/>
        <path class="cls-27" d="M19.36,54.13h.47v.5h-.47v-.5ZM19.36,54.85h.47v1.94h-.47v-1.94Z"/>
        <path class="cls-27" d="M21.14,56.81c-.22,0-.39-.06-.51-.18-.12-.12-.18-.29-.18-.51v-.86h-.34v-.42h.04c.1,0,.17-.02.22-.08.05-.05.08-.12.08-.22v-.15h.47v.44h.45v.42h-.45v.83c0,.06.01.12.03.16.02.05.06.08.11.1.05.02.11.03.19.03.02,0,.04,0,.06,0,.02,0,.05,0,.07,0v.4s-.07,0-.11.01c-.04,0-.08,0-.12,0"/>
        <path class="cls-27" d="M21.73,54.13h.47v.5h-.47v-.5ZM21.73,54.85h.47v1.94h-.47v-1.94Z"/>
        <path class="cls-27" d="M23.55,56.83c-.2,0-.38-.05-.52-.14-.15-.09-.27-.21-.35-.37-.08-.16-.12-.33-.12-.51s.04-.37.13-.52c.08-.15.2-.27.35-.36.15-.09.31-.13.49-.13.15,0,.29.02.4.07.11.05.21.12.29.21s.14.19.18.3c.04.11.06.23.06.37,0,.03,0,.07,0,.1,0,.03,0,.07-.02.09h-1.5v-.36h1.24l-.22.17c.02-.11.02-.21-.02-.29-.03-.08-.08-.15-.16-.2-.07-.05-.16-.08-.26-.08s-.18.03-.26.07c-.08.05-.13.12-.17.21s-.05.21-.05.34c0,.12,0,.22.05.32.04.09.1.16.19.21.08.05.18.08.28.08s.2-.02.27-.07c.08-.05.13-.11.18-.18l.38.18c-.04.09-.1.17-.18.25-.08.07-.18.13-.29.17-.11.04-.23.06-.37.06"/>
        <path class="cls-27" d="M25.55,56.83c-.21,0-.39-.05-.54-.15-.15-.1-.26-.23-.32-.4l.35-.17c.05.11.12.2.21.26.09.06.19.09.3.09.09,0,.15-.02.2-.06.05-.04.08-.09.08-.15,0-.04-.01-.07-.03-.09-.02-.02-.05-.05-.08-.06-.03-.02-.07-.03-.11-.05l-.32-.09c-.16-.05-.29-.12-.37-.22-.08-.1-.13-.21-.13-.35,0-.12.03-.22.09-.31.06-.09.14-.16.25-.21.11-.05.23-.07.37-.07.18,0,.34.04.48.13.14.09.24.21.3.37l-.36.17c-.03-.09-.09-.16-.17-.21s-.17-.08-.26-.08c-.08,0-.14.02-.18.05-.05.04-.07.08-.07.14,0,.04,0,.07.03.09.02.03.05.05.08.06.03.02.07.03.12.05l.31.09c.16.05.28.12.37.21.09.1.13.21.13.35,0,.12-.03.22-.09.31s-.15.16-.26.21c-.11.05-.24.08-.39.08"/>
        <polygon class="cls-27" points="10.34 61.07 10.34 58.84 9.65 58.84 9.65 58.41 11.51 58.41 11.51 58.84 10.83 58.84 10.83 61.07 10.34 61.07"/>
        <path class="cls-27" d="M11.77,61.07v-2.7h.47v1.14l-.06-.07c.04-.12.12-.2.22-.27.1-.06.22-.09.36-.09s.27.03.38.09c.11.06.2.15.26.26.06.11.09.24.09.38v1.25h-.47v-1.14c0-.09-.02-.16-.05-.22-.03-.06-.08-.11-.14-.14-.06-.03-.13-.05-.2-.05s-.14.02-.2.05c-.06.03-.11.08-.14.14-.03.06-.05.14-.05.22v1.14h-.47Z"/>
        <path class="cls-27" d="M13.88,61.07v-1.94h.44v.43l-.03-.06c.04-.15.12-.25.21-.3.1-.06.21-.09.35-.09h.11v.41h-.17c-.13,0-.24.04-.32.12-.08.08-.12.2-.12.35v1.08h-.47Z"/>
        <path class="cls-27" d="M15.22,58.41h.47v.5h-.47v-.5ZM15.22,59.13h.47v1.94h-.47v-1.94Z"/>
        <polygon class="cls-27" points="16.7 61.07 15.94 59.13 16.45 59.13 17 60.66 16.81 60.66 17.37 59.13 17.88 59.13 17.12 61.07 16.7 61.07"/>
        <path class="cls-27" d="M19.02,61.11c-.2,0-.38-.05-.52-.14-.15-.09-.27-.21-.35-.37-.08-.16-.12-.33-.12-.51s.04-.37.13-.52c.08-.15.2-.27.35-.36.15-.09.31-.13.49-.13.15,0,.29.02.4.07.11.05.21.12.29.21s.14.19.18.3c.04.11.06.23.06.37,0,.03,0,.07,0,.1,0,.03,0,.07-.02.09h-1.5v-.36h1.24l-.22.17c.02-.11.02-.21-.02-.29-.03-.08-.08-.15-.16-.2-.07-.05-.16-.08-.26-.08s-.18.03-.26.07c-.08.05-.13.12-.17.21s-.05.21-.05.34c0,.12,0,.22.05.32.04.09.1.16.19.21.08.05.18.08.28.08s.2-.02.27-.07c.08-.05.13-.11.18-.18l.38.18c-.04.09-.1.17-.18.25-.08.07-.18.13-.29.17-.11.04-.23.06-.37.06"/>
        <path class="cls-27" d="M66.1,73.11v-2.66h1.12c.18,0,.33.03.45.09.12.06.22.15.29.26.07.11.1.24.1.4,0,.12-.03.23-.1.34-.07.11-.17.19-.31.26v-.23c.13.05.24.11.31.19.08.07.13.16.16.25.03.09.05.19.05.29,0,.25-.08.45-.25.6-.17.14-.4.22-.7.22h-1.12ZM66.58,71.48h.66c.1,0,.18-.03.24-.09.06-.06.09-.13.09-.23s-.03-.17-.09-.22c-.06-.05-.14-.08-.24-.08h-.66v.62ZM66.58,72.68h.68c.13,0,.23-.04.3-.11.08-.07.11-.16.11-.28s-.04-.21-.11-.28c-.07-.07-.17-.11-.3-.11h-.68v.77Z"/>
        <path class="cls-27" d="M69.22,73.15c-.15,0-.28-.03-.39-.1-.11-.07-.2-.16-.25-.28-.06-.12-.09-.26-.09-.42v-1.19h.47v1.15c0,.08.02.15.05.21.03.06.08.11.14.14.06.03.13.05.2.05s.14-.02.2-.05c.06-.04.11-.08.14-.14.03-.06.05-.14.05-.22v-1.14h.47v1.94h-.44v-.38l.04.07c-.05.12-.12.21-.22.27-.1.06-.23.09-.36.09"/>
        <path class="cls-27" d="M70.64,70.45h.47v.5h-.47v-.5ZM70.64,71.17h.47v1.94h-.47v-1.94Z"/>
        <rect class="cls-27" x="71.54" y="70.41" width=".47" height="2.7"/>
        <path class="cls-27" d="M73.34,73.15c-.19,0-.36-.05-.5-.13-.15-.09-.26-.21-.35-.37-.09-.15-.13-.33-.13-.51s.04-.36.13-.52c.09-.15.2-.27.35-.36.15-.09.31-.14.5-.14.15,0,.28.03.39.09.11.06.21.14.27.24l-.07.1v-1.15h.47v2.7h-.44v-.38l.05.09c-.07.11-.16.18-.28.24-.12.06-.25.08-.39.08M73.39,72.73c.11,0,.2-.02.28-.08.08-.05.14-.12.19-.21.05-.09.07-.19.07-.3s-.02-.21-.07-.3c-.05-.09-.11-.16-.19-.21-.08-.05-.18-.07-.28-.07s-.2.03-.28.08c-.08.05-.15.12-.19.21-.05.09-.07.19-.07.3s.02.21.07.3c.05.09.11.16.19.21.08.05.18.08.28.08"/>
        <path class="cls-27" d="M74.84,70.45h.47v.5h-.47v-.5ZM74.84,71.17h.47v1.94h-.47v-1.94Z"/>
        <path class="cls-27" d="M75.74,73.11v-1.94h.44v.38l-.03-.07c.04-.12.12-.2.22-.27.1-.06.22-.09.36-.09s.27.03.38.09c.11.06.2.15.26.26.06.11.09.24.09.38v1.25h-.47v-1.14c0-.08-.02-.16-.05-.22-.03-.06-.08-.11-.14-.14-.06-.04-.13-.05-.2-.05s-.14.02-.2.05c-.06.03-.11.08-.14.14-.03.06-.05.14-.05.22v1.14h-.47Z"/>
        <path class="cls-27" d="M78.79,73.9c-.14,0-.28-.02-.4-.07-.12-.05-.23-.11-.32-.2-.09-.08-.15-.18-.19-.3l.43-.16c.03.09.08.16.17.22.08.06.19.08.31.08.1,0,.18-.02.25-.05.07-.03.13-.09.17-.15.04-.07.06-.15.06-.24v-.44l.09.11c-.07.12-.16.2-.27.26-.11.06-.24.09-.38.09-.18,0-.34-.04-.48-.12-.14-.08-.26-.2-.34-.34-.08-.14-.12-.31-.12-.49s.04-.35.12-.49c.08-.14.19-.26.33-.34.14-.08.3-.12.48-.12.14,0,.27.03.38.09.11.06.2.15.28.26l-.06.12v-.43h.44v1.85c0,.17-.04.32-.12.45-.08.13-.19.24-.33.31-.14.08-.3.11-.49.11M78.77,72.6c.1,0,.19-.02.26-.07.08-.04.13-.11.18-.18.04-.08.06-.17.06-.27s-.02-.19-.07-.27c-.04-.08-.1-.14-.18-.19-.07-.05-.16-.07-.26-.07s-.19.02-.26.07c-.08.04-.14.11-.18.19-.04.08-.07.17-.07.27s.02.19.07.27c.04.08.11.14.18.19.08.04.17.07.27.07"/>
        <path class="cls-27" d="M81.4,73.15c-.14,0-.25-.02-.35-.07-.1-.05-.18-.11-.23-.2-.06-.08-.08-.18-.08-.29s.02-.2.07-.29c.05-.08.12-.15.22-.21.1-.06.23-.1.38-.12l.64-.1v.36l-.55.09c-.09.02-.16.05-.21.09-.04.04-.07.1-.07.17s.03.12.08.16c.05.04.12.06.19.06.1,0,.18-.02.26-.06.08-.04.13-.1.18-.17.04-.07.06-.15.06-.24v-.5c0-.08-.03-.15-.1-.21-.07-.06-.15-.08-.26-.08-.1,0-.19.03-.27.08-.08.05-.13.12-.17.21l-.38-.19c.04-.1.1-.19.18-.27.08-.07.18-.13.29-.18s.23-.06.36-.06c.16,0,.3.03.42.09.12.06.21.14.28.24.07.1.1.22.1.36v1.29h-.44v-.33h.1c-.05.08-.11.15-.18.2-.07.05-.15.1-.24.13s-.19.05-.29.05"/>
        <path class="cls-27" d="M62.26,77.44c-.19,0-.36-.04-.53-.1-.16-.07-.3-.17-.42-.29-.12-.12-.21-.27-.28-.43-.07-.17-.1-.35-.1-.55s.03-.38.1-.55c.07-.17.16-.31.28-.43.12-.12.26-.22.42-.29.16-.07.34-.1.53-.1s.36.03.51.1.28.15.38.26c.1.11.18.22.23.35l-.44.2c-.05-.13-.13-.24-.25-.33-.12-.09-.26-.13-.43-.13s-.31.04-.44.12c-.13.08-.23.19-.3.32s-.11.3-.11.49.04.35.11.49.17.25.3.33c.13.08.27.12.44.12s.31-.04.43-.13c.12-.09.2-.2.25-.33l.44.2c-.05.13-.12.24-.23.35-.11.11-.23.19-.38.26-.15.06-.32.1-.51.1"/>
        <path class="cls-27" d="M64.42,77.44c-.15,0-.28-.03-.39-.1-.11-.07-.2-.16-.25-.28-.06-.12-.09-.26-.09-.42v-1.19h.47v1.15c0,.08.02.15.05.21.03.06.08.11.14.14.06.03.13.05.2.05s.14-.02.2-.05c.06-.04.11-.08.14-.14.03-.06.05-.14.05-.22v-1.14h.47v1.94h-.44v-.38l.04.07c-.05.12-.12.21-.22.27-.1.06-.23.09-.36.09"/>
        <rect class="cls-27" x="65.85" y="74.69" width=".47" height="2.7"/>
        <path class="cls-27" d="M67.63,77.41c-.22,0-.39-.06-.51-.18-.12-.12-.18-.29-.18-.51v-.86h-.34v-.42h.04c.1,0,.17-.02.22-.07.05-.05.08-.12.08-.22v-.15h.47v.44h.45v.42h-.45v.83c0,.06.01.12.03.16.02.05.06.08.11.1.05.02.11.04.19.04.02,0,.04,0,.06,0,.02,0,.05,0,.07,0v.4s-.07.01-.11.02c-.04,0-.08,0-.12,0"/>
        <path class="cls-27" d="M68.91,77.44c-.15,0-.28-.03-.39-.1-.11-.07-.2-.16-.25-.28-.06-.12-.09-.26-.09-.42v-1.19h.47v1.15c0,.08.02.15.05.21.03.06.08.11.14.14.06.03.13.05.2.05s.14-.02.2-.05c.06-.04.11-.08.14-.14.03-.06.05-.14.05-.22v-1.14h.47v1.94h-.44v-.38l.04.07c-.05.12-.12.21-.22.27-.1.06-.23.09-.36.09"/>
        <path class="cls-27" d="M70.34,77.39v-1.94h.44v.43l-.03-.06c.04-.14.12-.25.21-.3.1-.06.21-.09.35-.09h.11v.41h-.17c-.13,0-.24.04-.32.12-.08.08-.12.2-.12.35v1.08h-.47Z"/>
        <path class="cls-27" d="M72.59,77.44c-.2,0-.38-.05-.52-.14-.15-.09-.27-.21-.35-.37-.08-.15-.12-.33-.12-.51s.04-.37.13-.52c.08-.15.2-.27.35-.36.15-.09.31-.13.49-.13.15,0,.29.02.4.08.11.05.21.12.29.21.08.09.14.19.18.3s.06.23.06.37c0,.03,0,.07,0,.1,0,.04,0,.07-.02.09h-1.5v-.36h1.24l-.22.17c.02-.11.02-.21-.02-.29-.03-.08-.08-.15-.16-.2-.07-.05-.16-.08-.26-.08s-.18.02-.26.07c-.08.05-.13.12-.17.21-.04.09-.05.21-.05.34,0,.12,0,.22.05.32.04.09.1.16.19.21.08.05.18.07.28.07s.2-.02.27-.07c.08-.05.13-.11.18-.18l.38.18c-.04.09-.1.18-.18.25-.08.07-.18.13-.29.17-.11.04-.23.06-.37.06"/>
        <path class="cls-27" d="M75.44,77.44c-.19,0-.36-.04-.52-.13-.15-.09-.28-.21-.37-.36-.09-.15-.14-.33-.14-.52s.05-.37.14-.52c.09-.15.22-.27.37-.36.15-.09.33-.13.52-.13s.36.04.52.13c.15.09.28.21.37.36.09.15.14.33.14.52s-.05.37-.14.52c-.09.15-.22.27-.37.36-.15.09-.33.13-.51.13M75.44,77.01c.11,0,.2-.02.28-.08.08-.05.14-.12.19-.21s.07-.19.07-.3-.02-.21-.07-.3-.11-.16-.19-.21c-.08-.05-.17-.08-.28-.08s-.2.03-.28.08c-.08.05-.14.12-.19.21-.05.09-.07.19-.07.3s.02.21.07.3c.05.09.11.16.19.21.08.05.17.08.28.08"/>
        <path class="cls-27" d="M77,77.39v-1.52h-.34v-.42h.34v-.06c0-.15.03-.27.09-.38.06-.1.15-.18.26-.24.11-.06.24-.08.39-.08.03,0,.06,0,.1,0,.03,0,.06,0,.09.01v.4s-.05,0-.07,0c-.02,0-.04,0-.06,0-.1,0-.19.02-.24.07-.06.05-.09.12-.09.22v.06h.43v.42h-.43v1.52h-.47Z"/>
        <polygon class="cls-27" points="79.37 77.39 79.37 75.16 78.68 75.16 78.68 74.73 80.53 74.73 80.53 75.16 79.86 75.16 79.86 77.39 79.37 77.39"/>
        <path class="cls-27" d="M80.58,77.39v-1.94h.44v.43l-.03-.06c.04-.14.12-.25.21-.3.1-.06.21-.09.35-.09h.11v.41h-.17c-.13,0-.24.04-.32.12-.08.08-.12.2-.12.35v1.08h-.47Z"/>
        <path class="cls-27" d="M82.6,77.44c-.15,0-.28-.03-.39-.1-.11-.07-.2-.16-.25-.28-.06-.12-.09-.26-.09-.42v-1.19h.47v1.15c0,.08.02.15.05.21.03.06.08.11.14.14.06.03.13.05.2.05s.14-.02.2-.05c.06-.04.11-.08.14-.14.03-.06.05-.14.05-.22v-1.14h.47v1.94h-.44v-.38l.04.07c-.05.12-.12.21-.22.27-.1.06-.23.09-.36.09"/>
        <path class="cls-27" d="M84.77,77.44c-.21,0-.39-.05-.54-.15-.15-.1-.26-.23-.32-.4l.35-.17c.05.11.12.2.21.26.09.06.19.09.3.09.09,0,.15-.02.2-.06.05-.04.08-.09.08-.15,0-.04-.01-.07-.03-.09-.02-.02-.05-.05-.08-.06-.03-.02-.07-.03-.11-.05l-.32-.09c-.16-.05-.29-.12-.37-.22-.08-.1-.13-.21-.13-.35,0-.12.03-.22.09-.31.06-.09.14-.16.25-.21.11-.05.23-.08.37-.08.18,0,.34.04.48.13.14.09.24.21.3.37l-.36.17c-.03-.09-.09-.16-.17-.21-.08-.05-.17-.08-.26-.08-.08,0-.14.02-.18.05-.05.04-.07.08-.07.14,0,.04,0,.07.03.09.02.03.05.05.08.06.03.02.07.03.12.05l.31.09c.16.05.28.12.37.22.09.1.13.21.13.35,0,.12-.03.22-.09.31s-.15.16-.26.21c-.11.05-.24.08-.39.08"/>
        <path class="cls-27" d="M86.75,77.41c-.22,0-.39-.06-.51-.18-.12-.12-.18-.29-.18-.51v-.86h-.34v-.42h.04c.1,0,.17-.02.22-.07.05-.05.08-.12.08-.22v-.15h.47v.44h.45v.42h-.45v.83c0,.06.01.12.03.16.02.05.06.08.11.1.05.02.11.04.19.04.02,0,.04,0,.06,0,.02,0,.05,0,.07,0v.4s-.07.01-.11.02c-.04,0-.08,0-.12,0"/>
        <path class="cls-27" d="M67.29,81.72c-.14,0-.25-.02-.35-.07-.1-.05-.18-.11-.23-.2-.06-.08-.08-.18-.08-.29s.02-.2.07-.29c.05-.08.12-.15.22-.21.1-.06.23-.1.38-.12l.64-.1v.36l-.55.09c-.09.02-.16.05-.21.09-.04.04-.07.1-.07.17s.03.12.08.16c.05.04.12.06.19.06.1,0,.18-.02.26-.06.08-.04.13-.1.18-.17.04-.07.06-.15.06-.24v-.5c0-.08-.03-.15-.1-.21-.07-.06-.15-.08-.26-.08-.1,0-.19.03-.27.08-.08.05-.13.12-.17.21l-.38-.19c.04-.1.1-.19.18-.27.08-.07.18-.13.29-.18s.23-.06.36-.06c.16,0,.3.03.42.09.12.06.21.14.28.24.07.1.1.22.1.36v1.29h-.44v-.33h.1c-.05.08-.11.15-.18.2-.07.05-.15.1-.24.13s-.19.05-.29.05"/>
        <path class="cls-27" d="M68.77,81.68v-1.94h.44v.38l-.03-.07c.04-.12.12-.2.22-.27.1-.06.22-.09.36-.09s.27.03.38.09c.11.06.2.15.26.26.06.11.09.24.09.38v1.25h-.47v-1.14c0-.08-.02-.16-.05-.22-.03-.06-.08-.11-.14-.14-.06-.04-.13-.05-.2-.05s-.14.02-.2.05c-.06.03-.11.08-.14.14-.03.06-.05.14-.05.22v1.14h-.47Z"/>
        <path class="cls-27" d="M71.79,81.72c-.19,0-.36-.05-.5-.13-.15-.09-.26-.21-.35-.37-.09-.15-.13-.33-.13-.51s.04-.36.13-.52c.09-.15.2-.27.35-.36.15-.09.31-.14.5-.14.15,0,.28.03.39.09.11.06.21.14.27.24l-.07.1v-1.15h.47v2.7h-.44v-.38l.05.09c-.07.11-.16.18-.28.24-.12.06-.25.08-.39.08M71.84,81.29c.11,0,.2-.02.28-.08.08-.05.14-.12.19-.21.05-.09.07-.19.07-.3s-.02-.21-.07-.3c-.05-.09-.11-.16-.19-.21-.08-.05-.18-.07-.28-.07s-.2.03-.28.08c-.08.05-.15.12-.19.21-.05.09-.07.19-.07.3s.02.21.07.3c.05.09.11.16.19.21.08.05.18.08.28.08"/>
        <path class="cls-27" d="M75.21,81.72c-.19,0-.36-.04-.53-.1-.16-.07-.3-.17-.42-.29-.12-.12-.21-.27-.28-.43-.07-.17-.1-.35-.1-.55s.03-.38.1-.55c.07-.17.16-.31.28-.43.12-.12.26-.22.42-.29.16-.07.34-.1.53-.1s.36.03.51.1.28.15.38.26c.1.11.18.22.23.35l-.44.2c-.05-.13-.13-.24-.25-.33-.12-.09-.26-.13-.43-.13s-.31.04-.44.12c-.13.08-.23.19-.3.32s-.11.3-.11.49.04.35.11.49.17.25.3.33c.13.08.27.12.44.12s.31-.04.43-.13c.12-.09.2-.2.25-.33l.44.2c-.05.13-.12.24-.23.35-.11.11-.23.19-.38.26-.15.06-.32.1-.51.1"/>
        <path class="cls-27" d="M77.24,81.72c-.14,0-.25-.02-.35-.07-.1-.05-.18-.11-.23-.2-.06-.08-.08-.18-.08-.29s.02-.2.07-.29c.05-.08.12-.15.22-.21.1-.06.23-.1.38-.12l.64-.1v.36l-.55.09c-.09.02-.16.05-.21.09-.04.04-.07.1-.07.17s.03.12.08.16c.05.04.12.06.19.06.1,0,.18-.02.26-.06.08-.04.13-.1.18-.17.04-.07.06-.15.06-.24v-.5c0-.08-.03-.15-.1-.21-.07-.06-.15-.08-.26-.08-.1,0-.19.03-.27.08-.08.05-.13.12-.17.21l-.38-.19c.04-.1.1-.19.18-.27.08-.07.18-.13.29-.18s.23-.06.36-.06c.16,0,.3.03.42.09.12.06.21.14.28.24.07.1.1.22.1.36v1.29h-.44v-.33h.1c-.05.08-.11.15-.18.2-.07.05-.15.1-.24.13s-.19.05-.29.05"/>
        <path class="cls-27" d="M78.72,81.68v-1.94h.44v.43l-.03-.06c.04-.14.12-.25.21-.3.1-.06.21-.09.35-.09h.11v.41h-.17c-.13,0-.24.04-.32.12-.08.08-.12.2-.12.35v1.08h-.47Z"/>
        <path class="cls-27" d="M80.97,81.72c-.2,0-.38-.05-.52-.14-.15-.09-.27-.21-.35-.37-.08-.15-.12-.33-.12-.51s.04-.37.13-.52c.08-.15.2-.27.35-.36.15-.09.31-.13.49-.13.15,0,.29.02.4.08.11.05.21.12.29.21.08.09.14.19.18.3s.06.23.06.37c0,.03,0,.07,0,.1,0,.04,0,.07-.02.09h-1.5v-.36h1.24l-.22.17c.02-.11.02-.21-.02-.29-.03-.08-.08-.15-.16-.2-.07-.05-.16-.08-.26-.08s-.18.02-.26.07c-.08.05-.13.12-.17.21-.04.09-.05.21-.05.34,0,.12,0,.22.05.32.04.09.1.16.19.21.08.05.18.07.28.07s.2-.02.27-.07c.08-.05.13-.11.18-.18l.38.18c-.04.09-.1.18-.18.25-.08.07-.18.13-.29.17-.11.04-.23.06-.37.06"/>
        <path class="cls-15" d="M42.88,55.78s.06-.05.1-.07c.04-.02.08-.02.12-.02.02,0,.05,0,.07,0,.02,0,.04.01.06.02.02.01.04.02.05.03.02.01.03.02.04.04.03.03.06.05.09.05.01,0,.02,0,.04,0,.02,0,.03-.01.05-.02.02-.01.03-.02.04-.04.01-.02.02-.04.02-.06,0-.03,0-.05-.03-.08-.05-.06-.11-.1-.18-.14-.07-.03-.15-.05-.25-.05-.08,0-.15.02-.21.04-.07.03-.12.07-.18.12-.05.05-.09.11-.12.18-.03.07-.04.14-.04.22s.01.15.04.21c.03.07.07.13.12.18.05.05.11.09.18.12.07.03.14.04.21.04.09,0,.17-.02.25-.05.07-.03.13-.08.18-.14.02-.02.03-.05.03-.08,0-.02,0-.03-.01-.05,0-.02-.02-.03-.03-.04s-.03-.02-.05-.03c-.02,0-.03-.01-.05-.01s-.03,0-.04.01c-.02,0-.03.02-.05.04-.02.03-.05.05-.09.07-.04.02-.08.03-.13.03-.04,0-.08,0-.12-.02-.04-.02-.07-.04-.1-.07-.03-.03-.05-.06-.07-.1s-.02-.08-.02-.12,0-.08.02-.12c.02-.04.04-.07.07-.1M44.27,55.52c-.02-.05-.06-.08-.12-.08s-.1.03-.12.08l-.38.84s-.01.03-.01.05c0,.02,0,.04.01.06,0,.02.02.03.03.04.01,0,.02.02.04.02.01,0,.03,0,.04,0,.02,0,.05,0,.07-.02.02-.01.04-.03.05-.05l.05-.12h.44l.05.12s.02.04.05.05c.02.01.04.02.07.02.03,0,.06-.01.09-.04.02-.02.04-.05.04-.09,0-.02,0-.03,0-.05l-.37-.84ZM44.02,56.12l.13-.31.13.31h-.26ZM45.54,56.32l-.2-.16c.08-.03.14-.07.18-.12.04-.05.06-.12.06-.19,0-.05-.01-.1-.03-.15-.02-.05-.05-.09-.08-.12-.04-.04-.08-.06-.12-.08-.05-.02-.1-.03-.15-.03h-.28s-.06.01-.09.04c-.02.02-.04.05-.04.09v.82s.01.06.04.09c.03.02.05.04.09.04s.07-.01.09-.04.04-.05.04-.09v-.18h.01l.32.28s.03.02.04.02c.02,0,.03,0,.04,0,.02,0,.04,0,.05-.01.02,0,.03-.02.04-.03.01-.01.02-.02.02-.04,0-.01,0-.03,0-.04,0-.02,0-.03-.01-.05,0-.01-.02-.03-.03-.04M45.3,55.95s-.03.02-.05.03-.04.01-.06.01h-.15v-.3h.15s.04,0,.06.01.03.02.05.03c.01.01.02.03.03.05,0,.02.01.04.01.06s0,.04-.01.06-.02.03-.03.05M46.38,55.69s.06-.01.08-.03c.02-.02.03-.05.03-.08s-.01-.06-.03-.08c-.02-.02-.05-.03-.08-.03h-.48s-.06.01-.09.04c-.03.02-.04.05-.04.09v.82s.01.06.04.09.05.04.09.04h.48s.06-.01.08-.03c.02-.02.03-.05.03-.08s-.01-.06-.03-.08c-.02-.02-.05-.03-.08-.03h-.36v-.21h.27s.06-.01.08-.03c.02-.02.03-.05.03-.07s-.01-.06-.03-.08c-.02-.02-.05-.03-.08-.03h-.27v-.18h.36ZM47.25,55.46s-.06.01-.09.04c-.02.02-.04.05-.04.09v.82s.01.06.04.09c.02.02.05.04.09.04.04,0,.07-.01.09-.04.02-.03.04-.05.04-.09v-.82s-.01-.06-.04-.09c-.02-.02-.05-.04-.09-.04M48.39,55.46s-.06.01-.09.04c-.02.02-.04.05-.04.09v.5l-.45-.58s-.02-.02-.04-.03c-.02,0-.04-.01-.06-.01-.03,0-.06.01-.09.04-.02.02-.04.05-.04.09v.82s.01.06.04.09c.02.02.05.04.09.04.04,0,.07-.01.09-.04.02-.03.04-.05.04-.09v-.5l.45.58s.02.03.04.04c.02,0,.04.01.06.01.04,0,.07-.01.09-.04.02-.03.04-.05.04-.09v-.82s-.01-.06-.04-.09c-.02-.02-.05-.04-.09-.04M49.78,55.69s.06-.01.08-.03c.02-.02.03-.05.03-.08s-.01-.06-.03-.08c-.02-.02-.05-.03-.08-.03h-.48s-.06.01-.09.04c-.02.02-.04.05-.04.09v.82s.01.06.04.09c.02.02.05.04.09.04h.48s.06-.01.08-.03c.02-.02.03-.05.03-.08s-.01-.06-.03-.08c-.02-.02-.05-.03-.08-.03h-.36v-.21h.27s.06-.01.08-.03c.02-.02.03-.05.03-.07s-.01-.06-.03-.08c-.02-.02-.05-.03-.08-.03h-.27v-.18h.36ZM50.93,55.49s-.03-.02-.04-.02c-.02,0-.03,0-.05,0-.02,0-.05,0-.07.02-.02.01-.04.03-.05.05l-.25.62-.25-.62s-.02-.04-.05-.05-.04-.02-.07-.02c-.02,0-.04,0-.06.01-.01,0-.03.02-.04.03-.01.01-.02.02-.02.04,0,.01,0,.03,0,.04,0,.02,0,.03.01.05l.36.82s.02.04.04.06c.02.02.04.02.07.02s.05,0,.07-.02c.02-.01.03-.03.05-.06l.36-.82s.01-.03.01-.05c0-.02,0-.04-.01-.05,0-.01-.02-.03-.03-.04M51.72,55.69s.06-.01.08-.03c.02-.02.03-.05.03-.08s-.01-.06-.03-.08c-.02-.02-.05-.03-.08-.03h-.48s-.06.01-.09.04c-.03.02-.04.05-.04.09v.82s.01.06.04.09.05.04.09.04h.48s.06-.01.08-.03c.02-.02.03-.05.03-.08s-.01-.06-.03-.08c-.02-.02-.05-.03-.08-.03h-.36v-.21h.27s.06-.01.08-.03c.02-.02.03-.05.03-.07s-.01-.06-.03-.08c-.02-.02-.05-.03-.08-.03h-.27v-.18h.36ZM52.76,56.32l-.2-.16c.08-.03.14-.07.18-.12.04-.05.06-.12.06-.19,0-.05,0-.1-.03-.15-.02-.05-.05-.09-.08-.12-.04-.04-.08-.06-.12-.08-.05-.02-.1-.03-.15-.03h-.28s-.06.01-.09.04c-.02.02-.04.05-.04.09v.82s.01.06.04.09c.02.02.05.04.09.04s.06-.01.09-.04c.02-.03.04-.05.04-.09v-.18h.01l.33.28s.02.02.04.02c.02,0,.03,0,.04,0,.02,0,.04,0,.05-.01.01,0,.03-.02.04-.03.01-.01.02-.02.02-.04,0-.01,0-.03,0-.04,0-.02,0-.03-.01-.05,0-.01-.02-.03-.03-.04M52.52,55.95s-.03.02-.05.03c-.02,0-.04.01-.06.01h-.15v-.3h.15s.04,0,.06.01c.02,0,.04.02.05.03.01.01.03.03.03.05,0,.02.01.04.01.06s0,.04-.01.06-.02.03-.03.05M53.73,55.49s-.03-.02-.04-.03c-.02,0-.03,0-.04,0-.02,0-.04,0-.06.01-.02,0-.03.02-.05.04l-.22.31-.22-.31s-.03-.03-.05-.04c-.02,0-.04-.01-.06-.01-.01,0-.03,0-.04,0-.01,0-.03.01-.04.03-.01.01-.02.02-.03.04,0,.02-.01.03-.01.05,0,.03,0,.05.02.07l.3.43v.32s.01.06.04.09c.02.02.05.04.09.04s.06-.01.09-.04c.02-.03.04-.05.04-.09v-.32l.3-.43s.02-.05.02-.07c0-.02,0-.04-.01-.05,0-.02-.02-.03-.03-.04M55.2,55.62s-.1-.09-.16-.12c-.06-.03-.13-.04-.2-.04h-.34s-.06.01-.09.04c-.02.02-.04.05-.04.09v.82s.01.06.04.09c.02.02.05.04.09.04h.34c.07,0,.14-.01.2-.04.06-.03.12-.07.16-.12.04-.05.08-.11.11-.17.03-.07.04-.13.04-.2s-.01-.14-.04-.21c-.02-.06-.06-.12-.11-.17M55.08,56.11s-.04.07-.06.09c-.03.03-.06.05-.09.07-.04.02-.07.02-.11.02h-.18v-.61h.18s.08,0,.11.03c.03.02.07.04.09.07.03.03.05.06.06.1.01.04.02.08.02.12s0,.08-.02.12M56.25,56.32l-.2-.16c.08-.03.14-.07.18-.12.04-.05.06-.12.06-.19,0-.05,0-.1-.03-.15-.02-.05-.05-.09-.08-.12-.04-.04-.08-.06-.12-.08-.05-.02-.1-.03-.15-.03h-.28s-.06.01-.09.04c-.02.02-.04.05-.04.09v.82s.01.06.04.09c.02.02.05.04.09.04s.06-.01.09-.04c.02-.03.04-.05.04-.09v-.18h.01l.32.28s.02.02.04.02c.01,0,.03,0,.04,0,.02,0,.04,0,.05-.01.02,0,.03-.02.04-.03.01-.01.02-.02.02-.04,0-.01,0-.03,0-.04,0-.02,0-.03-.01-.05,0-.01-.02-.03-.03-.04M56,55.95s-.03.02-.05.03c-.02,0-.04.01-.06.01h-.15v-.3h.15s.04,0,.06.01c.02,0,.04.02.05.03.01.01.02.03.03.05,0,.02.01.04.01.06s0,.04-.01.06c0,.02-.02.03-.03.05M57.36,55.6s-.11-.09-.18-.12c-.07-.03-.14-.04-.22-.04s-.15.02-.21.04c-.07.03-.13.07-.18.12-.05.05-.09.11-.12.18-.03.07-.04.14-.04.22s.02.15.04.21c.03.07.07.13.12.18.05.05.11.09.18.12.07.03.14.04.21.04s.15-.02.22-.04c.07-.03.13-.07.18-.12.05-.05.09-.11.12-.18.03-.07.04-.14.04-.21s-.01-.15-.04-.22c-.03-.07-.07-.12-.12-.18M57.25,56.11s-.04.07-.07.1-.06.05-.1.07c-.04.02-.08.02-.12.02s-.08,0-.12-.02c-.04-.02-.07-.04-.1-.07-.03-.03-.05-.06-.07-.1-.02-.04-.02-.08-.02-.12s0-.08.02-.12c.02-.04.04-.07.07-.1.03-.03.06-.05.1-.07.04-.02.08-.02.12-.02s.08,0,.12.02c.04.02.07.04.1.07.03.03.05.06.07.1.02.04.02.08.02.12s0,.08-.02.12M58.4,55.69s-.05-.09-.08-.12c-.04-.03-.08-.06-.12-.08-.05-.02-.1-.03-.15-.03h-.28s-.06.01-.09.04c-.02.02-.04.05-.04.09v.82s.01.06.04.09c.02.02.05.04.09.04.04,0,.07-.01.09-.04.02-.03.04-.05.04-.09v-.18h.16c.05,0,.1,0,.15-.03.05-.02.09-.05.12-.08.04-.03.06-.08.08-.12.02-.05.03-.1.03-.15s-.01-.1-.03-.15M58.17,55.9s-.02.03-.03.05c-.01.01-.03.02-.05.03-.02,0-.04.01-.06.01h-.14v-.3h.14s.04,0,.06.01c.02,0,.03.02.05.03.01.01.02.03.03.05,0,.02.01.04.01.06s0,.04-.01.06M47.89,43.79c.17-.16.2-.4.2-.4,0,0-.21.06-.35.23-.14.17.03.29.15.17M54.54,45.89c.03-.22-.18-.24-.22-.07-.07.22.04.45.04.45,0,0,.14-.16.18-.38M48.65,42.16c.23.05.44-.08.44-.08,0,0-.17-.13-.39-.14-.22-.01-.22.2-.05.23M54.1,46.5c-.12.17-.35.52-.23.04.11-.48.33-1.67-.07-1.77-.4-.1-.15.82-.41.27-.25-.55-.51-1.11-1.33-1.78-.82-.67-2.06-1.2-2.57-1.24-.04,0-.18,0-.18.06,0,.07.15.12.2.14.11.05.26.11.33.23.03.06.05.13-.04.14-.08,0-.17-.03-.25-.05-.61-.2-1.29-.34-1.95.29-.31.3-.05.67.23.33.28-.33.79-.5.97-.43.04.01.09.05.08.11-.02.05-.07.06-.11.06-.05,0-.11,0-.17,0-.04,0-.08,0-.12.02-.08.02-.17.04-.24.09-.03.02-.06.05-.07.08-.06.14.14.15.36.06.22-.09,1.67-.29,2.92.47,1.24.76,1.87,2.22,1.74,3.65-.12,1.43-.94,2.33-1.62,2.79-.25.17-.57.32-.93.42.64-.46,1.05-1.2,1.05-2.04,0-1.15-.77-2.11-1.82-2.42.2-.12.12-.35-.73-.26-1.15.12-1.77.87-1.88,1.03-.07-.14-.26-.14-.43.11-.68,1.16-.02,2.46-.02,2.46,0,0,0,0,0-.03.16.41.42.78.76,1.05-.07-.08-.12-.17-.18-.27-.2-.27-.45-.71-.43-1.2,0-.2.12-.3.19-.17.02-.29.15-.93.9-1.44.18-.11.29-.07.28.02.26-.15.87-.42,1.73-.14.22.09.24.21.11.24.41.22.72.56.81.96.26,1.09-.42,1.81-1.21,1.96-.39.07-.82-.02-1.11-.24-.1-.06-.52-.35-.5-.86,0-.21.08-.26.13-.17.02-.14.1-.39.37-.64.14-.1.22-.07.15.05.33-.15.73-.1.93.09.35.33.05.65-.29.31-.36-.35-1,.19-.64.78.39.63,1.74.22,1.77-.7-.01-1.43-1.66-1.48-2.28-1.04-.7.49-.87,1.43-.3,2.21.2.28.45.45.69.55.06.03.14.06.23.09,0,0,0,0,0,0,.14.04.32.08.56.1.08,0,.16.01.25.02.39.02.89,0,1.53-.09,1.81-.27,2.02-.88,1.84-.97-.08-.04-.17.01-.23.06-.19.15-.39.26-.63.32-.04.01-.13.02-.16-.02-.04-.05.05-.12.08-.15.13-.11.28-.21.41-.33.14-.13.28-.27.41-.41.17-.19.33-.38.48-.59.17-.23.33-.47.46-.73.15-.28.27-.56.37-.86.01-.04.02-.07.03-.11.18-.65-.09-.69-.2-.52"/>
        <path class="cls-14" d="M40.47,52.21c-.02-.06-.05-.11-.1-.16-.05-.04-.11-.06-.18-.06-.06,0-.11.02-.16.05-.05.04-.09.08-.11.14l-.39,1.06-.38-1.06c-.02-.06-.06-.1-.11-.14-.05-.03-.1-.05-.16-.05-.07,0-.13.02-.18.06-.05.04-.08.09-.1.16l-.47,1.88s0,.05,0,.07c0,.04,0,.08.02.11.02.03.04.06.06.09.02.03.06.05.09.06.04.02.07.02.11.02.06,0,.12-.02.17-.06.05-.04.09-.09.1-.15l.25-.97.36,1c.02.06.05.1.09.14.04.03.09.05.15.05s.11-.02.15-.05.07-.08.09-.14l.36-1,.24.97c.02.06.05.11.11.15.05.04.11.06.17.06.05,0,.09,0,.13-.03.03-.02.06-.04.09-.07.02-.03.04-.06.05-.09.01-.03.02-.06.02-.09v-.03s0-.02,0-.03l-.47-1.88ZM42.48,52.13c-.05-.12-.14-.17-.27-.17s-.22.06-.27.17l-.87,1.91s-.03.08-.03.11c0,.05.01.1.03.13.02.04.04.07.07.09.03.02.06.04.09.05.03.01.06.02.09.02.05,0,.1-.02.15-.04.05-.03.08-.07.1-.12l.12-.28h1l.11.28c.02.05.06.09.11.12.05.03.1.04.15.04.08,0,.15-.03.2-.08.05-.05.08-.12.08-.2,0-.04,0-.08-.02-.11l-.85-1.91ZM41.91,53.5l.3-.71.29.71h-.59ZM45.36,51.99c-.08,0-.15.03-.2.08-.06.06-.08.12-.08.2v1.14l-1.03-1.32s-.05-.05-.09-.07c-.04-.02-.08-.03-.13-.03-.08,0-.15.03-.2.08-.06.06-.08.12-.08.2v1.87c0,.08.03.15.08.2.05.06.12.08.2.08s.15-.03.2-.08c.06-.06.08-.12.08-.2v-1.14l1.02,1.31s.05.06.09.08c.04.02.08.04.13.04.08,0,.15-.03.2-.08.05-.06.08-.12.08-.2v-1.87c0-.08-.03-.14-.08-.2-.06-.05-.12-.08-.2-.08M46.24,51.99c-.08,0-.15.03-.2.08-.05.06-.08.12-.08.2v1.87c0,.08.03.15.08.2.06.06.12.08.2.08s.15-.03.2-.08c.06-.06.08-.12.08-.2v-1.87c0-.08-.03-.14-.08-.2-.06-.05-.12-.08-.2-.08M48.06,53.91h-.73v-1.63c0-.08-.03-.14-.08-.2-.06-.05-.12-.08-.2-.08s-.14.03-.2.08c-.06.06-.08.12-.08.2v1.88c0,.08.03.14.08.2.06.06.12.08.2.08h1.02c.07,0,.13-.03.19-.08.05-.05.08-.11.08-.19s-.03-.14-.08-.19c-.05-.05-.12-.08-.19-.08M49.97,52.13c-.05-.12-.14-.17-.27-.17s-.22.06-.27.17l-.87,1.91s-.03.08-.03.11c0,.05.01.1.03.13.02.04.04.07.07.09.03.02.06.04.09.05.03.01.06.02.09.02.05,0,.11-.02.15-.04.05-.03.08-.07.1-.12l.12-.28h1l.11.28c.02.05.06.09.1.12.05.03.1.04.15.04.08,0,.14-.03.2-.08.06-.05.08-.12.08-.2,0-.04,0-.08-.02-.11l-.85-1.91ZM49.4,53.5l.3-.71.29.71h-.59ZM54.98,52.28s0-.06-.02-.09c-.01-.03-.03-.07-.05-.09-.02-.03-.05-.05-.09-.07-.04-.02-.08-.03-.13-.03-.06,0-.12.02-.17.05-.05.04-.08.08-.1.14l-.34,1.19-.42-1.19c-.02-.06-.06-.11-.1-.15-.05-.03-.11-.05-.17-.05s-.12.02-.17.05c-.05.03-.08.08-.11.15l-.42,1.19-.33-1.19c-.02-.06-.05-.11-.1-.14-.05-.04-.11-.05-.17-.05-.05,0-.09,0-.12.03-.04.02-.07.04-.09.07-.02.03-.04.06-.05.09-.01.03-.02.07-.02.09,0,.03,0,.06.01.09l.59,1.87c.02.06.05.11.1.14.05.04.1.05.16.05s.12-.02.16-.05c.05-.03.08-.08.1-.14l.46-1.29.46,1.29c.02.06.05.11.1.14.05.03.1.05.16.05s.12-.02.16-.05c.05-.03.08-.08.1-.14l.59-1.87s.01-.05.01-.09M56.23,52.13c-.05-.12-.14-.17-.27-.17s-.22.06-.27.17l-.87,1.91s-.03.08-.03.11c0,.05.01.1.03.13.02.04.04.07.07.09.03.02.06.04.09.05.03.01.06.02.09.02.06,0,.11-.02.15-.04.05-.03.08-.07.11-.12l.12-.28h1l.11.28c.02.05.06.09.1.12.05.03.1.04.15.04.08,0,.14-.03.2-.08.05-.05.08-.12.08-.2,0-.04,0-.08-.02-.11l-.85-1.91ZM55.66,53.5l.3-.71.29.71h-.59ZM58.6,51.99h-1.54c-.07,0-.14.03-.19.08-.05.05-.08.11-.08.19s.02.14.08.19c.05.05.11.08.19.08h.49v1.63c0,.08.03.15.08.2.06.06.12.08.2.08s.14-.03.2-.08c.06-.06.08-.12.08-.2v-1.63h.48c.07,0,.14-.03.19-.08.05-.05.08-.11.08-.19s-.02-.14-.08-.19c-.05-.05-.12-.08-.19-.08M60.51,52.52c.07,0,.14-.03.19-.08.05-.05.08-.11.08-.19s-.03-.14-.08-.19c-.05-.05-.11-.08-.19-.08h-1.1c-.08,0-.15.03-.2.08-.06.06-.08.12-.08.2v1.88c0,.08.03.14.08.2.05.06.12.08.2.08h1.1c.07,0,.14-.03.19-.08.05-.05.08-.11.08-.19s-.03-.14-.08-.19c-.05-.05-.11-.08-.19-.08h-.82v-.48h.63c.07,0,.13-.03.17-.07.05-.05.07-.11.07-.17s-.02-.12-.07-.17c-.05-.05-.1-.07-.17-.07h-.63v-.42h.82ZM62.83,54.04s-.04-.07-.07-.09l-.46-.37c.18-.06.32-.15.41-.27.09-.12.14-.27.14-.43,0-.12-.02-.23-.07-.34-.05-.11-.11-.2-.19-.28-.08-.08-.17-.14-.28-.19-.11-.05-.22-.07-.34-.07h-.63c-.08,0-.14.03-.2.08-.05.06-.08.12-.08.2v1.87c0,.08.03.15.08.2.06.06.12.08.2.08.08,0,.15-.03.2-.08.06-.06.08-.12.08-.2v-.41h.03l.74.63s.05.04.09.05c.03.01.07.02.1.02.04,0,.09,0,.12-.03.03-.02.06-.04.09-.07.02-.03.04-.06.05-.09.01-.03.02-.06.02-.09,0-.04,0-.08-.02-.11M62.2,53.11s-.07.06-.11.08c-.04.02-.09.03-.13.03h-.34v-.69h.34s.09,0,.13.03c.04.02.08.04.11.08.03.03.06.07.08.11.02.04.03.09.03.14s0,.09-.03.13c-.02.04-.04.08-.08.11"/>
      </g>
    </g>
  </g>
</svg>