<?xml version="1.0" encoding="UTF-8"?>
<svg id="Layer_1" xmlns="http://www.w3.org/2000/svg" xmlns:xlink="http://www.w3.org/1999/xlink" version="1.1" viewBox="0 0 453.12 295.89">
  <!-- Generator: Adobe Illustrator 29.4.0, SVG Export Plug-In . SVG Version: 2.1.0 Build 152)  -->
  <defs>
    <style>
      .st0, .st1 {
        fill: none;
      }

      .st2 {
        isolation: isolate;
      }

      .st1 {
        stroke: #009bce;
        stroke-miterlimit: 10;
        stroke-width: .69px;
      }

      .st3 {
        clip-path: url(#clippath-11);
      }

      .st4 {
        clip-path: url(#clippath-10);
      }

      .st5 {
        clip-path: url(#clippath-13);
      }

      .st6 {
        clip-path: url(#clippath-12);
      }

      .st7 {
        clip-path: url(#clippath-1);
      }

      .st8 {
        clip-path: url(#clippath-3);
      }

      .st9 {
        clip-path: url(#clippath-4);
      }

      .st10 {
        clip-path: url(#clippath-2);
      }

      .st11 {
        clip-path: url(#clippath-7);
      }

      .st12 {
        clip-path: url(#clippath-6);
      }

      .st13 {
        clip-path: url(#clippath-9);
      }

      .st14 {
        clip-path: url(#clippath-8);
      }

      .st15 {
        clip-path: url(#clippath-5);
      }

      .st16 {
        fill: #fff;
      }

      .st17 {
        fill: #099;
      }

      .st18 {
        fill: #14a780;
      }

      .st19 {
        opacity: .5;
      }

      .st20 {
        opacity: .25;
      }

      .st21 {
        fill: #06455b;
      }

      .st22 {
        fill: #176082;
      }

      .st23 {
        fill: #009bce;
      }

      .st24 {
        clip-path: url(#clippath);
      }
    </style>
    <clipPath id="clippath">
      <rect class="st0" x="43.13" y=".65" width="205.34" height="83.46"/>
    </clipPath>
    <clipPath id="clippath-1">
      <rect class="st0" x="247.78" y="84.13" width="204.7" height="157.15"/>
    </clipPath>
    <clipPath id="clippath-2">
      <rect class="st0" x="247.83" y=".65" width="205.29" height="83.46"/>
    </clipPath>
    <clipPath id="clippath-3">
      <rect class="st0" x="42.79" width="410.09" height="241.63"/>
    </clipPath>
    <clipPath id="clippath-4">
      <rect class="st0" x="42.79" width="410.09" height="241.63"/>
    </clipPath>
    <clipPath id="clippath-5">
      <rect class="st0" x="247.52" y=".37" width=".64" height="240.93"/>
    </clipPath>
    <clipPath id="clippath-6">
      <rect class="st0" x="43.13" y="83.49" width="409.4" height=".64"/>
    </clipPath>
    <clipPath id="clippath-7">
      <rect class="st0" x="43.13" y="160.41" width="409.4" height=".64"/>
    </clipPath>
    <clipPath id="clippath-8">
      <rect class="st0" x="145.29" y="1.01" width=".64" height="240.94"/>
    </clipPath>
    <clipPath id="clippath-9">
      <rect class="st0" x="349.49" y=".37" width=".64" height="240.93"/>
    </clipPath>
    <clipPath id="clippath-10">
      <rect class="st0" x="247.83" y="243.03" width=".64" height="31.27"/>
    </clipPath>
    <clipPath id="clippath-11">
      <rect class="st0" x="247.83" y="243.03" width=".64" height="31.27"/>
    </clipPath>
    <clipPath id="clippath-12">
      <rect class="st0" x="10.5" y="121.37" width="31.27" height=".63"/>
    </clipPath>
    <clipPath id="clippath-13">
      <rect class="st0" x="10.5" y="121.37" width="31.27" height=".64"/>
    </clipPath>
  </defs>
  <g class="st2">
    <g>
      <g>
        <g class="st20">
          <g class="st24">
            <rect class="st23" x="43.13" y=".65" width="205.34" height="83.46"/>
          </g>
        </g>
        <g class="st20">
          <g class="st7">
            <rect class="st23" x="247.78" y="84.13" width="204.7" height="157.15"/>
          </g>
        </g>
        <g class="st19">
          <g class="st10">
            <rect class="st23" x="247.83" y=".65" width="205.29" height="83.46"/>
          </g>
        </g>
        <g class="st19">
          <g class="st8">
            <g class="st9">
              <rect class="st1" x="43.13" y=".35" width="409.4" height="240.94"/>
            </g>
          </g>
        </g>
        <g class="st19">
          <g class="st15">
            <rect class="st23" x="247.52" y=".37" width=".63" height="240.93"/>
          </g>
        </g>
        <g class="st19">
          <g class="st12">
            <rect class="st23" x="43.13" y="83.49" width="409.4" height=".64"/>
          </g>
        </g>
        <g class="st19">
          <g class="st11">
            <rect class="st23" x="43.13" y="160.41" width="409.4" height=".64"/>
          </g>
        </g>
        <g class="st19">
          <g class="st14">
            <rect class="st23" x="145.29" y="1.01" width=".64" height="240.94"/>
          </g>
        </g>
        <g class="st19">
          <g class="st13">
            <rect class="st23" x="349.49" y=".37" width=".64" height="240.93"/>
          </g>
        </g>
      </g>
      <g>
        <path class="st16" d="M186.45,283.01h4.57v1.39h-2.87v1.71h2.68v1.38h-2.68v3.01h-1.7v-7.48Z"/>
        <path class="st16" d="M193.82,283.55c0,.47-.35.84-.91.84s-.89-.38-.88-.84c-.01-.49.34-.85.89-.85s.89.37.9.85ZM192.08,290.49v-5.42h1.69v5.42h-1.69Z"/>
        <path class="st16" d="M195.11,286.79c0-.68-.02-1.25-.04-1.73h1.46l.08.74h.03c.22-.34.78-.87,1.68-.87,1.11,0,1.94.73,1.94,2.33v3.22h-1.69v-3.01c0-.7-.24-1.18-.85-1.18-.47,0-.74.32-.85.63-.04.1-.07.27-.07.42v3.13h-1.69v-3.69Z"/>
        <path class="st16" d="M204.67,290.49l-.1-.54h-.03c-.35.43-.91.67-1.55.67-1.1,0-1.75-.8-1.75-1.66,0-1.41,1.26-2.09,3.18-2.07v-.08c0-.29-.16-.7-.99-.7-.55,0-1.14.19-1.5.41l-.31-1.09c.38-.21,1.12-.48,2.11-.48,1.81,0,2.38,1.07,2.38,2.34v1.89c0,.52.02,1.02.08,1.32h-1.52ZM204.47,287.92c-.89-.01-1.58.2-1.58.85,0,.43.29.64.67.64.42,0,.77-.28.88-.62.02-.09.03-.19.03-.29v-.59Z"/>
        <path class="st16" d="M207.42,286.79c0-.68-.02-1.25-.04-1.73h1.46l.08.74h.03c.22-.34.78-.87,1.68-.87,1.11,0,1.94.73,1.94,2.33v3.22h-1.69v-3.01c0-.7-.24-1.18-.85-1.18-.47,0-.74.32-.85.63-.04.1-.07.27-.07.42v3.13h-1.69v-3.69Z"/>
        <path class="st16" d="M217.98,290.35c-.3.13-.87.24-1.51.24-1.75,0-2.87-1.07-2.87-2.77,0-1.59,1.09-2.88,3.11-2.88.44,0,.93.08,1.29.21l-.27,1.25c-.2-.09-.5-.17-.94-.17-.89,0-1.46.63-1.45,1.52,0,1,.67,1.52,1.49,1.52.4,0,.71-.07.97-.17l.2,1.24Z"/>
        <path class="st16" d="M220.68,283.55c0,.47-.35.84-.91.84s-.89-.38-.88-.84c-.01-.49.34-.85.89-.85s.89.37.9.85ZM218.93,290.49v-5.42h1.69v5.42h-1.69Z"/>
        <path class="st16" d="M225.06,290.49l-.1-.54h-.03c-.35.43-.91.67-1.55.67-1.1,0-1.75-.8-1.75-1.66,0-1.41,1.26-2.09,3.18-2.07v-.08c0-.29-.16-.7-.99-.7-.55,0-1.14.19-1.5.41l-.31-1.09c.38-.21,1.12-.48,2.11-.48,1.81,0,2.38,1.07,2.38,2.34v1.89c0,.52.02,1.02.08,1.32h-1.52ZM224.86,287.92c-.89-.01-1.58.2-1.58.85,0,.43.29.64.67.64.42,0,.77-.28.88-.62.02-.09.03-.19.03-.29v-.59Z"/>
        <path class="st16" d="M227.81,282.61h1.69v7.88h-1.69v-7.88Z"/>
        <path class="st16" d="M239.48,287.62c-.03-.9-.07-1.99-.07-3.07h-.03c-.23.95-.54,2.02-.83,2.9l-.91,2.92h-1.32l-.8-2.9c-.24-.88-.5-1.94-.68-2.92h-.02c-.04,1.01-.08,2.16-.13,3.09l-.13,2.84h-1.56l.48-7.48h2.25l.73,2.5c.23.87.47,1.8.63,2.67h.03c.21-.87.47-1.85.71-2.68l.8-2.48h2.21l.41,7.48h-1.65l-.11-2.86Z"/>
        <path class="st16" d="M245.63,290.49l-.1-.54h-.03c-.36.43-.91.67-1.55.67-1.1,0-1.75-.8-1.75-1.66,0-1.41,1.26-2.09,3.18-2.07v-.08c0-.29-.16-.7-.99-.7-.55,0-1.14.19-1.5.41l-.31-1.09c.38-.21,1.12-.48,2.11-.48,1.81,0,2.39,1.07,2.39,2.34v1.89c0,.52.02,1.02.08,1.32h-1.52ZM245.43,287.92c-.89-.01-1.58.2-1.58.85,0,.43.29.64.67.64.42,0,.77-.28.88-.62.02-.09.03-.19.03-.29v-.59Z"/>
        <path class="st16" d="M250.23,283.51v1.55h1.21v1.24h-1.21v1.96c0,.65.16.95.67.95.21,0,.38-.02.5-.04v1.28c-.21.09-.61.14-1.09.14-.54,0-1-.19-1.26-.47-.31-.32-.47-.84-.47-1.61v-2.22h-.72v-1.24h.72v-1.18l1.65-.38Z"/>
        <path class="st16" d="M253.71,288.31c.06.7.74,1.03,1.53,1.03.58,0,1.04-.08,1.5-.22l.22,1.14c-.55.22-1.23.33-1.96.33-1.84,0-2.9-1.07-2.9-2.76,0-1.38.85-2.9,2.74-2.9,1.75,0,2.42,1.37,2.42,2.71,0,.29-.03.54-.06.67h-3.49ZM255.7,287.16c0-.41-.18-1.1-.95-1.1-.71,0-1,.64-1.04,1.1h2Z"/>
        <path class="st16" d="M258.31,286.85c0-.8-.02-1.32-.04-1.79h1.45l.05,1h.04c.28-.79.94-1.12,1.46-1.12.16,0,.23,0,.36.02v1.59c-.12-.02-.27-.04-.46-.04-.62,0-1.04.33-1.15.85-.02.11-.03.24-.03.38v2.75h-1.69v-3.64Z"/>
        <path class="st16" d="M264.22,283.55c0,.47-.35.84-.91.84s-.89-.38-.88-.84c-.01-.49.34-.85.89-.85s.89.37.9.85ZM262.48,290.49v-5.42h1.69v5.42h-1.69Z"/>
        <path class="st16" d="M268.61,290.49l-.1-.54h-.03c-.36.43-.91.67-1.55.67-1.1,0-1.75-.8-1.75-1.66,0-1.41,1.26-2.09,3.18-2.07v-.08c0-.29-.16-.7-.99-.7-.55,0-1.14.19-1.5.41l-.31-1.09c.38-.21,1.12-.48,2.11-.48,1.81,0,2.39,1.07,2.39,2.34v1.89c0,.52.02,1.02.08,1.32h-1.52ZM268.41,287.92c-.89-.01-1.58.2-1.58.85,0,.43.29.64.67.64.42,0,.77-.28.88-.62.02-.09.03-.19.03-.29v-.59Z"/>
        <path class="st16" d="M271.36,282.61h1.69v7.88h-1.69v-7.88Z"/>
        <path class="st16" d="M276.13,283.55c0,.47-.35.84-.91.84s-.89-.38-.88-.84c-.01-.49.34-.85.89-.85s.89.37.9.85ZM274.39,290.49v-5.42h1.69v5.42h-1.69Z"/>
        <path class="st16" d="M279.32,283.51v1.55h1.21v1.24h-1.21v1.96c0,.65.16.95.67.95.21,0,.38-.02.5-.04v1.28c-.21.09-.61.14-1.09.14-.54,0-1-.19-1.26-.47-.31-.32-.47-.84-.47-1.61v-2.22h-.72v-1.24h.72v-1.18l1.65-.38Z"/>
        <path class="st16" d="M282.97,285.06l.81,2.66c.09.32.2.72.27,1.01h.03c.08-.29.17-.7.24-1.01l.67-2.66h1.81l-1.26,3.57c-.78,2.15-1.3,3.02-1.91,3.56-.59.51-1.21.69-1.63.74l-.35-1.43c.21-.03.48-.13.73-.29.26-.13.53-.4.7-.68.06-.08.09-.17.09-.24,0-.06-.01-.14-.08-.28l-1.99-4.96h1.88Z"/>
      </g>
      <g>
        <path class="st16" d="M7.86,184.25h7.48v1.7h-7.48v-1.7Z"/>
        <path class="st16" d="M11.64,182.82c-.68,0-1.25.02-1.73.04v-1.42l.73-.08v-.03c-.34-.23-.85-.71-.85-1.64,0-.7.35-1.25.92-1.49v-.02c-.28-.2-.5-.44-.65-.7-.18-.3-.27-.63-.27-1.03,0-1.04.73-1.83,2.35-1.83h3.19v1.64h-2.95c-.79,0-1.24.26-1.24.8,0,.39.27.67.59.78.12.04.3.07.43.07h3.17v1.64h-3.04c-.69,0-1.15.24-1.15.78,0,.43.33.69.61.79.13.06.29.07.42.07h3.16v1.64h-3.69Z"/>
        <path class="st16" d="M11.73,173.28c-.71,0-1.32.02-1.82.04v-1.46l.75-.08v-.02c-.58-.4-.88-1.02-.88-1.81,0-1.19,1.03-2.25,2.76-2.25,1.97,0,2.91,1.25,2.91,2.46,0,.65-.27,1.17-.62,1.41v.02h2.7v1.69h-5.8ZM13.01,171.6c.13,0,.26-.01.35-.03.46-.11.8-.5.8-.99,0-.73-.61-1.16-1.53-1.16-.87,0-1.52.39-1.52,1.14,0,.48.35.9.85,1.01.09.02.2.03.3.03h.74Z"/>
        <path class="st16" d="M15.33,163.56l-.54.1v.03c.43.36.67.91.67,1.55,0,1.1-.8,1.75-1.66,1.75-1.41,0-2.09-1.27-2.07-3.18h-.08c-.29,0-.7.15-.7.99,0,.55.19,1.14.41,1.5l-1.09.31c-.21-.38-.48-1.12-.48-2.11,0-1.81,1.06-2.38,2.34-2.38h1.89c.52,0,1.02-.02,1.32-.08v1.52ZM12.77,163.76c-.01.89.2,1.58.85,1.58.43,0,.64-.29.64-.67,0-.42-.28-.77-.62-.88-.09-.02-.19-.03-.29-.03h-.59Z"/>
        <path class="st16" d="M15.2,156.76c.13.3.24.87.24,1.51,0,1.75-1.06,2.87-2.77,2.87-1.59,0-2.88-1.09-2.88-3.11,0-.44.08-.93.21-1.29l1.25.27c-.09.2-.17.5-.17.94,0,.89.63,1.46,1.52,1.45,1,0,1.52-.67,1.52-1.49,0-.4-.07-.71-.17-.97l1.24-.2Z"/>
        <path class="st16" d="M8.36,153.77h1.55v-1.21h1.24v1.21h1.96c.65,0,.95-.16.95-.67,0-.21-.02-.38-.04-.5h1.28c.09.21.14.61.14,1.09,0,.54-.19,1-.47,1.26-.32.31-.84.47-1.61.47h-2.22v.72h-1.24v-.72h-1.18l-.38-1.65Z"/>
        <path class="st16" d="M12.47,142.96c-.9.03-1.99.07-3.07.07v.03c.95.23,2.02.54,2.9.83l2.92.91v1.32l-2.9.8c-.88.24-1.94.5-2.92.68v.02c1.01.04,2.16.08,3.1.13l2.84.13v1.56l-7.48-.48v-2.25l2.5-.73c.87-.23,1.8-.47,2.67-.63v-.03c-.87-.21-1.85-.47-2.68-.71l-2.48-.8v-2.21l7.48-.41v1.65l-2.86.11Z"/>
        <path class="st16" d="M15.33,136.81l-.54.1v.03c.43.35.67.91.67,1.55,0,1.1-.8,1.75-1.66,1.75-1.41,0-2.09-1.26-2.07-3.18h-.08c-.29,0-.7.16-.7.99,0,.55.19,1.14.41,1.5l-1.09.31c-.21-.38-.48-1.12-.48-2.11,0-1.81,1.06-2.38,2.34-2.38h1.89c.52,0,1.02-.02,1.32-.08v1.52ZM12.77,137.01c-.01.89.2,1.58.85,1.58.43,0,.64-.29.64-.67,0-.42-.28-.77-.62-.88-.09-.02-.19-.03-.29-.03h-.59Z"/>
        <path class="st16" d="M8.36,132.21h1.55v-1.21h1.24v1.21h1.96c.65,0,.95-.16.95-.67,0-.21-.02-.38-.04-.5h1.28c.09.21.14.61.14,1.09,0,.54-.19,1-.47,1.26-.32.31-.84.47-1.61.47h-2.22v.72h-1.24v-.72h-1.18l-.38-1.65Z"/>
        <path class="st16" d="M13.16,128.72c.7-.06,1.03-.74,1.03-1.53,0-.58-.08-1.04-.22-1.5l1.14-.22c.22.55.33,1.23.33,1.96,0,1.84-1.06,2.9-2.76,2.9-1.38,0-2.9-.85-2.9-2.74,0-1.75,1.36-2.42,2.71-2.42.29,0,.54.03.67.06v3.49ZM12.01,126.74c-.41,0-1.1.18-1.1.95,0,.71.64,1,1.1,1.04v-2Z"/>
        <path class="st16" d="M11.7,124.12c-.8,0-1.32.02-1.79.04v-1.45l1-.06v-.04c-.79-.28-1.12-.94-1.12-1.46,0-.16,0-.23.02-.35h1.59c-.02.12-.04.27-.04.45,0,.62.33,1.04.85,1.15.11.02.24.03.38.03h2.75v1.69h-3.64Z"/>
        <path class="st16" d="M8.4,118.21c.47,0,.84.35.84.91s-.38.89-.84.88c-.49.01-.85-.34-.85-.89s.37-.89.85-.9ZM15.33,119.95h-5.42v-1.69h5.42v1.69Z"/>
        <path class="st16" d="M15.33,113.83l-.54.1v.03c.43.35.67.91.67,1.55,0,1.1-.8,1.75-1.66,1.75-1.41,0-2.09-1.26-2.07-3.18h-.08c-.29,0-.7.16-.7.99,0,.55.19,1.14.41,1.5l-1.09.31c-.21-.38-.48-1.12-.48-2.11,0-1.81,1.06-2.38,2.34-2.38h1.89c.52,0,1.02-.02,1.32-.08v1.52ZM12.77,114.03c-.01.89.2,1.58.85,1.58.43,0,.64-.29.64-.67,0-.42-.28-.77-.62-.88-.09-.02-.19-.03-.29-.03h-.59Z"/>
        <path class="st16" d="M7.46,111.08v-1.69h7.88v1.69h-7.88Z"/>
        <path class="st16" d="M8.4,106.3c.47,0,.84.35.84.91s-.38.89-.84.88c-.49.01-.85-.34-.85-.89s.37-.89.85-.9ZM15.33,108.04h-5.42v-1.69h5.42v1.69Z"/>
        <path class="st16" d="M8.36,103.12h1.55v-1.21h1.24v1.21h1.96c.65,0,.95-.16.95-.67,0-.21-.02-.38-.04-.5h1.28c.09.21.14.61.14,1.09,0,.54-.19,1-.47,1.26-.32.31-.84.47-1.61.47h-2.22v.72h-1.24v-.72h-1.18l-.38-1.65Z"/>
        <path class="st16" d="M9.91,99.46l2.66-.81c.32-.09.72-.2,1.01-.27v-.03c-.29-.08-.7-.17-1.01-.24l-2.66-.67v-1.81l3.57,1.26c2.15.78,3.02,1.3,3.56,1.91.51.59.69,1.21.74,1.63l-1.43.35c-.03-.21-.13-.48-.29-.73-.13-.25-.4-.53-.68-.7-.08-.06-.17-.09-.24-.09-.06,0-.14.01-.28.08l-4.96,1.99v-1.88Z"/>
      </g>
      <g>
        <g class="st19">
          <g class="st4">
            <g class="st3">
              <rect class="st21" x="247.83" y="243.03" width=".64" height="31.27"/>
            </g>
          </g>
        </g>
        <g class="st19">
          <g class="st6">
            <g class="st5">
              <rect class="st21" x="10.5" y="121.37" width="31.27" height=".64"/>
            </g>
          </g>
        </g>
        <path class="st22" d="M442.31,295.89H53.29c-5.59,0-10.16-4.57-10.16-10.16s4.57-10.16,10.16-10.16h389.02c5.59,0,10.16,4.57,10.16,10.16s-4.57,10.16-10.16,10.16"/>
      </g>
      <g>
        <path class="st16" d="M195.89,283.01h4.57v1.39h-2.87v1.71h2.68v1.38h-2.68v3.01h-1.7v-7.48Z"/>
        <path class="st16" d="M203.26,283.55c0,.47-.35.84-.91.84s-.89-.38-.88-.84c-.01-.49.34-.85.89-.85s.89.37.9.85ZM201.52,290.49v-5.42h1.69v5.42h-1.69Z"/>
        <path class="st16" d="M204.56,286.79c0-.68-.02-1.25-.04-1.73h1.46l.08.74h.03c.22-.34.78-.87,1.68-.87,1.11,0,1.94.73,1.94,2.33v3.22h-1.69v-3.01c0-.7-.24-1.18-.85-1.18-.47,0-.74.32-.85.63-.04.1-.07.27-.07.42v3.13h-1.69v-3.69Z"/>
        <path class="st16" d="M214.12,290.49l-.1-.54h-.03c-.35.43-.91.67-1.55.67-1.1,0-1.75-.8-1.75-1.66,0-1.41,1.26-2.09,3.18-2.07v-.08c0-.29-.16-.7-.99-.7-.55,0-1.14.19-1.5.41l-.31-1.09c.38-.21,1.12-.48,2.11-.48,1.81,0,2.38,1.07,2.38,2.34v1.89c0,.52.02,1.02.08,1.32h-1.52ZM213.92,287.92c-.89-.01-1.58.2-1.58.85,0,.43.29.64.67.64.42,0,.77-.28.88-.62.02-.09.03-.19.03-.29v-.59Z"/>
        <path class="st16" d="M216.86,286.79c0-.68-.02-1.25-.04-1.73h1.46l.08.74h.03c.22-.34.78-.87,1.68-.87,1.11,0,1.94.73,1.94,2.33v3.22h-1.69v-3.01c0-.7-.24-1.18-.85-1.18-.47,0-.74.32-.85.63-.04.1-.07.27-.07.42v3.13h-1.69v-3.69Z"/>
        <path class="st16" d="M227.42,290.35c-.3.13-.87.24-1.51.24-1.75,0-2.87-1.07-2.87-2.77,0-1.59,1.09-2.88,3.11-2.88.44,0,.93.08,1.29.21l-.27,1.25c-.2-.09-.5-.17-.94-.17-.89,0-1.46.63-1.45,1.52,0,1,.67,1.52,1.49,1.52.4,0,.71-.07.97-.17l.2,1.24Z"/>
        <path class="st16" d="M230.12,283.55c0,.47-.35.84-.91.84s-.89-.38-.88-.84c-.01-.49.34-.85.89-.85s.89.37.9.85ZM228.38,290.49v-5.42h1.69v5.42h-1.69Z"/>
        <path class="st16" d="M234.5,290.49l-.1-.54h-.03c-.35.43-.91.67-1.55.67-1.1,0-1.75-.8-1.75-1.66,0-1.41,1.26-2.09,3.18-2.07v-.08c0-.29-.16-.7-.99-.7-.55,0-1.14.19-1.5.41l-.31-1.09c.38-.21,1.12-.48,2.11-.48,1.81,0,2.38,1.07,2.38,2.34v1.89c0,.52.02,1.02.08,1.32h-1.52ZM234.3,287.92c-.89-.01-1.58.2-1.58.85,0,.43.29.64.67.64.42,0,.76-.28.88-.62.02-.09.03-.19.03-.29v-.59Z"/>
        <path class="st16" d="M237.25,282.61h1.69v7.88h-1.69v-7.88Z"/>
        <path class="st16" d="M248.92,287.62c-.03-.9-.07-1.99-.07-3.07h-.03c-.23.95-.54,2.02-.83,2.9l-.91,2.92h-1.32l-.8-2.9c-.24-.88-.5-1.94-.68-2.92h-.02c-.04,1.01-.08,2.16-.13,3.09l-.13,2.84h-1.56l.48-7.48h2.25l.73,2.5c.23.87.47,1.8.63,2.67h.03c.21-.87.47-1.85.71-2.68l.8-2.48h2.21l.41,7.48h-1.65l-.11-2.86Z"/>
        <path class="st16" d="M255.07,290.49l-.1-.54h-.03c-.36.43-.91.67-1.55.67-1.1,0-1.75-.8-1.75-1.66,0-1.41,1.26-2.09,3.18-2.07v-.08c0-.29-.16-.7-.99-.7-.55,0-1.14.19-1.5.41l-.31-1.09c.38-.21,1.12-.48,2.11-.48,1.81,0,2.39,1.07,2.39,2.34v1.89c0,.52.02,1.02.08,1.32h-1.52ZM254.87,287.92c-.89-.01-1.58.2-1.58.85,0,.43.29.64.67.64.42,0,.77-.28.88-.62.02-.09.03-.19.03-.29v-.59Z"/>
        <path class="st16" d="M259.67,283.51v1.55h1.21v1.24h-1.21v1.96c0,.65.16.95.67.95.21,0,.38-.02.5-.04v1.28c-.21.09-.61.14-1.09.14-.54,0-1-.19-1.26-.47-.31-.32-.47-.84-.47-1.61v-2.22h-.72v-1.24h.72v-1.18l1.65-.38Z"/>
        <path class="st16" d="M263.15,288.31c.06.7.74,1.03,1.53,1.03.58,0,1.04-.08,1.5-.22l.22,1.14c-.55.22-1.23.33-1.96.33-1.84,0-2.9-1.07-2.9-2.76,0-1.38.85-2.9,2.74-2.9,1.75,0,2.42,1.37,2.42,2.71,0,.29-.03.54-.06.67h-3.49ZM265.14,287.16c0-.41-.18-1.1-.95-1.1-.71,0-1,.64-1.04,1.1h2Z"/>
        <path class="st16" d="M267.75,286.85c0-.8-.02-1.32-.04-1.79h1.45l.05,1h.04c.28-.79.94-1.12,1.46-1.12.16,0,.23,0,.36.02v1.59c-.12-.02-.27-.04-.46-.04-.62,0-1.04.33-1.15.85-.02.11-.03.24-.03.38v2.75h-1.69v-3.64Z"/>
        <path class="st16" d="M273.66,283.55c0,.47-.35.84-.91.84s-.89-.38-.88-.84c-.01-.49.34-.85.89-.85s.89.37.9.85ZM271.92,290.49v-5.42h1.69v5.42h-1.69Z"/>
        <path class="st16" d="M278.05,290.49l-.1-.54h-.03c-.36.43-.91.67-1.55.67-1.1,0-1.75-.8-1.75-1.66,0-1.41,1.26-2.09,3.18-2.07v-.08c0-.29-.16-.7-.99-.7-.55,0-1.14.19-1.5.41l-.31-1.09c.38-.21,1.12-.48,2.11-.48,1.81,0,2.39,1.07,2.39,2.34v1.89c0,.52.02,1.02.08,1.32h-1.52ZM277.85,287.92c-.89-.01-1.58.2-1.58.85,0,.43.29.64.67.64.42,0,.77-.28.88-.62.02-.09.03-.19.03-.29v-.59Z"/>
        <path class="st16" d="M280.8,282.61h1.69v7.88h-1.69v-7.88Z"/>
        <path class="st16" d="M285.58,283.55c0,.47-.35.84-.91.84s-.89-.38-.88-.84c-.01-.49.34-.85.89-.85s.89.37.9.85ZM283.83,290.49v-5.42h1.69v5.42h-1.69Z"/>
        <path class="st16" d="M288.76,283.51v1.55h1.21v1.24h-1.21v1.96c0,.65.16.95.67.95.21,0,.38-.02.5-.04v1.28c-.21.09-.61.14-1.09.14-.54,0-1-.19-1.26-.47-.31-.32-.47-.84-.47-1.61v-2.22h-.72v-1.24h.72v-1.18l1.65-.38Z"/>
        <path class="st16" d="M292.41,285.06l.81,2.66c.09.32.2.72.27,1.01h.03c.08-.29.17-.7.24-1.01l.67-2.66h1.81l-1.26,3.57c-.78,2.15-1.3,3.02-1.91,3.56-.59.51-1.21.69-1.63.74l-.35-1.43c.21-.03.48-.13.73-.29.26-.13.53-.4.7-.68.06-.08.09-.17.09-.24,0-.06-.01-.14-.08-.28l-1.99-4.96h1.88Z"/>
      </g>
      <path class="st22" d="M9.94,243.03h-2.58c-4.05,0-7.36-3.31-7.36-7.36V7.71C0,3.66,3.31.35,7.36.35h2.58c4.05,0,7.36,3.31,7.36,7.36v227.96c0,4.05-3.31,7.36-7.36,7.36"/>
      <g>
        <path class="st16" d="M5.19,180.36h7.48v1.7h-7.48v-1.7Z"/>
        <path class="st16" d="M8.98,178.93c-.68,0-1.25.02-1.73.04v-1.42l.73-.08v-.03c-.34-.23-.85-.71-.85-1.64,0-.7.35-1.25.92-1.49v-.02c-.28-.2-.5-.44-.65-.7-.18-.3-.27-.63-.27-1.03,0-1.04.73-1.83,2.35-1.83h3.19v1.64h-2.95c-.79,0-1.24.26-1.24.8,0,.39.27.67.59.78.12.04.3.07.43.07h3.17v1.64h-3.04c-.69,0-1.15.24-1.15.78,0,.43.33.69.61.79.13.06.29.07.42.07h3.16v1.64h-3.69Z"/>
        <path class="st16" d="M9.06,169.4c-.71,0-1.32.02-1.82.04v-1.46l.75-.08v-.02c-.58-.4-.88-1.02-.88-1.81,0-1.19,1.03-2.25,2.76-2.25,1.97,0,2.91,1.25,2.91,2.46,0,.66-.27,1.17-.62,1.41v.02h2.7v1.69h-5.8ZM10.34,167.71c.13,0,.26-.01.35-.03.46-.11.8-.5.8-.99,0-.73-.61-1.17-1.53-1.17-.87,0-1.52.39-1.52,1.14,0,.48.35.9.85,1.01.09.02.2.03.3.03h.74Z"/>
        <path class="st16" d="M12.67,159.67l-.54.1v.03c.43.35.67.91.67,1.55,0,1.1-.8,1.75-1.66,1.75-1.41,0-2.09-1.26-2.07-3.18h-.08c-.29,0-.7.16-.7.99,0,.55.19,1.14.41,1.5l-1.09.31c-.21-.38-.48-1.12-.48-2.11,0-1.81,1.06-2.38,2.34-2.38h1.89c.52,0,1.02-.02,1.32-.08v1.52ZM10.11,159.87c-.01.89.2,1.58.85,1.58.43,0,.64-.29.64-.67,0-.42-.28-.76-.62-.88-.09-.02-.19-.03-.29-.03h-.59Z"/>
        <path class="st16" d="M12.54,152.87c.13.3.24.87.24,1.51,0,1.75-1.06,2.87-2.77,2.87-1.59,0-2.88-1.09-2.88-3.11,0-.44.08-.93.21-1.29l1.25.27c-.09.2-.17.5-.17.94,0,.89.63,1.46,1.52,1.45,1,0,1.52-.67,1.52-1.49,0-.4-.07-.71-.17-.96l1.24-.2Z"/>
        <path class="st16" d="M5.69,149.88h1.55v-1.21h1.24v1.21h1.96c.65,0,.95-.16.95-.67,0-.21-.02-.38-.04-.5h1.28c.09.21.14.61.14,1.09,0,.54-.19,1-.47,1.27-.32.31-.84.46-1.61.46h-2.22v.72h-1.24v-.72h-1.18l-.38-1.65Z"/>
        <path class="st16" d="M9.81,139.08c-.9.03-1.99.07-3.07.07v.03c.95.23,2.02.54,2.9.83l2.92.91v1.32l-2.9.8c-.88.24-1.94.5-2.92.68v.02c1.01.04,2.16.08,3.1.13l2.84.13v1.56l-7.48-.48v-2.25l2.5-.73c.87-.23,1.8-.47,2.67-.63v-.03c-.87-.21-1.85-.47-2.68-.71l-2.48-.8v-2.21l7.48-.41v1.65l-2.86.11Z"/>
        <path class="st16" d="M12.67,132.92l-.54.1v.03c.43.35.67.91.67,1.55,0,1.1-.8,1.75-1.66,1.75-1.41,0-2.09-1.26-2.07-3.18h-.08c-.29,0-.7.16-.7.99,0,.55.19,1.14.41,1.5l-1.09.31c-.21-.38-.48-1.12-.48-2.11,0-1.81,1.06-2.38,2.34-2.38h1.89c.52,0,1.02-.02,1.32-.08v1.52ZM10.11,133.12c-.01.89.2,1.58.85,1.58.43,0,.64-.29.64-.67,0-.42-.28-.77-.62-.88-.09-.02-.19-.03-.29-.03h-.59Z"/>
        <path class="st16" d="M5.69,128.32h1.55v-1.21h1.24v1.21h1.96c.65,0,.95-.16.95-.67,0-.21-.02-.38-.04-.5h1.28c.09.21.14.61.14,1.09,0,.54-.19,1-.47,1.26-.32.31-.84.47-1.61.47h-2.22v.72h-1.24v-.72h-1.18l-.38-1.65Z"/>
        <path class="st16" d="M10.49,124.84c.7-.06,1.03-.74,1.03-1.53,0-.58-.08-1.04-.22-1.5l1.14-.22c.22.55.33,1.23.33,1.96,0,1.84-1.06,2.9-2.76,2.9-1.38,0-2.9-.85-2.9-2.74,0-1.75,1.36-2.42,2.71-2.42.29,0,.54.03.67.06v3.49ZM9.34,122.85c-.41,0-1.1.18-1.1.95,0,.71.64,1,1.1,1.04v-2Z"/>
        <path class="st16" d="M9.03,120.24c-.8,0-1.32.02-1.79.04v-1.45l1-.06v-.04c-.79-.28-1.12-.94-1.12-1.46,0-.16,0-.23.02-.35h1.59c-.02.12-.04.27-.04.45,0,.62.33,1.04.85,1.15.11.02.24.03.38.03h2.75v1.69h-3.64Z"/>
        <path class="st16" d="M5.74,114.33c.47,0,.84.35.84.91s-.38.89-.84.88c-.49.01-.85-.34-.85-.89s.37-.89.85-.9ZM12.67,116.07h-5.42v-1.69h5.42v1.69Z"/>
        <path class="st16" d="M12.67,109.95l-.54.1v.03c.43.35.67.91.67,1.55,0,1.1-.8,1.75-1.66,1.75-1.41,0-2.09-1.26-2.07-3.18h-.08c-.29,0-.7.16-.7.99,0,.55.19,1.14.41,1.5l-1.09.31c-.21-.38-.48-1.12-.48-2.11,0-1.81,1.06-2.38,2.34-2.38h1.89c.52,0,1.02-.02,1.32-.08v1.52ZM10.11,110.14c-.01.89.2,1.58.85,1.58.43,0,.64-.29.64-.67,0-.42-.28-.77-.62-.88-.09-.02-.19-.03-.29-.03h-.59Z"/>
        <path class="st16" d="M4.79,107.2v-1.69h7.88v1.69h-7.88Z"/>
        <path class="st16" d="M5.74,102.42c.47,0,.84.35.84.91s-.38.89-.84.88c-.49.01-.85-.34-.85-.89s.37-.89.85-.9ZM12.67,104.16h-5.42v-1.69h5.42v1.69Z"/>
        <path class="st16" d="M5.69,99.23h1.55v-1.21h1.24v1.21h1.96c.65,0,.95-.16.95-.67,0-.21-.02-.38-.04-.5h1.28c.09.21.14.61.14,1.09,0,.54-.19,1-.47,1.26-.32.31-.84.47-1.61.47h-2.22v.72h-1.24v-.72h-1.18l-.38-1.65Z"/>
        <path class="st16" d="M7.24,95.57l2.66-.81c.32-.09.72-.2,1.01-.27v-.03c-.29-.08-.7-.17-1.01-.24l-2.66-.67v-1.81l3.57,1.26c2.15.78,3.02,1.3,3.56,1.91.51.59.69,1.21.74,1.63l-1.43.35c-.03-.21-.13-.48-.29-.73-.13-.26-.4-.53-.68-.7-.08-.06-.17-.09-.24-.09-.06,0-.14.01-.28.08l-4.96,1.99v-1.88Z"/>
      </g>
      <g>
        <path class="st22" d="M26.22,168.04v-.96h6.67v-3.2h.81v4.16h-7.48Z"/>
        <path class="st22" d="M30.97,158.08c1.99,0,2.85,1.38,2.85,2.67,0,1.45-1.06,2.57-2.76,2.57-1.8,0-2.85-1.18-2.85-2.66s1.12-2.58,2.76-2.58ZM31.02,162.34c1.18,0,2.06-.68,2.06-1.63s-.88-1.63-2.09-1.63c-.91,0-2.06.46-2.06,1.61s1.06,1.65,2.09,1.65Z"/>
        <path class="st22" d="M28.33,156.59l2.73-.71c.6-.15,1.15-.3,1.71-.4v-.03c-.54-.12-1.12-.3-1.7-.48l-2.74-.88v-.82l2.68-.83c.64-.2,1.21-.36,1.75-.48v-.03c-.54-.09-1.11-.23-1.74-.41l-2.7-.77v-.96l5.37,1.73v.89l-2.56.82c-.6.19-1.13.34-1.76.48v.02c.64.13,1.2.3,1.77.49l2.55.87v.89l-5.37,1.62v-1Z"/>
        <path class="st22" d="M31.19,148.38c1.32-.02,1.86-.87,1.86-1.84,0-.7-.12-1.12-.28-1.49l.7-.17c.16.34.33.93.33,1.79,0,1.65-1.09,2.64-2.71,2.64s-2.9-.95-2.9-2.52c0-1.75,1.54-2.22,2.53-2.22.2,0,.35.02.46.03v3.77ZM30.49,145.52c-.62-.01-1.59.25-1.59,1.35,0,.99.91,1.42,1.59,1.5v-2.85Z"/>
        <path class="st22" d="M30,143.39c-.63,0-1.18.01-1.68.04v-.85l1.05-.03v-.04c-.72-.24-1.18-.83-1.18-1.49,0-.11.01-.19.03-.28h.92c-.02.1-.03.2-.03.33,0,.69.52,1.18,1.25,1.31.13.02.29.04.46.04h2.86v.97h-3.69Z"/>
      </g>
      <path class="st22" d="M26.93,185.43v-.41c.43.21.72.37.9.48.17.11.43.3.78.58v-8.64h.55v8.64c.39-.38.95-.73,1.67-1.07v.42c-.52.47-.91.87-1.18,1.2-.27.33-.49.68-.66,1.04h-.24c-.13-.31-.34-.65-.61-1-.27-.35-.67-.76-1.19-1.24Z"/>
      <path class="st22" d="M30.88,57.57v.41c-.43-.21-.72-.37-.9-.48s-.43-.3-.78-.58v8.64h-.55v-8.64c-.39.38-.95.73-1.67,1.07v-.42c.52-.47.91-.87,1.18-1.2.27-.34.49-.68.66-1.04h.24c.13.31.34.65.61,1,.27.35.67.76,1.19,1.24Z"/>
      <g>
        <path class="st22" d="M26.22,102.89h3.13v-3.62h-3.13v-.98h7.48v.98h-3.51v3.62h3.51v.96h-7.48v-.96Z"/>
        <path class="st22" d="M26.82,95.6c.33-.01.6.23.6.62,0,.34-.27.59-.6.59s-.61-.25-.61-.61.27-.6.61-.6ZM33.7,96.69h-5.37v-.98h5.37v.98Z"/>
        <path class="st22" d="M28.33,89.52c.39.02.82.04,1.48.04h3.12c1.23,0,1.99.24,2.45.77.49.52.64,1.28.64,1.95s-.16,1.35-.44,1.79l-.74-.24c.22-.35.42-.91.42-1.58,0-1-.52-1.73-1.88-1.73h-.6v.02c.5.3.9.88.9,1.71,0,1.33-1.13,2.29-2.62,2.29-1.82,0-2.85-1.19-2.85-2.42,0-.93.49-1.44.93-1.68v-.02l-.81-.04v-.85ZM30.45,90.53c-.17,0-.31.01-.44.06-.57.18-1.03.65-1.03,1.36,0,.93.79,1.6,2.03,1.6,1.05,0,1.93-.53,1.93-1.59,0-.6-.38-1.14-1-1.35-.17-.06-.35-.08-.52-.08h-.97Z"/>
        <path class="st22" d="M25.82,88.02v-.98h3.35v-.02c-.28-.16-.52-.4-.69-.7-.17-.29-.28-.63-.28-1,0-.72.44-1.88,2.3-1.88h3.19v.98h-3.08c-.87,0-1.6.32-1.6,1.24,0,.63.44,1.13.98,1.31.13.06.28.07.47.07h3.24v.98h-7.88Z"/>
        <path class="st22" d="M31.19,81.33c1.32-.02,1.86-.87,1.86-1.84,0-.7-.12-1.12-.28-1.49l.7-.17c.16.34.33.93.33,1.79,0,1.65-1.09,2.64-2.71,2.64s-2.9-.95-2.9-2.52c0-1.75,1.54-2.22,2.53-2.22.2,0,.35.02.46.03v3.77ZM30.49,78.47c-.62-.01-1.59.25-1.59,1.35,0,.99.91,1.42,1.59,1.5v-2.85Z"/>
        <path class="st22" d="M30,76.34c-.63,0-1.18.01-1.68.04v-.85l1.05-.03v-.04c-.72-.24-1.18-.83-1.18-1.49,0-.11.01-.19.03-.28h.92c-.02.1-.03.2-.03.33,0,.69.52,1.18,1.25,1.31.13.02.29.04.46.04h2.86v.97h-3.69Z"/>
      </g>
      <g>
        <path class="st22" d="M201.12,254.97h.96v6.67h3.19v.81h-4.16v-7.48Z"/>
        <path class="st22" d="M211.08,259.72c0,1.99-1.38,2.85-2.67,2.85-1.45,0-2.57-1.07-2.57-2.76,0-1.8,1.18-2.85,2.66-2.85s2.58,1.12,2.58,2.76ZM206.82,259.77c0,1.18.68,2.06,1.63,2.06s1.63-.88,1.63-2.08c0-.91-.46-2.06-1.61-2.06s-1.65,1.06-1.65,2.08Z"/>
        <path class="st22" d="M212.58,257.08l.71,2.73c.16.6.3,1.15.4,1.71h.03c.12-.54.3-1.12.48-1.7l.88-2.74h.82l.83,2.68c.2.64.35,1.21.48,1.75h.03c.09-.54.23-1.11.41-1.74l.77-2.7h.96l-1.73,5.37h-.89l-.82-2.56c-.19-.6-.34-1.13-.48-1.76h-.02c-.13.64-.3,1.2-.49,1.77l-.87,2.55h-.89l-1.62-5.37h1Z"/>
        <path class="st22" d="M220.78,259.94c.02,1.32.87,1.86,1.84,1.86.7,0,1.12-.12,1.49-.28l.17.7c-.34.16-.93.33-1.79.33-1.65,0-2.64-1.09-2.64-2.71s.95-2.9,2.52-2.9c1.75,0,2.22,1.54,2.22,2.53,0,.2-.02.36-.03.46h-3.77ZM223.64,259.24c.01-.62-.25-1.59-1.35-1.59-.99,0-1.42.91-1.5,1.59h2.85Z"/>
        <path class="st22" d="M225.77,258.75c0-.63-.01-1.18-.04-1.67h.85l.03,1.05h.04c.24-.72.83-1.18,1.49-1.18.11,0,.19.01.28.03v.92c-.1-.02-.2-.03-.33-.03-.69,0-1.18.52-1.31,1.25-.02.13-.04.29-.04.45v2.86h-.97v-3.69Z"/>
      </g>
      <path class="st22" d="M185.15,256.61h.41c-.21.43-.37.72-.48.9-.11.17-.3.43-.58.78h8.64v.55h-8.64c.38.39.73.95,1.07,1.67h-.42c-.47-.52-.87-.91-1.2-1.18-.34-.27-.68-.49-1.04-.66v-.24c.31-.13.65-.34,1-.61.35-.27.76-.67,1.24-1.19Z"/>
      <path class="st22" d="M314.83,260.61h-.41c.21-.43.37-.72.48-.9.11-.17.3-.43.58-.78h-8.64v-.55h8.64c-.38-.39-.73-.95-1.07-1.67h.42c.47.52.87.91,1.2,1.18.34.27.68.49,1.04.66v.24c-.31.13-.65.34-1,.61-.35.27-.76.67-1.24,1.19Z"/>
      <g>
        <path class="st22" d="M269.52,254.97v3.13h3.62v-3.13h.98v7.48h-.98v-3.51h-3.62v3.51h-.97v-7.48h.97Z"/>
        <path class="st22" d="M276.8,255.57c.01.33-.23.6-.62.6-.34,0-.59-.27-.59-.6s.26-.61.61-.61.6.27.6.61ZM275.71,262.45v-5.37h.98v5.37h-.98Z"/>
        <path class="st22" d="M282.88,257.08c-.02.39-.04.82-.04,1.48v3.12c0,1.23-.24,1.99-.77,2.45-.52.49-1.28.64-1.95.64s-1.35-.16-1.79-.44l.24-.74c.35.22.91.42,1.58.42,1,0,1.73-.52,1.73-1.87v-.6h-.02c-.3.5-.88.9-1.71.9-1.33,0-2.29-1.13-2.29-2.62,0-1.82,1.19-2.85,2.42-2.85.93,0,1.44.49,1.67.93h.02l.04-.81h.85ZM281.87,259.2c0-.17-.01-.31-.05-.44-.18-.57-.66-1.03-1.37-1.03-.93,0-1.6.79-1.6,2.03,0,1.05.53,1.93,1.59,1.93.6,0,1.14-.38,1.35-1,.06-.17.08-.36.08-.52v-.96Z"/>
        <path class="st22" d="M284.39,254.57h.98v3.35h.02c.16-.28.4-.52.7-.69.29-.17.63-.28,1-.28.72,0,1.87.44,1.87,2.3v3.19h-.98v-3.08c0-.87-.32-1.6-1.24-1.6-.63,0-1.13.44-1.31.98-.06.13-.07.28-.07.47v3.24h-.98v-7.88Z"/>
        <path class="st22" d="M291.07,259.94c.02,1.32.87,1.86,1.84,1.86.7,0,1.12-.12,1.49-.28l.17.7c-.34.16-.93.33-1.79.33-1.65,0-2.64-1.09-2.64-2.71s.95-2.9,2.52-2.9c1.75,0,2.22,1.54,2.22,2.53,0,.2-.02.36-.03.46h-3.77ZM293.94,259.24c.01-.62-.26-1.59-1.35-1.59-.99,0-1.42.91-1.5,1.59h2.85Z"/>
        <path class="st22" d="M296.06,258.75c0-.63-.01-1.18-.04-1.67h.85l.03,1.05h.04c.24-.72.83-1.18,1.49-1.18.11,0,.19.01.28.03v.92c-.1-.02-.2-.03-.33-.03-.69,0-1.18.52-1.31,1.25-.02.13-.04.29-.04.45v2.86h-.97v-3.69Z"/>
      </g>
      <path class="st17" d="M391.02,20.99c0,4.22-3.42,7.64-7.64,7.64s-7.64-3.42-7.64-7.64,3.42-7.64,7.64-7.64,7.64,3.42,7.64,7.64"/>
      <path class="st16" d="M382.76,18.7h-.02l-1.3.62-.26-1.19,1.8-.84h1.32v6.79h-1.54v-5.38Z"/>
      <path class="st17" d="M391.02,51.04c0,4.22-3.42,7.64-7.64,7.64s-7.64-3.42-7.64-7.64,3.42-7.64,7.64-7.64,7.64,3.42,7.64,7.64"/>
      <path class="st16" d="M380.74,54.13v-.96l.88-.79c1.48-1.33,2.21-2.09,2.23-2.88,0-.55-.33-.99-1.12-.99-.58,0-1.1.29-1.45.56l-.45-1.14c.51-.39,1.31-.7,2.23-.7,1.54,0,2.38.9,2.38,2.13,0,1.14-.83,2.05-1.81,2.93l-.63.52v.02h2.56v1.31h-4.82Z"/>
      <path class="st17" d="M331.33,72.05c0,4.12-3.34,7.45-7.45,7.45s-7.45-3.34-7.45-7.45,3.34-7.45,7.45-7.45,7.45,3.34,7.45,7.45"/>
      <path class="st16" d="M321.57,73.54c.28.14.91.41,1.54.41.81,0,1.21-.39,1.21-.89,0-.65-.65-.95-1.33-.95h-.63v-1.11h.6c.52-.01,1.18-.2,1.18-.76,0-.4-.33-.69-.98-.69-.54,0-1.11.23-1.39.4l-.32-1.12c.4-.25,1.19-.5,2.05-.5,1.42,0,2.2.74,2.2,1.65,0,.7-.4,1.25-1.21,1.54v.02c.79.14,1.44.74,1.44,1.61,0,1.17-1.03,2.03-2.71,2.03-.86,0-1.58-.22-1.97-.47l.32-1.16Z"/>
      <path class="st17" d="M331.33,50.73c0,4.12-3.34,7.45-7.45,7.45s-7.45-3.34-7.45-7.45,3.34-7.45,7.45-7.45,7.45,3.34,7.45,7.45"/>
      <path class="st16" d="M325.72,48.4h-2.57l-.14,1.02c.14-.02.26-.02.43-.02.63,0,1.27.14,1.74.48.5.34.81.89.81,1.66,0,1.23-1.06,2.32-2.84,2.32-.81,0-1.48-.18-1.85-.38l.28-1.16c.3.14.9.33,1.5.33.64,0,1.33-.31,1.33-1.01s-.54-1.1-1.87-1.1c-.37,0-.62.02-.9.06l.44-3.48h3.65v1.27Z"/>
      <path class="st18" d="M338.58,128.72c0,4.37-3.54,7.91-7.91,7.91s-7.91-3.54-7.91-7.91,3.54-7.91,7.91-7.91,7.91,3.54,7.91,7.91"/>
      <path class="st16" d="M327.82,130.08c0-.84.49-1.43,1.26-1.76v-.03c-.68-.35-1.02-.92-1.02-1.54,0-1.19,1.07-1.98,2.48-1.98,1.64,0,2.33.95,2.33,1.81,0,.61-.32,1.2-1.02,1.55v.03c.68.26,1.29.84,1.29,1.75,0,1.28-1.07,2.13-2.71,2.13-1.79,0-2.61-1.01-2.61-1.96ZM331.45,130.03c0-.62-.46-.98-1.1-1.16-.54.15-.85.54-.85,1.05-.01.51.38.98,1,.98.58,0,.96-.38.96-.88ZM329.6,126.69c0,.48.43.78,1,.95.38-.11.71-.45.71-.9s-.25-.87-.85-.87c-.56,0-.86.37-.86.81Z"/>
      <path class="st18" d="M338.58,149.23c0,4.37-3.54,7.91-7.91,7.91s-7.91-3.54-7.91-7.91,3.54-7.91,7.91-7.91,7.91,3.54,7.91,7.91"/>
      <path class="st16" d="M328.45,151.24c.21.02.39.02.71,0,.5-.03,1.01-.17,1.38-.43.45-.31.76-.77.89-1.3h-.03c-.31.31-.77.5-1.41.5-1.19,0-2.2-.83-2.2-2.2s1.1-2.53,2.65-2.53c1.81,0,2.66,1.38,2.66,3.03,0,1.46-.47,2.53-1.23,3.23-.67.61-1.59.94-2.68.98-.28.02-.56.01-.75,0v-1.29ZM329.44,147.71c0,.61.33,1.13,1,1.13.44,0,.76-.22.91-.47.05-.1.09-.21.09-.41,0-.75-.28-1.48-1.03-1.48-.56,0-.97.5-.96,1.23Z"/>
      <path class="st18" d="M180.98,43.28c0,4.17-3.38,7.55-7.55,7.55s-7.55-3.38-7.55-7.55,3.38-7.55,7.55-7.55,7.55,3.38,7.55,7.55"/>
      <g>
        <path class="st16" d="M170,41.02h-.02l-1.28.61-.26-1.18,1.78-.83h1.3v6.71h-1.52v-5.32Z"/>
        <path class="st16" d="M178.28,42.95c0,2.08-.84,3.5-2.55,3.5s-2.5-1.56-2.51-3.46c0-1.94.83-3.48,2.56-3.48s2.5,1.6,2.5,3.44ZM174.8,42.99c-.01,1.54.36,2.27.97,2.27s.94-.76.94-2.29-.32-2.27-.95-2.27c-.58,0-.97.73-.96,2.29Z"/>
      </g>
      <path class="st18" d="M167.17,71.93c0,4.17-3.38,7.55-7.55,7.55s-7.55-3.38-7.55-7.55,3.38-7.55,7.55-7.55,7.55,3.38,7.55,7.55"/>
      <g>
        <path class="st16" d="M156.65,69.67h-.02l-1.28.61-.26-1.18,1.78-.83h1.3v6.71h-1.52v-5.32Z"/>
        <path class="st16" d="M161.5,69.67h-.02l-1.28.61-.26-1.18,1.78-.83h1.3v6.71h-1.52v-5.32Z"/>
      </g>
      <path class="st23" d="M238.52,98.07c0,4.29-3.48,7.78-7.78,7.78s-7.78-3.48-7.78-7.78,3.48-7.78,7.78-7.78,7.78,3.48,7.78,7.78"/>
      <g>
        <path class="st16" d="M227.15,95.73h-.02l-1.32.63-.27-1.21,1.83-.85h1.34v6.91h-1.56v-5.48Z"/>
        <path class="st16" d="M230.38,101.21v-.98l.89-.81c1.51-1.35,2.24-2.13,2.27-2.94,0-.56-.34-1.01-1.14-1.01-.59,0-1.12.3-1.48.57l-.46-1.16c.52-.39,1.33-.71,2.27-.71,1.56,0,2.42.91,2.42,2.17,0,1.16-.84,2.08-1.84,2.98l-.64.53v.02h2.61v1.33h-4.9Z"/>
      </g>
      <path class="st23" d="M238.52,119.53c0,4.29-3.48,7.78-7.78,7.78s-7.78-3.48-7.78-7.78,3.48-7.78,7.78-7.78,7.78,3.48,7.78,7.78"/>
      <g>
        <path class="st16" d="M227.15,117.2h-.02l-1.32.63-.27-1.21,1.83-.85h1.34v6.91h-1.56v-5.48Z"/>
        <path class="st16" d="M230.66,121.09c.29.15.95.43,1.61.43.84,0,1.27-.4,1.27-.93,0-.68-.68-.99-1.39-.99h-.66v-1.16h.63c.54-.01,1.23-.21,1.23-.8,0-.41-.34-.72-1.02-.72-.56,0-1.16.24-1.45.42l-.33-1.17c.42-.27,1.25-.52,2.14-.52,1.48,0,2.3.78,2.3,1.72,0,.73-.42,1.31-1.27,1.61v.02c.83.15,1.5.78,1.5,1.68,0,1.22-1.07,2.12-2.83,2.12-.89,0-1.65-.23-2.05-.49l.33-1.21Z"/>
      </g>
      <path class="st23" d="M206.37,126.03c0,4.47-3.62,8.09-8.09,8.09s-8.09-3.62-8.09-8.09,3.62-8.09,8.09-8.09,8.09,3.62,8.09,8.09"/>
      <g>
        <path class="st16" d="M194.55,123.6h-.02l-1.37.65-.28-1.26,1.9-.89h1.39v7.19h-1.63v-5.7Z"/>
        <path class="st16" d="M200.87,129.3v-1.71h-3.19v-1.1l2.72-4.38h2.06v4.21h.86v1.26h-.86v1.71h-1.59ZM200.87,126.32v-1.59c0-.43.02-.87.06-1.34h-.04c-.23.46-.42.88-.66,1.34l-.96,1.57v.02h1.62Z"/>
      </g>
      <path class="st23" d="M206.37,146.16c0,4.46-3.62,8.08-8.09,8.08s-8.09-3.62-8.09-8.08,3.62-8.09,8.09-8.09,8.09,3.62,8.09,8.09"/>
      <g>
        <path class="st16" d="M194.55,143.73h-.02l-1.37.65-.28-1.26,1.9-.89h1.39v7.19h-1.63v-5.7Z"/>
        <path class="st16" d="M202.71,143.62h-2.79l-.15,1.11c.15-.02.29-.02.46-.02.69,0,1.38.15,1.89.52.54.36.87.96.87,1.8,0,1.34-1.15,2.52-3.09,2.52-.87,0-1.6-.2-2-.41l.3-1.26c.32.15.97.35,1.63.35.7,0,1.44-.33,1.44-1.1s-.59-1.19-2.02-1.19c-.4,0-.67.02-.97.07l.48-3.77h3.96v1.38Z"/>
      </g>
      <path class="st23" d="M70.81,142.78c0,4.35-3.52,7.87-7.87,7.87s-7.87-3.52-7.87-7.87,3.52-7.87,7.87-7.87,7.87,3.52,7.87,7.87"/>
      <g>
        <path class="st16" d="M59.3,140.41h-.02l-1.34.64-.27-1.23,1.85-.86h1.36v7h-1.58v-5.55Z"/>
        <path class="st16" d="M67.18,140.12c-.18-.01-.38,0-.64.02-1.45.12-2.1.86-2.28,1.68h.03c.34-.36.83-.56,1.49-.56,1.17,0,2.17.83,2.17,2.28s-1.07,2.53-2.59,2.53c-1.86,0-2.78-1.39-2.78-3.06,0-1.31.48-2.41,1.24-3.11.7-.64,1.6-.98,2.7-1.03.3-.02.5-.02.66-.01v1.26ZM66.28,143.63c0-.65-.34-1.21-1.04-1.21-.44,0-.81.27-.97.62-.04.09-.06.22-.06.41.03.74.39,1.41,1.13,1.41.58,0,.95-.53.95-1.24Z"/>
      </g>
      <path class="st18" d="M272.96,116.5c0,4.13-3.35,7.48-7.48,7.48s-7.48-3.35-7.48-7.48,3.35-7.48,7.48-7.48,7.48,3.35,7.48,7.48"/>
      <path class="st16" d="M267.66,112.87v.98l-2.74,5.67h-1.65l2.74-5.35v-.02h-3.05v-1.28h4.7Z"/>
      <path class="st18" d="M272.96,95.11c0,4.13-3.35,7.48-7.48,7.48s-7.48-3.35-7.48-7.48,3.35-7.48,7.48-7.48,7.48,3.35,7.48,7.48"/>
      <path class="st16" d="M267.14,92.59c-.17-.01-.36,0-.6.02-1.38.11-2,.82-2.17,1.6h.03c.33-.34.79-.53,1.41-.53,1.12,0,2.06.79,2.06,2.17s-1.01,2.41-2.46,2.41c-1.77,0-2.64-1.32-2.64-2.91,0-1.25.46-2.29,1.18-2.96.67-.6,1.53-.93,2.57-.98.29-.02.47-.02.62-.01v1.2ZM266.29,95.93c0-.61-.33-1.15-.99-1.15-.42,0-.77.26-.92.59-.04.08-.06.21-.06.39.03.71.37,1.34,1.08,1.34.55,0,.9-.5.9-1.18Z"/>
      <path class="st17" d="M273.44,26.88c0,4.26-3.45,7.72-7.72,7.72s-7.72-3.46-7.72-7.72,3.45-7.72,7.72-7.72,7.72,3.46,7.72,7.72"/>
      <path class="st16" d="M265.89,30v-1.64h-3.04v-1.05l2.6-4.18h1.96v4.02h.82v1.2h-.82v1.64h-1.52ZM265.89,27.16v-1.52c0-.41.02-.83.05-1.28h-.04c-.22.44-.4.84-.63,1.28l-.92,1.5v.02h1.54Z"/>
    </g>
  </g>
</svg>