<?xml version="1.0" encoding="UTF-8"?><svg id="Layer_1" xmlns="http://www.w3.org/2000/svg" viewBox="0 0 34.92 34.92"><defs><style>.cls-1{fill:#00a796;}.cls-1,.cls-2{stroke-width:0px;}.cls-2{fill:#fff;}</style></defs><path class="cls-1" d="M17.46,34.92c9.64,0,17.46-7.82,17.46-17.46S27.1,0,17.46,0,0,7.82,0,17.46s7.82,17.46,17.46,17.46"/><path class="cls-2" d="M17.38,6.59c.34.05.68.09,1.02.16,3.46.77,5.71,2.86,6.75,6.24.2.66.29,1.34.31,2.03,0,.13.03.27.07.39.43,1.41.86,2.82,1.3,4.23.1.31.08.59-.12.84-.17.22-.4.33-.68.33h-1.47c0,.09,0,.18,0,.26-.01.69.03,1.38-.04,2.06-.14,1.38-1.37,2.46-2.76,2.48-.78.01-1.57,0-2.35,0-.15,0-.22.04-.26.19-.19.69-.39,1.37-.58,2.06-.06.2-.15.36-.32.47h-.25c-.31-.19-.35-.32-.25-.67.19-.67.38-1.34.58-2.02-.32-.05-.64-.09-.94-.16-.83-.19-1.54-.59-2.15-1.18-.22-.21-.23-.49-.03-.67.19-.16.41-.14.62.07.49.47,1.06.8,1.73.95.29.07.6.11.9.11,1.06.01,2.12,0,3.19,0,1.19,0,2.07-.88,2.08-2.08,0-.74,0-1.47,0-2.21,0-.35.15-.51.5-.51.59,0,1.19,0,1.81,0-.02-.07-.02-.13-.04-.19-.42-1.37-.85-2.74-1.25-4.12-.11-.39-.1-.82-.16-1.23-.38-2.81-1.82-4.9-4.35-6.16-2.46-1.23-4.94-1.1-7.36.2-.04.02-.07.04-.11.06-.24.13-.49.07-.61-.14-.12-.21-.06-.47.19-.59.45-.23.91-.46,1.38-.65.74-.3,1.51-.46,2.31-.52.05,0,.09-.02.14-.03h1.23Z"/><path class="cls-2" d="M9.39,28.33c-.3-.19-.35-.3-.26-.65.25-1.05.52-2.08.73-3.14.28-1.47.06-2.89-.58-4.23-.56-1.16-.96-2.37-1.13-3.65-.29-2.15.09-4.15,1.23-6,.18-.29.5-.35.71-.13.15.16.16.34.01.58-.46.74-.8,1.54-.99,2.4-.39,1.71-.19,3.37.35,5.01.12.36.25.72.43,1.06,1,1.95,1.19,3.98.62,6.09-.2.72-.36,1.45-.53,2.18-.05.21-.14.36-.31.47h-.25Z"/><path class="cls-2" d="M16.76,13.81c-.23,0-.44.19-.44.42,0,.24.2.45.44.45.23,0,.43-.2.43-.43,0-.23-.2-.43-.43-.44M15.64,20h2.23v-1.08h-2.24c0,.33,0,.65,0,.97,0,.03,0,.07,0,.11M17.91,18.05c.18-.67.36-1.01.73-1.38.14-.14.31-.27.45-.42,1-1.01,1.23-2.59.55-3.85-.68-1.26-2.11-1.95-3.51-1.67-1.3.26-2.18,1.03-2.53,2.31-.36,1.32-.01,2.46,1.01,3.38.36.33.68.68.84,1.15.06.15.09.31.14.47h.73c0-.83,0-1.65,0-2.48,0-.06-.08-.14-.15-.17-.55-.3-.81-.87-.66-1.47.14-.56.66-.97,1.25-.97.58,0,1.1.4,1.24.97.15.58-.12,1.18-.67,1.46-.12.06-.16.13-.16.26,0,.74,0,1.47,0,2.21,0,.06,0,.12.01.19h.73ZM16.75,20.87h-1.4c-.45,0-.57-.12-.57-.56,0-.57,0-1.13,0-1.7,0-.62-.23-1.11-.7-1.52-1.27-1.12-1.72-2.55-1.31-4.18.4-1.6,1.46-2.6,3.07-2.98,1.83-.43,3.74.47,4.59,2.15.85,1.67.48,3.72-.94,4.96-.53.46-.79,1-.76,1.71.02.54,0,1.08,0,1.61,0,.36-.15.51-.52.51-.49,0-.98,0-1.46,0"/><path class="cls-2" d="M11.4,9.34c0,.23-.18.42-.41.43-.23,0-.44-.2-.43-.43,0-.23.2-.42.43-.41.23,0,.41.18.42.42"/></svg>