<?xml version="1.0" encoding="UTF-8"?><svg id="Layer_1" xmlns="http://www.w3.org/2000/svg" viewBox="0 0 34.92 34.92"><defs><style>.cls-1{fill:#00a796;}.cls-1,.cls-2{stroke-width:0px;}.cls-2{fill:#fff;}</style></defs><path class="cls-1" d="M17.46,34.92c9.64,0,17.46-7.82,17.46-17.46S27.1,0,17.46,0,0,7.82,0,17.46s7.82,17.46,17.46,17.46"/><path class="cls-2" d="M21.97,11.63s-.05.05-.06.06c-.77,1.14-1.54,2.27-2.3,3.42-.35.53-.47,1.14-.41,1.77.12,1.15.96,2.11,2.07,2.38,1.13.29,2.29-.15,2.96-1.1.67-.95.67-2.18.02-3.15-.39-.58-.78-1.16-1.17-1.73-.37-.54-.73-1.09-1.11-1.65M16.89,8.29c-.05.07-.1.13-.14.19-1.77,2.63-3.54,5.27-5.32,7.89-1.05,1.54-1.45,3.21-1.14,5.04.59,3.5,3.92,5.96,7.42,5.49,2.73-.36,4.93-2.29,5.65-4.94.19-.7.26-1.42.2-2.17-.08.03-.15.06-.22.08-1.47.62-3.15.2-4.17-1.04-1-1.22-1.08-2.95-.19-4.27.32-.47.63-.95.96-1.41.09-.12.08-.21,0-.34-.99-1.45-1.97-2.91-2.95-4.37-.04-.05-.08-.11-.12-.17M16.38,27.77c-.39-.06-.79-.1-1.17-.2-2.97-.77-4.88-2.64-5.62-5.61-.54-2.18-.08-4.2,1.19-6.06,1.91-2.8,3.79-5.61,5.68-8.42.08-.12.21-.21.32-.32h.24c.11.12.23.22.32.35,1.03,1.53,2.06,3.06,3.09,4.58.04.05.08.11.13.18.3-.44.58-.87.87-1.29.06-.09.12-.18.18-.27.21-.29.52-.28.72.02.4.59.8,1.19,1.2,1.78.47.69.93,1.38,1.39,2.07.96,1.43.79,3.3-.42,4.52-.13.13-.17.25-.15.42.22,2.9-.86,5.21-3.21,6.91-1.06.77-2.27,1.19-3.58,1.3-.04,0-.09.02-.13.03h-1.05Z"/><path class="cls-2" d="M12.47,16.86c.14.11.27.17.35.27.11.14.06.3-.02.45-.22.4-.48.78-.63,1.2-.89,2.46.37,5.12,2.82,6.03.08.03.15.05.23.08.23.1.33.3.25.52-.08.21-.3.33-.52.23-.49-.22-1.01-.42-1.45-.72-2.56-1.74-3.18-5.27-1.38-7.76.08-.11.22-.19.36-.31"/><path class="cls-2" d="M16.33,26c-.23,0-.4-.17-.4-.41,0-.22.18-.39.4-.39.22,0,.4.18.41.39,0,.22-.18.41-.4.41"/><path class="cls-2" d="M19.73,16.37c.04-.15.1-.45.19-.73.08-.24.31-.33.52-.25.21.08.3.29.23.53-.24.76-.11,1.2.5,1.73.19.16.23.39.09.57-.13.18-.37.22-.57.07-.61-.43-.92-1.03-.95-1.92"/><path class="cls-2" d="M22.38,18.34c0,.22-.19.41-.42.4-.21,0-.39-.19-.39-.41,0-.22.17-.39.39-.4.23,0,.41.18.41.4"/></svg>