<?xml version="1.0" encoding="UTF-8"?><svg id="Layer_1" xmlns="http://www.w3.org/2000/svg" viewBox="0 0 34.92 34.92"><defs><style>.cls-1{fill:#00a796;}.cls-1,.cls-2{stroke-width:0px;}.cls-2{fill:#fff;}</style></defs><path class="cls-1" d="M17.46,34.92c9.64,0,17.46-7.82,17.46-17.46S27.1,0,17.46,0,0,7.82,0,17.46s7.82,17.46,17.46,17.46"/><path class="cls-2" d="M10.92,12.08c-1.22-.41-2.46-.53-3.7-.64v7.41h1.99c.67-2.22,1.35-4.43,1.72-6.77M27.71,12.34c-1.53.05-3,.24-4.45.71.07.16.13.29.19.43.84,2.01,1.56,4.06,2.22,6.13.05.14.1.19.26.19.53,0,1.06,0,1.6,0,.06,0,.12-.01.19-.02v-7.43ZM23.67,19.6c.26-.17.51-.33.75-.51.04-.03.07-.14.05-.2-.55-1.52-1.1-3.05-1.67-4.57-.03-.07-.1-.14-.17-.17-1.25-.51-2.51-1-3.76-1.52-.93-.39-1.81-.34-2.6.32-.44.36-.86.74-1.25,1.15-.41.43-.72.93-.85,1.53-.06.29,0,.4.29.47.17.04.36.07.54.05.48-.04.79-.36,1.07-.72.09-.11.19-.24.32-.28.45-.17.91-.3,1.36-.46.21-.07.38-.02.54.12.77.66,1.54,1.32,2.31,1.96,1.06.89,2.17,1.72,3.07,2.82M19.74,22.83c-.42-.43-.8-.83-1.17-1.22-.31-.32-.61-.64-.92-.96-.23-.25-.25-.52-.05-.71.21-.2.48-.17.73.08.1.1.2.21.3.32.61.61,1.21,1.22,1.83,1.81.3.28.76.24,1.05-.06.12-.12.14-.21,0-.36-.83-.82-1.64-1.65-2.46-2.48-.24-.24-.25-.51-.05-.71.2-.2.47-.18.71.06.22.22.43.45.65.67.63.63,1.27,1.27,1.9,1.9.13.13.27.19.45.13.37-.11.55-.48.38-.83-.07-.15-.17-.29-.28-.42-.26-.29-.52-.59-.82-.85-1.36-1.16-2.74-2.31-4.11-3.46-.04-.04-.15-.03-.21-.01-.23.08-.44.18-.67.25-.16.04-.27.11-.37.23-.65.75-1.46,1.06-2.44.8-.74-.2-1.09-.77-.95-1.52.11-.56.37-1.05.69-1.51.17-.24.35-.46.54-.7h-2.76c-.43,1.58-.85,3.12-1.26,4.68-.02.08-.01.2.04.25.55.57,1.07,1.18,1.68,1.68,1.31,1.08,2.67,2.12,4.03,3.15.28.21.63.32.96.44.14.05.31.04.52.06-.08-.09-.11-.13-.15-.17-.44-.45-.88-.89-1.32-1.34-.17-.18-.35-.36-.51-.54-.14-.17-.15-.36-.04-.55.1-.17.32-.27.51-.19.12.04.22.14.31.23.73.72,1.45,1.45,2.19,2.17.22.22.43.23.69.05.14-.1.26-.25.37-.36M6.27,10.82c.1-.21.25-.36.5-.35,1.36.1,2.73.21,4.05.61.25.08.49.19.72.31.27.14.38.37.31.68-.02.08-.02.16-.03.27h.23c1.1,0,2.2,0,3.3,0,.12,0,.26-.05.35-.12.7-.51,1.45-.83,2.34-.74.55.06,1.06.25,1.56.46.78.33,1.56.65,2.34.96.07.03.14.05.21.07,0-.43.07-.53.47-.68,1.25-.48,2.55-.71,3.87-.82.51-.04,1.02-.05,1.53-.08.29-.02.51.07.64.34v8.65c-.13.26-.34.35-.62.34-.82,0-1.63,0-2.45,0-.46,0-.56-.07-.7-.52-.02-.07-.05-.13-.08-.24-.23.16-.46.3-.67.46-.03.02-.04.1-.04.15.04.9-.53,1.56-1.43,1.68-.08.01-.19.07-.23.14-.41.64-1,.91-1.74.86-.11,0-.17,0-.22.11-.38.66-1.21,1.05-1.88.81-.04-.01-.1,0-.14.02-.54.34-1.1.31-1.68.15-.6-.16-1.1-.49-1.58-.87-1.15-.9-2.32-1.79-3.44-2.72-.56-.47-1.06-1.02-1.58-1.54-.02-.02-.04-.04-.09-.08-.04.11-.07.21-.1.31-.08.21-.23.34-.46.34-.93,0-1.85,0-2.77,0-.24,0-.36-.14-.48-.32v-8.65Z"/></svg>